<?xml version="1.0" encoding="utf-8"?>
<!-- Generator: Adobe Illustrator 20.1.0, SVG Export Plug-In . SVG Version: 6.00 Build 0)  -->
<!DOCTYPE svg PUBLIC "-//W3C//DTD SVG 1.1//EN" "http://www.w3.org/Graphics/SVG/1.1/DTD/svg11.dtd">
<svg version="1.1" id="Layer_5" xmlns="http://www.w3.org/2000/svg" xmlns:xlink="http://www.w3.org/1999/xlink" x="0px" y="0px"
	 viewBox="0 0 360 360" style="enable-background:new 0 0 360 360;" xml:space="preserve">
<style type="text/css">
	.st0{fill:none;}
	.st1{fill:#FFFFFF;}
	.st2{fill:none;stroke:#FFFFFF;stroke-width:0;stroke-linecap:round;stroke-linejoin:round;}
</style>
<g>
	<path d="M174.9,105.4c0.6-0.3,1.4-0.7,1.7-1C176.2,104.6,175.5,105,174.9,105.4C174.8,105.3,174.9,105.3,174.9,105.4z"/>
	<path d="M171.4,119.5c-0.7,0.3-1.4,0.5-1.9,0.6c-0.1,0.1-0.2,0.2-0.4,0.3c0,0-0.5,0.2-1.3,0.5c1.7,0,3.3,0.3,4.2,0.5
		c0.1,0,0.2,0,0.3,0C171.5,119.5,172.1,119.5,171.4,119.5z"/>
	<path class="st0" d="M170.9,265c-1.6-0.3-2.4-0.4-2.9-0.4c0.6,0.6,0.9,0.7,1.2,0.8c2.5,1,6.8,2.5,1.3,1.3c0.1,0.2,0.3,0.3,0.4,0.5
		c1.6,0.5,3.5,1.1,4.7,1.5c-1-1-2.2-2.2-3.4-3.4C171.8,265.2,171.4,265.1,170.9,265z"/>
	<path class="st0" d="M140.2,243.2c-0.7-0.3-1.6-0.8-2.4-1.2c0.4,0.4,0.7,0.8,1.1,1.3C140.1,243.4,141.1,243.5,140.2,243.2z"/>
	<path class="st0" d="M163.2,256.6c0.4,0,0.7,0.1,1.1,0.1c-0.3-0.3-0.5-0.6-0.8-0.9c-0.3,0-0.6,0-1,0
		C162.9,256.2,163.1,256.4,163.2,256.6z"/>
	<path class="st0" d="M164.8,257.3C164.8,257.3,164.7,257.2,164.8,257.3c-0.5-0.1-1-0.1-1.7-0.1c0,0,0,0,0,0c-0.1,0-0.5,0.1,0.2,1
		c0.8,1.1,0.5,0.5,1.3,2.2c0.1,0.1,0.1,0.3,0.2,0.4c1.5,0.4,2.9,0.7,3.9,1C167.3,260.3,165.9,258.8,164.8,257.3z"/>
	<path class="st0" d="M167.5,262.6c-0.4,0-0.8,0-1.1,0c0.4,0.3,0.3,0.5,0.9,1.2c1.4,0.4,3.3,0.9,4.7,1.2c-0.8-0.8-1.7-1.7-2.5-2.5
		C169.1,262.6,168.4,262.6,167.5,262.6z"/>
	<path class="st0" d="M172.4,268.9c0.1,0.1,0.2,0.2,0.3,0.3c0.9,0.4,3.4,1.2,5,1.8c-0.4-0.5-0.9-1.1-1.5-1.7c-0.3,0-0.8-0.1-1.5-0.2
		C173.2,268.8,172.5,268.8,172.4,268.9z"/>
	<path class="st1" d="M178.7,273.7c-0.2-0.1-0.5-0.1-0.7-0.2C178.3,273.6,178.6,273.6,178.7,273.7z"/>
	<path class="st0" d="M135.3,239.6c0.1,0,0.1,0,0.2,0.1c2.9,1.1-0.6-0.8,2.1,0s1.6,1.1,2.7,0.8c1.1-0.3,0,0.3,1.1-0.3
		c1.1-0.5-0.8-1.3,1.1-0.5s1.9,0.8,1.9,0.8l1.9,1.3c0,0,0.8-0.5,1.9,0.5s1.1-1.1,1.1,1.1s-0.1,2.8,0.5,3.5c1.9,1.9,1.9,1.9,1.9,1.9
		s3,1.6,3.8,2.7c0.4,0.5,0.2,1,0.2,1.4c2.8,0.3,4.3,0.6,0.9,1c1.8,0.4,1.8,0.4,1.8,0.4s0,0,0,0c-0.1,0-0.1,0-0.1,0
		c-0.1,0-0.2,0-0.4-0.1c-0.2,0-0.4-0.1-0.5-0.1c0,0-0.1,0-0.1,0c-0.1,0-0.1,0,0,0c0,0,0,0,0.1,0c0.1,0,0.3,0.1,0.5,0.1
		c0.1,0,0.2,0,0.4,0.1c0.1,0,0.1,0,0.1,0c0,0,0,0,0,0c2.7,0.5-0.8-1.6,2.7,0.5c0.3,0.2,0.5,0.3,0.8,0.5c0.5,0.1,1,0.1,1.5,0.2
		c-4.7-5-11.3-9.4-12.3-12.4c-1.1-3.4-2.6-10.1-5.5-10.7c-2.9-0.6-9.6-2.3-11.8-4c-1.5-1.2-2.6-3.5-3.5-6.3
		c-1.3,1.3-2.9,2.8-4.4,4.1c-0.7,3.2-2,5.6-0.2,7.7c2.9,3.4,4.3,4.2,7.7,4.8C133.8,238.7,134.5,239.1,135.3,239.6z"/>
	<path class="st0" d="M178.1,271.4c-0.4-0.1-0.8-0.2-1.4-0.3c-0.8-0.2-1.3-0.3-1.8-0.3c0.5,0.4,0.6,0.7,0.7,1c1.4,0.6,3.2,1.4,4,1.8
		c0-0.1,0.1-0.1,0-0.2c-0.4-0.4-0.7-0.7-0.8-1C178.6,272.1,178.4,271.8,178.1,271.4z"/>
	<path d="M193.4,97.7c-0.1-0.1-0.2-0.1-0.3-0.2C193.2,97.5,193.3,97.6,193.4,97.7z"/>
	<path d="M194.1,98.1c-0.1-0.1-0.2-0.2-0.4-0.2C193.9,98,194.1,98.1,194.1,98.1z"/>
	<path d="M193.1,97.5C193,97.4,193,97.4,193.1,97.5C193,97.4,193,97.4,193.1,97.5z"/>
	<path class="st1" d="M192.9,99.8c0,0,0.1,0.1,0.1,0.1C193,99.8,193,99.8,192.9,99.8z"/>
	<path class="st1" d="M192.9,99.7C192.9,99.7,192.9,99.7,192.9,99.7C192.9,99.7,192.9,99.7,192.9,99.7z"/>
	<path class="st1" d="M193,99.9C193,99.9,193,99.9,193,99.9C193,99.9,193,99.9,193,99.9z"/>
	<path class="st1" d="M192.9,99.7C192.9,99.7,192.9,99.7,192.9,99.7C192.9,99.7,192.9,99.7,192.9,99.7z"/>
	<path class="st1" d="M193.4,100.4C193.4,100.5,193.4,100.5,193.4,100.4L193.4,100.4z"/>
	<path class="st1" d="M193,99.9c0.1,0.2,0.2,0.3,0.2,0.4C193.2,100.2,193.1,100,193,99.9z"/>
	<path class="st1" d="M193.3,100.3c0,0.1,0.1,0.1,0.1,0.1C193.4,100.4,193.3,100.4,193.3,100.3z"/>
	<path class="st2" d="M188,99C188,99,188,99,188,99"/>
	<path class="st1" d="M150,174.1c-0.4-0.8-0.3-0.7-0.6-0.8C149.5,175,150.6,175.4,150,174.1z"/>
	<path d="M158.2,254.2C158.2,254.2,158.2,254.2,158.2,254.2C158.2,254.2,158.2,254.2,158.2,254.2z"/>
	<path d="M158.2,254.2c0,0-0.1,0-0.1,0C158.1,254.2,158.1,254.2,158.2,254.2z"/>
	<path d="M158,254.2c-0.1,0-0.3-0.1-0.4-0.1C157.8,254.1,157.9,254.1,158,254.2z"/>
	<path d="M157.7,254.1c-0.3-0.1-0.4-0.1-0.5-0.1C157.3,254,157.5,254.1,157.7,254.1z"/>
	<path d="M157.1,254C157,254,157,254,157.1,254L157.1,254z"/>
	<path d="M157.1,254C157.1,254,157.1,254,157.1,254C157.1,254,157.1,254,157.1,254z"/>
	<path d="M133.7,148.5C134.7,147.6,130.1,148.9,133.7,148.5L133.7,148.5z"/>
	<path class="st0" d="M106.9,194.7c4.2,0.4,7.3,0.4,9.3-3.4c2.1-3.8,0.7-6.5-1.1-7.1c-1.8-0.5-4.3-0.9-5.3-0.3
		c-1.8,1.2-5.3,5.2-5.7,6.9C103.7,192.8,103.9,194.4,106.9,194.7z"/>
	<path class="st1" d="M253.7,115.9c0,0,1.1,4.2,1.9,8c-0.8-6.4-2.1-11.5-4-13.9c-0.7-0.9-1.5-1.6-2.4-2.2c2.7,2.9,3.6,4,4.4,8
		L253.7,115.9z"/>
	<path class="st1" d="M256.7,144.8c0-2.2,0-4.4-0.1-6.6C256.6,141.1,256.6,143.7,256.7,144.8z"/>
	<path class="st1" d="M256.5,156.5c-0.2,2.8-0.3,5.4-0.4,7.1C256.2,161.3,256.4,158.9,256.5,156.5z"/>
	<path class="st1" d="M239.7,255.4c-0.3,3.5-0.7,7.4-1.1,10.8c0.6-3.2,1.2-6.9,1.7-11.2c0.1-0.9,0.2-1.8,0.4-2.7
		c-0.3,1.9-0.5,3.1-0.5,3.1L239.7,255.4z"/>
	<path class="st1" d="M225.5,288.5c3.2,0,6.7-0.6,9.9-9.6c-1.5,3.5-3.4,5.9-4.7,7.5C229.2,288,227.3,288.4,225.5,288.5z"/>
	<path class="st1" d="M244.7,225.1c0.4-2.5,0.8-4.8,1.2-7.1c-0.2,1.2-0.4,2-0.5,2.5C245.4,221.1,245.1,222.8,244.7,225.1z"/>
	<path class="st1" d="M254.4,177.1c0.6-2.9,1.1-6.7,1.5-10.9c-0.5,3.8-1.8,12-2.6,16.6C253.6,180.9,254,179,254.4,177.1z"/>
	<path class="st1" d="M219.2,290.1c0,0.1,0,0.1,0,0.2c0.6-0.7,1.3-1.3,2.4-1.6c0.8-0.2,1.6-0.2,2.5-0.2c-0.3,0-0.6-0.1-0.9-0.1
		C221.3,288.1,219.4,289.8,219.2,290.1z"/>
	<path class="st1" d="M209.2,292c0,0-0.4-0.1-0.9-0.2c0.6,0.3,1.3,0.7,1.9,0.9c0.7,0.3,1.4,0.6,2,0.8L209.2,292z"/>
	<path class="st1" d="M203.7,274.2C203.7,274.2,203.7,274.2,203.7,274.2C203.8,274.3,203.8,274.3,203.7,274.2z"/>
	<path class="st1" d="M203.7,274.2c-0.1-0.1-0.4-0.3-0.8-0.6C203.7,274.4,203.5,274.3,203.7,274.2z"/>
	<path class="st0" d="M216,113.2c-5.2,5.2-24.4,7.8-34.8,8.3c-2,0.1-3.8,0.2-5.4,0.5c-0.5-0.1-1.1-0.1-1.6-0.2
		c0.4-0.9,0.9-1.9,1.6-2.8c0.7-0.9,3.4-0.2,3.4-0.2l-1.5-0.7l-0.9-3.4l0.3-3.7c0,0,3.7-1.2,6.5-2.8s7.2-1.9,7.2-1.9s2.8,1.9,4.4,4
		c1.1,1.5,2.6,4.8,3.4,6.8c0.8-0.3,0.7-0.7,2.1-1.3c2.4-1.2,1.8-0.6,3-0.9c0.9-0.2,1.3-0.5,3-1.3l-0.9-1.1c0,0-2-3.9-4.3-6.5
		c0.8-0.5,1.8-1,2.8-0.9c1.8,0.3,1.5-0.3,3.4,1.8c1.8,2.1,4,5.2,4,5.2s2.8-0.9,3.4-2.1l2.4-2.8c0,0-4.3-4-9.2-5.8
		c-2.9-1.1-2.8-2.1-5.8,0c-1,0.7-2.6,1.5-4.4,2.4c-2.7-0.4-4.1-2.1-4.1-2.1c-0.9-2.1-0.9-2.1-0.9-2.1c-0.6-0.9-0.6-1.2-0.6-1.3
		c1.8-0.3,1.8-0.3,1.8-0.3s-0.2-0.1-0.4-0.2c0.1,0.1,0.2,0.1,0.4,0.2c2.8,1.8,4,2.8,4,2.8l3.1-1.2l-3.7-3.1c0,0-4.6-2.8-7.6-2.8
		c-1.5,0-3.5,0.5-5.2,0.9c-0.7-0.7-1.7-2.3-2.7-3c0.4-0.2,0.7-0.3,0.7-0.3s1.9-1.2,0.2-1.6c-1.6-0.5,0.5,0.2-1.6-0.5
		c-2.1-0.7-0.2-0.2-2.1-0.7s-2.3-0.2-3-0.2c-0.7,0-1.9-0.9-1.9-0.9c0.5-1.6,0.2-1.4,0.2-1.4s-1.9-1.2-3-0.2s-1.9,2.1-1.9,2.1
		s-0.7,2.1-2.3,2.6c-1.6,0.5-3.3,0.9-4.2,2.1c-0.9,1.2-2.6,3.8-2.6,3.8l3-0.7c0,0,4.5-0.9,8.4-1.4c0.7-1.7,0-3.8,0-3.8l2.1-0.5
		l2.8,0.4l0.3,4.4c0,0,1.6,1.9,3.2,2.5c1.6,0.6,6.3,7.3,6.3,7.3l-3.6,0.9c0.1,0.1,0.1,0.1,0.1,0.2c-1.8,0.6-4,1.3-6.2,1.9
		c-0.6-0.7-1.1-1.3-1.7-1.9c0.7-0.2,1.5-0.5,2.4-0.7l-1.5-2.4c0,0-1.1-3.2-2-4.1c-0.5-0.5-1.2-1.2-1.7-1.9c-1.1,0.3-2.1,0.5-2.8,0.7
		c-3.3,1-5.3,1-7.2,1.8c-1.3,0.6-1.5,0.6-1.9,0.8c-0.8,0-1.5,0-1.9,0c-1.7,0.2-2.4,0.3-3.1,0.9c0,0,0.7,0.5,1.4,0.5s1.4,0,1.4,0
		c-0.5,0.2-1.2,0.7-1.2,0.7l1,0.7c0,0,1.9,0.7,0.3,1c-1.5,0.3-0.7-0.2-1.5,0.3s0.3,0.3-0.9,0.5s1.2-0.3-1.2,0.2s-2.4,1.2-3.3,1.4
		c-0.9,0.2-1.2,0.2-2.1,0.5s0.9,0.5,1.5,0.3s2.8,0,2.8,0l-4.6,1.5c0,0,11-1.9,14.5-1.9c2.7,0,6,0.2,7.5,0.1c0.5,0.6,0.9,1.2,1.3,1.7
		c-6.2,1.1-15.1,2.2-15.1,2.2c-3,0.4-6,0.8-9.2,1.7l0.6,0.2c0,0-2.5,1.6-4.3,2.6c0,0.1,0,0.1,0.1,0.2c1.5-0.3,3.5-0.4,3.5-0.4
		l-3,1.7c0.3,0.8,0.4,1.4,0.4,1.4c2.4-0.4-7.7,2.8-10.4,4.1c-3.1,1.6-2.4,2.2,1.7,0.8c4-1.5,10.3-2.6,10.3-2.6
		c-5.1,1.5-6.2,2.6-9.9,4.4c-3.7,1.8-14.1,5.5-14.1,5.5c-1.3,0.4-3,2.1-5.1,3c-2.1,0.9-1.7,0.9-5.1,0.9c-3.4,0-10.3,0.3-10.3,0.3
		c-0.9-0.2-2,0-3.5,1c-0.1,0.1-0.2,0.3-0.2,0.5l-0.1,0c0,0,0,0.1,0,0.3c0.3,0.2,0.9,0.6,2.5,1.1c3.5,1.3,6.8,0.6,7.6,2.4
		c0.7,1.8,0,0.4,1.5,3.1c0.3-0.1,2.2,0.3,2.2,0.3s0.5,0,0.7,0s0.3-0.1,0.6-0.2c3.1-0.1,9.6-7.6,13.9-8c4.3-0.4,5.5-2.1,8.1-3.4
		c2.6-1.3,3-1.7,8.5-3.4c5.5-1.7,0,0,6,0c6,0,0,0,1.7-0.9c1.7-0.9,3-0.9,6.4-2.6c1.2-0.6,1.5-0.8,1.6-0.8c-0.5,0.5-1,1.2-1.3,1.9
		c-1.5,2.9-1.6,5.1-1.1,8.9c-3,1-7.2,2.2-10.8,2.4c-6.3,0.3-9.9-0.9-13.5,0.6c-0.1,0-0.2,0.1-0.3,0.1c-1.9,0.2-3.8,0.8-4.5,2.1
		c-0.4,0.1-0.8,0.2-1.1,0.5c0,0-4.4,3-3.7,6.1c0.2,0.7,0.3,1.2,0.4,1.7c0.2-0.1,0.4-0.2,0.7-0.2c1.9-0.6,1.3-1,3.6,0
		c2.3,1,0,0,2.3,1c2.3,1,2.3,0.6,3.6,1c1.3,0.3,2.6,1.9,1.3,0.3c-1.3-1.6-2.3-0.6-1.3-1.6c-3.6,0.3,1-1,0,0c3.6-0.3,1-1.3,3.6-0.3
		s1.3,0.3,2.6,1c1.3,0.6,1.7,0.8,2.6,1.3c1.9,1,4,1.7,4,1.7s-0.8,2.5-3.1,2.5c-0.5,0-0.8,0-0.9,0c-0.1,0-0.1,0-0.1,0
		c-0.1,0-0.5,0-1.3,0c-2.9,0-2.6-1.6-2,0.5c0.3,1,0.2,1.3,0,1.3c0.1,0.1,0.3,0.2,0.6,0.5c2,1.6,1.1,0.3,2,1.6c1,1.3,2.3,0.6,1.9,1.6
		c-0.2,0.6,1.5,1.6,2.1,2.1c1.8,0.1,5.1,0.6,2.1,0.8c-4.5,0.3,4.8,1.9,0,1.9c-4.8,0,1.9,1.3-1.6,1.3s2.9,1.6-0.6,1.3
		c-3.6-0.3-1.5-0.4-2.3,0.6c-1.9,2.6-0.2,3.5-1.3,3.9c-3.6,1.3-4.3,1.7-4.5,2.2c-0.3,0.8-0.3,1.2-0.3,1.5c0.4-0.4,0.6-0.5,0.1,0.2
		c0.2,0.3,0.4,0.2-0.8,1c-3.2,3.9-4.8,6.1-6.8,11c-0.2,0.5-0.4,1-0.5,1.4c0.7,2,0.2,2.3,1.4,4.7c1.3,2.7,3,4.7,3,4.7
		c4,3,4.7,4.7,4.7,4.7s2,0.3,2.4,2.4s-1.3,0,0.3,2c1,1.3,2.5,2.9,3.5,3.9c-0.8-0.2-0.1,2.9-0.1,2.9s0,0,0.4,1.2
		c-0.2,0.7-0.4,1.3-0.5,1.9c-0.5,0.6-0.8,1.2-0.5,1.8c0,0-0.2,4.4,1.7,8.2c0.9,1.1,1.9,1.6,4.8,3.2c3,1.6,1.3,1.7,3.7,1.6
		s1.9,0.5,3.5,0.2c1.6-0.3,1.6-0.3,1.6-0.3s4,0.8,1.6,1.1c-2.4,0.3-2.7,1.3-2.7,1.3c1.1,2.4,0.3,0.5,1.1,2.4
		c0.8,1.9,1.6,0.7,1.5,2.4c-0.1,1.7-2.3,0.8-0.1,1.7c2.2,0.8,2.7,1.6,3.2,2.4c0.5,0.8-0.3,0.8,0.3,2.2c0.5,1.3-0.5,2.7,1.1,3.5
		c1.6,0.8,1.6,1.1,2.2,1.9c0.5,0.8,2.7,1.1,2.7,1.1l0.5,3.2l1.1,2.4c1.9,0.3-1.1,0.3-3.5-1.9c1.4,1.6,2.7,3.2,3.9,4.6
		c4.8,5.5,14,14.3,14,14.3s2.2-3.7,0.7-4.8s-1.5-2.6-3.3-4.8c-1.8-2.2-1.8-2.2-4.8-5.9c-2.9-3.7,0,0-5.5-7.7c-5.5-7.7,2.6,4-4-4
		s4,4,4.8,3.3c0.7-0.7,0,0,7,8.4c7,8.4-4-7.7-14.7-20.2c-1.8-7.2,0.9-0.1-0.4-5.8c-1.3-5.7-1.3-4.7-1.3-7.1c0-2.4,0.3-1.7,0.3-3.7
		s-0.3-2.7-1-4.7c-0.7-2-0.3-2-1.7-3.4c-1.3-1.3-2-0.3-3.4-1.7c-1.3-1.3-2.7-3.7-2.7-3.7s-2.3-3.7-4.2-7c-0.2-0.8-0.5-1.6-0.9-2.5
		c-1.3-3-0.4-4.9-3.1-6.3c0.4-2.9-1.5-3.7-1.5-3.7s-1.1-0.1-2.2-0.7c0.9-1.1,2.6-1.9,1.6-4.8c-1.3-4-0.7,0-1.3-4c-0.7-4-1-2-0.7-4
		c0.3-2,1-2.4,1.3-3.4c0,0,1.3-2.4,2.7-1c0.8,0.8,1.2,1.1,1.4,1.2c0-0.2,0-0.3,0-0.5c0-3,0.3,1,0-3c-0.3-4,1.7,1.7,1-2.7
		c-0.7-4.4,1.7,2.7,0.7-2.7c-1-5.4,2,2.4,0.7-3.4c-0.3-1.3-0.5-2-0.6-2.3c0-0.3,0-0.7-0.1-1.4c-0.3-4.5-2.3-1.6-1.3-4.2
		c0.7-0.2,0.9-0.3,0.1-0.3c1.2-3.2,1.6-4.2,2.2-5.2c0.7-1,2-0.7,0.7-2.7c-1.2-1.9-0.1,0.3-1.8-1.2c0.9-0.6,1.2-1-0.5-0.5
		c-0.9-0.9-1.2-1.1-1.4-1.2l2-0.9c0,0,1.2,0.6,2.1,0c0.9-0.6,2.7-1.2,2.7-1.2l2.2-0.6c0.7,4.1,1.7,9.7,2.5,17.9
		c0.7,7.4,3.6,17.8,7.2,28.6c0.3,1.2,0.6,2.4,1,3.6c4.8,16.3,16.2,46.6,19.7,62.9c0.2,0.7,0.5,1.5,0.8,2.6c0.6,2.4,1.2,7.4,2,9.7
		c1.9,5.9,3.3,9.5,4.4,11.9c0.3,0.4,0.6,0.8,1,1.3c0.4,0.8,0.8,1.7,1.4,2.7c0.6,0.8,1,1.1,1.3,2.1c2.4,3.6,6.6,7.5,14.8,8.7
		c4.3,0.7,4.7-4.5,5.6-6.6c0.9-2.1-2.1-13-2.1-13s0.3,6,0.2,7.4s-1.7,4.1-3.2,5.6s-3.6,3.3-5.4,2.1c-1.3-0.9-6.9-7.8-9.9-11.5
		c-0.2-1.2,0.4-1.6,1.2-3.7c1-2.7,0,0,2.7,2c-0.9-0.9,0.6,0.3,0.9,0.6c0.1,0,0.4,0.1,1.1,0.4c2,1,1.3,2,3.7,2c2.3,0,0,0,0.7,2
		c0.6,1.8,2.3,2.3,3.9,1.3c0.3,0.4,0.5,0.6,0.5,0.6s0.1-0.4,0.1-1.1c1.1-1,0.5-1.4,0.3-2.4c0.2-2.2,0.4-5,0.2-7.2
		c-0.3-4.2,1-4.2,1-5.8c0-1.6,0.6-4-1.3-3.9c-1.9,0-2.9-2.2-3.2-3.2c-0.3-1-0.9-1.6,0.5-3.2s0.4-2.9-0.2-4.9c-0.6-1.9-1-2.3-2.3-2.6
		c-1.3-0.3-1.6-4.8-1-5.8c0.6-1,0.3-1.9-0.6-2.9c-1-1-2.6-0.6-2.6-0.6l0.5-5.7c0,0,0,0,0,0l0.1-1.4c0,0,1-1.9,0.6-3.2
		c-0.3-1.3-2.3-4.5-3.5-4.5c0,0,0,0-0.1,0c0.9-1.6,0.4-0.7-1-0.9c-1.5-2.1-3.4-7.1-3.1-8.1c0.3-1.3,0.3-2.9,0.3-4.2
		c0-1.3-0.1-1.2-1-2.6c-0.7-1.1-1.3-2.4-1.9-3.6c0.2-22.2,5.8-20.4,10-34.8c4.5-15.5,3.2-19,2.9-20s-0.3-2.3,0.3-3.2
		c0.6-1,1.3-2.3,2.9-1.6c1.6,0.6,2.3-0.3,3.2-2.3c1-1.9-1-5.2-1.9-8c-0.3-0.9-0.5-1.7-0.6-2.5l0.5-0.5l1.3-1c3,2.7,3,2.7,3,2.7
		s1.7-0.7,1-2.3c-0.7-1.7-1.3-3-1.3-3c0.1-1,0.5-2,0.8-2.8c0.6,0.9,1.4,2.2,2.5,4c0.9,1.6,0,0,0,2.2s0,0-0.3,2.5
		c-0.3,2.5-0.3,2.2-1.6,4.4c-1.2,2.1,2.2-1.5,4.4-5.9c-0.2,2.3-0.5,4.9-0.9,7.5c-0.5,1.3-1.1,2.7-1.6,4.1c1-0.9,4.5-4.5,5.8-10.7
		c1.6-7.3,0.8-8.8,1.9-10.6c1.1-1.8,2.2-4.4,2.2,1.5s0.8,5.7,0.6,8.1s-0.2,3.9-0.2,3.9s3.9,3.2,2.9,3.8c-1.1,0.6,0,0.2-1.1,2.4
		c-1.1,2.2-1.1,1.8-1.8,4.7c-0.7,2.9-1.3,3-0.5,4.2s3,0.9,3,0.9c1.5,3.6,1.8,4.7,1.1,6.6c-0.7,1.8-2.1-0.6-3.2,2.4
		c-0.7,1.9-1.5,3.1-2.5,4.6c0,0.5,0.2,0.9,0.6,1.3c1.8,1.5,3.8-0.3,4,2c0.2,2.3,1.1,3.5-0.4,4.7c-1.5,1.2-2.7,1.5-4,2.7
		c-1.2,1.2-1.5,2.1-1.5,3.3c0,1.2-1.6,0.5-0.2,1.9c1.4,1.4,2.6,2,2,3.8c-0.6,1.8-0.3,3-1.2,3.7c-0.9,0.6-1.8,0.9-2.7,2.7
		c-0.9,1.8-0.7,5.5-0.7,5.5s1,1.8,1,3c0,1.2,0.9,1.1,0,3c-0.9,1.9-1.8,9.8-2.1,15.6c-0.3,5.5,0,19.6,0,27.2c0.4,2.3,0.8,4.6,1.1,6.5
		c0.1,0.8,0.2,1.6,0.4,2.4c-0.3,5.3-0.4,7.4-0.9,10c-0.7,3.7-4.6,5.7-4.3,7.4s2.4,8.6,2.4,8.6c0.6,1.8,0.6,3.4,1.5,4
		c0.9,0.6,3.9,0.9,6,0c2.1-0.9,2.6-5,2.9-9.2c0.3-4.2,1.2-8.9,1.6-12.2c0.8-6.3,2.5-15.9,2.8-18.6c0.3-2.7,0.1-3.4,1.9-13.7
		c1.8-10.3,3.5-20.5,5.3-26s5.5-23.9,7-28.1c1.5-4.2,3-22.1,2.1-31.2c-0.9-9.1,0.3-18.1-1.6-24.5c-1.5-4.9-2.2-8.3-4.9-9.8
		c-2.7-1.5-6.9-1.7-11.4-1.3c-1.8,0.1-11.8,0.7-16.6,3.9c-0.2,0.1-0.3,0.2-0.5,0.4c-0.1-0.4-0.1-0.7,0.1-1c1.7-3,12-5.9,13.4-5.9
		c0,0,2.3-0.6,5.2-0.9c-3.5,0.2-7.2,1-10.6,2.1C222,108.8,218.3,110.8,216,113.2z M188,99C188,99,188,99,188,99
		C188,99,188,99,188,99z M193.1,97.5C193,97.4,193,97.4,193.1,97.5C193,97.4,193,97.4,193.1,97.5c0.1,0,0.2,0.1,0.3,0.2
		C193.3,97.6,193.2,97.5,193.1,97.5z M174.9,105.4C174.9,105.3,174.8,105.3,174.9,105.4c0.7-0.4,1.3-0.7,1.7-1
		C176.3,104.6,175.5,105,174.9,105.4z M172,121.4c-1-0.2-2.5-0.4-4.2-0.5c0.8-0.3,1.3-0.5,1.3-0.5c0.2-0.1,0.3-0.2,0.4-0.3
		c0.5-0.2,1.2-0.4,1.9-0.6c0.7,0,0.1,0,0.9,2C172.2,121.5,172.1,121.4,172,121.4z"/>
	<path d="M202.9,273.6c0.5,0.3,0.7,0.5,0.8,0.6c0,0,0,0,0.1,0C203.5,273.9,202,272.7,202.9,273.6z"/>
	<path d="M256.1,163.6c0.1-1.6,0.3-4.3,0.4-7.1c0.3-5,0.5-10.4,0.3-11.5c0-0.1,0-0.1,0-0.2c-0.1-1.1-0.1-3.7-0.1-6.6
		c0-4.2,0-9-0.4-11.3c-0.2-0.9-0.4-1.9-0.6-3c-0.8-3.8-1.9-8-1.9-8l-0.1,0c-0.8-4-1.7-5.1-4.4-8c-0.2-0.2-0.3-0.3-0.5-0.5
		c-2.3-2.5-7.8-2.5-11.9-1.9c-2.9,0.4-5.2,0.9-5.2,0.9c-1.3,0-11.7,2.9-13.4,5.9c-0.2,0.3-0.2,0.7-0.1,1c0.2-0.1,0.3-0.2,0.5-0.4
		c4.8-3.1,14.8-3.7,16.6-3.9c4.5-0.3,8.7-0.2,11.4,1.3c2.7,1.5,3.5,5,4.9,9.8c1.9,6.4,0.7,15.5,1.6,24.5c0.9,9.1-0.6,26.9-2.1,31.2
		c-1.5,4.2-5.2,22.7-7,28.1s-3.5,15.7-5.3,26c-1.8,10.3-1.6,10.9-1.9,13.7c-0.3,2.7-2,12.4-2.8,18.6c-0.4,3.3-1.3,8-1.6,12.2
		c-0.3,4.2-0.8,8.3-2.9,9.2c-2.1,0.9-5.1,0.6-6,0c-0.9-0.6-0.9-2.2-1.5-4c0,0-2.1-6.9-2.4-8.6s3.5-3.7,4.3-7.4
		c0.5-2.6,0.6-4.7,0.9-10c-0.1-0.8-0.2-1.7-0.4-2.4c-0.3-1.9-0.7-4.2-1.1-6.5c0-7.6-0.3-21.7,0-27.2c0.3-5.8,1.2-13.7,2.1-15.6
		c0.9-1.9,0-1.8,0-3c0-1.2-1-3-1-3s-0.2-3.7,0.7-5.5c0.9-1.8,1.8-2.1,2.7-2.7c0.9-0.6,0.6-1.8,1.2-3.7c0.6-1.8-0.6-2.4-2-3.8
		c-1.4-1.4,0.2-0.7,0.2-1.9c0-1.2,0.3-2.1,1.5-3.3c1.2-1.2,2.4-1.5,4-2.7c1.5-1.2,0.6-2.4,0.4-4.7c-0.2-2.3-2.2-0.5-4-2
		c-0.4-0.3-0.6-0.8-0.6-1.3c1-1.4,1.8-2.7,2.5-4.6c1.1-3,2.5-0.6,3.2-2.4c0.7-1.8,0.4-2.9-1.1-6.6c0,0-2.2,0.4-3-0.9
		s-0.3-1.3,0.5-4.2c0.7-2.9,0.7-2.6,1.8-4.7c1.1-2.2,0-1.8,1.1-2.4c1.1-0.6-2.9-3.8-2.9-3.8s0-1.5,0.2-3.9s-0.6-2.3-0.6-8.1
		s-1.1-3.3-2.2-1.5c-1.1,1.8-0.4,3.3-1.9,10.6c-1.3,6.2-4.8,9.8-5.8,10.7c0.5-1.4,1.1-2.7,1.6-4.1c0.4-2.6,0.7-5.2,0.9-7.5
		c-2.2,4.4-5.6,8-4.4,5.9c1.3-2.2,1.3-1.9,1.6-4.4c0.3-2.5,0.3-0.3,0.3-2.5s0.9-0.6,0-2.2c-1.1-1.8-1.9-3.1-2.5-4
		c-0.3,0.8-0.6,1.8-0.8,2.8c0,0,0.7,1.3,1.3,3c0.7,1.7-1,2.3-1,2.3s0,0-3-2.7l-1.3,1l-0.5,0.5c0.1,0.8,0.3,1.7,0.6,2.5
		c1,2.9,2.9,6.1,1.9,8c-1,1.9-1.6,2.9-3.2,2.3c-1.6-0.6-2.3,0.6-2.9,1.6c-0.6,1-0.6,2.3-0.3,3.2s1.6,4.5-2.9,20
		c-4.2,14.4-9.8,12.6-10,34.8c0.6,1.2,1.3,2.4,1.9,3.6c0.8,1.4,1,1.3,1,2.6c0,1.3,0,2.9-0.3,4.2c-0.3,1,1.7,6,3.1,8.1
		c1.3,0.2,1.9-0.7,1,0.9c0,0,0,0,0.1,0c1.3,0,3.2,3.2,3.5,4.5c0.3,1.3-0.6,3.2-0.6,3.2l-0.1,1.4c0,0,0,0,0,0l-0.5,5.7
		c0,0,1.6-0.3,2.6,0.6c1,1,1.3,1.9,0.6,2.9c-0.6,1-0.3,5.5,1,5.8c1.3,0.3,1.6,0.6,2.3,2.6c0.6,1.9,1.6,3.2,0.2,4.9s-0.9,2.2-0.5,3.2
		c0.3,1,1.3,3.2,3.2,3.2c1.9,0,1.3,2.3,1.3,3.9c0,1.6-1.3,1.6-1,5.8c0.2,2.2,0,5-0.2,7.2c0.3,1,0.9,1.4-0.3,2.4
		c-0.1,0.7-0.1,1.1-0.1,1.1s-0.2-0.2-0.5-0.6c-1.6,1-3.3,0.6-3.9-1.3c-0.7-2,1.7-2-0.7-2c-2.3,0-1.7-1-3.7-2c-0.7-0.3-1-0.4-1.1-0.4
		c0.1,0.1,0.1,0.1-0.1,0c-0.2,0,0,0.2-0.8-0.6c-2.7-2-1.7-4.7-2.7-2c-0.8,2.2-1.4,2.6-1.2,3.7c3,3.7,8.6,10.7,9.9,11.5
		c1.8,1.2,3.9-0.6,5.4-2.1s3.2-4.2,3.2-5.6s-0.2-7.4-0.2-7.4s3,10.9,2.1,13c-0.9,2.1-1.3,7.3-5.6,6.6c-8.2-1.2-12.4-5.1-14.8-8.7
		c-0.3-1-0.6-1.3-1.3-2.1c-0.6-1-1-2-1.4-2.7c-0.3-0.4-0.6-0.9-1-1.3c-1.1-2.4-2.5-6-4.4-11.9c-0.7-2.3-1.3-7.3-2-9.7
		c-0.3-1.1-0.6-2-0.8-2.6c-3.4-16.3-14.9-46.7-19.7-62.9c-0.4-1.2-0.7-2.4-1-3.6c-3.6-10.8-6.5-21.2-7.2-28.6
		c-0.8-8.2-1.8-13.8-2.5-17.9l-2.2,0.6c0,0-1.8,0.6-2.7,1.2c-0.9,0.6-2.1,0-2.1,0l-2,0.9c0.2,0.1,0.5,0.3,1.4,1.2
		c1.7-0.5,1.4-0.1,0.5,0.5c1.7,1.5,0.6-0.7,1.8,1.2c1.3,2,0,1.7-0.7,2.7c-0.7,1-1,2-2.2,5.2c0.8,0,0.6,0.1-0.1,0.3
		c-0.9,2.6,1-0.3,1.3,4.2c0.1,0.7,0.1,1.2,0.1,1.4c0.1,0.3,0.3,0.9,0.6,2.3c1.3,5.7-1.7-2-0.7,3.4c1,5.4-1.3-1.7-0.7,2.7
		c0.7,4.4-1.3-1.3-1,2.7c0.3,4,0,0,0,3c0,0.2,0,0.4,0,0.5c0.3,0.2,0.2,0,0.6,0.8c0.6,1.2-0.4,0.9-0.6-0.8c-0.2-0.1-0.6-0.4-1.4-1.2
		c-1.4-1.4-2.7,1-2.7,1c-0.3,1-1,1.3-1.3,3.4c-0.3,2,0,0,0.7,4c0.7,4,0,0,1.3,4c1,2.9-0.8,3.7-1.6,4.8c1.1,0.6,2.2,0.7,2.2,0.7
		s1.8,0.7,1.5,3.7c2.7,1.4,1.7,3.3,3.1,6.3c0.4,0.9,0.7,1.7,0.9,2.5c1.9,3.2,4.2,7,4.2,7s1.3,2.4,2.7,3.7c1.3,1.3,2,0.3,3.4,1.7
		c1.3,1.3,1,1.3,1.7,3.4c0.7,2,1,2.7,1,4.7s-0.3,1.3-0.3,3.7c0,2.4,0,1.3,1.3,7.1c1.3,5.7-1.3-1.3,0.4,5.8
		c10.7,12.5,21.7,28.7,14.7,20.2c-7-8.4-6.2-9.2-7-8.4c-0.7,0.7-11.4-11.4-4.8-3.3s-1.5-3.7,4,4c5.5,7.7,2.6,4,5.5,7.7
		c2.9,3.7,2.9,3.7,4.8,5.9c1.8,2.2,1.8,3.7,3.3,4.8s-0.7,4.8-0.7,4.8s-9.2-8.8-14-14.3c-1.2-1.4-2.6-3-3.9-4.6
		c2.4,2.1,5.3,2.1,3.5,1.9l-1.1-2.4l-0.5-3.2c0,0-2.2-0.3-2.7-1.1c-0.5-0.8-0.5-1.1-2.2-1.9c-1.6-0.8-0.5-2.2-1.1-3.5
		c-0.5-1.3,0.3-1.3-0.3-2.2c-0.5-0.8-1.1-1.6-3.2-2.4c-2.2-0.8,0,0,0.1-1.7c0.1-1.7-0.7-0.5-1.5-2.4c-0.8-1.9,0,0-1.1-2.4
		c0,0,0.3-1.1,2.7-1.3c2.4-0.3-1.6-1.1-1.6-1.1s0,0-1.6,0.3c-1.6,0.3-1.1-0.3-3.5-0.2s-0.8,0-3.7-1.6c-3-1.6-3.9-2.1-4.8-3.2
		c-1.9-3.8-1.7-8.2-1.7-8.2c-0.2-0.7,0-1.2,0.5-1.8c0.2-0.6,0.4-1.3,0.5-1.9c-0.4-1.2-0.4-1.2-0.4-1.2s-0.7-3.1,0.1-2.9
		c-1-1.1-2.4-2.7-3.5-3.9c-1.7-2,0,0-0.3-2s-2.4-2.4-2.4-2.4s-0.7-1.7-4.7-4.7c0,0-1.7-2-3-4.7c-1.2-2.4-0.8-2.7-1.4-4.7
		c0.2-0.4,0.3-0.9,0.5-1.4c1.9-4.8,3.6-7.1,6.8-11c1.2-0.8,0.9-0.6,0.8-1c0.5-0.7,0.3-0.6-0.1-0.2c0-0.3,0-0.7,0.3-1.5
		c0.2-0.5,0.9-0.9,4.5-2.2c1.1-0.4-0.6-1.3,1.3-3.9c0.8-1.1-1.3-1,2.3-0.6c3.6,0.3-2.9-1.3,0.6-1.3s-3.2-1.3,1.6-1.3
		c4.8,0-4.5-1.6,0-1.9c3-0.2-0.3-0.7-2.1-0.8c-0.7-0.5-2.3-1.5-2.1-2.1c0.3-1-1-0.3-1.9-1.6c-1-1.3,0,0-2-1.6
		c-0.3-0.2-0.5-0.4-0.6-0.5c0.1-0.1,0.2-0.4,0-1.3c-0.6-2.1-0.9-0.5,2-0.5c0.8,0,1.2,0,1.3,0c0,0,0,0,0.1,0c0.1,0,0.3,0,0.9,0
		c2.3,0,3.1-2.5,3.1-2.5s-2.1-0.7-4-1.7c-0.9-0.5-1.3-0.6-2.6-1.3c-1.3-0.6,0,0-2.6-1s0,0-3.6,0.3c-1,1,0,0,1.3,1.6
		c1.3,1.6,0,0-1.3-0.3c-1.3-0.3-1.3,0-3.6-1c-2.3-1,0,0-2.3-1c-2.3-1-1.6-0.6-3.6,0c-0.2,0.1-0.4,0.2-0.7,0.2
		c-0.1-0.4-0.2-1-0.4-1.7c-0.7-3,3.7-6.1,3.7-6.1c0.3-0.2,0.7-0.4,1.1-0.5c0.7-1.3,2.6-1.9,4.5-2.1c0.1,0,0.2-0.1,0.3-0.1
		c3.6-1.5,7.2-0.3,13.5-0.6c3.5-0.2,7.8-1.4,10.8-2.4c-0.5-3.8-0.4-6.1,1.1-8.9c0.4-0.7,0.8-1.4,1.3-1.9c-0.1,0-0.4,0.2-1.6,0.8
		c-3.4,1.7-4.7,1.7-6.4,2.6c-1.7,0.9,4.3,0.9-1.7,0.9c-6,0-0.4-1.7-6,0c-5.5,1.7-6,2.1-8.5,3.4c-2.6,1.3-3.8,3-8.1,3.4
		c-4.3,0.4-10.8,8-13.9,8c-0.3,0.1-0.4,0.2-0.6,0.2s-0.7,0-0.7,0s-1.9-0.5-2.2-0.3c-1.5-2.8-0.8-1.4-1.5-3.1
		c-0.7-1.8-4.1-1.1-7.6-2.4c-1.5-0.6-2.2-0.9-2.5-1.1c0-0.2,0-0.3,0-0.3l0.1,0c0-0.2,0-0.4,0.2-0.5c1.5-1,2.6-1.2,3.5-1
		c0,0,6.9-0.3,10.3-0.3c3.4,0,3,0,5.1-0.9c2.1-0.9,3.8-2.6,5.1-3c0,0,10.5-3.6,14.1-5.5c3.7-1.8,4.8-2.9,9.9-4.4
		c0,0-6.2,1.1-10.3,2.6c-4,1.5-4.8,0.8-1.7-0.8c2.7-1.4,12.8-4.6,10.4-4.1c0,0-0.1-0.6-0.4-1.4l3-1.7c0,0-1.9,0.1-3.5,0.4
		c0-0.1,0-0.1-0.1-0.2c1.8-1,4.3-2.6,4.3-2.6l-0.6-0.2c3.2-0.9,6.2-1.3,9.2-1.7c0,0,9-1.1,15.1-2.2c-0.4-0.5-0.8-1.1-1.3-1.7
		c-1.5,0.1-4.8-0.1-7.5-0.1c-3.4,0-14.5,1.9-14.5,1.9l4.6-1.5c0,0-2.1-0.2-2.8,0s-2.4,0-1.5-0.3s1.2-0.3,2.1-0.5
		c0.9-0.2,0.9-0.9,3.3-1.4s0,0,1.2-0.2s0,0,0.9-0.5s0,0,1.5-0.3c1.5-0.3-0.3-1-0.3-1l-1-0.7c0,0,0.7-0.5,1.2-0.7c0,0-0.7,0-1.4,0
		s-1.4-0.5-1.4-0.5c0.7-0.5,1.4-0.7,3.1-0.9c0.4,0,1,0,1.9,0c0.4-0.3,0.6-0.3,1.9-0.8c1.8-0.8,3.9-0.8,7.2-1.8
		c0.7-0.2,1.7-0.5,2.8-0.7c0.5,0.8,1.2,1.4,1.7,1.9c0.9,0.9,2,4.1,2,4.1l1.5,2.4c-0.9,0.2-1.7,0.5-2.4,0.7c0.6,0.6,1.2,1.2,1.7,1.9
		c2.2-0.6,4.4-1.3,6.2-1.9c0-0.1-0.1-0.1-0.1-0.2l3.6-0.9c0,0-4.7-6.7-6.3-7.3c-1.6-0.6-3.2-2.5-3.2-2.5l-0.3-4.4l-2.8-0.4l-2.1,0.5
		c0,0,0.7,2.1,0,3.8c-4,0.5-8.4,1.4-8.4,1.4l-3,0.7c0,0,1.6-2.6,2.6-3.8c0.9-1.2,2.6-1.6,4.2-2.1c1.6-0.5,2.3-2.6,2.3-2.6
		s0.7-1.2,1.9-2.1s3,0.2,3,0.2s0.2-0.2-0.2,1.4c0,0,1.2,0.9,1.9,0.9c0.7,0,1.2-0.2,3,0.2s0,0,2.1,0.7c2.1,0.7,0,0,1.6,0.5
		c1.6,0.5-0.2,1.6-0.2,1.6s-0.3,0.1-0.7,0.3c1,0.7,2,2.3,2.7,3c1.7-0.4,3.7-0.9,5.2-0.9c3.1,0,7.6,2.8,7.6,2.8l3.7,3.1l-3.1,1.2
		c0,0-1.2-0.9-4-2.8c0,0,0,0-1.8,0.3c0,0.1,0,0.3,0.6,1.3c0,0,0,0,0,0c0,0,0,0,0,0.1c0,0,0.1,0.1,0.1,0.1c0,0,0,0,0,0
		c0.1,0.1,0.2,0.2,0.2,0.4c0,0.1,0.1,0.1,0.1,0.1c0,0,0,0.1,0,0c0,0-0.1-0.1-0.1-0.1c-0.1-0.1-0.1-0.2-0.2-0.4c0,0,0,0,0,0
		c0,0-0.1-0.1-0.1-0.1c0,0,0-0.1,0-0.1c0,0,0,0,0,0c0,0,0,0,0.9,2.1c0,0,1.4,1.6,4.1,2.1c1.8-0.8,3.4-1.7,4.4-2.4
		c3.1-2.1,2.9-1.1,5.8,0c4.9,1.8,9.2,5.8,9.2,5.8l-2.4,2.8c-0.6,1.2-3.4,2.1-3.4,2.1s-2.1-3.1-4-5.2c-1.8-2.1-1.5-1.5-3.4-1.8
		c-1-0.2-2,0.3-2.8,0.9c2.3,2.5,4.3,6.5,4.3,6.5l0.9,1.1c-1.7,0.8-2.1,1-3,1.3c-1.2,0.3-0.6-0.3-3,0.9c-1.4,0.7-1.3,1.1-2.1,1.3
		c-0.8-2-2.3-5.4-3.4-6.8c-1.6-2.2-4.4-4-4.4-4s-4.4,0.3-7.2,1.9s-6.5,2.8-6.5,2.8l-0.3,3.7l0.9,3.4l1.5,0.7c0,0-2.7-0.7-3.4,0.2
		c-0.7,0.9-1.3,1.9-1.6,2.8c0.6,0.1,1.1,0.1,1.6,0.2c1.6-0.3,3.4-0.5,5.4-0.5c10.4-0.4,29.6-3.1,34.8-8.3c2.3-2.3,6-4.3,10.2-5.8
		c-0.5-0.1-0.9-0.3-1.4-0.4c-1.2-0.7-4.6-2.8-7.7-4.6c-0.8-0.9-2.2-2-4.3-2.5c-2.2-1.2-5.4-2.4-9.1-2.9c-1.9-1.2-4.9-2.9-9.2-4.8
		c-1-0.4-2.1-0.8-3.3-1c-0.8-0.3-1.7-0.5-2.7-0.6c-0.4-0.6-0.9-1.3-1.9-2.1c-2.7-2.3-6.7-2.5-10.2-4.4c-3.5-2-7.2,0.1-9,2.7
		c-1.7,2.5-4.2,3.2-8.3,6.2c-1.7,1.3-3.2,3.1-4.3,4.7c-0.9,0.2-1.8,0.5-2.7,0.8c-7.1,2.3-9.1,4.1-11.1,7.8c-1.7,3-2.2,4.7-2.3,5.3
		c-2.5,1.5-5.2,3.3-7.9,5.2c-1.1,0.8-2.6,2.4-3.9,4.1c-4,1.3-8,2.6-11.8,4.4c-10.5,5-12.7,5.4-16.5,6c-1.9-0.4-4.2-1.1-6.7-2.1
		c-5.6-2.2-9.6-1.2-9.9,1.2c-0.3,2.5-0.3,3.7,0.6,6.2c0.9,2.5,3.1,7.4,6.5,11.1c1.8,2,5,4.7,7.8,7.3c1.1,2.5,2.1,5.5,2.7,9.1
		c1.8,10,5.7,18.6-1,25c-3.1,2.9-2,8.2,3.5,11.6c6.7,4.2,7.5,7.3,10.5,11.7c3.3,4.9,5.3,6.8,5.5,11.6c0.1,2.5-1.7,12.5,2.7,17.1
		c8,8.2,10.2,6.4,13.5,9.4c8.1,7.4,7.7,6.9,12.4,10.6l0.2,0.6c0,0,14.6,13.6,19.9,17.5c1.2,0.9,2.1,1.7,2.9,2.6c-1,0.9-2,2-2.7,3.4
		c-1.6,3.3-6,1.1-6.6,2.7c-0.5,1.6-2.7,1.1-0.5,4.9s12.1,6,17.6,4.9c2.3-0.5,6.7-1.5,11.2-2.5c5.2,0.1,11.2-0.1,14.2-0.5
		c2.1-0.3,3.6-0.8,4.8-1.3c0.8-0.2,1.6-0.5,2.4-0.9c-0.6-0.3-1.3-0.6-1.9-0.9c0.6,0.1,0.9,0.2,0.9,0.2l3,1.5l1.6,0.8l2.2-0.2
		c0,0,2.5-0.4,3.1-3.9c0-0.1,0-0.1,0-0.2c0.3-0.2,2.1-1.9,3.9-1.7c0.3,0,0.6,0.1,0.9,0.1c0.5,0,1,0.1,1.5,0c1.7-0.1,3.7-0.5,5.1-2.1
		c1.4-1.5,3.2-4,4.7-7.5c0.9-2.1,1.8-4.6,2.4-7.4c0.3-1.5,0.6-3.3,0.8-5.3c0.4-3.4,0.8-7.3,1.1-10.8l0.5,0c0,0,0.2-1.2,0.5-3.1
		c0.9-6.1,2.9-19.8,4.1-27.2c0.4-2.3,0.6-4,0.7-4.6c0.1-0.4,0.2-1.3,0.5-2.5c1.6-7.7,6.1-29.5,6.7-32.6c0.1-0.6,0.3-1.5,0.5-2.6
		c0.8-4.6,2.2-12.8,2.6-16.6c0.1-0.6,0.1-1.1,0.2-1.5C256,164.5,256,164.1,256.1,163.6z M177.7,270.9c-1.6-0.5-4.1-1.3-5-1.8
		c-0.1-0.1-0.2-0.2-0.3-0.3c0.1-0.1,0.8-0.1,2.2,0.2c0.7,0.1,1.2,0.2,1.5,0.2C176.8,269.9,177.3,270.4,177.7,270.9z M179.6,273.3
		c0,0.1,0,0.2,0,0.2c-0.8-0.4-2.6-1.2-4-1.8c-0.1-0.3-0.2-0.6-0.7-1c0.4,0.1,1,0.2,1.8,0.3c0.6,0.1,1.1,0.2,1.4,0.3
		c0.3,0.4,0.5,0.7,0.7,1C178.9,272.7,179.2,273,179.6,273.3z M178,273.5c0.3,0.1,0.5,0.1,0.7,0.2C178.6,273.6,178.3,273.6,178,273.5
		z M164.9,260.8c-0.1-0.1-0.1-0.2-0.2-0.4c-0.8-1.6-0.5-1.1-1.3-2.2c-0.7-0.9-0.3-1-0.2-1c0,0,0,0,0,0c0.6,0,1.2,0,1.6,0
		c0,0,0.1,0.1,0.1,0.1c1.2,1.4,2.5,3,4,4.5C167.8,261.5,166.4,261.2,164.9,260.8z M164.3,256.8c-0.3,0-0.7-0.1-1.1-0.1
		c-0.1-0.2-0.3-0.4-0.7-0.8c0.4,0,0.7,0,1,0C163.8,256.2,164.1,256.5,164.3,256.8z M138.9,243.3c-0.4-0.4-0.7-0.9-1.1-1.3
		c0.8,0.4,1.7,0.9,2.4,1.2C141.1,243.5,140.1,243.4,138.9,243.3z M175.6,268.7c-1.2-0.4-3.1-1-4.7-1.5c-0.1-0.2-0.2-0.3-0.4-0.5
		c5.5,1.2,1.2-0.3-1.3-1.3c-0.3-0.2-0.6-0.3-1.2-0.8c0.4,0,1.3,0.1,2.9,0.4c0.5,0.1,0.9,0.2,1.3,0.2
		C173.4,266.5,174.6,267.7,175.6,268.7z M172.1,265.1c-1.3-0.3-3.2-0.8-4.7-1.2c-0.6-0.7-0.5-0.9-0.9-1.2c0.3,0,0.6,0,1.1,0
		c0.9,0,1.6,0,2,0C170.4,263.5,171.2,264.3,172.1,265.1z M104.1,190.8c0.4-1.7,3.9-5.8,5.7-6.9c1-0.7,3.5-0.3,5.3,0.3
		c1.8,0.5,3.2,3.3,1.1,7.1c-2.1,3.8-5.1,3.8-9.3,3.4C103.9,194.4,103.7,192.8,104.1,190.8z M125.5,233.8c-1.8-2.1-0.5-4.5,0.2-7.7
		c1.4-1.3,3.1-2.8,4.4-4.1c0.9,2.8,2.1,5.1,3.5,6.3c2.2,1.7,8.9,3.5,11.8,4c2.9,0.6,4.4,7.2,5.5,10.7c1,3.1,7.6,7.5,12.3,12.4
		c-0.4-0.1-0.9-0.1-1.5-0.2c-0.2-0.2-0.5-0.3-0.8-0.5c-3.5-2.2,0,0-2.7-0.5c0,0,0,0-1.8-0.4c3.4-0.3,1.9-0.6-0.9-1
		c0.1-0.4,0.2-0.9-0.2-1.4c-0.8-1.1-3.8-2.7-3.8-2.7s0,0-1.9-1.9c-0.7-0.7-0.5-1.3-0.5-3.5s0,0-1.1-1.1s-1.9-0.5-1.9-0.5l-1.9-1.3
		c0,0,0,0-1.9-0.8s0,0-1.1,0.5c-1.1,0.5,0,0-1.1,0.3c-1.1,0.3,0,0-2.7-0.8s0.8,1.1-2.1,0c-0.1,0-0.1,0-0.2-0.1
		c-0.7-0.6-1.4-0.9-2.1-1C129.8,238,128.4,237.2,125.5,233.8z"/>
</g>
</svg>
