<?xml version="1.0" encoding="utf-8"?>
<!-- Generator: Adobe Illustrator 20.1.0, SVG Export Plug-In . SVG Version: 6.00 Build 0)  -->
<!DOCTYPE svg PUBLIC "-//W3C//DTD SVG 1.1//EN" "http://www.w3.org/Graphics/SVG/1.1/DTD/svg11.dtd">
<svg version="1.1" id="Layer_5" xmlns="http://www.w3.org/2000/svg" xmlns:xlink="http://www.w3.org/1999/xlink" x="0px" y="0px"
	 viewBox="0 0 360 360" style="enable-background:new 0 0 360 360;" xml:space="preserve">
<style type="text/css">
	.st0{fill:none;}
</style>
<g>
	<path class="st0" d="M180.1,191.5c2.5,0,5,0,7.6,0c0-12.9-0.2-41.2-0.7-48.3c-0.8-9.4,0.9-23.3,0.5-34.2c-0.2-6,0-24.8,0.2-40.8
		h-9.1c0.5,16.7,0.8,39.4,0.8,45.7C179.5,121.4,179.9,172,180.1,191.5z"/>
	<path class="st0" d="M191.5,109.7c0.8,12.4,0.4,42.8,0.4,49.2c0,4.6,1,22.7,1.5,32.6c2.8,0,5.5,0,8.1,0c-0.2-5.8-0.4-14.2-0.8-23.9
		c-0.8-18.4-0.1-31.6-0.9-42.1c-0.6-8.3,1-39.9,1.3-57.4H191C191,84.4,191.1,103,191.5,109.7z"/>
	<path class="st0" d="M166.7,165c-0.2,5.3,0.3,17.5,0.8,26.5c2.3,0,5.1,0,8.1,0c-0.1-5-0.3-15.6-0.3-20.9c0-7.1-0.8-25.9-0.4-36.1
		s0-31.6,0.4-40.2c0.2-4-0.1-15.2-0.3-26.2h-8.9c0,16.9,0.2,43.7,0.7,53.1C167.7,134,167,156,166.7,165z"/>
	<path class="st0" d="M144.3,215.7c6.4,0,9.6-1.9,11.5-3.7c3.6-3.6,4.1-9.3,4.1-9.3s-0.9,0-1.3-5.4c-0.4-5.4-0.5-5.7,1.3-5.8
		c0.2,0,0.9,0,2.2,0c0.2,0,0.5,0,0.7,0c-0.5-11.4-1.9-44.6-0.9-51.7c1.1-8.6-0.8-39.1,0-48.1c0.4-4.2,0.5-14,0.4-23.5h-9.8
		c-0.4,4.8-1.6,9.7-3.3,14.3c-4,10.7-13.4,32.8-16.8,49.2c-2.4,11.5-9.1,40.3-4.2,60.8C133,213,139.2,215.7,144.3,215.7z"/>
	<path class="st0" d="M205.8,139c-0.6,6.7-0.7,40.1-0.7,52.5c3.3,0,6.1,0,8.3,0c0.2-16.8,0.7-64.9,0.7-73.9c0-6.2,0-29.8,0.1-49.5
		h-9.8c0.2,9.8,0.3,20,0.3,25.8C204.6,107.1,206.5,130.8,205.8,139z"/>
	<path class="st0" d="M217.4,146.6c-0.3,10.9-0.6,36.5-0.7,45c0.8,0,1.3,0,1.3,0c1.2,0,2,0,2.2,0c1.8,0,1.8,0.4,1.3,5.8
		c-0.4,5.4-1.3,5.4-1.3,5.4s0.5,5.7,4.1,9.3c1.9,1.9,5.1,3.7,11.5,3.7c5.1,0,11.3-2.7,16.2-23.3s-2.7-50.6-4.2-60.8
		c-2.4-16.6-12.8-38.5-16.8-49.2c-1.7-4.6-2.9-9.4-3.3-14.3h-10.2c-0.1,13.6-0.4,28.4-0.4,31.4C217,105.2,217.8,133.4,217.4,146.6z"
		/>
	<path class="st0" d="M118.9,198.3c0.5,3.2-1.4,3.6,1.8,12.3c3.2,8.7,6.8,13.2,16.9,17.3c7.5,3.1,17.9-2.3,22.8-7.3
		c1.6-1.7-0.3-2.3-0.2-3.5c0.5-5-1.1-3.3-1.1-3.3s-3.2,5-7.8,6.4c-4.6,1.4-11.4,3.6-20.1-4.1s-9.1-28.7-10.5-39.7
		c-0.7-5.3,1.7-18.2,1.8-21.4c0.1-5-0.7,5-2.6,11.4c-1.8,6.4-0.9,23.3-0.9,26S118.4,195.1,118.9,198.3z"/>
	<path class="st0" d="M161.8,294.6l-4.9,2c0,0-2.5-0.5-4-1c-1.5-0.5-3,2-3,2l79.7-1l-11.9-2.5L161.8,294.6z"/>
	<path class="st0" d="M213.3,195.6H205c0,0.4,0,0.6,0,0.6l-3.4,3.8c0,0,0-1.6-0.1-4.3h-7.9c0.1,1.5,0.1,2.5,0.1,2.5h-6
		c0,0,0-0.9,0-2.5h-7.5c0,2.3,0,3.6,0,3.6l-3.3-3.6h-9.1c0.1,1.4,0.2,2.6,0.2,3.7l0.5,0.1l0.3,2.2h42l-1.1-1.9
		c2.3-0.3,1.7,0.6,2.3-0.3c0.6-0.9,0.6-0.9,0.6-0.9l2.3-1.6l-0.4-0.5l-1.1,0.9C213.3,197.3,213.3,196.7,213.3,195.6z"/>
	<path class="st0" d="M167.4,276.1c3.4,0,6.7,0.4,8.4,0c1.7-0.4,6.4-1.1,2.1-1.6c-4.3-0.4-7.7-1.7-7.7-1.7s0.7-2.6,0.4-3.8
		c-0.9-3.4-4.3-5.1-4.3-5.1s4.3-0.9,1.7-3.4c-2.6-2.6-2.6-3-5.1-3.8s-4.3-1.3-6-2.1c-1.7-0.9-2.6-3-3.8-3s-2.1-0.4-6-3.4
		c-3.8-3,0.4,2.1-3.8-3c-4.3-5.1-8.1-3.8-16.2-14.1s-12.8-31.3-12.3-36.4c0.4-5.1-1.8-11.4-1.8-11.4s-3.5,13.1,0.9,34.2
		c1.7,8.1,2.7,16.8,14.3,31.3c11.5,14.5,15.4,16.4,22.7,20.7c7.3,4.3,8.8,5,10.7,5.4C165.2,275.5,164,276.1,167.4,276.1z"/>
	<path class="st0" d="M256.5,191.9c0,0-1.1,8.5-4.3,16.5c-3.2,8-8.5,10.7-11.2,12.3c-2.7,1.6-6.9,1.6-13.3-1.1c-6.4-2.7-8-4.8-8-4.8
		s-4.8,1.1,0.5,6.9c5.3,5.9,17.6,6.4,20.3,5.3c2.7-1.1,7.5-6.9,10.7-9.1s6.9-13.9,7.5-19.7C259.2,192.4,256.5,191.9,256.5,191.9z"/>
	<path d="M161.8,91.7c-0.8,9,1.1,39.5,0,48.1c-0.9,7.1,0.4,40.3,0.9,51.7c1.3,0,2.9,0,4.8,0c-0.5-9.1-1.1-21.2-0.8-26.5
		c0.4-9,1-30.9,0.2-43.7c-0.6-9.4-0.7-36.2-0.7-53.1h-4C162.2,77.7,162.1,87.5,161.8,91.7z"/>
	<path d="M166.2,54.9c0-8.3-1-13.2-2.1-15s-2.6,1.1-2.3,4.9c0.1,1.4,0.3,7.1,0.4,14.1h4C166.2,57.1,166.2,55.8,166.2,54.9z"/>
	<path d="M177.9,50.7c-0.8-7.9,0-10.9,0-10.9s-2.3,1.1-3,2.6c-0.3,0.6-0.2,7.6-0.1,16.4h3.5C178.2,55.1,178.1,52.2,177.9,50.7z"/>
	<path d="M175.3,94.3c-0.4,8.6,0,30.1-0.4,40.2s0.4,28.9,0.4,36.1c0,5.3,0.2,15.9,0.3,20.9c1.4,0,3,0,4.5,0
		c-0.2-19.5-0.7-70.1-0.7-77.7c0-6.3-0.3-29.1-0.8-45.7H175C175.3,79.1,175.5,90.3,175.3,94.3z"/>
	<path d="M191.1,40.6c0,0-1.5-0.4-2.6,1.1s-1,0-0.6,1.5c0.1,0.5,0.1,6.9,0,15.6h3.2C191.1,49.3,191.1,41.9,191.1,40.6z"/>
	<path d="M187.5,109c0.4,10.9-1.3,24.8-0.5,34.2c0.6,7.2,0.7,35.4,0.7,48.3c1.9,0,3.8,0,5.7,0c-0.5-9.9-1.5-28-1.5-32.6
		c0-6.4,0.4-36.8-0.4-49.2c-0.4-6.7-0.5-25.3-0.5-41.6h-3.3C187.5,84.1,187.3,103,187.5,109z"/>
	<path d="M203.9,42.5c0-2.3-1.5-2.3-1.5-2.3l-1.1,1.9c0,0-1,6.8-0.2,15.8c0,0.3,0,0.6,0.1,1h3.1C204,50.2,203.9,43.4,203.9,42.5z"/>
	<path d="M199.7,125.5c0.8,10.5,0.1,23.7,0.9,42.1c0.4,9.7,0.7,18.1,0.8,23.9c1.2,0,2.4,0,3.6,0c0-12.4,0.1-45.8,0.7-52.5
		c0.8-8.3-1.1-31.9-1.1-45.1c0-5.8-0.1-16-0.3-25.8h-3.3C200.7,85.6,199.2,117.2,199.7,125.5z"/>
	<path d="M213.3,191.5c1.4,0,2.6,0,3.4,0c0.1-8.4,0.4-34.1,0.7-45c0.4-13.2-0.4-41.3-0.4-47c0-3,0.2-17.8,0.4-31.4h-3.2
		c-0.1,19.6-0.1,43.3-0.1,49.5C214,126.6,213.5,174.8,213.3,191.5z"/>
	<path d="M217.4,43.6c-0.4-2.6-1.9-5.3-2.6-3.8c-0.3,0.5-0.4,8.4-0.5,19h3.2C217.5,50.8,217.5,44.5,217.4,43.6z"/>
	<path d="M272.4,160.5c-1.7-11.6-11.5-45.4-22.2-66c-6.8-13.1-9.9-20.9-11.5-26.3h14.6c2,0,3.6-1.6,3.6-3.6v-2.1
		c0-2-1.6-3.6-3.6-3.6h-16.3c-0.1-6.3,3.4-17,3.8-22c0.4-4.1-6.7,2.2-10.7,12.5c-1.2,3-1.9,6.2-2.3,9.5h-10.2h-3.2h-10.1h-3.1h-10
		h-3.2h-9.5h-3.5h-8.7h-4h-9.8c-0.4-3.3-1.1-6.5-2.3-9.5c-4-10.3-11.1-16.6-10.7-12.5c0.4,5.1,3.9,15.8,3.8,22h-18.5
		c-2,0-3.6,1.6-3.6,3.6v2.1c0,2,1.6,3.6,3.6,3.6h16.8c-1.6,5.5-4.6,13.3-11.5,26.3c-10.7,20.6-21.8,56.6-23.1,68.3
		c-1.3,11.6-3.2,35.1,2,58.8c3.4,15.4,12.6,32.3,20.5,40.9c8.5,9.2,22,17.9,29.1,21c0.2,0.1,0.6,0.2,1.1,0.3v4.5l-15.4,2.4l15.4,0.1
		v0h-15.9v8.6l-6.6,1.5h-0.4V326h106.1v-25.2h-0.9l0.1-0.5l-6.9-1.2v-8.5h-1.9l-13.2-2.1v-4.8c0.9-0.1,1.5-0.2,1.9-0.4
		c7-3,20.1-11.6,28.4-20.9c12.4-14,17.1-26.7,21.1-41.9C275.3,205.4,274.7,176.3,272.4,160.5z M132.3,131.6
		c3.5-16.4,12.8-38.5,16.8-49.2c1.7-4.6,2.9-9.4,3.3-14.3h9.8h4h8.9h3.6h9.1h3.3h10.1h3.3h9.8h3.2h10.2c0.4,4.8,1.6,9.7,3.3,14.3
		c4,10.7,14.4,32.6,16.8,49.2c1.5,10.3,9.1,40.3,4.2,60.8s-11.1,23.3-16.2,23.3c-6.4,0-9.6-1.9-11.5-3.7c-3.6-3.6-4.1-9.3-4.1-9.3
		s0.9,0,1.3-5.4c0.4-5.4,0.5-5.8-1.3-5.8c-0.2,0-0.9,0-2.2,0c0,0-0.5,0-1.3,0c-0.8,0-1.9,0-3.4,0c-2.2,0-5.1,0-8.3,0
		c-1.1,0-2.3,0-3.6,0c-2.6,0-5.3,0-8.1,0c-1.9,0-3.8,0-5.7,0c-2.6,0-5.1,0-7.6,0c-1.5,0-3,0-4.5,0c-3,0-5.8,0-8.1,0
		c-1.9,0-3.5,0-4.8,0c-0.3,0-0.5,0-0.7,0c-1.2,0-2,0-2.2,0c-1.9,0.1-1.8,0.4-1.3,5.8c0.4,5.4,1.3,5.4,1.3,5.4s-0.5,5.7-4.1,9.3
		c-1.9,1.9-5.1,3.7-11.5,3.7c-5.1,0-11.3-2.7-16.2-23.3C123.2,171.9,129.9,143.1,132.3,131.6z M214.8,196.8l-2.3,1.6
		c0,0,0,0-0.6,0.9c-0.6,0.9,0,0-2.3,0.3l1.1,1.9h-42l-0.3-2.2l-0.5-0.1l-1.4-0.2c0,0,1.1-1.3,0-1.3s0-2.2,0-2.2h10.4h3.3h7.5h5.9
		h7.9h3.5h8.3h0.4l0.7,0.8L214.8,196.8z M120,166.4c1.8-6.4,2.7-16.4,2.6-11.4c-0.1,3.2-2.5,16.1-1.8,21.4
		c1.4,10.9,1.8,31.9,10.5,39.7s15.5,5.5,20.1,4.1c4.6-1.4,7.8-6.4,7.8-6.4s1.6-1.7,1.1,3.3c-0.1,1.3,1.9,1.9,0.2,3.5
		c-4.9,5-15.2,10.4-22.8,7.3c-10-4.1-13.7-8.7-16.9-17.3c-3.2-8.7-1.4-9.1-1.8-12.3c-0.5-3.2,0.2-3.2,0.2-5.9S118.2,172.7,120,166.4
		z M150.7,269.3c-7.3-4.3-11.1-6.1-22.7-20.7c-11.5-14.5-12.6-23.2-14.3-31.3c-4.3-21.1-0.9-34.2-0.9-34.2s2.2,6.3,1.8,11.4
		c-0.4,5.1,4.2,26.2,12.3,36.4s12,9,16.2,14.1c4.3,5.1,0,0,3.8,3c3.8,3,4.7,3.4,6,3.4s2.1,2.1,3.8,3c1.7,0.9,3.4,1.3,6,2.1
		s2.6,1.3,5.1,3.8c2.6,2.6-1.7,3.4-1.7,3.4s3.4,1.7,4.3,5.1c0.3,1.2-0.4,3.8-0.4,3.8s3.4,1.3,7.7,1.7c4.3,0.4-0.4,1.1-2.1,1.6
		c-1.7,0.4-5,0-8.4,0c-3.4,0-2.1-0.6-6-1.4C159.5,274.3,158,273.6,150.7,269.3z M229.6,296.6l-79.7,1c0,0,1.5-2.5,3-2
		c1.5,0.5,4,1,4,1l4.9-2l55.9-0.5L229.6,296.6z M258.7,198.3c-0.5,5.9-4.3,17.6-7.5,19.7s-8,8-10.7,9.1c-2.7,1.1-14.9,0.5-20.3-5.3
		c-5.3-5.9-0.5-6.9-0.5-6.9s1.6,2.1,8,4.8c6.4,2.7,10.7,2.7,13.3,1.1c2.7-1.6,8-4.3,11.2-12.3c3.2-8,4.3-16.5,4.3-16.5
		S259.2,192.4,258.7,198.3z"/>
</g>
</svg>
