<?xml version="1.0" encoding="utf-8"?>
<!-- Generator: Adobe Illustrator 20.1.0, SVG Export Plug-In . SVG Version: 6.00 Build 0)  -->
<!DOCTYPE svg PUBLIC "-//W3C//DTD SVG 1.1//EN" "http://www.w3.org/Graphics/SVG/1.1/DTD/svg11.dtd">
<svg version="1.1" id="Layer_2" xmlns="http://www.w3.org/2000/svg" xmlns:xlink="http://www.w3.org/1999/xlink" x="0px" y="0px"
	 viewBox="0 0 360 360" style="enable-background:new 0 0 360 360;" xml:space="preserve">
<style type="text/css">
	.st0{fill:none;}
	.st1{fill:#FFFFFF;}
</style>
<g>
	<path d="M280,223.8l4.1-3.5c0,0-39.1-63.3-39.4-66.7c-0.3-3.3,0.1-7.9,0.1-7.9s-4.7-8-22.6-17.4c-16.8-8.9-35.7-9.2-52.8-7.9
		c-1.8-10.2,2.9-14.8,6.3-16.8c15.3-1.3,21.7,4,23.8,2.1c1.9-1.8,8-5.4,11.8-7.2c17.5,5.6,27,15.4,27,15.4s15.9-11.7,25.1-15.1
		c22.4-8.3,35-3.6,36.6-5.4l-0.3-0.5c0,0-3.6-4.5-5.8-6c-2.2-1.4-3.5-5.1-3.5-5.1l-4.2-4l-4.2-4.6c0,0-8-7.4-8.9-9.3
		c-1-1.9-3.6-4.5-5.9-4.8l-3-2.1l-0.3,0c0,0-2.3-0.3-7.4,3.3c-5.1,3.5-8.9,6-12.2,9.2c-3.3,3.1,6.6-11.6,9.8-13.5c0,0,0.6-1.4,1-2.9
		l-9.2-7.4l-3.3-1.6c0,0-5.7,8-9.2,13.6c-2.6,4.3-2.9,5.9-4.5,8.3c-3.6,5.5-3.6,6-2.9,4.4c0.7-1.5,9.5-22.8,12.6-28.4l-0.2-0.1
		c-0.8-0.3-1.5-0.6-2.3-0.9c-2.5-0.3-2.6-0.3-2.6-0.3l-7-0.8l-7.3-2.6l-7.9-2.7l-3.5-0.4l-5.9,0.5c0,0-5.2-0.6-7-0.8
		c-1.7-0.2-11.6-1.3-11.6-1.3l-9.9-0.6l-4.3,1.3c0,0-5.9,0.5-10,0c-4.1-0.5-9.7,2.4-9.7,2.4c-2.9,1.3-4.5,2-5.3,2.4
		c2.1,6.1,6.4,19.4,6.2,24.7c-0.2,7-1.9,1.5-4.2-4c-1.2-3-6.7-11.3-11.5-18.4c-2.3,0.6-4.4,1.2-5.3,1.8c-2.5,1.5-1.9,1-7.4,2.7
		c-0.1,0-0.2,0.1-0.3,0.1l-0.1,0.1c0,0-5.7,3.5-6.5,5.1s-5.5,1.5-4.7,4.6c0.8,3,1.7,3.2,1.4,3.1c-2-0.2-2.2-3.2-4.1-2.2
		c-1.9,1-3.5,2.5-5.9,3.5c-5.5,2.3-7,2.4-9.5,3.9c-0.4,0.2-0.6,0.3-0.8,0.4c-1,0.8-2,1.6-2.9,2.4c-0.2,0.1-0.3,0.3-0.5,0.5
		c-3.2,2.9-3.8,3.5-5.3,4.7c-1.1,1.1-2.2,2.1-3.3,3.2c-1.1,1.6-1.9,3.4-4.2,5.9c-3.1,3.3-3,3.6-3.4,3.7c0,0-0.5,1.5-3.2,4.1
		c-2.6,2.6-7.2,8.5-9.3,13s-2.8,6.4-4.2,9.1c-1,1.9-4,6.9-7.2,15c-0.8,2.4-1.6,4.7-2.3,6.9c-9,29.7-5.7,76.4,3.5,100.7
		c7.2,18.8,10.8,26,12.7,26.7c0.6,0.9,1.2,1.9,1.8,2.7c7.3,10.4,7,18.9,11.4,27.8l0,0c1.5,6.1,1.8,6.9,2.4,18.1
		c0.6,11.2-4.1,19.1,1.4,10.9c2.5-3.9,1.8-7.3,1.5-12.9c-0.3-5.6,4.7-14.9,2.9-23.5c-1.8-8.6,0.4-3.7,1.5-12.9
		c1.1-9.2,0.5-12-0.7-17.8c-1.2-5.7-6.3-25.9-6.9-37.1c-0.6-11.2-10.9-42.7,22.2-85.9c1-1.3,2-2.5,3-3.7l12.6,2.2
		c0,0,7.5-6.6,15-10.3c1.5-0.8,2.8-1.4,3.9-2c0.1,0,0.2,0,0.2,0c9.7-0.8,16.2,3.5,20.1,7.7c-18.1,4.7-41.4,17.8-50.4,50.1
		c-7.3,26.4-3,50.6-0.4,53.8c10.3,12.9,25,11.6,25,11.6s10.1,20.7,12,25.2c1.9,4.5-3.5,11.3-5.8,14.5c-2.3,3.2,13.7,3.8,25.2,0.2
		c11.5-3.6,40.3-13.2,40.3-13.2s10.5,5.9,45.2,9.4c34.6,3.6,60.5-7.9,60.5-7.9L280,223.8z M217.5,44.9l2.7,0.7c0,0-7,21-8.1,27.5
		c-1.1,6.5-2.9,7-2.9,7s-1.4-0.2-0.4-2.9c1-2.7,5.5-20.1,6.7-24.9S217.5,44.9,217.5,44.9z M207.3,44.5c3.2,0,6.7,0.1,6.7,0.1
		s-8.8,30.2-9.2,34s-2.7,5.3-2.5,3.2c0.2-1.9-1.5-1.7-1.9-1.6c-0.2,1.7-0.4,2.8-0.4,2.8l0.3-2.8c0,0,0,0,0.1,0
		c1.1-8.3,4.4-32.3,4.6-34.6C205.4,42.8,206.2,44.5,207.3,44.5z M187.5,49.4l0.1-6.7l3.6-1L189.7,76c0,0,0.7,3.2-0.3,2.8
		c-0.9-0.4-3.7-0.5-4.3-0.5c0.1,4.2-0.2,0-0.2,0s0.1,0,0.2,0c0-0.8-0.1-2-0.1-3.5c-0.3-9.5,0.4-22.1,0.4-22.1L187.5,49.4z
		 M176.6,218.2c0,0.1,0,0.1,0,0.1C176.6,218.3,176.6,218.3,176.6,218.2z M283.3,263.5c-7.9,1.2-29.1,2.3-46.5,0.8
		c-4.9-0.4-8.6-1.2-11.5-2c-7.8-1.8-20.9-6.7-23.2-6.9c-2.3-0.3-4.9,2.1-7.3,3.5c-7.6,4.2-19.7,8.4-26.7,11.1
		c-7,2.7-10.9,3.1-15.9,3.4c-1.3,0.1-8.1-0.2-8.1-0.2s1.6-0.3,1.5-2.3c0-0.3,0-0.7,0.1-1c1.1,0.2,17.8,3.3,35.8-8.4
		c18.7-12.1,20.3-14.3,24-13.8s7.1,3.2,8.7,3.7c1.6,0.5,2,0.2,3.9,1.8s1.7,2.6,3.8,2.5s1.6,0.5,4.1,0.1c2.4-0.4,2.6,1,4,0.5
		c1.4-0.5,3.3,0.4,4.1-0.5c1.9-2.1,1.3-2.2,0.3-2.7s-0.7-0.1-2.3-0.3c-2.7-0.3-2.7-0.3-2.7-0.3s-3-0.3-3.2-1.4s0.9-2.3,0.9-2.3
		l1.2-1.6c0,0,0.5-1.3,0.6-2.3c0,0-1.6-2-2.4-2.7c-1.9-1.6-3.4-0.1-3.4-0.1s0.2-1.3,0.3-2.3s-1.9-0.9-1.9-0.9s3.8-3.3,1.7-3.2
		s1.6,1.2-2,0.1c-3.6-1.1,0.1-0.7-3.6-1.1c-3.7-0.4-3.5-0.3-3.7-0.4c-1.2-1-2.4-0.6-2.4-0.6s-0.7,1.4-2.3,0.7
		c-3.2-1.4-2.4-2-3.4-2.8c-2.2-1.6-2.2-1.6-2.2-1.6s-3.6-4.1-5-4c0,0-1.8-2.2-1.3-3.2c0,0-0.1-2,0-3c0.1-1,1.1-1.4,0-2.6
		c-2.5-2.5-2.5-2.5-2.5-2.5s-0.4-2.1-1-2.8c-0.6-0.7-3.2,1-3.2,1s-1.8,0.5-2.8,0.7s-1.4,0.2-2.8,0.7l-6.9,1.2
		c-1.3,2.2-1.1,0.9-1.3,2.2c0,0,0,0,0,0.1c0,0,0-0.1,0-0.1s-0.6,2.3-1.6,2.5c0,0-2.4-0.5-3.4-0.1c-2.9,1.4-4.8,0.8-4.8,0.8
		s-1.4,0.2-2.4,0.1c-0.8-0.1-3.2,1.6-4.2,2.4c-1.2,0-2.5,0.2-4,0.5c-3.2,0.6-5,0.6-5.9,0.3c4.1-1.5,7.5-2.8,12.3-5.5
		c7.1-4,12.4-6.8,16.1-9c1.3-0.8,2.7-1.7,4.4-2.8c21.5-13.5,31.1-21.1,38.9-28.5c2.1-2,4.1-4.1,6-6.1c0-3.5-0.6-9.3-0.9-12
		c-2.6,3.6-6.7,7.7-13.4,13.4c-1.7,1.5-9.8,6.7-12.2,8.3c-2.4,1.6-5.1,2-7.3,1.4c-2.2-0.6,0.5-4.4,2-7.3c1.5-2.8,3.2-5.2,3.5-7.5
		s-0.2-4.5-0.1-5.6s-2.3-2.9-3.6-4.2c-1.4-1.3-1.1-3.5-0.9-5.3c0.2-1.8,0.9-1.4,1.4-2.5c0.5-1.1-0.4-3.4-5.9-7.1
		c-5.6-3.6-22.6,1.1-32.1,5.6s-16.5,22.8-17.5,24.6c-1,1.8-0.6,2.2-0.7,5.9l-3.1,4.5c0,0,3.7,0.4,6.5-1.1s-2.2,6.1-0.7,6.3
		c1.5,0.2-0.2,1.5-1.6,3.9c-1.4,2.5-14.8,8.4-18.9,7.9c-4.1-0.5-3.7-0.1-3.2-11.6s11.4-36.9,35.8-50.5c3.7-2.1,8.5-3.9,13.8-5.2
		c1.6-0.6,3.8-1.4,6.1-2.1c4.4-1.3,10.4-1.8,10.4-1.8c17.1-2.2,18.1-0.1,27.2,1.1s23.9,13.2,25.2,14.9s3.2,9.5,4.8,14.3
		s10,19.2,10,19.2s-0.9-1.2-2.1-2.8c3.4,5.2,8,11.9,11.2,16.8c4.2,6.5,15.3,23,15.3,23l-1.7,1.9c0,0-8.4-12.5-13.3-18.8
		c-2.9-3.6-10.2-13-15.8-20.1c-2.2,1.7-6,3.9-9.2,7.1c-3.3,3.3-10.3,13.3-10.3,13.3s4.6,2.1,10.1,0.8c8.7-2.1,12.7-5.7,12.7-5.7
		s0.5,0.8,1.7,2.5c-1.2,1.2-3.6,3.2-6.3,4.5c-1.8,0.8-4.4,1.8-7.6,2.7c-3.5-0.3-8.8-0.8-10.4-1c-2-0.2-8.2,1.4-10.8,2.1
		c-0.1-0.1-0.1-0.3,0-0.4c0.6-1,6.2-5.7,9.5-11.4s5.5-9.5,8.5-12.4c3-3,6.4-4.9,9-5.6c0.8-0.2,3.3-0.3,3.3-0.3s-0.3-1.6-1.5-1.9
		s-4.5,0-7.6,1.6c-3,1.6-8.7,7.5-11.1,11.4c-2.4,3.9-4.8,7.8-8.4,12.9s-6.5,6.2-6.1,6.9l2.2,2.7l5.9-1.8c1.8,0.1,3.4,0.2,4.6,0.2
		c0,0,3.3,0.1,5.7-0.1c2.4-0.2,13.1-2.4,16.4-4.2c2.2-1.2,4.6-3.2,5.9-4.3c1.2,1.6,2.7,3.6,4.7,6.1c5.4,6.8,36.1,53.8,36.1,53.8
		S291.2,262.3,283.3,263.5z M176.7,218.1C176.7,218,176.7,218,176.7,218.1C176.7,218,176.7,218,176.7,218.1z"/>
	<path class="st0" d="M257,205.7c-2-2.5-3.6-4.6-4.7-6.1c-1.3,1.1-3.7,3-5.9,4.3c-3.3,1.8-14,4-16.4,4.2c-2.4,0.2-5.7,0.1-5.7,0.1
		c-1.2,0.1-2.7-0.1-4.6-0.2l-5.9,1.8l-2.2-2.7c-0.4-0.7,2.5-1.8,6.1-6.9s6-9,8.4-12.9c2.4-3.9,8.1-9.8,11.1-11.4
		c3-1.6,6.3-2,7.6-1.6s1.5,1.9,1.5,1.9s-2.5,0.1-3.3,0.3c-2.6,0.6-6,2.6-9,5.6c-3,3-5.2,6.7-8.5,12.4s-8.9,10.4-9.5,11.4
		c-0.1,0.1-0.1,0.3,0,0.4c2.6-0.7,8.8-2.3,10.8-2.1c1.6,0.2,6.9,0.7,10.4,1c3.2-0.9,5.7-1.8,7.6-2.7c2.7-1.3,5.1-3.3,6.3-4.5
		c-1.2-1.7-1.7-2.5-1.7-2.5s-4,3.6-12.7,5.7c-5.5,1.3-10.1-0.8-10.1-0.8s7-9.9,10.3-13.3c3.2-3.2,7-5.4,9.2-7.1
		c5.6,7.1,12.9,16.4,15.8,20.1c4.9,6.2,13.3,18.8,13.3,18.8l1.7-1.9c0,0-11.1-16.5-15.3-23c-3.1-4.8-7.8-11.6-11.2-16.8
		c1.2,1.6,2.1,2.8,2.1,2.8s-8.3-14.4-10-19.2s-3.5-12.6-4.8-14.3s-16-13.6-25.2-14.9s-10.1-3.4-27.2-1.1c0,0-6,0.5-10.4,1.8
		c-2.3,0.7-4.5,1.5-6.1,2.1c-5.3,1.4-10.1,3.2-13.8,5.2c-24.4,13.7-35.2,39-35.8,50.5s-0.9,11.1,3.2,11.6c4.1,0.5,17.5-5.5,18.9-7.9
		c1.4-2.5,3.1-3.8,1.6-3.9c-1.5-0.2,3.5-7.8,0.7-6.3s-6.5,1.1-6.5,1.1l3.1-4.5c0.1-3.7-0.3-4.2,0.7-5.9c1-1.8,7.9-20.1,17.5-24.6
		s26.5-9.3,32.1-5.6c5.6,3.6,6.4,6,5.9,7.1c-0.5,1.1-1.2,0.6-1.4,2.5c-0.2,1.8-0.5,4.1,0.9,5.3c1.4,1.3,3.8,3.1,3.6,4.2
		s0.4,3.4,0.1,5.6s-2,4.6-3.5,7.5c-1.5,2.8-4.1,6.6-2,7.3c2.2,0.6,4.8,0.2,7.3-1.4c2.4-1.6,10.4-6.8,12.2-8.3
		c6.7-5.7,10.8-9.9,13.4-13.4c0.3,2.7,1,8.5,0.9,12c-1.9,2-3.9,4.1-6,6.1c-7.7,7.4-17.4,15.1-38.9,28.5c-1.7,1.1-3.1,2-4.4,2.8
		c-3.7,2.2-9,5-16.1,9c-4.8,2.7-8.2,4-12.3,5.5c0.9,0.3,2.7,0.3,5.9-0.3c1.5-0.3,2.8-0.4,4-0.5c1.1-0.8,3.4-2.5,4.2-2.4
		c1,0.1,2.4-0.1,2.4-0.1s2,0.6,4.8-0.8c1-0.5,3.4,0.1,3.4,0.1c1-0.2,1.6-2.5,1.6-2.5c0.2-1.3,0,0,1.3-2.2l6.9-1.2
		c1.4-0.5,1.8-0.5,2.8-0.7s2.8-0.7,2.8-0.7s2.6-1.7,3.2-1c0.6,0.7,1,2.8,1,2.8s0,0,2.5,2.5c1.1,1.1,0.1,1.6,0,2.6c-0.1,1,0,3,0,3
		c-0.5,1,1.3,3.2,1.3,3.2c1.4-0.2,5,4,5,4s0,0,2.2,1.6c1,0.7,0.2,1.4,3.4,2.8c1.6,0.7,2.3-0.7,2.3-0.7s1.3-0.4,2.4,0.6
		c0.2,0.2,0,0,3.7,0.4c3.7,0.4,0,0,3.6,1.1c3.6,1.1,0,0,2-0.1s-1.7,3.2-1.7,3.2s2-0.1,1.9,0.9s-0.3,2.3-0.3,2.3s1.5-1.5,3.4,0.1
		c0.8,0.7,2.4,2.7,2.4,2.7c-0.1,1-0.6,2.3-0.6,2.3l-1.2,1.6c0,0-1.2,1.2-0.9,2.3s3.2,1.4,3.2,1.4s0,0,2.7,0.3
		c1.7,0.2,1.4-0.2,2.3,0.3s1.6,0.5-0.3,2.7c-0.8,0.9-2.7,0-4.1,0.5c-1.4,0.5-1.6-0.9-4-0.5c-2.4,0.4-2-0.2-4.1-0.1s-1.9-0.9-3.8-2.5
		s-2.2-1.3-3.9-1.8c-1.6-0.5-5-3.3-8.7-3.7s-5.3,1.8-24,13.8c-18.1,11.7-34.7,8.6-35.8,8.4c-0.1,0.3-0.1,0.7-0.1,1
		c0.2,2-1.5,2.3-1.5,2.3s6.9,0.2,8.1,0.2c5-0.3,8.9-0.7,15.9-3.4c7-2.7,19.1-6.9,26.7-11.1c2.4-1.4,5-3.8,7.3-3.5
		c2.3,0.3,15.4,5.1,23.2,6.9c2.9,0.9,6.6,1.6,11.5,2c17.4,1.5,38.6,0.3,46.5-0.8c7.9-1.2,9.7-4,9.7-4S262.4,212.5,257,205.7z"/>
	<path class="st1" d="M176.7,218C176.7,218,176.7,218,176.7,218C176.7,218,176.7,218,176.7,218z"/>
	<path class="st1" d="M176.7,217.8C176.7,217.8,176.7,217.8,176.7,217.8C176.7,217.8,176.7,217.8,176.7,217.8z"/>
	<path class="st1" d="M176.6,218.2c0,0.1,0,0.1,0,0.1C176.6,218.3,176.6,218.3,176.6,218.2z"/>
	<path class="st0" d="M208.8,77.3c-1,2.7,0.4,2.9,0.4,2.9s1.8-0.5,2.9-7c1.1-6.5,8.1-27.5,8.1-27.5l-2.7-0.7c0,0-0.7,2.7-1.9,7.5
		S209.8,74.6,208.8,77.3z"/>
	<path class="st0" d="M200.1,83c0,0,0.1-1.1,0.4-2.8c0,0-0.1,0-0.1,0L200.1,83z"/>
	<path class="st0" d="M200.5,80.2c0.3-0.1,2.1-0.2,1.9,1.6c-0.2,2.1,2,0.6,2.5-3.2s9.2-34,9.2-34s-3.5-0.1-6.7-0.1
		c-1.1,0-1.9-1.6-2.2,1.1C204.8,47.9,201.6,71.9,200.5,80.2z"/>
	<path class="st0" d="M185,78.2c-0.1,0-0.2,0-0.2,0S185.1,82.4,185,78.2z"/>
	<path class="st0" d="M184.9,74.7c0,1.6,0.1,2.7,0.1,3.5c0.7,0,3.5,0.1,4.3,0.5c1,0.5,0.3-2.8,0.3-2.8l1.5-34.2l-3.6,1l-0.1,6.7
		l-2.1,3.3C185.4,52.6,184.6,65.2,184.9,74.7z"/>
</g>
</svg>
