<?xml version="1.0" encoding="utf-8"?>
<!-- Generator: Adobe Illustrator 20.1.0, SVG Export Plug-In . SVG Version: 6.00 Build 0)  -->
<!DOCTYPE svg PUBLIC "-//W3C//DTD SVG 1.1//EN" "http://www.w3.org/Graphics/SVG/1.1/DTD/svg11.dtd">
<svg version="1.1" xmlns="http://www.w3.org/2000/svg" xmlns:xlink="http://www.w3.org/1999/xlink" x="0px" y="0px"
	 viewBox="0 0 360 360" style="enable-background:new 0 0 360 360;" xml:space="preserve">
<style type="text/css">
	.st0{fill:#FFFFFF;}
	.st1{fill:none;}
</style>
<g id="Layer_1">
</g>
<g id="Layer_4">
	<g>
		<path d="M261.6,289.7l-0.4,0.6C261.7,290.1,261.8,289.9,261.6,289.7z"/>
		<path d="M139.6,148.7c-0.1,0.5-0.2,1-0.4,1.5c0.6-0.5,1.3-1.1,2-1.7C140.8,147.9,140.2,147.9,139.6,148.7z"/>
		<path d="M142.1,160.6c-0.2-0.2,0.4-0.2,2.3-0.4c0.3,0,0.6-0.1,0.8-0.1l-0.6-2.5c-2.9-1-2-1.4-2-3.6c0-1.1-0.3-3-0.9-4.4
			c-0.9,0.9-1.7,1.8-2.4,2.6l1.1,8.5L142.1,160.6z"/>
		<path d="M142.2,174.9c0.7-0.6-0.2,1.7,3.5,2.7c2.6,0.7,2.4,3.6,6.5,3.7c-4.5-2.5,8.1-0.5,1.5-3c-0.4,0.2-1.1,0-1.7-0.9
			c-0.1-0.1-0.1-0.2-0.2-0.2c-0.3-0.4-0.6-1-0.8-1.7c-1-2.6-1-1-2-4.6c-1.9,0.3-0.4,1.8-1.9,0.3s-1.9-4.2-1.9-4.2l3.2-1.4
			c-0.1-0.2-0.3-0.4-0.5-0.6c-2-0.5-2.3-1.5-2.3-2.2c-0.3-0.3-0.6-0.5-0.6-0.6c-0.5-0.3-1-0.6-1.5-0.8l-2.8,0.7l1,7.4L142.2,174.9z"
			/>
		<path d="M104.1,121.9c-0.8,0.5-3.1,2.3-4.8,4.3l0,0c0.7,0,1.7,0.1,2.9,0.2L104.1,121.9z"/>
		<path d="M85.1,128.4c0.2,0,0.5,0,0.7,0c0.6-1.9,1.2-3.9,1.8-5.8c0.1-0.5,0.3-0.9,0.4-1.4c0,0,3.6-5.4,4.8-9c1-2.9,1.6-4.7,2.7-5.8
			c-0.9,0.3-2.2,0.4-2.6,1c-0.5,0.8-1.3,1.1-2.1,1.4c-2.6,4.6-7.1,12.4-8.8,14.8c0,0-0.1,0.1-0.1,0.1l3.5,1.2
			C85.7,124.8,85.4,126.3,85.1,128.4z"/>
		<polygon points="131.8,200.9 131.7,202.5 132.4,201.1 		"/>
		<path d="M273.7,282c2.3-2.9,1.1-2,0-1.3c-0.5,0.6-1.4,1.4-2.5,2.8c0,0,0,0,0,0c0.1,0.2,0.3,0.3,0.5,0.4
			C272.2,283.7,272.8,283.1,273.7,282z"/>
		<path d="M89,109.6c-0.4,0.2-0.8,0.3-1.5,0.4c-0.9,0.2-4,3.6-5.7,5.3c-1.1,2.1-2.4,4.5-3.7,6.9l2.3,0.8
			C82.9,118.8,86.7,113,89,109.6z"/>
		<path d="M187.7,58.1c-73.1,0-132.4,59.3-132.4,132.4s59.3,132.4,132.4,132.4s132.4-59.3,132.4-132.4S260.8,58.1,187.7,58.1z
			 M313.3,218.7c-1.4,4.6-1.7,4-2.9,7.7c-1.1,3.7-0.6,6-2,9.7c-1.4,3.7-2.6,7.2-5.4,13.4c-0.7,1.5-1.3,2.8-1.9,3.8l-1.3,3.8
			c0,0-6.8,11.4-7.7,9.8c-0.7-1.2-1.2-1.9-1.7-2.4c-0.2,0.2-0.4,0.3-0.5,0.5c-0.6,1.2-0.3,0.2-0.7,1.6c-0.5,1.6-1.2,1.2-1.3,2.4
			c-0.3,2.4-0.5,2.1-2.4,3.9c-1.8,1.8-0.5,0.3-1.8,1.8c-1.3,1.6-2.4,2.4-3.1,3.1c-0.8,0.8-0.3,2.6-1.8,2.9c-0.6,0.1-1.1,0-1.4-0.4
			c0,0,0,0,0,0c-1.4,1.8-4,4.5-5.6,3.5c-0.5,0.3-0.9,0.3-1.1,0.1c-0.3,0.3-0.5,0.6-0.8,0.9c-1,1.1-3.8,3.4-3.8,3.4l-4.8,2l-1.9,0.4
			c0,0,0,0,0,0c-0.9,0.6-1.1,0.4-1.2,0.3l-0.2,0c-0.1,0.1-0.2,0.4-0.5,1c-0.9,2.1,0.2,2.6-2.1,4.6c0.6-0.2,1.1-0.5,1.4-0.8
			c1.1-1.1,2.5-1.9,2.5-1.9s1.7,0.3,2.7,0c1-0.3,1.8-0.7,2.5-1.1c1-0.7,2.4-1.7,3.7-2.9c0.7-0.6,1.1-1.1,1.5-1.6
			c-0.3-0.2-0.3-0.5,0.4-0.5c0.5-0.7,0.5-0.9,0.5,0c2.4,0.3,2.6-0.5,4.2-1.6c1.6-1,6-5,2.6-1.8c-3.4,3.1-6.3,5.8-9.2,7.9
			c-1.4,1-2.7,1.7-3.7,2.3c-1.5,1.5-4.2,3.1-4.2,3.1s-12.9,8.8-19.2,11.3c-1.7,0.7-2.9,1.1-3.8,1.3c-2.9,1.3-5.5,2.4-6.6,2.6
			c-0.5,0.1-1.4,0.2-2.5,0.4c0.2,0.7,0.9,0.4-0.7,1c-2.2,0.8-2.2,0.8-8.2,1.4c-2.1,0.2-3.7,0.2-4.8,0.2c-0.3,0.1-0.6,0.2-0.9,0.2
			c-2.9,1.1-1.1,1.9-4,1.9s-3.7,0.5-8.6,0.8c-4.8,0.3-13.6,1.3-20.1,1.1c-6.4-0.3-8-1.9-9.9-2.7s-1.3-0.5-3.5-0.5
			c-0.5,0-0.9,0-1.4,0.1c-0.6,0.2-2.1,0.5-2.1,0.5s0.8-0.3,2.1-0.5c0.4-0.1,0.4-0.2-0.8-0.1c-2.9,0.3,0.3,1.1-2.9,0.3
			s-1.9,0-4.3-0.8c-2.4-0.8-3.2-0.3-4.5-0.8c-1.3-0.5,2.7,2.1-2.4-0.8s-2.7-2.9-5.1-2.9c-2.4,0-2.4,0-2.4,0s1.9,1.3-1.3,0.3
			c-3.2-1.1-1.1-0.8-3.2-1.1s-1.6,0-3.5-1.1c-1.9-1.1-2.4-0.5-3.7-1.9c-1.3-1.3-2.1-1.6-3.2-2.4c-2.9-2.1-3.7-1.3-4.3-2.7
			c-0.5-1.3-3.5-0.3-6.4-2.9s-4-3.5-5.1-4.5c-0.4-0.4-0.6-0.7-0.8-1c-5.4-3.7-10.7-8-15.1-12.7c-6.4-6.7-15.3-18.2-21.4-28
			c1.6,3.3,3,5.9,3.4,6.7c1.2,2.4,6,10.9,6,10.9s-15.7-20.5-21.1-36.9c-5.4-16.3-8.1-39.9-8.1-39.9l2.9-16.9c0-0.4,0-0.9,0-1.4
			c0-4.5-1-9.1,1.5-20.2c1.8-8,9.4-22.4,13.5-29.7c1.9-5.3,6.7-11.8,9.3-15.1c0.8-1,1.4-1.7,1.7-2c0,0-0.5,1-1.4,2.7
			c0.4-0.5,0.7-1,1.2-1.6c9.8-13.5,14.1-14.7,18.4-19.6s27.3-17.5,31-19.6c3.7-2.1,16.3-5.2,25.1-7.7c8.9-2.5,18.7-1.2,27-1.8
			s18.4,0.6,24.8,1.2c0.9,0.1,1.7,0.2,2.4,0.3c4.5,0.2,8.4,0.8,10,1.8c1.9,1.3,5.7,3.2,5.7,3.2s8.6,1.8,7.9,2.4
			c3.1,0.9,6.2,2.1,8.1,3.2c0.9,0.5,2,1.2,3.2,2c0.1,0,0.1,0,0.2,0.1c1.9,0.8,1.1,0.5,1.7,1.1c5.3,3.5,12.2,8.2,15.5,10.9
			c4.6,3.7,23.3,20.9,28.2,29.5c0,0,13.5,20.5,16,30c1.3,4.9,2.6,10.2,3.6,15.3c0.3,0.3,0.7,1.2,1.3,3.1c2.5,7.1,1.8,23.3,1.8,30.4
			c0,5-1.7,14.1-2.7,19.1C314.2,215.9,314.3,215.6,313.3,218.7z"/>
		<path d="M286.3,267.5c0.3-1,0.6-2,0.7-3.1c-1,0-2.1,0-2.6,0.2c-0.9,0.3-1.2,0.6-2.1,1.2c-0.9,0.6-1.5,1.2-2.1,2.5
			c-0.3,0.6-0.6,1.1-0.9,1.5c0.7-0.3,1.5-0.7,2-0.9c0.2-0.1,0.4-0.3,0.6-0.5c-0.1-0.6-0.1-1.2,0.3-0.4c0.3-0.6,0.3-0.9,0.2,0.4
			c1,2.6,1.3,2.1,2.1,1.6C284.9,269.5,285.6,268.4,286.3,267.5z"/>
		<path d="M107.3,98c-1.1-0.3-2.5,0.1-2.5,0.1c-0.9,0.9-2,1.5-3.2,1.5c-0.2,0.4-0.5,0.8-0.9,1.5c-0.6,1.1-0.8,1.8-0.8,2.2
			c3.5-2.1,5.9-3.2,5.9-3.2S106.4,99.2,107.3,98z"/>
		<path d="M96.5,105.5c0.7-0.4,1.3-0.8,1.9-1.2C97.5,104.6,96.5,105,96.5,105.5z"/>
		<path d="M59.6,185.1c0-0.4,0-0.7,0-1.1c0-0.1-0.1-0.1-0.1-0.2L59.6,185.1z"/>
		<path d="M307.9,210.9c-0.1,0.4-0.1,0.6,0,0.7c0,0,0,0,0,0C307.9,211.3,307.9,211.1,307.9,210.9z"/>
		<path d="M307.9,209.6c-0.7,0.3-0.2,0.1,0,1.3c0.1-0.4,0.4-0.9,0.8-1.7C307.9,206.8,308.7,209.2,307.9,209.6z"/>
		<path class="st0" d="M179,150.5c0.9,0.8,1.4,0.8,1.7,0.8C180.2,151,179.8,150.8,179,150.5z"/>
		<path class="st0" d="M180.9,151.4L180.9,151.4C180.9,151.4,180.9,151.5,180.9,151.4C180.9,151.5,180.9,151.4,180.9,151.4z"/>
		<path class="st0" d="M181.1,152.1C181.1,152.2,181.2,152.3,181.1,152.1L181.1,152.1z"/>
		<path d="M92.3,136.1c-0.5,0.3-0.9,0.7-1.2,1c0.6,0.5,1.4,1,2.2,1.6c0.4-0.3,0.7-0.6,1-0.9l-0.5-0.4l0.6,0.4
			c2.9-2.5,2.9-2.6,2.9-2.6l9.8,3.7l-7.9-12.6c-0.4,0-0.8,0.1-1.4,0.1C96,131.1,93.9,135,92.3,136.1z"/>
		<path d="M99.8,233.8v2.2c-0.9-0.3-2.8,0.3-2.8,0.3l-1.6-0.4c0,1.2-0.2,2.3-0.2,2.3l0.3,1.1c-1.2,0,0.1,0.3-1.9-0.2
			c-0.4-0.2-0.7-0.5-1.1-0.7c-0.8,0.2-1.9,0.5-3.1,1.1c-0.4,0.2-0.7,0.3-1,0.4c-0.2,0.2-0.3,0.5-0.5,0.7c-1.5,2.2-2.2,1.1-2.6,3.7
			c-0.1,0.7-0.1,1.2-0.1,1.6c2.3,3.6,5.1,7.6,8.5,11.9c0.2,0,0.5,0.1,0.8,0.3c1.6,1.2-0.2,1.2,1.6,1.2c0.5,0,0.8,0.2,1,0.5
			c0.1-0.7,0.5-0.6,1.6,1c1.8-1.2,2.2-2.6,3.7-1.5c1.5,1.1,1.1,3.1,2.4,3c1.3-0.1,2.3-0.9,2.3-0.9c0.2-0.2,0.3-0.5,0.5-0.7
			c0.3,0.2,0.6,0.3,1,0.5l0.4-0.9l1.1-2.9c0.2-0.7,0.4-1.3,0.6-1.9c-1-2.1-1.9,0.6-0.9-2.3c0.5-1.5,1.4-0.6,2,0
			c0.1-0.1,0.1-0.2,0.1-0.2s0.2-0.5,0.4-1.2c0,0,0-0.1,0-0.1c-1-5-0.5-1-1-5s-2.5-4-2.5-4l-2-0.5l-1.5-2c0.3-0.3,0.6-0.5,0.8-0.7
			c-0.1-0.5-0.2-1.1-0.1-1.7L99.8,233.8z"/>
		<path d="M100.5,231.5c-1.2-0.8-1-1.5-0.8-1.9c-0.1,0.1-0.4,0.2-0.7,0.4c-0.2,0.1-0.3,0.2-0.5,0.3l1.3,1.1v0.2l7.1,4.3
			c0.5-0.4,0.2-0.4,0.4-1.5c0-0.2,0.1-0.3,0.1-0.5l-5.2-3.2C100.6,231.5,103,233.3,100.5,231.5z"/>
		<polygon points="276.5,135.5 275.4,134.4 258.9,146.8 258.9,148 259,148.6 278.9,136.5 278.7,136.2 		"/>
		<path d="M271.1,132.7c-0.4,0.3-0.8,0.7-1.1,0.9c-0.7,0.7-1.7,0.2-1.7,0.2l-1.5-0.1l-7.9,8v2.8l16.2-10.6l-0.4-0.4
			C274.8,133.7,272.8,133,271.1,132.7z"/>
		<path d="M285.7,153.8c-0.7-2.1,0.8-4.4,0.8-4.4s1.3,0.9,0.3-5.1c-1.1-6,1.1,3.2,0.4-2.1c-0.6-4.8-0.4,0.8-2.7-1.7l-24.3,12.6
			c0.1,0.3,0.3,0.5,0.6,0.9l15.8-3.3l-14.5,4.6c0.6,0.7,0.4,0.7,1.7,0.5c1.1-0.2,1.2,0.2,1.5,1.2l9.7,1.9l-9.2-0.4
			c0.4,1.1,0.3,0.7,1.8,1.6c1.7,0.9,0,0,1.9,1.7c0.7,0.6,0.9,0.2,2.4,0.7s0,0,1.4,0.2s-0.5,1.2,1.4,0.7c1.9-0.5-0.5,0.9,2.1,0.9
			s0,0,1.2-1.2s0.2,1.2,2.4-1.2s0.5,1.9,1.7-1.1c-1.2-1.8-0.9-0.3-1.2-1.8c-0.3-1.5,0.6-3.4,0.6-3.4l2.5,1.2c0,0,1.2,0.6,1.8,1.5
			l2.3-1C287.8,155.2,286.4,155.9,285.7,153.8z"/>
		<path d="M280.1,138.3l-1-1.5l-19.9,13.6c0,0.2,0.1,0.5,0.1,0.8l24.9-10.9c-0.2-0.2-0.4-0.5-0.6-0.9L280.1,138.3z"/>
		<path d="M259.1,139.9l7.1-6.2l-0.7-0.1c0,0-1.2,0.5-1.7,1.2c-0.5,0.7-0.9,0.5-1.9,1.4s0,0-2,0.7C260,136.9,259.4,138,259.1,139.9z
			"/>
		<path d="M282,161.5c0,0.2-0.1,0.5-0.1,0.7C282,162,282,161.8,282,161.5z"/>
		<path class="st1" d="M145.6,162.7c0,0.7,0.3,1.7,2.3,2.2c0.2,0.2,0.3,0.4,0.5,0.6l0.9-0.4C149.2,165.1,146.8,163.6,145.6,162.7z"
			/>
		<path d="M144.7,157.6c2.9,1,1.5-0.1,4-0.5c1-0.2,1.4-0.3,1.9-0.5c0.9-1.1,2-2.3,2.8-3.1c1.6-1.6,1.9-1.9,1.6-2.8
			c-0.9-2.2-0.6-3.4-0.6-3.4l-3.1-0.9c-1.5-2.7-1.3-3.6-2.3-4.2c-2.4,2.6-4.9,5.2-7,7.5c0.5,1.4,0.9,3.3,0.9,4.4
			C142.7,156.2,141.8,156.6,144.7,157.6z"/>
		<path d="M121.3,94.5c-0.1,0.1-0.1,0.1-0.2,0.2l0,0.3c0.6-0.5,1.4-1,2.1-1.5C122.8,93.3,123,93.2,121.3,94.5z"/>
		<path d="M214,120.4c0.4,0.2,0.7,0.4,0.7,0.4c-0.1-0.3-0.2-0.4-0.2-0.6c-0.1-0.1-0.2-0.2-0.3-0.3L214,120.4z"/>
		<path d="M213.5,118.9c-0.2-0.2-0.3-0.5-0.5-0.7c0,0,0.1,0.7,0.2,1.5L213.5,118.9z"/>
		<path d="M227,150.1c0,0,0,0.1,0.1,0.1c0.4-0.5,0.1-0.2,0.2-0.4c-0.3-0.2-0.6-0.4-0.9-0.6C226.6,149.5,226.9,149.8,227,150.1z"/>
		<path d="M214.5,120.3C214.9,120.7,214.4,119.8,214.5,120.3L214.5,120.3z"/>
		<path d="M271,185.3c1,0.2,2.1-0.2,2.9-0.4c-0.2-0.3-0.2-0.6-0.6-0.9c-2.2,0.5-2.5-0.1-4.1-1.1C269.4,183.9,269.7,185.1,271,185.3z
			"/>
		<path d="M245.7,156.5c0.3,0,0.6,0,1.1,0.1c2.2,0.2,0,0,2,0.2s0,0,0.8,1.4s0,0-0.6,0.8s-2.2,0.2-1.6,2c0.6,1.8,0,0-0.2,1.4
			c-0.2,1.4,0,0,0.6,1.4c0.5,1.2-1,2.2-0.1,2.9c0.3-0.3,0.7-0.7,1.4-1.4c-0.5,0-0.5,0-0.5,0l-0.4-5.2c0,0,3.3,0,3.9-0.8
			c-0.7-0.7-1-1.5-1-1.5l-0.2-1.9c0,0,0,0-1.4,0.5c-0.2,0.1-0.4,0.1-0.7,0.2l-2.1-0.2C246.6,156.3,246.2,156.4,245.7,156.5z"/>
		<path d="M247.9,210.3c0.1,0.1,0.3,0.2,0.4,0.3c0.2,0,0.4,0,0.7,0c0,0,0,0-0.1-0.1C248.3,210,247.9,210.3,247.9,210.3z"/>
		<path d="M242.8,206.2l-1.2-0.1c0.9,0.6,2,1.1,2.9,1.3c-0.1,0-0.1-0.1-0.1-0.1L242.8,206.2z"/>
		<path d="M210.1,199.3c-1.3-0.1-2.7-0.4-3.9-0.7c-0.1,0.3-0.3,0.5-1,0.4c0,0.2,0,0.4,0,0.6C206.9,199.5,208.5,199.4,210.1,199.3z"
			/>
		<path d="M218.5,231.5c0,0,0.1-0.1,0.1-0.1C218.6,231.4,218.5,231.4,218.5,231.5z"/>
		<path d="M222.8,210C222.7,210,222.7,210,222.8,210c-1-0.2-1.6-0.4-2.3-0.6c0,0-0.1-0.1-0.3-0.3l-26.7-3.1l0.5,1.3l22,8.6
			c0-0.2,0.1-0.4,0.1-0.6c0-0.3,0.1-0.6,0.2-0.9c0.9-0.3,0.3-0.7,1.6,0.2c0.8,0.6,1.5,1.3,2,1.8l4-6.2
			C223.5,210.2,223.1,210.1,222.8,210z"/>
		<path d="M238.8,216.4c-0.5-0.2-0.8-0.4-1.1-0.6l-18.8,16c0.2,0.2,0.6,0.4,1.1,0.7c3.3,3.3-0.4-0.8,2.8,1.6l17.1-13.2
			c-0.1-0.1-0.2-0.2-0.3-0.3C237.5,218.6,242.3,217.7,238.8,216.4z"/>
		<path d="M241,223.8c-0.2-0.4-0.3-0.7-0.3-0.9l-16.3,12.5c3.3,2.6,1.5,0.7,3.1,0.7c1.7,0,3.5-0.4,4.4,0.9c0,0,4.5,3.1,4.8,1.7
			c0.9-3.9,2.6,2.2,2.2-2.2c-0.4-4.4,1.3,2.2,0.9-2.6c-0.4-4.8-0.9-1.3-0.4-4.8C239.7,225.6,242.3,226.9,241,223.8z"/>
		<path d="M231.3,212.6c-1-0.3-0.3-0.5-1.6-0.1c-3.5-1.3-0.4,0-3.5-1.3c-0.1,0-0.2-0.1-0.3-0.1l-5.2,6.3c0.2,0.2,0.3,0.4,0.3,0.4
			s-1.3,4.4-2.2,5.7c-0.3,0.4,0.3,0.4,1,0.3L231.3,212.6z"/>
		<path d="M235.8,213.4c-2.6-0.4-0.7-0.1-2.1-0.3l-12.8,10.5c1.2-0.2,2.3-0.2,1,1.1c-2.6,2.6-1.7,0.9-1.7,4.4c0,0.4-0.1,0.8-0.2,1.1
			c5.8-5.5,13.1-12.2,17.2-15.2C237,214.2,237.7,213.6,235.8,213.4z"/>
		<path d="M149,79.9c2.4-0.3,2.7-1.5,2.4-0.3c-0.2,1-0.7,1.5,1.1,1.5c1.3-0.3,2.5-0.7,3.5-1.1l8.2-5.8c-0.5-0.3-1-0.8-0.8-1.6
			c0.3-1.8,0,0-1.8-0.2l-1.3,0.5c-0.9,0.5-1.7,1.3-2.6,1.3c-1.3,0-1.7,0.9-3.5,0.9l-5,4.6C149,79.7,149,79.8,149,79.9z"/>
		<path d="M199.7,82.1l1.7,6c1.9,0.1,3.9,0.5,5,0.2l-2.8-7.6c-0.7,0-1.4,0.2-1.9,0.5c-0.8,0.5-1.6,0.3-2.2,0.1l0.1,0.3
			C200.2,82.2,200.1,82.3,199.7,82.1z"/>
		<path d="M178.3,88.5c0,0,1,0.6,2.1,1.3l5.3-9.6c-1.9,0.2-3.7,0.4-3.7,0.4l0,0l-4.7,7C177.7,87.9,178.1,88.3,178.3,88.5z"/>
		<path d="M195.4,90.9l1.1-0.5c0,0,1.2-1.8,2.4-2.1l-1.6-7.3c-0.7-0.3-1.6-0.6-2.3-0.7c-0.3-0.1-0.5-0.1-0.7-0.1L195.4,90.9z"/>
		<path d="M189.5,91.9c0.5-0.1,0.2-0.1,1.1-0.3c1.2-0.3,1.8-0.5,1.8-0.5c0,0,0,0,0,0c0,0,0,0,0,0c0,0,0.5-0.1,1.1-0.1l0.2-11
			c-0.3-0.1-0.4-0.1-0.4-0.1l-2-0.2L189.5,91.9z"/>
		<path d="M217.7,85.8l0.3,0.3C217.9,86,217.9,85.9,217.7,85.8z"/>
		<path d="M182.3,91.3c1.2,1.2,2.8,2.5,2.8,2.5s1,0.2,1.8,0.3l4.1-14.3l-0.6-0.1c-0.5,0.1-1.5,0.2-2.7,0.4L182.3,91.3
			C182.3,91.3,182.3,91.3,182.3,91.3z"/>
		<path d="M173.7,83.3c1.2,2.1,1.2,2.1,1.2,2.1s0.3,0.2,0.6,0.6l4.4-6.3l-2.5-1l-1.7-1.5l-4.3,5.1C172.5,82.9,173.7,83.3,173.7,83.3
			z"/>
		<path d="M169.7,76.6c-0.7,0.2-1,0.1-2.2-0.6c-1.5,1.2-3.9,2.8-6.1,4.3c2.7-0.1,5.7-0.1,5.2,0.8c-0.5,1.1,1.3-0.1,2.4,0l3.2-4.2
			h-0.1C172.2,76.9,170.7,76.3,169.7,76.6z"/>
		<path d="M227.1,99c0,0-0.1,0-0.1,0l-5.2,16.5c0.1,0.1,0.3,0.3,0.5,0.5c3.4,3.9,0.8,4.4,2.8,4.5l3.2-16.8c-0.2-0.5-0.2-0.4-0.9-0.7
			c-0.2-0.1-0.2-0.1-0.2-0.1c0.5,0.2,1,0.4,1.2,0.4l0-0.2c-0.1-0.1-0.2-0.2-0.3-0.3c0.1,0,0.2,0,0.3,0l0.3-1.8
			C227.6,99.9,227.2,99.3,227.1,99z"/>
		<path d="M224,98.9l-9.1,19.7c4.2,0.7,4.2,0.7,4.2,0.7s-0.5-6.6,2.4-4l4.6-16.2c-0.1,0-0.3,0-0.5,0C224.9,98.9,224.4,98.9,224,98.9
			z"/>
		<path d="M227.1,99C227.7,98.9,226.9,98.5,227.1,99L227.1,99z"/>
		<path d="M234.9,118.7c0.3,0.1,0.4,0,0.1-0.4L234.9,118.7z"/>
		<path d="M230,102.1c-0.1-0.1-0.2-0.2-0.3-0.3l-0.2,0.8C230,102.6,230.4,102.4,230,102.1z"/>
		<path d="M217.1,97l-0.1,0.2C218,96.7,217.7,96.8,217.1,97z"/>
		<path d="M248.6,75.8c-0.1,0-0.1,0-0.2-0.1c0.6,0.4,1.2,0.8,1.9,1.2C249.7,76.2,250.5,76.6,248.6,75.8z"/>
		<path d="M145.6,162.7c1.2,0.9,3.6,2.4,3.6,2.4l-0.9,0.4l-3.2,1.4c0,0,0.4,2.7,1.9,4.2s0,0,1.9-0.3s2.7-0.5,2.7-0.5s0.1,0,0.4,0.1
			c-1.6-3.1-2.9-5.8-3.7-7.4c-1.8,0,0.1,0-2.6-1c-0.6-0.2-0.8-0.2-0.7,0C145,162.2,145.3,162.4,145.6,162.7z"/>
		<path d="M186,158.2c-0.3-1.6,0.6-1.5,1-2c-3.8-2.3-2.4,0.3-2.8-1.9c-0.1-0.6,0.2-1.2,0.7-1.7c0.5,0.1,1,0.1,1.6,0.2
			c-0.2-0.2-0.4-0.3-0.5-0.4l-0.4,0.1c0,0.2,0,0.3-0.2,0l0.2,0c0-0.2,0-0.3,0.4-0.1l1.1-0.1l-12.8-8.8c-0.1,0.5,0,1,0.6,1.5
			c2.5,2.3-1.7-0.1,1.4,2c1.8,1.3,1.5,2,1.5,2.5c-5.9-5-7.2-6.1-5-2.5c2.3,3.8-0.4,0.5,1.6,4.9l8.8,8.5c1.1-0.4,1.1-0.4,1.1-0.4
			l1.1,0.4c0-0.1,0-0.1,0-0.2C184.7,157.7,186.5,160.4,186,158.2z M180.9,151.4C180.9,151.4,180.9,151.5,180.9,151.4
			C180.9,151.5,180.9,151.4,180.9,151.4L180.9,151.4z M181.1,152.1C181.2,152.3,181.1,152.2,181.1,152.1L181.1,152.1z"/>
		<path d="M151,163.1c0,0,0.1,0,0.1,0C151,163.1,151,163.1,151,163.1z"/>
		<path d="M164.8,176.7c0,0,1.4,0.2,2.3-0.2c0.2-0.1,0.4-0.2,0.7-0.3c-3.5-5.1-7.7-11.3-10.2-15.1c-0.8,0-1.5,0-1.2,0.5
			c0.3,0.5-0.5,0.8-1.5,1l8.7,14.7L164.8,176.7z"/>
		<path d="M151.1,163.1c0,0,0.1,0,0.1,0C151.2,163,151.1,163,151.1,163.1z"/>
		<path d="M150.9,163.1C150.9,163.1,150.9,163.1,150.9,163.1C150.9,163.1,150.9,163.1,150.9,163.1z"/>
		<path d="M176.1,172c-0.2-1.2,0-1.5,0-2.2l-14.6-16.3c-0.6,0.5-1,1.2-1,1.2c0.1,0.4-0.2,0.8-0.7,1.1l15.6,19.6
			C175.5,173.1,176.3,173.3,176.1,172z"/>
		<path d="M155.4,177.2c-0.2,0-0.3,0.1,0.1,0.1C155.4,177.3,155.4,177.2,155.4,177.2z"/>
		<path d="M157.8,177.6C157.8,177.6,157.8,177.6,157.8,177.6c0.8,0.1,1.5,0.3,2.1,0.4c0.2-0.1,0.4-0.2,0.6-0.2
			c0.4-0.1,0.7-0.2,1-0.2c-3.1-5.2-6.4-11-8.5-14.7c-1.1,0.1-2,0.2-2,0.2c-0.2,0-0.3,0-0.4,0.1L157.8,177.6z"/>
		<path d="M151.5,163C152.6,162.8,152,162.9,151.5,163L151.5,163z"/>
		<path d="M151.2,163c0.1,0,0.1,0,0.2,0C151.4,163,151.3,163,151.2,163z"/>
		<path d="M163.2,153.1l13.5,15.3c0.3-0.3,0.7-0.6,0.9-1c0.1-0.3,0.3-0.6,0.5-0.8c-3.2-3,1-0.9-2-3.5c-0.7-0.6-1-1-1.2-1.3
			l-10.4-10.3C163.9,152,163.2,153.1,163.2,153.1z"/>
		<path d="M159.7,155.9c-0.9,0.6-2.1,1.2-1.9,1.9c0.3,0.9,0.1,0.4,0.9,1.3c0.2,0.3,0.6,0.7,1,1.4c0.3,0.4,0,0.6-0.5,0.7l10.3,14.9
			c0.2,0.1,0.3,0.1,0.5,0.3c0.7,0.7,0.7,0.5,1.6,0.5c0.9,0,0.9,0,1.8,0s0.9,0,0.9,0s0.3,0.1,0.5,0L159.7,155.9z"/>
		<path d="M173.5,153.9c0.8,1.1,3.1,3.1,0.4,1.5c0,0-3.4-1.9-4.6-2.3c-0.4-0.1-0.8-0.3-1.3-0.5l9.1,8.6c0.1,0,0.2,0,0.2,0
			s0,0.1,0.1,0.4l1.6,1.5c0.9-0.3,1.2-0.1,2.2-0.3c0.3-0.1,0.4-0.2,0.4-0.3c-1.7-1.9-1.6-1.2-0.2-1.5l-8.2-7.8
			C173.3,153.3,173.3,153.6,173.5,153.9z"/>
		<path d="M307.9,211.6C307.9,211.6,307.9,211.6,307.9,211.6c0.3,0.2,1.3-1,0.8-2.4c-0.5,0.8-0.7,1.3-0.8,1.7
			C307.9,211.1,307.9,211.3,307.9,211.6z"/>
		<path d="M61.7,210.8l-1.4-17.3c-0.3-0.5-0.7-4.5-0.7-6.5c0-0.2,0-0.6,0.1-1l-0.1-0.9l-0.1-1.3c0,0.1,0.1,0.2,0.1,0.2
			c0.1,0.2,0.2,0.5,0.3,0.7c0.8-5.1,3.1-15.1,3.1-15.1c0.3,0.9-1.1,10.9-1.8,17.7c0.9,1.6,1.4,1.9,1.4,3.6c0,0,0.5,1,0.5,3
			c0,2,0,6,0,6c-0.5,6.6,1,9.1,1,9.1c1.5-3.5,0-6,1.5-3.5c1.5,2.5,1-1.5,1.5,2.5s1,6,1,6c0,4-1,1.5,0,4c1,2.5,1,2.5,1,2.5
			s0.3,0.4,0.9,1c-1.5-11.3-0.7-30.1-0.7-30.1s1.1,13,1.5,19.3c0.2,3.1,0.9,8.7,1.6,13.4c1.2,1.1,2.2,1.7,1.7-0.1c-1-4-1-4-1-4
			l2.2-0.7c-0.4-5.1-0.8-10.5-0.4-12.3c0.7-3.7,2.2-11.2,2.2-11.2s-0.6,13.5-0.5,23.3l1.5,0.4c1.5-4,1.5-4,1.5-4l1-3
			c0,0,1.5,0.5,1.5,3l4.5,3c0,0-0.9,1.9,0.5,2.5c4.5,2,4.5,2,4.5,2s2.2,3.8,3.5,3c0.7-0.5,1.4-0.8,1.9-1.2c0.4,0.5,0.6,0.9,0.8,1.3
			c1.4-0.1,3.6-0.1,3.6,0.9c0,1.3,2,2.7,1.1,3.4l5,2.5c0.1-0.3,0.1-0.5,0.2-0.8l1,0.3c0,0,0,0.5,1,0.5c1,0-0.5-1,1,0
			c0.5,0.3,0.9,0.6,1.2,0.9c0,0,0,0,0,0c-2.8-4.6-4.6-7.7-4.6-7.7s2.4,3.2,5.6,7.5c0.1,0,0.1,0,0.2,0c-0.4-2.2-0.4-2.2-0.4-2.2h1.2
			l-3.4-6.3l-7-10.2c0,0-1-1.8-2-3.9c-0.3-0.1-0.4-0.2-0.4-0.8c-0.3-0.7-0.6-1.3-0.8-2c-0.8,0-2.1,0.1-3.8-1c-1.1-0.7-1-5.9-1-5.9
			s0.7-1.1,2.5-2.9c1.8-1.8,0,0,1.1-1.8c0.2-0.3,0.3-0.5,0.5-0.7c-0.1-2.2-0.9-3.4-1.7-4.6c-0.1-0.2-0.4-0.9-0.7-1.9l-5.9,6.6
			l5.6-7.4c-0.6-1.8-1.4-4.4-2.2-7.4l-2.2,1.5c-0.5,2.9-1.1,5.7-1.8,7.6c-0.9,2.4-0.6-1.5,0-6.4l-3.1,2.1l3.2-2.6
			c0.3-2.3,0.6-4.8,0.8-6.8c-1.5,2.1-1.7,3-1.9,3.4c0.4-0.1,0.6,0-0.1,0.1c-0.1,0.2-0.3,0.2-0.8,0.2c-0.1,0-0.2,0-0.3,0
			c-1.6,9.2-4.5,24.8-4.5,21.3c0-4,2.5-18.4,3.4-23.9c-1.3,1.4-3,3.7-3,3.7l2-4.3c-0.3,0-0.6,0.1-0.9,0.3c-1.4,0.5-1.8-0.4-2-1.3
			l-4.3,3.8l4.2-4.8c0-0.3-0.1-0.4-0.3-0.2c0.3-0.5,0.9-1.4,1.2-2l-11,4.2l5.7-4.1c-1-0.1,1.8-0.6,1.6-2.2c-0.1-0.6,0-1,0.1-1.2
			c-5.5-0.5-14-1.4-13.3-1.4c0.8,0,9.1,0,14.3,0c-0.3-1.4,0.3-1.6,0.9-1.4c-3-1.7-6.8-4.4-6.8-4.4l7.9,2.8l-15.5-23.3l13,16
			c-2.6-4.5-5.4-9.2-5.4-9.8c0-0.8,5.4,6.6,8.5,11c0.7-2.3,0.7,0.3,0.7-2.5c0-0.6,0-1.1,0-1.5c-3.6-7.4-9.1-17.1-9.1-17.1
			s0.3-2.4,4.2,3.5c2.4,3.8,4.9,10.1,6.3,14.1c0.1,0.1,0.3,0.3,0.4,0.4c0.1,0.1,0.1,0.1,0.2,0.2c0-0.3,0.2-0.1,0.9,1.2
			c0.1,0.2,0.2,0.3,0.2,0.5c-2.1-8.6-8.3-30.7-8.3-30.7l4.9,14.5c0-0.2,0-0.4,0-0.4l3.8,11.7c-0.1-2,0-3.4,0.6-3.1
			c1.7,0.7,1-3.8,1.7,0c0.3,1.9,0.9,6.5,1.3,10.7c1.5,0.6,3.3,1,4.8,0.9l-2.3-0.9c0,0-0.9-1.8,0.5-5.5c0,0,0,0-1.8-5
			c-0.2-0.6-0.4-1-0.5-1.3c-0.4-0.4-0.8-0.8-1.2-1.6c-1-2.1-4.1-2.6-1.8-4.1c2-1.3,1.2-2.1,1.9-3.1c-2.8-2.1-5.2-4-6.8-5.2
			c-5-4-0.5-1.6,2.1,0c-1.5-2.3-2.3-4.2-2.3-4.2c0.2-0.7,0.4-1.3,0.6-2c-0.3,0-0.5,0-0.7,0c0.3-2.1,0.6-3.6,0.6-3.6l-3.5-1.2
			c-2.4,3.4-4.1,7.1-4.1,4.4c0-0.7,0.9-2.6,2.3-5l-2.3-0.8c-2.8,5.2-5.6,10.2-6.6,11.3c-2.1,2.4,0,0,2.4-6.9c0-0.1,0.1-0.2,0.1-0.2
			C70,133.7,62.3,148,60.5,156C58,167.1,59,171.7,59,176.2c0,0.5,0,0.9,0,1.4l-2.9,16.9c0,0,2.6,23.6,8.1,39.9
			c5.4,16.3,21.1,36.9,21.1,36.9s-4.8-8.5-6-10.9c-0.4-0.8-1.7-3.5-3.4-6.7c-3.3-6.6-7.7-15.8-8.1-17.4
			C67.2,233.7,65.4,224.7,61.7,210.8z"/>
		<path d="M155.4,196.3c0.9,0.2,1.5,0.3,1.8,0.2l-22.2-25.1c-0.4,0.1-1,0.1-1.5,0.2l14.4,23.4c0.2,0.1,0.5,0.4,0.8,0.7
			c3,3,1.8-3,4.2-1.2S151.2,195.1,155.4,196.3z"/>
		<path d="M158.4,189c-8.5-8.5-2.1-7.7-6.2-7.8c-4.1-0.1-3.9-3.1-6.5-3.7c-3.7-0.9-2.8-3.3-3.5-2.7l-0.5-5.6l-1-7.4l-2.6,0.6
			c3.9,1.4-0.7-0.1-2,3c0,0-5,0.9-1.4,3.2c1.3,0.8,1.1,1,0.5,1.1l22,26.7c1.2-0.4-0.5-2.9-1.9-6.2C153.6,186,166.9,197.5,158.4,189z
			"/>
		<path d="M260.4,289.2c-0.2,1,0.1,0.7-1.1,1.6l1.9-0.4l0.4-0.6C261.4,289.6,261,289.4,260.4,289.2z"/>
		<path d="M257.9,291.1l0.2,0C258,291,258,291,257.9,291.1z"/>
		<path d="M237.2,70.5c0.7-0.6-7.9-2.4-7.9-2.4c0.6,0.2,1.2,0.5,1.8,0.7C232.8,69.2,234.9,69.8,237.2,70.5z"/>
		<path d="M223.5,64.9c-1.5-1-5.5-1.6-10-1.8c4.8,0.7,7.7,2,15.7,5C229.3,68.1,225.4,66.2,223.5,64.9z"/>
		<path d="M217,77.7l8.7,5.4c4.2,0.2-2.3-1.9-2.4-4.2c-0.7-0.1-1.2-0.1-1.5-0.1C220.5,78.7,218,77.3,217,77.7z"/>
		<path d="M216.8,84.9c2.1,0.5,4.8,1.1,2-0.3c2.1,0.1-0.7-1.4,2.2-1.7l-8.5-6c-0.2,0-0.4,0-0.6,0c-0.6,0.1-1.3,0.2-2.2,0.4
			L216.8,84.9z"/>
		<path d="M206.5,80.3c0.5,0.5,0,0.5-0.9,0.5l2.7,7.1c0.9-0.1,1.6,0.1,1.6,0.1c-1.7,0.9-2.3,0.9-2.7,0.9l-0.4,0.3
			c-0.1,0.1-0.1,0.3-0.2,0.7c-0.6,1.8,0.3,0-0.6,1.8c1.8-3.1-0.9,1.8,0,0c-1.8,3.1-1.8,0-1.8,3.1s1.2,1.5,0,3.1
			c-1.2,1.5,0.6-0.3-1.2,1.5c-2.8,3.4-0.9,0.7,0.6,1.2c1,0.3,1.7,0.3,2.2,0.1l4.5-9.2c-0.4-1.3,0-0.9-0.7-1.6
			c-0.9-0.9,5.2-0.9,5.2-0.9c-0.5-1-0.1-1.6,0.5-1.9l-8-9.4c-0.9,0.2-1.6,0.3-1.6,0.3S205.3,79,206.5,80.3z"/>
		<path d="M220.1,209c-0.1-0.2-0.2-0.5-0.4-0.8c-0.5-0.4-1-0.8-1.3-1.2c0.2-0.8,0.5-1.8,0.8-2.8l-24.1,0.2l-0.8,0.8L220.1,209z"/>
		<path d="M197.5,199.1l-1,0.2c-0.2,0.2-0.3,0.5-0.4,0.8c1.4-0.1,3.2-0.2,5.1-0.3C200,199.5,198.7,199.2,197.5,199.1z"/>
		<path d="M234.4,103.2c-0.4,0-0.7,0-1,0l-2.8,17.2c1.5-0.1,2.8-0.5,3.1-1.3c0.1-0.3,0.3-0.6,0.4-0.9c0.1,0.1,0.2,0.1,0.3,0.2
			l0.1-0.8c0,0,0,0,0,0c0,0,0,0,0-0.1l0.3-4.2c-1.2-1.9,0.2-5.7,0.2-5.7s0.2-0.3,0.3-0.7l0.3-3.3C235.4,103.4,235,103.2,234.4,103.2
			z"/>
		<path d="M235.7,114.1c0,0-0.1,0-0.1-0.1l-0.4,2.4C236.6,114.6,237.6,115.1,235.7,114.1z"/>
		<path d="M229.2,103.8l-3.9,16.7c0.2,0,0.5,0,0.8,0c0,0,2.2,0.2,4.2,0l1.9-17.3c-2.3,0-2.3,0-2.3,0S229.6,103.5,229.2,103.8z"/>
		<path d="M213.7,118.3l7.9-19.7c-0.1,0-0.2,0-0.4-0.1c-1.9-0.4,0.6-0.1-1.2-0.3l-9.6,19.3c1.3,0.3,2.5,0.6,2.5,0.6
			C213.2,118.2,213.5,118.3,213.7,118.3z"/>
		<path d="M205,114.6l0.5-1c-0.1,0-0.1,0-0.1,0c-1.3,0.4-1.4,0.4-1.7,0.4C204.1,114.3,204.6,114.5,205,114.6z"/>
		<path d="M206.1,103.9c0.9,0.2,2.8-0.4,2.3,0.6c-0.4,0.8,0.2,1.4,0.7,1.8l3.9-8.1c-0.1,0-0.2-0.1-0.3-0.1c-2.6-0.6-3.2,0.9-3.2,0.9
			c-0.1-0.3-0.1-0.6-0.1-0.8L206.1,103.9z"/>
		<path d="M107,186.3l0.5-6.2l-0.1-0.1c-0.4,2.1-2,6.2-2,6.2S106,185.7,107,186.3z"/>
		<path d="M107,178.9L107,178.9C106.9,178.9,106.9,178.9,107,178.9C106.9,178.9,106.9,178.9,107,178.9z"/>
		<path d="M99,177.1l1.6-1.3l-1.4-0.3c0,0,0,0,0.9-2.7l-1.3,0.2C98.8,174.9,98.8,176.3,99,177.1z"/>
		<path d="M103.9,179c0,0,0.3-0.1,0.7-0.1l0.1-0.1c0.1-0.8,0.3-1.5,0.4-2.1l-1.2-0.3C102.9,182.1,103.9,179,103.9,179z"/>
		<path d="M93.2,179.9c-0.1,0.7-0.2,1.4-0.3,2.1l1.9-1.5c-0.3-0.9-0.5-1.8-0.8-2.7C93.7,178.5,93.5,179.3,93.2,179.9z"/>
		<path d="M110.6,190.3c0.1,0.2,0.2,0.4,0.3,0.6c0-0.1,0-0.2,0-0.4l0.1-5.4c0-0.4-0.1-0.8-0.1-1.5l-1.7-1.8l-0.9,5.6
			c0.1,0.1,0.1,0.2,0.2,0.2C110.6,190.3,108.5,185.7,110.6,190.3z"/>
		<path d="M134.1,180.6l6.3,11.9c0.4,0.3,1,0.7,1.7,1.4c2.8,2.5,3.7,2.1,4.3,1.5l-14-23.5c-0.6,0.3-0.8,0.8,0.5,1.8
			c4.1,3.2-4.6-1.8,1.4,3.6C138.1,180.8,136.3,180.9,134.1,180.6z"/>
		<path d="M135.6,161.1l5-0.4l-1.1-8.5c-2.3,2.4-4.1,4.2-4.9,5c0.1,0,0.1,0,0.2,0.1C137,157.6,134.2,159.5,135.6,161.1z"/>
		<path d="M98.9,171.3C98.9,171.3,98.9,171.3,98.9,171.3l0.2,0L98.9,171.3z"/>
		<path d="M133.9,170.1l-0.3-0.4C133.2,169.7,133.3,169.8,133.9,170.1z"/>
		<path d="M95.9,154c0,0.1-0.1,0.2-0.1,0.3C95.9,154.2,95.9,154.1,95.9,154z"/>
		<path d="M96.2,153.4c0,0.1,0,0.1-0.1,0.2C96.1,153.6,96.1,153.5,96.2,153.4z"/>
		<path d="M95.7,154.7c0,0.1-0.1,0.1-0.1,0.2C95.6,154.9,95.6,154.8,95.7,154.7z"/>
		<path d="M135.6,195l3.2-2.6l-6.4-12.1c-0.5-0.1-1-0.2-1.2-0.2c-0.7,0-1.2,0.1-1.7,0.1L135.6,195z"/>
		<path d="M134.5,153.7c0.3-0.2,0.6-0.3,0.9-0.5c0.9-0.6,2.3-1.6,3.9-3c0.2-0.5,0.3-1,0.4-1.5c0.6-0.9,1.1-0.8,1.6-0.3
			c2.2-2,4.6-4.3,7.1-6.7c-1-0.4-1.5-0.6-1.8-1.7c-0.1-0.5-0.2-0.8-0.3-1.1l-12.8,14.2c0,0,0,0,0,0
			C134,153.2,134.4,153.5,134.5,153.7z"/>
		<path d="M108.3,135.3c-3.8-8.7-5.9-10.4-3.8-8.7c1.3,1.1,6.6,11.8,10.3,19.5c0.2-0.2,0.3-0.6,0.5-1.3c0.2-0.7,1.3,0.2,1.9,0.7
			c-3.7-7.5-9.9-20-12.3-25.6l0,0.4l-0.6,1.6l-1.8,4.6c-1.2-0.1-2.2-0.2-2.9-0.2l9.5,13.3l1.7,0.6
			C109.8,138.6,109,136.9,108.3,135.3z"/>
		<path d="M119.9,146.6c0,0,0.1,0,0.1,0l-11-39.2c-1.1,0.5-1.5,0.8-1.8,2.6c-0.3,2.4-0.4,1.6-0.7,4.9c-0.6,0.5-1,0.8-1.4,1l-0.2,1.8
			L119.9,146.6z"/>
		<path d="M112.7,145c0.1,0,0.1,0,0.2,0c-0.7-1.4-1.4-2.8-2.1-4.3l-1.3-0.2L112.7,145z"/>
		<path d="M88.1,121.1c-0.1,0.5-0.3,0.9-0.4,1.4c-0.6,1.9-1.2,3.9-1.8,5.8c-0.2,0.7-0.4,1.3-0.6,2c0,0,0.8,1.9,2.3,4.2
			c0.6,0.3,1,0.6,1.3,0.8c0.3,0.2,1.1,0.8,2.3,1.7c0.3-0.3,0.6-0.6,1.2-1c1.6-1.1,3.7-5,5.4-9.6c0.1-0.2,0.1-0.3,0.2-0.5
			c0.1-0.3,0.2-0.7,0.4-1l-0.8-1.3l-5.1,5.8c0,0,1.3-2.4,4.4-6.6c1-1.3,2-2.6,3-3.8c0.3-1.7,0.4-2.9,1-4.5c1.2-3,1.8-3.2,1.9-3.2
			c0.1-0.2,0.1-0.3,0.2-0.5c-0.9,0.7-2.2,1.7-3.5,3.4c-3.1,3.8-6.2,7.6-6.2,7.6c-2.1,1.7,0,0,0.3-1.7c0.1-0.7,0.4-1.3,0.7-2
			c0.6-1.2,1.5-2.6,2.8-4.5c1-1.5,2.9-3.2,4.6-4.7c0.9-1.6,0.9-2.6,0.9-2.6l1.7-3.1c0,0,0.7-1.4,3.5-0.7c0.8,0.2,1.9,0,3.1-0.3
			l2.3-10.6c-2.1,1.9-4.2,4.6-5.6,6.5c-0.9,1.2-1.5,2.1-1.5,2.1s-2.3,1.1-5.9,3.2c0,0.4,0.2,0.6,0.2,0.6s-0.9,0.1-1.7,0.4
			c-0.6,0.4-1.2,0.8-1.9,1.2c0,0.4-0.4,0.6-0.9,0.8c-1.2,1.2-1.7,2.9-2.7,5.8C91.7,115.7,88.1,121.1,88.1,121.1z"/>
		<path d="M99.2,121.5l-1.8,2.1l0.9,1.2c0,0,0-0.1,0-0.1C98.7,123.5,99,122.4,99.2,121.5z"/>
		<path d="M125.4,86.9l0.5,4c1.1-0.8,1.8-1.2,1.8-1.2s2.6-1.9,2.5-3.1l-2.8,0.4C128.2,86.2,126,87.3,125.4,86.9z"/>
		<path d="M121.6,88.5c0.5-1,0.5-0.9-0.1-0.5l0,0.8c0,0,0-0.1,0-0.1C121.5,88.7,121.6,88.7,121.6,88.5
			C121.6,88.6,121.6,88.5,121.6,88.5z"/>
		<path d="M112,101.5c0.2-0.1,0.3-0.1,0.5-0.2c0.5-0.6,1.1-1.2,2.1-2l2.7-10.4c-0.1,0-0.2-0.1-0.3-0.1c-1.4,0.7-2.6,1.5-3.6,2.2
			L112,101.5z"/>
		<path d="M116.5,97.7c1-0.8,2-1.5,3-2.3l1.4-7c-0.5,0.3-1.2,0.7-2.1,1c-0.5,0.2-0.8,0.1-1,0C117.5,92.1,117.1,95.4,116.5,97.7z"/>
		<path d="M124.8,91.7l-0.4-5c-1.1,0.5-2.7,1.8-2.7,1.8c0,0,0,0,0,0.1c0,0,0,0.1-0.1,0.1c0,0,0,0.1,0,0.1l-0.3,5.4
			C122.5,93.3,123.7,92.4,124.8,91.7z"/>
		<path class="st1" d="M120.9,203.2c0.1,0.1,0.1,0.1,0.2,0.2c-0.1-0.7-0.3-1.7-0.5-2.9c-0.2-1.2-0.3-2.1-0.4-3
			C120.1,198.3,119.5,201.8,120.9,203.2z"/>
		<path class="st0" d="M120.1,181.6c0-0.1-0.1-0.3-0.1-0.4C120,181.9,120,181.7,120.1,181.6z"/>
		<path d="M124.1,171.2l-2-4.7c0,0-0.1,0.1-0.2,0.1c-0.7,0.4,0,1.5,0,1.6c0,0.1,0,0.1,0,0.1s-1.4-0.8-0.9,0.1
			c0.4,0.9,0.4,0.9,0.4,0.9l-0.7-0.1l1.9,6.1c1.2,1.3,2.9,2.9,1.9,0.7c-1.5-3-0.3-0.5-0.8-2s0.7-0.3-0.1-1.6
			c-0.8-1.4,0.4-0.1-0.1-1.1C123,171,123.6,171.1,124.1,171.2z"/>
		<path d="M127,170.5c-1.1-1.1,0.9-0.4-1.1-1.1c-2-0.7,1.6,0.3-0.4-0.7c-2-0.9,1.2,0.5-1.2-0.8c0,0,0,0,0,0l1.1,2.7
			c0.1,0,0.2,0.1,0.2,0.1S128.1,171.6,127,170.5z"/>
		<path d="M113.2,173.2c0,0.4,0.1,0.5,0,1.1c-0.4,1.6,0.1,0.1-0.4,1.6s0.1,6.1,0.4,3.1c0.3-3,0.7-1.6,0.7-1.9s0.8-2.3,0.4-0.8
			s0,1.4,0,1.4s0.4-1,0.3,0.5c-0.1,1.6,1.5-2.3,0.9-0.4c-0.5,1.9-0.4,1.5-0.8,2.4c-0.4,0.9-0.7,1.4-0.4,1.8s0.9,1,1.1,1.4
			c0.8,1.9,0.7,0.5,0.8,1.9c0.1,1.4,0.8,2.6,0.1,1.4c-0.1-0.2-0.2-0.4-0.3-0.6c0,0,0,0,0,0.1c0.4,1.9,0.4,0.5,0.4,1.9
			c0,1.4,0,0.4,0,2c0,1.6-0.5-0.4,0,1.6c0.5,2,0.8,0.5,1.4,2c0.5,1.5-0.3,0.5,0.5,1.5c0.8,0.9,1.3,1.2,1.8,2.2c0,0,0,0,0,0.1
			c0,0,0,0,0,0s0,0.1,0,0.1c0.1,0.8,0.2,1.8,0.4,3c0.2,1.2,0.4,2.2,0.5,2.9c0.8,0.8,2.3,2.5,3.7,4c-2.5-5.8-7.8-25.7-10-34.3
			c0,0.9,0.2,1.6-0.1,0.5c-0.4-1.4-0.4-1.4-0.4-1.4l-1.1-1C113.2,171.8,113.2,172.9,113.2,173.2z"/>
		<path d="M116,186C115.7,184.5,115.6,185.1,116,186L116,186z"/>
		<path d="M112.7,170.8l0.5,0.5c0-0.1,0-0.2,0-0.2L112.7,170.8z"/>
		<path d="M90.3,142.9c-2.3,1.5,0.8,2.1,1.8,4.1c0.4,0.7,0.8,1.2,1.2,1.6c0.7,0.7,1.4,1,1.5,1.9c0.1,1.3,7.9,4.3,13.4,6.8
			c0.1-0.2,0.2-0.4,0.4-0.6c-6.4-4.4-19.2-13.1-18.7-13.1c0.7,0,0.9-0.2,0.9-0.2l19.2,12.7c2.1-0.8-0.7-1.8,3.4,0.4
			c1.5,0.8,1.7,0.6,1.6,0.3c-3.1-2.3-14.7-10.8-22.9-17.1C91.5,140.8,92.3,141.6,90.3,142.9z"/>
		<path d="M97.2,135.2c0,0,0,0-2.9,2.6l20.3,14.1c-0.1-0.3-0.1-0.6,0-0.8L107,139L97.2,135.2z"/>
		<path d="M116.4,155.7c-0.1-0.1-0.1-0.2-0.2-0.4l-21.9-17.5c-0.3,0.3-0.6,0.5-1,0.9C99.7,143.3,110.9,151.6,116.4,155.7z"/>
		<path d="M110.7,140.7c-0.1-0.1-0.1-0.2-0.2-0.4l-1.7-0.6l0.6,0.8L110.7,140.7z"/>
		<path d="M108.3,158.3c1.9,0.4,2.8,0.5,0.9-0.5c-0.3-0.1-0.6-0.3-0.9-0.4C108.1,157.6,108.1,158,108.3,158.3z"/>
		<path d="M98.3,156c-3-0.3,7.1,2.4,7.1,2.4s0,0,2.6,1c1.5,0.6,0.6-0.2,0.2-1.2C105.4,157.6,100.1,156.2,98.3,156z"/>
		<path d="M101.4,210.3c0-0.2,0-0.5,0.1-0.9c0.2-1.1-0.2-1.1-0.9-1.1C100.9,209,101.1,209.6,101.4,210.3z"/>
		<path d="M109.6,217.2c0,0,4-0.8,4.3-2c-0.9-2.5-1.9-5.6-2.4-7.4c-0.8-2.6,0.6-9.9,1.3-13.4c-0.3-0.4-0.6-0.9-1.1-1.8l-0.9,8.5
			l0.2-10c0,0,0,0,0,0c-0.1-0.2-0.2-0.4-0.3-0.6c-2.1-4.6,0,0-2.1-2.6c-0.1-0.1-0.1-0.2-0.2-0.2l-3.4,22.5c0,0.2,0.1,0.7,0.5,2
			c0.3,1.2-0.1,1.3-0.8,1.1l11.1,17.7c0-0.4,0.1-0.6,0.6-0.7c-0.7-2.4-0.9-0.4-0.7-2.4c0.2-1.5,0.1-1.4,0.2-1.9
			c-2.9-4.2-4.8-7-4.8-7l4.9,6.4c0-0.2,0.1-0.3,0.1-0.5c0.2-0.8,0.3-1.2,0.4-1.5L109.6,217.2z"/>
		<path d="M103.9,215l7,10.2l-6.7-12.4c-0.7-0.4-1.5-1.2-1.5-1.2c-0.4-0.4-0.7-0.5-0.9-0.6C102.8,213.2,103.9,215,103.9,215z"/>
		<path d="M134.9,228c-0.4-0.2-0.8-0.5-1.2-0.8l-1.7,0.7l0.4,3.6c0.4,0.8,0.9,1.7,1.4,2.6c0.3-0.8,0.5-1.4,0.5-1.4
			S134.6,230.4,134.9,228z"/>
		<path d="M133,236.1c0.2-0.5,0.4-1,0.6-1.5l-1-2.1L133,236.1z"/>
		<path d="M98.8,173l-3.6,0.5c-0.1,0.3-0.2,0.7-0.3,1.3c-0.2,0.9-0.6,2-0.9,3.1c0.3,0.9,0.5,1.8,0.8,2.7l4.2-3.4
			C98.8,176.3,98.8,174.9,98.8,173z"/>
		<path d="M97.3,188.6l7.3-9.8c-0.4,0.1-0.7,0.1-0.7,0.1s-1,3.1-0.1-2.6c0.1-0.5,0.1-0.8,0.2-1.2l-8.9,6.1
			C95.9,184.2,96.7,186.8,97.3,188.6z"/>
		<path d="M127.1,210L127.1,210c0.1,0.1,0.1,0.1,0.1,0.1C127.2,210.1,127.2,210.1,127.1,210z"/>
		<path d="M95.2,171.6c0.1,0.3,0.1,0.5,0.1,0.9l3.6-1.1c0,0,0,0,0,0L95.2,171.6z"/>
		<path d="M102.9,198.9c0,1.1-0.3,3,0.9,8c1.1,3.3,0,0,0.7,1.8c0.2,0.6,0.3,0.8,0.3,0.9l2.1-23.4c-1-0.6-1.5-0.1-1.5-0.1
			s1.5-4.1,2-6.2c0.1-0.6-0.1-0.9-0.5-1.1c0,0,0,0,0,0l-0.8,0.9C105.2,185.4,103.9,193,102.9,198.9z"/>
		<path d="M98.2,191.4c0.8,1.2,1.6,2.4,1.7,4.6c0.8-0.9,1.6-1.1,1.9-1.1c0.7-3.6,1.6-8.6,2.3-12.8l-6.6,7.4
			C97.9,190.5,98.1,191.2,98.2,191.4z"/>
		<path d="M92.6,160.5c0.2,1.5,0.3,3,0.4,4.3c2.2,1.8,1.6,0.2,2.2,2c0.5,1.6,0.4,1.6,0.1,3l6.1,0.3c0.4-0.3,0.9-0.9,1.5-1.8
			c0.9-1.6,1.2-2.3,1.1-2.5c0.5-0.1,1.5-0.5,3.5-1.1c7.7-2.6-3.6,0-8.2-0.5s2-1.1,8.2-1.6c6.2-0.5-6.2-1.5-10.1-1.2
			C95.8,161.5,94.1,161.1,92.6,160.5z"/>
		<path d="M120.9,203.2c-1.4-1.4-0.8-4.9-0.7-5.6c0-0.1,0-0.1,0-0.1s0,0,0,0c-0.5-0.4-5-4.1-5.5-6c-0.5-2.1,0.5,5.1,2.1,8.2
			c1.5,3.1,1.5,4.6,3.2,9.4c0.3,0.8,0.4,1.3,0.4,1.7c0.4-0.3,0.6-0.7,0.7-1c0.1-0.8,2.4-0.5,5,0.2c-0.2-0.4-0.5-0.8-0.8-1.3
			c-0.2-0.3-0.3-0.6-0.5-1.1c-1.3-1.5-2.8-3.1-3.7-4C121,203.3,121,203.3,120.9,203.2z"/>
		<path d="M118,212.2c-0.9-0.6-1.7-1.1-1.7-1.8c0-1.5,0-2.1-0.5-5.7c-0.5-3.6,0,0-1.3-3.4c-1.3-3.4-0.2-1.3-0.7-4.4
			c-0.2-1-0.3-1.5-0.5-2c0,2.7-0.1,6.8-0.3,9.8c-0.2,2.6,0.5,6.6,1.2,9.7C114.7,213.9,116.4,213.1,118,212.2z"/>
		<path d="M103.8,174l0.2,0C103.9,173.9,103.8,173.9,103.8,174z"/>
		<path class="st0" d="M254.6,231.1c0,0,0.1-0.1,0.2-0.3C254.7,230.9,254.6,231,254.6,231.1z"/>
		<path class="st0" d="M254.6,231.1C254.6,231.1,254.6,231.1,254.6,231.1L254.6,231.1z"/>
		<path class="st0" d="M255.1,230.5C255.1,230.5,255,230.5,255.1,230.5C255,230.5,255,230.5,255.1,230.5z"/>
		<path d="M166.4,316.7c-1.3,0.1-2.1,0.5-2.1,0.5S165.8,316.9,166.4,316.7z"/>
		<path class="st1" d="M314.9,165.7c-0.7-1.9-1.1-2.8-1.3-3.1c-1-5.1-2.3-10.4-3.6-15.3c-2.5-9.5-16-30-16-30
			c-4.9-8.6-23.6-25.9-28.2-29.5c-3.3-2.7-10.2-7.4-15.5-10.9c-0.6-0.4-1.3-0.8-1.9-1.2c-1.2-0.8-2.3-1.5-3.2-2
			c-1.9-1.1-5-2.2-8.1-3.2c-2.2-0.7-4.4-1.3-6.1-1.7c-0.6-0.2-1.2-0.4-1.8-0.7c-8-3-10.9-4.3-15.7-5c-0.7-0.1-1.5-0.2-2.4-0.3
			c-6.4-0.6-16.6-1.8-24.8-1.2s-18.1-0.6-27,1.8c-8.9,2.5-21.5,5.5-25.1,7.7c-3.7,2.1-26.7,14.7-31,19.6s-8.6,6.1-18.4,19.6
			c-0.4,0.6-0.8,1.1-1.2,1.6c0.9-1.6,1.4-2.7,1.4-2.7c-0.2,0.2-0.9,1-1.7,2c-2.6,3.3-7.4,9.9-9.3,15.1c0,0.1-0.1,0.2-0.1,0.2
			c-2.4,6.9-4.5,9.4-2.4,6.9c0.9-1.1,3.8-6.1,6.6-11.3c1.3-2.4,2.6-4.8,3.7-6.9c1.7-1.7,4.8-5.1,5.7-5.3c0.7-0.1,1.1-0.3,1.5-0.4
			c-2.3,3.4-6.2,9.2-8.6,13.4c-1.4,2.3-2.3,4.2-2.3,5c0,2.7,1.7-0.9,4.1-4.4c0,0,0.1-0.1,0.1-0.1c1.7-2.4,6.1-10.2,8.8-14.8
			c0.8-0.3,1.5-0.6,2.1-1.4c0.4-0.6,1.7-0.7,2.6-1c0.5-0.2,0.9-0.4,0.9-0.8c0-0.5,0.9-0.9,1.9-1.2c0.9-0.3,1.7-0.4,1.7-0.4
			s-0.2-0.2-0.2-0.6c0-0.4,0.1-1.1,0.8-2.2c0.4-0.7,0.7-1.1,0.9-1.5c1.2-0.1,2.3-0.6,3.2-1.5c0,0,1.4-0.5,2.5-0.1
			c1.4-1.9,3.5-4.7,5.6-6.5l-2.3,10.6c-1.1,0.3-2.2,0.5-3.1,0.3c-2.8-0.7-3.5,0.7-3.5,0.7l-1.7,3.1c0,0,0,1-0.9,2.6
			c-1.7,1.5-3.6,3.2-4.6,4.7c-1.3,1.9-2.2,3.3-2.8,4.5c-0.3,0.7-0.6,1.4-0.7,2c-0.3,1.7-2.4,3.5-0.3,1.7c0,0,3.1-3.8,6.2-7.6
			c1.3-1.6,2.6-2.7,3.5-3.4c-0.1,0.2-0.1,0.3-0.2,0.5c0,0.1-0.7,0.2-1.9,3.2c-0.6,1.6-0.8,2.9-1,4.5c-1,1.1-2,2.4-3,3.8
			c-3.1,4.2-4.4,6.6-4.4,6.6l5.1-5.8l0.8,1.3c-0.1,0.3-0.2,0.7-0.4,1c-0.1,0.2-0.1,0.3-0.2,0.5c0.6-0.1,1-0.1,1.4-0.1L107,139
			l7.6,12.1c-0.1,0.2-0.1,0.5,0,0.8l-20.3-14.1l-0.6-0.4l0.5,0.4l21.9,17.5c0.1,0.1,0.1,0.2,0.2,0.4c-5.5-4.1-16.7-12.4-23.1-17
			c-0.8-0.6-1.6-1.1-2.2-1.6c-1.2-0.9-2-1.5-2.3-1.7c-0.3-0.2-0.8-0.5-1.3-0.8c-2.7-1.6-7.1-3.9-2.1,0c1.6,1.3,4,3.1,6.8,5.2
			c8.2,6.2,19.8,14.8,22.9,17.1c0.1,0.3-0.2,0.4-1.6-0.3c-4.1-2.1-1.2-1.2-3.4-0.4l-19.2-12.7c0,0-0.2,0.2-0.9,0.2
			c-0.5,0,12.3,8.7,18.7,13.1c-0.2,0.2-0.4,0.4-0.4,0.6c0.3,0.1,0.6,0.3,0.9,0.4c1.9,0.9,1,0.9-0.9,0.5c0.3,1,1.3,1.8-0.2,1.2
			c-2.6-1-2.6-1-2.6-1s-10.2-2.7-7.1-2.4c1.8,0.2,7.1,1.6,9.9,2.2c-0.1-0.3-0.1-0.6,0-0.9c-5.5-2.6-13.3-5.5-13.4-6.8
			c-0.1-0.9-0.8-1.2-1.5-1.9c0.1,0.3,0.3,0.8,0.5,1.3c1.8,5,1.8,5,1.8,5c-1.4,3.6-0.5,5.5-0.5,5.5l2.3,0.9
			c3.9-0.4,16.3,0.7,10.1,1.2c-6.2,0.5-12.8,1.1-8.2,1.6s15.9-2.1,8.2,0.5c-2,0.7-3,1-3.5,1.1c0,0.2-0.2,0.9-1.1,2.5
			c-0.5,1-1,1.5-1.5,1.8l-6.1-0.3c0.3-1.4,0.4-1.4-0.1-3c-0.6-1.8,0-0.1-2.2-2c-0.1-1.3-0.3-2.8-0.4-4.3c-0.4-4.2-0.9-8.8-1.3-10.7
			c-0.7-3.8,0,0.7-1.7,0c-0.6-0.2-0.8,1.1-0.6,3.1l-3.8-11.7c0,0.1,0,0.2,0,0.4l-4.9-14.5c0,0,6.2,22.1,8.3,30.7
			c-0.1-0.1-0.1-0.3-0.2-0.5c-0.7-1.3-0.9-1.5-0.9-1.2c-0.1-0.1-0.1-0.1-0.2-0.2c-0.1-0.1-0.3-0.3-0.4-0.4
			c-1.4-4.1-3.9-10.4-6.3-14.1c-3.8-5.9-4.2-3.5-4.2-3.5s5.5,9.8,9.1,17.1c0,0.5,0,1,0,1.5c0,2.8,0,0.3-0.7,2.5
			c-3.1-4.3-8.5-11.7-8.5-11c0,0.6,2.7,5.3,5.4,9.8l-13-16l15.5,23.3l-7.9-2.8c0,0,3.8,2.7,6.8,4.4c-0.7-0.1-1.2,0-0.9,1.4
			c-5.2,0-13.5,0-14.3,0c-0.8,0,7.8,0.9,13.3,1.4c-0.1,0.2-0.2,0.5-0.1,1.2c0.2,1.6-2.6,2.1-1.6,2.2l-5.7,4.1l11-4.2
			c-0.3,0.7-0.9,1.6-1.2,2c0.2-0.2,0.2-0.1,0.3,0.2l-4.2,4.8l4.3-3.8c0.2,0.9,0.5,1.8,2,1.3c0.4-0.1,0.7-0.2,0.9-0.3l-2,4.3
			c0,0,1.7-2.3,3-3.7c-1,5.5-3.4,19.9-3.4,23.9c0,3.6,2.9-12,4.5-21.3c0.1,0,0.2,0,0.3,0c-0.8,0,0.2-0.2,0.8-0.3
			c0.2-0.4,0.4-1.3,1.9-3.4c-0.3,2-0.6,4.5-0.8,6.8l-3.2,2.6l3.1-2.1c-0.5,4.8-0.8,8.8,0,6.4c0.7-1.9,1.3-4.7,1.8-7.6l2.2-1.5
			l8.9-6.1c0,0.3-0.1,0.7-0.2,1.2l1.2,0.3c-0.1,0.6-0.2,1.3-0.4,2.1l-0.1,0.1l-7.3,9.8l-5.6,7.4l5.9-6.6l6.6-7.4
			c-0.7,4.2-1.6,9.2-2.3,12.8c-0.3,0-1.1,0.2-1.9,1.1c-0.2,0.2-0.4,0.4-0.5,0.7c-1.1,1.8,0.7,0-1.1,1.8c-1.8,1.8-2.5,2.9-2.5,2.9
			s-0.1,5.2,1,5.9c1.7,1.1,3,1.1,3.8,1c0.8,0,1.1,0,0.9,1.1c-0.1,0.4-0.1,0.7-0.1,0.9c0,0.6,0.1,0.7,0.4,0.8
			c0.2,0.1,0.5,0.2,0.9,0.6c0,0,0.8,0.7,1.5,1.2l6.7,12.4l3.4,6.3h-1.2c0,0,0,0,0.4,2.2c-0.1,0-0.1,0-0.2,0
			c-3.3-4.4-5.6-7.5-5.6-7.5s1.8,3.1,4.6,7.7c0,0,0,0,0,0c-0.4-0.3-0.8-0.6-1.2-0.9c-1.5-1,0,0-1,0c-1,0-1-0.5-1-0.5l-1-0.3
			c-0.1,0.3-0.2,0.6-0.2,0.8l-5-2.5c0.9-0.8-1.1-2.1-1.1-3.4c0-1-2.2-1-3.6-0.9c-0.2-0.3-0.5-0.8-0.8-1.3c-0.5,0.3-1.1,0.7-1.9,1.2
			c-1.3,0.8-3.5-3-3.5-3s0,0-4.5-2c-1.4-0.6-0.5-2.5-0.5-2.5l-4.5-3c0-2.5-1.5-3-1.5-3l-1,3c0,0,0,0-1.5,4l-1.5-0.4
			c-0.1-9.8,0.5-23.3,0.5-23.3s-1.5,7.4-2.2,11.2c-0.4,1.8,0,7.2,0.4,12.3l-2.2,0.7c0,0,0,0,1,4c0.5,1.8-0.5,1.3-1.7,0.1
			c-0.7-4.8-1.4-10.3-1.6-13.4c-0.4-6.3-1.5-19.3-1.5-19.3s-0.8,18.9,0.7,30.1c-0.5-0.6-0.9-1-0.9-1s0,0-1-2.5c-1-2.5,0,0,0-4
			c0,0-0.5-2-1-6s0,0-1.5-2.5c-1.5-2.5,0,0-1.5,3.5c0,0-1.5-2.5-1-9.1c0,0,0-4,0-6c0-2-0.5-3-0.5-3c0-1.7-0.5-2-1.4-3.6
			c0.7-6.8,2.1-16.8,1.8-17.7c0,0-2.3,10.1-3.1,15.1c-0.1-0.2-0.2-0.4-0.3-0.7c0,0.4,0,0.7,0,1.1l0.1,0.9c0,0.4-0.1,0.7-0.1,1
			c0,2,0.3,6,0.7,6.5l1.4,17.3c3.6,13.9,5.4,23,6,25.4c0.4,1.6,4.9,10.8,8.1,17.4c6.1,9.7,15,21.2,21.4,28c4.4,4.7,9.7,9,15.1,12.7
			c0.2,0.3,0.4,0.6,0.8,1c1.1,1.1,2.1,1.9,5.1,4.5s5.9,1.6,6.4,2.9c0.5,1.3,1.3,0.5,4.3,2.7c1.1,0.8,1.9,1.1,3.2,2.4
			c1.3,1.3,1.9,0.8,3.7,1.9c1.9,1.1,1.3,0.8,3.5,1.1s0,0,3.2,1.1c3.2,1.1,1.3-0.3,1.3-0.3s0,0,2.4,0c2.4,0,0,0,5.1,2.9
			s1.1,0.3,2.4,0.8c1.3,0.5,2.1,0,4.5,0.8c2.4,0.8,1.1,0,4.3,0.8s0,0,2.9-0.3c1.2-0.1,1.2,0,0.8,0.1c0.4,0,0.9-0.1,1.4-0.1
			c2.1,0,1.6-0.3,3.5,0.5s3.5,2.4,9.9,2.7c6.4,0.3,15.3-0.8,20.1-1.1c4.8-0.3,5.6-0.8,8.6-0.8s1.1-0.8,4-1.9
			c0.3-0.1,0.6-0.2,0.9-0.2c1.1,0.1,2.7,0,4.8-0.2c6-0.5,6-0.5,8.2-1.4c1.6-0.6,0.9-0.3,0.7-1c1.1-0.2,1.9-0.3,2.5-0.4
			c1.1-0.2,3.7-1.3,6.6-2.6c0.8-0.2,2-0.6,3.8-1.3c6.3-2.5,19.2-11.3,19.2-11.3s2.6-1.7,4.2-3.1c1-0.5,2.3-1.3,3.7-2.3
			c2.9-2.1,5.8-4.7,9.2-7.9c3.4-3.1-1,0.8-2.6,1.8c-1.6,1-1.8,1.8-4.2,1.6c0-0.9,0-0.8-0.5,0c-0.7,0-0.6,0.3-0.4,0.5
			c-0.3,0.5-0.8,1-1.5,1.6c-1.3,1.2-2.7,2.2-3.7,2.9c-0.6,0.3-1.4,0.8-2.5,1.1c-1.1,0.3-2.7,0-2.7,0s-1.4,0.8-2.5,1.9
			c-0.3,0.3-0.8,0.6-1.4,0.8c2.3-2,1.1-2.4,2.1-4.6c0.3-0.6,0.4-0.9,0.5-1c0.1-0.2,0.1-0.1,0.2,0c0.1,0.1,0.3,0.4,1.2-0.3
			c0,0,0,0,0,0c1.2-0.8,0.8-0.6,1.1-1.6c0.6,0.2,1,0.3,1.2,0.5c0.2,0.2,0.1,0.4-0.4,0.6l4.8-2c0,0,2.8-2.2,3.8-3.4
			c0.3-0.3,0.5-0.6,0.8-0.9c0.2,0.1,0.6,0.1,1.1-0.1c-0.2-0.1-0.3-0.2-0.5-0.4c0,0,0,0,0,0c1.2-1.3,2-2.2,2.5-2.8
			c1.1-0.6,2.3-1.6,0,1.3c-0.9,1.1-1.5,1.7-2,1.9c1.6,1,4.2-1.6,5.6-3.5c0,0,0,0,0,0c0.3,0.3,0.8,0.5,1.4,0.4c1.6-0.3,1-2.1,1.8-2.9
			c0.8-0.8,1.8-1.6,3.1-3.1c1.3-1.6,0,0,1.8-1.8c1.8-1.8,2.1-1.6,2.4-3.9c0.1-1.2,0.8-0.8,1.3-2.4c0.5-1.4,0.1-0.4,0.7-1.6
			c0.2-0.2,0.4-0.3,0.5-0.5c0.5,0.4,1,1.2,1.7,2.4c0.9,1.6,7.7-9.8,7.7-9.8l1.3-3.8c0.6-1.1,1.2-2.3,1.9-3.8c2.9-6.3,4-9.7,5.4-13.4
			c1.4-3.7,0.9-6,2-9.7c1.1-3.7,1.4-3.1,2.9-7.7c1-3.1,0.9-2.8,0.7-3.5c1-5,2.7-14.1,2.7-19.1C316.7,189.1,317.4,172.8,314.9,165.7z
			 M95.8,154.4c0-0.1,0.1-0.2,0.1-0.3C95.9,154.1,95.9,154.2,95.8,154.4z M95.6,154.9c0,0,0-0.1,0.1-0.2
			C95.6,154.8,95.6,154.9,95.6,154.9z M96.1,153.6c0-0.1,0.1-0.2,0.1-0.2C96.1,153.5,96.1,153.6,96.1,153.6z M127.8,222.7l4.7,9.7
			l1,2.1l12.7,26.1c-0.2,0-0.6-0.1-1,0l-21.6-33.6c0.6-0.3,1.2-0.5,1.9-0.8l0.3-2.7L127.8,222.7z M155.4,237.9L155.4,237.9
			C155.3,238.8,155.3,238.4,155.4,237.9z M155.4,237.3c-2.5-4.4-6.4-11.1-8.8-15.2c0.3-0.5,0.7-1.4,1-2.7c0,0,0,0,0,0l8.6,14.8
			c-0.1,0.1-0.2,0.2-0.3,0.3c0,0,0,0.1-0.1,0.1c-0.2,0.7-0.3,1.3-0.4,2.1c0,0,0,0.1,0,0.1c0,0,0,0,0,0.1c0,0.1,0,0.2,0,0.3
			C155.5,237.2,155.4,237.2,155.4,237.3L155.4,237.3c0,0,0-0.1,0-0.2c0-0.1,0-0.2,0-0.3c0,0,0,0,0-0.1c0,0,0-0.1,0-0.1
			C155.5,236.9,155.4,237.1,155.4,237.3z M129.4,180.1c0.5,0,1-0.1,1.7-0.1c0.2,0,0.7,0.1,1.2,0.2l6.4,12.1l-3.2,2.6L129.4,180.1z
			 M123.3,171.5c0.5,0.9-0.7-0.3,0.1,1.1c0.8,1.4-0.4,0.1,0.1,1.6s-0.7-0.9,0.8,2c1.1,2.2-0.6,0.6-1.9-0.7l-1.9-6.1l0.7,0.1
			c0,0,0,0-0.4-0.9c-0.4-0.9,0.9-0.1,0.9-0.1s0,0,0-0.1c0-0.1-0.7-1.2,0-1.6c0.1,0,0.1-0.1,0.2-0.1l2,4.7
			C123.6,171.1,123,171,123.3,171.5z M105,117.9l0.2-1.8c0.4-0.2,0.8-0.6,1.4-1c0.3-3.4,0.3-2.5,0.7-4.9c0.3-1.9,0.7-2.2,1.8-2.6
			l11,39.2c0,0-0.1,0-0.1,0L105,117.9z M313.7,193.8c-0.7,2,0.3,1.6-0.3,3.6s0.3-0.3-0.7,2c-1,2.3,2.3,1-1,2.3
			c-0.2,0.1-0.4,0.2-0.6,0.2c0,0.1,0,0.3,0.1,0.4c0.2,0.9,0.6,1.3,0.4,2.8c-0.7,0.8-1.7,2.1-3,4.1c0.5,1.4-0.5,2.5-0.8,2.4
			c0,2-0.8,3.2-1.6,2.8c-0.8-0.4,0,0,0,2.8s-1.6-2.8-1.6,0.4c0,1.1-0.2,1.7-0.4,2.1c-0.7-0.2-1.8-0.2-2.2-0.5
			c-0.3-0.2-0.4-0.4-0.5-0.7c0-0.8,0-1.6-0.1-2.4c0.5-1.4,1-3.1,1.6-4.9c2.4-7.5,3-13.9,3.1-18.5c0.1-0.2,0.2-0.3,0.2-0.4
			c-0.1,0-0.2,0-0.2-0.1c0-0.8,0-1.6-0.1-2.2l1.2-0.5c0.2,0.1,0.4,0.3,0.5,0.8c0.1,0.2,0.1,0.4,0.2,0.5c0.7-1,0.4-1.7,1.1-0.3
			c1,2,1,2,1,2l2.1-1.9l1.5,0.9C313.7,193.8,314.4,191.8,313.7,193.8z M86.6,252c0-0.4,0-0.7,0-1c1.6,2.6,3.4,5.2,5,7.5
			c-0.2,0-0.5,0-0.8-0.1c-2.6-0.6,4,3.6,1.5,3.5c-0.3-0.3-0.6-0.4-0.7-0.5c-0.3-0.1-0.6-0.3-1.1-0.5c-1.3-1.9-2.6-3.8-3.9-5.6
			C86.6,254.3,86.6,253.2,86.6,252z M121.9,227.9l23.2,32.8c-0.1,0-0.2,0-0.3,0.1c-0.1,0.2-0.2,0.4-0.2,0.6c0,0-0.1,0.1-0.4,0.4
			l-22.7-29.3c0-1.2-1.5-1.6-2.3-3.2C119.4,229.3,120.3,228.7,121.9,227.9z M116.3,240.4c4.7,7.3,10.7,15.9,16.4,22.1
			c2.5,2.7,5,5.2,7.5,7.5c-0.3,0.5-0.6,1.3-1,2.6c-5.2-4.4-23.9-25.2-23.9-25.2l-0.3,0c0-0.1-0.1-0.2-0.1-0.4c-0.9-3.1,0,0,0.4-4.4
			C115.5,241.9,115.9,241.1,116.3,240.4z M142.8,264.4c-0.1,0.3-0.2,0.5-0.3,0.9c-0.4,0.9-0.2,1.4-0.3,2c-0.3,0.2-0.5,0.6-0.7,1.2
			c-4.1-3.9-7.9-7.8-9.3-9.7c-1.8-2.4-8.8-11.7-14.8-19.7c0.1-0.2,0.2-0.3,0.2-0.3c0.8-0.8,2-1.7,2.9-2.4c0.1-0.4,0.2-0.8,0.3-1.3
			c0.2-1,0.3-1.5,0.4-1.7c0,0,0,0,0,0.1c0,0.2,0,0.5,0.1,0.2C128,243.3,136.7,255.8,142.8,264.4z M118,273c0.1-1,0.5-1.7,1.6-2.7
			c1-1,1-2.7,1-2.7l0.7-2.7l-2.7-3.1c0,0-1.4-2.4-2-3.7c-0.7-1.4-0.7-1.7-1.4-3.4c-0.7-1.7,0.8-1.8,0.8-1.8
			c-0.3-0.8-0.2-2.2-0.5-4.2l22.4,24.3l-1.6,0c-0.3-0.4-0.6-0.8-1.1-1.5c-1.8-2.4-2.4-0.4-2.5,1.5l-1,0c-1-2.4-0.1-0.2-2.3-2.3
			c-0.7,0.2-1.3,0.4-1.9,0.6c0,0.8,0.2,1.7,0.2,1.7s0,0-2,3.5c0,0-0.1-0.2-0.3-0.4c-0.7-1.1-0.4-2.6-0.2-3.9
			c-0.9,0.3-1.8,0.1-1.8,0.1s0,1.7,0.3,4.1c0.3,2.4,0,0-0.3,2c0,0,0.3,1.7-0.7,3.7c0,0-1.7-0.7-2-2c-0.3-1.4-1-1.4-2.4-2.7
			C116.8,276,117.8,274,118,273z M87.8,259.8c-1.5-0.7,0.3,0.1-1.2-0.8c0-0.2,0-0.5,0-0.7C87,258.8,87.4,259.3,87.8,259.8z
			 M156.8,232.6c-0.1,0.6-0.2,1-0.4,1.3l-8.4-16c0-0.1,0,0,0.2-1.1c0.1-0.7,0.3-1,0.4-1.1c0.1,0.2,0.1,0.2,0.1-0.1
			c0.2-0.1,0.2,0-0.2-0.9c-0.8-3.1,0.3-2.1-0.8-3.1c-0.1-0.1-0.1-0.1-0.2-0.2l0,0c0.1,0.1,0.2,0.2,0.2,0.2l-0.1-0.2l1.4-0.3
			c0,0,0,0-2.1-3.4c0.1-0.4,0.1-0.4,0.1-0.4l0,0l0.3-1.3c-0.1-0.2-0.3-0.3-0.4-0.5l-1.3-6.1l2.2,0.4c0,0,0,0,2.5,1.1
			c2.5,1.1,1,0.2,3.1,1.9c2.2,1.7,0,0,0.7,3.8c0.7,3.8,1-0.8,3.6-0.3s1.3,2.2,1.3,3.9s-1.7,2.2-1.1,4.1c0.6,2-1.1,1.5,0.7,4.5
			c1.7,3,0,0,3.9-2.2c0,0,0,3-0.4,6.1c-0.4,3-1.3,3.9-2.2,6.3S158.4,228.8,156.8,232.6z M121.5,88.8
			C121.5,88.8,121.5,88.8,121.5,88.8C121.5,88.8,121.5,88.8,121.5,88.8l0-0.8c0.6-0.4,0.6-0.5,0.1,0.5c0,0,1.6-1.2,2.7-1.8l0.4,5
			c-1,0.7-2.3,1.6-3.6,2.6L121.5,88.8z M154,75c1.7,0,2.2-0.9,3.5-0.9c0.9,0,1.7-0.8,2.6-1.3l1.3-0.5c1.8,0.2,2.2-1.6,1.8,0.2
			c-0.1,0.8,0.3,1.3,0.8,1.6l-8.2,5.8c-1,0.3-2.3,0.7-3.5,1.1c-1.7,0.1-1.3-0.5-1.1-1.5c0.3-1.2,0,0-2.4,0.3c0-0.1,0-0.2,0.1-0.3
			L154,75z M300.9,213c-0.1-0.6-0.3-1.1-0.5-1.8c-1.2-3.6,1.2,1.6,1.2-6.3c0-6.8-0.9,2.7-1.4,3.1l-0.6-2.9c0,0,0,0,1.5-2.5
			c0.2-0.4,0.1-0.8,0-1.1c0.5-0.4,1.1-0.9,1.9-1.7c1-0.9,1.4-1.3,1.7-1.7c-0.1,0.6-0.1,1.1-0.2,1.6
			C304.1,202.5,302.4,208.2,300.9,213z M153,194.4c-2.4-1.8-1.2,4.2-4.2,1.2c-0.3-0.3-0.6-0.5-0.8-0.7l-14.4-23.4
			c0.5-0.1,1.1-0.1,1.5-0.2l22.2,25.1c-0.4,0.1-1,0-1.8-0.2C151.2,195.1,155.4,196.3,153,194.4z M114.5,106.2c1.9,0.6,4,1.5,4,1.5
			s2.9-4.7,4.4-7c1.5-2.3,7-5,7-5l0.1-0.3c0.3,0,0.8,0,1.4,0c0.1,0,0.3,0,0.6,0l0.1,1.6l0.6,7.8l1.2,13.8l-0.4-12.8l-0.3-9.8l0-0.7
			c0.3,0,0.6,0,1-0.1c0.3-0.3,0.7-0.5,1-0.8c0.1-0.1,0.2-0.1,0.2-0.2l1,15.2l0.8,11.7l0.1-10.6l0.2-17.4c0.3-0.1,0.5-0.4,0.9-0.7
			c0.6-0.8,1.3-1.3,2.1-1.7l-0.7,22.8l-0.3,9.1l0.7-8.5l2-24c0,0,0.1,0,0.1,0c1.7-0.4,1.9,0.2,2.5,0.4l-1.9,27.1l-0.5,7.3l0.8-6.9
			l3.3-27c0.5,0.1,1.1,0.3,1.8,0.4l-2.9,29.3l-0.1,1l0.2-0.9l4.9-28.9c0.3,0.1,0.6,0.1,1,0.2l-1.8,28.7l5.1-28.1c0.3,0,0.6,0,0.8,0
			l-3.1,27.5l-1.1,10l2.1-10.8l4.9-25.6c0.6,0.3,1.3,0.6,1.9,1l-4.8,22.8l-1.5,7l2.4-7.8l5.8-19c0.3,0.7,0.5,1,0.7,1.9
			c0.1,0.4,0.2,0.7,0.3,0.9l-2.2,13c-0.9,0.1-1.2,1.3-1.2,1.3l-2.6,3.3c0.1,1,1.1,3.2,1.1,3.2c0.6,2.8,0.2,2,0.2,3.7
			c0,0.8-0.7,1.6-1.4,2.3l-0.8-3.5l0.5,3.8c-0.6,0.6-1.2,1.1-1.3,1.5c-0.3,0.9,0.6,2.6-0.5,3.5c-0.2,0.1-0.3,0.2-0.4,0.3l-1-5
			l0.4,5.4c-1,0.7-1.8,1.1-2.3,1.3l-0.4-13.1l0-0.4c0,0.1,0,0.2,0,0.4c-0.1,1.7-0.7,8.1-1.1,12.4c-0.2-0.1-0.3-0.2-0.6-0.2
			l-0.2-10.4l0-0.4l0,0.4l-0.8,10.5c-1.2,0.1-2.8-0.7-2.8-0.7c0.3,0.9,0.6,1.9,0.6,3.7c0,0.2,0,0.4,0,0.5c-2.4,1.9-7.1,6-9.6,9.2
			c-0.5,0.7-1.1,1.4-1.6,2.1c4-8.2,9-19.4,9-19.4l-11.7,20.8c-0.1-0.3-0.4-0.5-1.1-0.3c-0.2,0-0.3,0.1-0.5,0.1l7.4-18.5l-9.1,18.8
			c-0.5,0.1-0.5,0.1-0.5,0.1s-0.1-0.6-0.3-1.5c0.8-13.7,1.2-41.2,1.2-41.2s-2.7,31.1-2.4,36.6c0,0.2,0,0.5,0,0.7
			c-0.5-1.5-1.2-2.4-1.7-1.4c-0.3-8.9-0.7-18.3-0.7-18.3l-1-14.6l-0.3,5.4c0,0,0,3.7,0,9.5c0,4.5-0.2,14.2,0,21.1
			c-0.2,0.1-0.5,0.2-0.7,0.3l-9-40.5C113.8,106.1,114.2,106.2,114.5,106.2z M175.7,77.2l1.7,1.5l2.5,1l-4.4,6.3
			c-0.4-0.3-0.6-0.6-0.6-0.6s0,0-1.2-2.1c0,0-1.2-0.5-2.3-1L175.7,77.2z M262,136.2c0.9-0.9,1.4-0.7,1.9-1.4
			c0.5-0.7,1.7-1.2,1.7-1.2l0.7,0.1l-7.1,6.2c0.3-1.9,0.9-3,0.9-3C262,136.2,261,137.2,262,136.2z M155.4,190.2
			c1.4,3.3,3.2,5.8,1.9,6.2l-22-26.7c0.6-0.1,0.7-0.3-0.5-1.1c-3.6-2.3,1.4-3.2,1.4-3.2c1.3-3,5.9-1.5,2-3l2.6-0.6l2.8-0.7
			c0.4,0.2,0.9,0.5,1.5,0.8c-0.1-0.2,0.1-0.2,0.7,0c2.8,0.9,0.8,1,2.6,1c0.8,1.6,2.2,4.3,3.7,7.4c-0.2-0.1-0.4-0.1-0.4-0.1
			s-0.8,0.2-2.7,0.5c1,3.6,1,2,2,4.6c0.3,0.7,0.6,1.2,0.8,1.7c0,0.1,0.1,0.1,0.2,0.2c0.7,0.9,1.3,1.1,1.7,0.9c6.6,2.5-6,0.5-1.5,3
			c4.1,0.1-2.3-0.7,6.2,7.8S153.6,186,155.4,190.2z M146.2,139c0.1,0.3,0.2,0.7,0.3,1.1c0.3,1.1,0.8,1.2,1.8,1.7
			c-2.4,2.4-4.9,4.7-7.1,6.7c-0.7,0.6-1.3,1.2-2,1.7c-1.6,1.4-3,2.4-3.9,3c-0.3,0.2-0.6,0.4-0.9,0.5c-0.1-0.3-0.5-0.5-1.1-0.6
			c0,0,0,0,0,0L146.2,139z M165.3,101.6c0.1,0.1,0.2,0.2,0.3,0.3l-1.7,12l-1.2-0.2c0,0,0,0-1.2-0.4L165.3,101.6z M182,80.6L182,80.6
			c0,0,1.8-0.2,3.8-0.4l-5.3,9.6c-1.1-0.7-2.1-1.3-2.1-1.3c-0.3-0.3-0.6-0.6-1-1L182,80.6z M190.3,79.7l0.6,0.1l-4.1,14.3
			c-0.8-0.1-1.8-0.3-1.8-0.3s-1.5-1.2-2.8-2.5c0,0,0,0,0,0l5.3-11.3C188.8,79.9,189.8,79.8,190.3,79.7z M193.4,80c0,0,0.1,0,0.4,0.1
			l-0.2,11c-0.6,0-1.1,0.1-1.1,0.1c0,0,0,0,0,0c0,0,0,0,0,0c0,0-0.6,0.2-1.8,0.5c-0.8,0.2-0.5,0.1-1.1,0.3l1.8-12.1L193.4,80z
			 M230,102.1c0.4,0.4,0.1,0.5-0.5,0.6l0.2-0.8C229.8,101.9,229.9,102,230,102.1z M228.4,102.7c-0.1,0-0.2,0-0.3,0
			c0.1,0.1,0.2,0.2,0.3,0.3l0,0.2c-0.2,0-0.7-0.2-1.2-0.4c0,0,0,0.1,0.2,0.1c0.7,0.2,0.6,0.2,0.9,0.7l-3.2,16.8
			c-2-0.1,0.6-0.5-2.8-4.5c-0.2-0.2-0.3-0.4-0.5-0.5L227,99c0,0,0.1,0,0.1,0c-0.2-0.5,0.6-0.1,0,0c0.1,0.3,0.5,0.9,1.7,2
			L228.4,102.7z M203.1,219.3C203.1,219.2,203.1,219.2,203.1,219.3c-0.1,0-0.1,0-1.5,0.5l-1.7-1.3l-0.2-0.4l-1.4-3
			c-0.1,0-0.3-0.1-0.5-0.1l-1.2-1.8l14.1,6.2c-0.5,0.3-1,0.6-1.3,1c-0.6,0.9-1.2,1.5-2.4,0.6c-0.6-0.1-1-0.3-1.3-0.7
			c-1-0.5-2.1-0.9-2.6-1.1C202.8,219.9,202.5,220.1,203.1,219.3z M165,112.7l-0.9,1.3l-0.1,0c0.7-3.3,1.9-8.7,2.5-10.8
			c1.2,1.5,0.6,1.5,1,2.8c0.1,0.3,0.1,0.6,0.1,0.8l-2.4,5.9C165.2,112.7,165,112.7,165,112.7z M209.6,77.3c0.8-0.1,1.6-0.3,2.2-0.4
			c0.2,0,0.4,0,0.6,0l8.5,6c-2.9,0.2-0.1,1.8-2.2,1.7c2.9,1.4,0.2,0.8-2,0.3L209.6,77.3z M217,97.1l0.1-0.2
			C217.7,96.8,218,96.7,217,97.1z M217.9,86.1l-0.3-0.3C217.9,85.9,217.9,86,217.9,86.1z M209.3,98.2c0,0.2,0.1,0.5,0.1,0.8
			c0,0,0.7-1.5,3.2-0.9c0.1,0,0.2,0.1,0.3,0.1l-3.9,8.1c-0.5-0.4-1.1-1-0.7-1.8c0.5-1-1.3-0.4-2.3-0.6L209.3,98.2z M185.2,109.4
			c0.2-0.2,0.3-0.5,0.7-0.8c0.9-0.7,0.7-1.3,1.5-2.2c0.9-0.9,2.2,0,3-0.2c0.3-0.1,0.7,0.1,1.1,0.3L185.2,109.4z M177,113
			c0.8-1,2.9-1.9,3.9-2.2c1.1-0.4,1.5-0.7,3-0.9c0.1,0,0.1,0,0.1,0L177,113z M154.8,162.6c1.1-0.2,1.8-0.6,1.5-1
			c-0.3-0.5,0.4-0.5,1.2-0.5c2.5,3.8,6.7,10,10.2,15.1c-0.2,0.1-0.5,0.2-0.7,0.3c-0.9,0.5-2.3,0.2-2.3,0.2l-1.3,0.6L154.8,162.6z
			 M175,161.8c0.2,0.3,0.5,0.7,1.2,1.3c3,2.6-1.2,0.5,2,3.5c-0.2,0.3-0.4,0.5-0.5,0.8c-0.2,0.4-0.6,0.7-0.9,1l-13.5-15.3
			c0,0,0.7-1.1,1.4-1.6L175,161.8z M174.3,176.7c0,0,0,0-0.9,0s-0.9,0-1.8,0c-0.9,0-0.9,0.2-1.6-0.5c-0.1-0.1-0.3-0.2-0.5-0.3
			l-10.3-14.9c0.5-0.1,0.8-0.2,0.5-0.7c-0.5-0.7-0.8-1.1-1-1.4c-0.7-0.9-0.6-0.4-0.9-1.3c-0.2-0.7,1-1.3,1.9-1.9l15.1,20.8
			C174.5,176.8,174.3,176.7,174.3,176.7z M159.8,155.8c0.5-0.3,0.9-0.7,0.7-1.1c0,0,0.5-0.6,1-1.2l14.6,16.3c0,0.7-0.2,1,0,2.2
			c0.2,1.3-0.6,1.2-0.7,3.4L159.8,155.8z M181.5,160.9c-1.4,0.3-1.6-0.4,0.2,1.5c0,0.1-0.1,0.2-0.4,0.3c-1,0.2-1.3,0-2.2,0.3
			l-1.6-1.5c-0.1-0.2-0.1-0.4-0.1-0.4s-0.1,0-0.2,0l-9.1-8.6c0.5,0.2,1,0.4,1.3,0.5c1.1,0.4,4.6,2.3,4.6,2.3
			c2.7,1.5,0.4-0.4-0.4-1.5c-0.2-0.3-0.2-0.6-0.2-0.8L181.5,160.9z M150.5,163.1c0.1,0,0.3,0,0.4-0.1c0,0,0,0,0,0c0.1,0,0.1,0,0.1,0
			c0,0,0.1,0,0.1,0c0.1,0,0.2,0,0.2,0c0.5-0.1,1.2-0.2,0,0c-0.1,0-0.2,0-0.2,0c0,0-0.1,0-0.1,0c-0.1,0-0.1,0-0.1,0c0,0,0,0,0,0
			c0,0,0.9-0.1,2-0.2c2.1,3.7,5.5,9.5,8.5,14.7c-0.3,0.1-0.6,0.1-1,0.2c-0.2,0-0.4,0.1-0.6,0.2c-0.6-0.2-1.3-0.3-2.1-0.4
			c0,0,0,0,0,0L150.5,163.1z M155.4,177.2c0,0,0,0.1,0.1,0.1C155.1,177.2,155.2,177.2,155.4,177.2z M184.2,160c0,0,0,0-1.1,0.4
			l-8.8-8.5c-2-4.4,0.7-1.1-1.6-4.9c-2.2-3.6-0.9-2.5,5,2.5c0-0.5,0.4-1.2-1.5-2.5c-3.1-2.2,1.2,0.3-1.4-2c-0.6-0.6-0.7-1.1-0.6-1.5
			l12.8,8.8l-1.1,0.1c0.1,0.1,0.3,0.2,0.5,0.4c-0.6-0.1-1.1-0.2-1.6-0.2c-0.5,0.5-0.8,1-0.7,1.7c0.4,2.2-1-0.5,2.8,1.9
			c-0.4,0.5-1.3,0.4-1,2c0.5,2.3-1.4-0.5-0.7,2c0,0.1,0,0.1,0,0.2L184.2,160z M219.2,204.2c-0.3,1.1-0.5,2-0.8,2.8
			c0.3,0.4,0.8,0.8,1.3,1.2c0.1,0.4,0.2,0.6,0.4,0.8l-25.8-3.8l0.8-0.8L219.2,204.2z M252.9,218.6c-0.1,0.2-0.2,0.4-0.2,0.9
			c0,1.6-1-0.2-1.8,0.1c-0.1,1.3,0.1,2.3,0,1.3c-0.2-1.2-1-0.4-0.2-1.2c0.1-0.1,0.2-0.1,0.2-0.1c0-0.2,0-0.5,0.1-0.7L252.9,218.6z
			 M275.3,215.6l0.3,0.1l0-0.1l0,0c0.3,0.7,0.7,1.4,1.1,1.9l-13.7,4.9l-0.3-0.3l-1.9,0c0,0-1-0.8-2.8-1.2c-1.2,0,0,0-1.8-1
			c0.6,0.6-1.8-1,0,0c-0.6-0.6,0,0-1.2-1.4c-0.1-0.1-0.1-0.1-0.2-0.1L275.3,215.6z M278.9,185.3c1-0.3,0,0,1.1-0.6
			c1.2-0.6,0,0,1,0.2c1,0.2,0.4,1.4,1.2,3.2c0,0,0,0,0,0c0,0,0,0.1,0,0.1c0,0.1,0.1,0.2,0.1,0.3c0,0.1,0.1,0.1,0.1,0.2c0,0,0,0,0,0
			c0.2,0.3,0.1,0.2,0,0c0,0,0,0,0,0c0-0.1-0.1-0.1-0.1-0.2c0-0.1-0.1-0.2-0.1-0.3c0,0,0-0.1,0-0.1c0,0,0,0,0,0c0,0,0,0,0.4,1
			c0.4,1,0.8,1.6,0.8,1.6s-0.6-1.9,0.4-2.4c1-0.5-0.4-2.2,0.6-4.1l1.6,11.7c-0.2,0-0.4-0.1-0.4,0.3c0,0.6-2.2-1-2.2-1s0,0-0.2,1.2
			c-0.2,1.2,0,0.8,0,3.6c0.1-0.5,0.1,0.3,0.1,0.8c0.1,0.2,0.2,0.4,0.3,1.1c0.4,1.8,0.2,0.8,0.2,0.8s0,0,1.8-0.6
			c0.9-0.7,0.3-0.2,1.1-1.3l0.4,3.1c-0.6,0.4-1.3,0.6-1.3,0.6c0.4,1.2-0.8,0.6-1.2,2.2c-0.1,0.3-0.4,0.3-0.8,0.2L278.9,185.3z
			 M278.4,218.5c0.5,0.1,0.8,0.1,0.8,0.1l-2.5,2.5c0,0-0.2,0.2-0.4,0.6l-11.6,3.4c0.2-0.7-0.1-1-0.1-1l-0.4-0.4L278.4,218.5z
			 M286.2,184.7c0.2,0.6,0.4,1.2,0.6,1.5c0.8,0.8,0,0,1.4,2.6c1.4,2.6,0,0,1.4,1c1.4,1,0,0,0.2,2.6c0.2,2.6,0,0,0,1.2
			c0,1.2-1.2-0.6-1.2-0.6c-0.4-0.6-0.9-0.4-1.2-0.1L286.2,184.7z M276.2,221.8c-0.3,0.6-0.8,1.6-1.2,3L253,235.3
			c-0.7-0.9-1.2-1.6-1.2-1.6l3.2-3.2c0.7-1,0.5-0.6,0.5-1l2-0.7c0.6,0.1,1.1,0.2,1.6,0.2c1.1,0,1.8,0.4,1.8,0.4
			c0.7-1.1,2.9-1.4,2.9-1.4s0.1-0.3,0.3-0.7l0.2-0.7c0,0-0.8,0.6,0,0c0.1-0.1,0.2-0.1,0.2-0.2c0,0,0-0.1,0.1-0.1L276.2,221.8z
			 M275,225.2c-0.1,0.6-0.3,1.1-0.4,1.8c-0.6,3.9-1.1,0.6-0.9,2.6l-18.1,10c-0.1-0.1-0.1-0.1-0.2-0.2c-1.4-1.8,0,0-0.1-0.7
			c0-0.3-0.5-1-1.1-1.9L275,225.2z M269.2,232.9c0,0-0.3,0.2-0.6,0.3l5.2-3.3c0,0,0,0.1,0,0.1c0.4,2.9,0,0-1.4,2.5
			C271.7,233.8,270.2,234.1,269.2,232.9z M261.9,240.9c0,0-1.4-0.7-2.2-0.9l-0.2,0c-0.5,0-1.4,0.4-2.3,0.4l10.7-6.7
			c-0.2,0.5-0.4,1.1-0.8,1.5c-0.9,1.1-1.7,3.6-1.7,3.6L261.9,240.9z M289.1,199c0.9-0.5,1.2,1.2,1.2,1.2s0,1.6-0.2,2.8
			c-0.1,0.9-0.6,0.4-1.2-0.6l-0.5-3.1C288.6,199.2,288.8,199.1,289.1,199z M253.9,218.7c0,0-0.1-0.1-0.3-0.2l0.5-0.1
			C254,218.5,253.9,218.7,253.9,218.7z M239.3,229.1c-0.4,3.5,0,0,0.4,4.8c0.4,4.8-1.3-1.7-0.9,2.6c0.4,4.4-1.3-1.7-2.2,2.2
			c-0.3,1.3-4.8-1.7-4.8-1.7c-0.9-1.3-2.6-0.9-4.4-0.9c-1.6,0,0.1,1.9-3.1-0.7l16.3-12.5c0.1,0.2,0.2,0.5,0.3,0.9
			C242.3,226.9,239.7,225.6,239.3,229.1z M222.9,234.2c-3.2-2.4,0.5,1.6-2.8-1.6c-0.5-0.3-0.9-0.5-1.1-0.7l18.8-16
			c0.3,0.2,0.6,0.4,1.1,0.6c3.5,1.3-1.3,2.2,0.9,4.4c0.1,0.1,0.2,0.2,0.3,0.3L222.9,234.2z M217.9,214.7c-1.3-0.9-0.7-0.5-1.6-0.2
			c-0.1,0.3-0.2,0.6-0.2,0.9c0,0.2-0.1,0.4-0.1,0.6l-22-8.6l-0.5-1.3l26.7,3.1c0.2,0.2,0.3,0.3,0.3,0.3c0.6,0.2,1.3,0.3,2.2,0.5
			c0,0,0.1,0,0.1,0c0.3,0.1,0.7,0.2,1.2,0.3l-4,6.2C219.4,215.9,218.7,215.3,217.9,214.7z M237.2,203.9c0.3-0.2,0.6-0.5,1-0.7
			C238.7,204.8,237.7,204.2,237.2,203.9z M219.9,230.2c0.1-0.3,0.2-0.6,0.2-1.1c0-3.5-0.9-1.7,1.7-4.4c1.3-1.3,0.3-1.3-1-1.1
			l12.8-10.5c1.4,0.2-0.5-0.1,2.1,0.3c1.9,0.3,1.3,0.9,1.4,1.6C233,218,225.7,224.7,219.9,230.2z M218.8,223.4
			c0.9-1.3,2.2-5.7,2.2-5.7s-0.1-0.1-0.3-0.4l5.2-6.3c0.1,0,0.2,0.1,0.3,0.1c3.1,1.3,0,0,3.5,1.3c1.3-0.3,0.6-0.2,1.6,0.1
			l-11.5,11.1C219,223.8,218.5,223.9,218.8,223.4z M218.6,231.4c0,0-0.1,0.1-0.1,0.1C218.5,231.4,218.6,231.4,218.6,231.4z
			 M196.6,199.3l1-0.2c1.2,0.2,2.5,0.4,3.7,0.8c-1.9,0.1-3.6,0.2-5.1,0.3C196.2,199.8,196.4,199.5,196.6,199.3z M205.2,199
			c0.6,0.1,0.8,0,1-0.4c1.2,0.3,2.6,0.7,3.9,0.7c-1.6,0.1-3.2,0.2-4.8,0.3C205.2,199.4,205.2,199.2,205.2,199z M195.4,211.2
			l-0.6-1.5l21.1,6.6c-0.4,1.8-1.3,1.8-1.3,1.8s-1.2,0.9-2.1,0.9c-0.4,0-1,0.1-1.5,0.4l-15.5-8L195.4,211.2z M249.5,156.3
			c1.4-0.5,1.4-0.5,1.4-0.5l0.2,1.9c0,0,0.3,0.8,1,1.5c-0.6,0.8-3.9,0.8-3.9,0.8l0.4,5.2c0,0,0,0,0.5,0c-0.7,0.6-1.1,1.1-1.4,1.4
			c0.1,0.1,0.3,0.2,0.5,0.3c1.1,0,0.5,0,0.9-0.6c-0.2,0.6-0.4,1.3-0.4,1.9c0,1.8,0.7,3.3-1.1,3.3c-1.8,0,0.4-1.1-1.8,0
			c-2.2,1.1-7.1,2.5-7.3,4c-0.4,2.6-0.4,2.6-0.4,2.6c1.5-1.1,7.7-5.1,5.3-2.9c0,0,3.9,0,2,0.7l3.7,0.7c2.9-1.1,3.9-2.3,3.9-2.3
			c3.8,0.9,3.8,0.9,3.8,0.9l3.2,0.9c0,0,0.1,0.8,1.2,2c2.6,2.9,1.5,0.4,2.6,2.9c1.1,2.6-0.1,0.9,1.5,1.1c3.7,0.4,1.8-0.7,3.7,0.4
			c0.1,0,0.1,0.1,0.2,0.1c1.7,1,2,1.6,4.1,1.1c0.3,0.3,0.4,0.6,0.6,0.9c0.2-0.1,0.4-0.1,0.5-0.2c0.5-0.1,1.3-0.1,2.4,0.1l4.9,21
			c-0.3-0.1-0.5-0.1-0.4,0.2c0.2,0.8-1.4-0.6-2.1-0.8l-10.1-20.2l9.1,21.9l-20.3-16.8l19.7,19c-0.1,0.1-0.2,0.3-0.3,0.4l-23.7-8.6
			l21.2,9.6c-0.4,0.8-0.4,2-0.3,2.2l-25.6-3.9l21.6,5.5l-21.2,3.1c0,0,0,0,0,0c-0.8-1,0,0-1.8-0.8c0,0-0.8-1.8,0.2-1.8
			c1,0-0.2-2-0.2-2s0,0,2,0.6c2,0.6,0.2-1.6,0.2-1.6s-0.2-0.9-0.7-1.3c-0.3,0-0.5,0-0.7,0c-0.1-0.1-0.3-0.2-0.4-0.3l-1.8,0.8
			c-0.2,0.6-1,0.4-1.6,1.4c-0.6,1-1.6-1-2.2-1.6s-0.6-1.2,0.4-2c0.1,0.1,0.1,0,0,0c1-0.8,1.8-0.6,2.8-0.4c0.9,0.2-0.5-0.7-0.9-1
			c-0.9-0.3-2-0.8-2.9-1.3L240,206c0,0-1.4-1.4-1.4-2.4c0-1,0,0,1.6-1.8c1.6-1.8,0,0,0.6-1.6c0.5-1.3-0.4-0.3-1.9-0.4
			c0-0.1,0-0.2,0-0.2s0,0,0.4-2.9s0,0,0.4-1.8s0,0,0.4-3.3c0-0.2,0-0.4,0.1-0.6c1.5,0.8,1.9,0.9,1.8-0.5c0.9-0.9,0.5-0.7-0.1-0.5
			c-0.3-0.9-1.1-0.8,0-1l2.8-2.2c0.5-1.1,1.8-0.6,1.8-0.6c1.8-1.5,0.8,0,1.8-1.5s-1-1.5,1-1.5c2.1,0,3.6-0.3,3.1-1
			c-0.5-0.8-1-0.8-2.1-1.3c-1-0.5-2.3-1-2.3-1l-2.3,1l-1.8-1.3l-1,0.8c-1.8-1.8-1.8-1.8-1.8-1.8c-1,2.8,1,3.1-1,2.8
			c-2.3,1-2.8,2.1-2.8,2.1c-1.8,0.8-1.8,0.8-1.8,0.8s0.5,1.4,0,2.1c-0.2,0.2-0.4,0.5-0.5,0.7c-2.5-0.7-2.5-0.7-2.5-0.7l-0.7-1.5
			l-5.5-0.7c-1.1-1.3-1.8,0.1-2,0.9c-0.1,0.3-0.2,0.6-0.2,0.6c-1-0.7,0.5,2.8-2.3,2.7c0.2,2.1,0.3,5.2-0.3,8.2c-0.5,2.4-1.3,5.5-2,8
			l-23.3-1.2c0-0.2,0-0.6-0.1-0.9c2.4-0.3,5.5-0.7,8.6-1.1c1,0.4,1.9,0.7,2.5,1c-0.4-0.4-0.9-0.7-1.2-1.2c7.1-0.9,13.9-1.9,13.5-1.9
			c-0.3,0-3.3,0.2-7.2,0.4c0.2,0,0.4-0.1,0.5-0.1c3.3-1.1,0-1.1,0-1.1s0,0-2.8-1.8l9.7-2.3l-10.3,1.5c0-0.5,0-1.2,0.1-2.1
			c0.5-1.2,0.3-2.7,0.3-2.7s0,0,1.1-1.9c1.1-1.9,0.4-1.5,0-2.6c-0.3-0.9-1.2,0.3-2.6,1.3c-1-0.1-2.4-0.4-3.7-0.6
			c-2.1-0.4-1.5-1.1-3.5-1.1c-0.7-0.8-2.5-2.5-0.3,0c-2.2-1.9,0,0-3.7-3.7c-1.1-2.2,0,0,0.4-2.2c0.1-0.5,0-1-0.2-1.4
			c0.9-0.8,1.4-1.3-0.1-3.1c-3.5-4.4-3.1-1.3-3.5-4.4c-0.4-3.1,2.2-0.9,1.3-3.5c-0.9-2.6,0-0.4-0.9-2.6c-0.9-2.2-2.6,0.9-0.9-2.2
			c1.7-3.1,6.1-3.5,6.1-5.7s3.9-3.5,0-4.4c-2-0.4-0.8-1,0.1-1.5c2.1-0.8,2.8-0.8,2.8-1.3c0-0.7-0.2,0.2,0.5-1.6c0.7-1.8,2-4.1,2-4.1
			l-2.9,1.1c-0.7,0.5-2.9,1.8-5.4,2.5s0,1.1-2.5,0.7c-2.5-0.5-1.8-0.2-3.8-0.9c-0.4-0.1-0.8-0.3-1.2-0.3c-0.3-1,1-1.6-1.7-1.9
			c-3.9-0.4-0.4-2.6-3.9-0.4c-0.8,0.5-1,0.8-0.8,1.1c-0.5-0.2-1-0.3-1.2-0.4c-0.7-0.5-2.7-1.4-2.7-1.4s-1.5-1.1-2.6-2.8
			c0.3-0.5,0.3-0.9-0.5-1.3c-2.6-1.3,2.6-1.3,0-3.5s-0.4-3.6-1.7-4.4c-3.1-1.7-2.6-4.8-3.9-3.5c-0.1,0.1-0.2,0.2-0.3,0.2
			c-0.2-1.1-0.4-2.4-0.3-3.8c0.1-2.5,1.4-4.9,1.7-5.2c0.1-0.1,0.4-0.4,0.6-0.6c0.3,1.3,0,2.7,0.1,3c0.5-0.9,0.1-0.9,0.4-2.7
			c0.4-2,0.2-1.5,1.5-3c1.3-1.5,0,0,2.6-1.5c1.1-0.6,0.2-0.7,0.7-1.7c0,0,0,0,0,0l16.3-5.8c0.3,0.3,0.6,0.5,0.9,0.8l-15.2,12.4
			l16.3-11.3c0.3,0.1,0.7-0.2,1.4-0.2c1,0,0.3,0.6,0.8,1.4l-12.2,16.2l13.1-14.9c0.1,0.1,0.2,0.2,0.4,0.4c0.3,0.3,0.6,0.5,0.9,0.7
			l-8.9,18.3l10.1-17.9c0.1,0,0.2,0,0.3,0c0.2,0,0.6,0.1,0.9,0.2l-10.9,22.9l-0.2,0.3l0.2-0.3l12.3-22.4c0,0,0.1,0,0.1,0
			c0.4,0,0.5,0,1.7-0.4c0.1,0,0.1,0,0.1,0l-0.5,1l-10.7,22l-3.6,7.3l4.2-7.4l10.9-19.4l2.1-3.8c1.4-0.2,1-0.6,0.7-1.3l8.2-14.5
			c0.2,0.1,0.3,0.3,1.9,0.5l-8.9,19.4l-3.8,8.1l-7.3,15.7l7.4-14.9l4.4-8.8l9.6-19.3c1.8,0.2-0.7-0.1,1.2,0.3c0.2,0,0.3,0.1,0.4,0.1
			l-7.9,19.7c-0.2,0-0.5-0.1-0.8-0.1c0.2,0.3,0.4,0.5,0.5,0.7l-0.3,0.8l-5.6,13.9l-2.4,5.9l2.5-5.3l5.7-12.4c0.2,1,1,2.9,1.7,3.2
			c0.8,0.3,2.1,1.4,2.1,1.4c0,2.6,0,1.3,0,2.6c0,1.3,0.7-0.4,0,1.3c-0.7,1.7-0.7,1.7-0.7,1.7s2,1.7,2,2.6s-0.7-1.1,0,0.9
			c0.7,2,2,1.5,1.9,3.2c-0.1,1.6-0.9,1.7-1.4,2.5c-1.1,1.5-1.1,1.5-1.1,1.5l2.2,0.9l0.5,1.1c0.5,0,0.5,0,1.2-0.2
			c0.9-0.2,1.5,1.1,1.5,1.1s1.1,0.9,1.4,2c0.2,0.8,1,1.2,1.6,1.7c0.3,0.2,0.6,0.4,0.9,0.6c0-0.1,0.1-0.2,0.2-0.6c0.7-1.3,0-1.3,0-2
			c0-0.7,0-1.1,1.3-0.9c0.3,0,0.4,0.1,0.5,0.2c0.3-0.5,0,0,1.7-1.7c0.5-0.5,0.9-1.1,0.9-1.1l-0.4-1.7l1.3-0.4c0,0,0.9,0.9,1.1-0.7
			c0,0,0-0.1,0-0.2c0-0.1,0-0.2,0-0.3c0,0,0-0.1,0-0.1c0-0.1,0-0.2,0,0c0,0,0,0.1,0,0.1c0,0.1,0,0.1,0,0.3c0,0.1,0,0.1,0,0.2
			c0,0,0,0,1.3-0.4c1.3-0.4,0.7,0.9,0.7,1.5s-0.9,0.4-0.7,1.5c0.2,1.1,0.4,1.1,0.9,2.2s0.7,1.3,1.7,2.4c0.6,0.6,0.7,1.1,0.7,1.7
			c0.1,0.1,0.3,0.2,0.5,0.3c1.8,0.8-0.2,0.6-0.2,1.2c0.5,1.4-0.8,1.4-0.3,2.1c0.2,0.3,0.4,1,0.5,1.7c0.9,0.9,1.3,0.5,2.4,0.5
			c1.2,0,0.8,0.2,2.2,0.6c1.1,0.3,1.2,0.3,2.3,0.3c0.5-0.1,0.9-0.2,0.9-0.2l2.1,0.2C249,156.4,249.3,156.4,249.5,156.3z
			 M214.5,120.3c0,0.1,0.1,0.3,0.2,0.6c0,0-0.3-0.2-0.7-0.4l0.2-0.5C214.3,120.1,214.4,120.2,214.5,120.3
			C214.4,119.8,214.9,120.7,214.5,120.3z M221.5,115.2c-3-2.6-2.4,4-2.4,4s0,0-4.2-0.7l9.1-19.7c0.4,0,0.9,0.1,1.7,0.2
			c0.2,0,0.3,0,0.5,0L221.5,115.2z M207.3,77.7l8,9.4c-0.7,0.4-1,0.9-0.5,1.9c0,0-6.1,0-5.2,0.9c0.7,0.7,0.3,0.3,0.7,1.6l-4.5,9.2
			c-0.5,0.1-1.2,0.2-2.2-0.1c-1.5-0.5-3.4,2.1-0.6-1.2c1.8-1.8,0,0,1.2-1.5c1.2-1.5,0,0,0-3.1s0,0,1.8-3.1c0.9-1.8,0,0,0.6-1.8
			c0.1-0.3,0.2-0.5,0.2-0.7l0.4-0.3c0.4,0,1,0,2.7-0.9c0,0-0.7-0.1-1.6-0.1l-2.7-7.1c0.9,0.1,1.5,0.1,0.9-0.5
			c-1.2-1.2-0.9-2.3-0.9-2.3S206.3,77.8,207.3,77.7z M199.5,81.5l-0.1-0.3c0.6,0.3,1.4,0.5,2.2-0.1c0.5-0.3,1.2-0.5,1.9-0.5l2.8,7.6
			c-1.1,0.3-3.1-0.1-5-0.2l-1.7-6C200.1,82.3,200.2,82.2,199.5,81.5z M134.8,157.3c-0.1,0-0.2,0-0.2-0.1c0.8-0.8,2.6-2.6,4.9-5
			c0.8-0.8,1.6-1.7,2.4-2.6c2.2-2.3,4.6-5,7-7.5c1,0.6,0.8,1.6,2.3,4.2l3.1,0.9c0,0-0.3,1.2,0.6,3.4c0.4,0.9,0,1.2-1.6,2.8
			c-0.8,0.8-1.9,2-2.8,3.1c-0.5,0.2-0.9,0.3-1.9,0.5c-2.5,0.4-1.2,1.5-4,0.5l0.6,2.5c-0.2,0-0.5,0.1-0.8,0.1c-2,0.2-2.6,0.2-2.3,0.4
			l-1.5,0.1l-5,0.4C134.2,159.5,137,157.6,134.8,157.3z M133.5,169.7l0.3,0.4C133.3,169.8,133.2,169.7,133.5,169.7z M201,220
			c-0.1,0-0.2,0.1-0.3,0.1l-0.2-0.4L201,220z M281.9,162.2c0-0.2,0.1-0.5,0.1-0.7C282,161.8,282,162,281.9,162.2z M234.9,118.7
			l0.1-0.4C235.2,118.7,235.2,118.8,234.9,118.7z M235.6,114c0,0,0.1,0.1,0.1,0.1c1.9,1,1,0.5-0.5,2.4L235.6,114z M235.4,107
			c-0.2,0.4-0.3,0.7-0.3,0.7s-1.4,3.8-0.2,5.7l-0.3,4.2c0,0,0,0,0,0.1c0,0,0,0,0,0l-0.1,0.8c-0.1-0.1-0.2-0.1-0.3-0.2
			c-0.1,0.3-0.3,0.6-0.4,0.9c-0.3,0.8-1.6,1.1-3.1,1.3l2.8-17.2c0.3,0,0.6,0,1,0c0.6,0,1,0.2,1.3,0.4L235.4,107z M230.3,120.5
			c-2,0.2-4.2,0-4.2,0c-0.3,0-0.6,0-0.8,0l3.9-16.7c0.4-0.3,0.7-0.6,0.7-0.6s0,0,2.3,0L230.3,120.5z M223.4,78.9
			c0.1,2.3,6.6,4.4,2.4,4.2l-8.7-5.4c0.9-0.4,3.5,1.1,4.8,1.1C222.2,78.7,222.7,78.8,223.4,78.9z M197.2,81l1.6,7.3
			c-1.2,0.4-2.4,2.1-2.4,2.1l-1.1,0.5l-1.1-10.7c0.2,0,0.4,0.1,0.7,0.1C195.7,80.4,196.5,80.7,197.2,81z M121.1,95l0-0.3
			c0.1-0.1,0.1-0.1,0.2-0.2c1.7-1.3,1.5-1.2,1.9-1.1C122.5,94,121.7,94.5,121.1,95z M285.5,158.4c-0.6-0.9-1.8-1.5-1.8-1.5l-2.5-1.2
			c0,0-0.9,1.8-0.6,3.4c0.3,1.5,0,0,1.2,1.8c-1.2,3,0.5-1.2-1.7,1.1s-1.2,0-2.4,1.2s1.4,1.2-1.2,1.2s-0.2-1.4-2.1-0.9
			c-1.9,0.5,0-0.5-1.4-0.7s0,0.2-1.4-0.2s-1.6-0.1-2.4-0.7c-1.9-1.7-0.2-0.7-1.9-1.7c-1.5-0.9-1.4-0.5-1.8-1.6l9.2,0.4l-9.7-1.9
			c-0.3-1-0.4-1.3-1.5-1.2c-1.3,0.2-1.1,0.1-1.7-0.5l14.5-4.6l-15.8,3.3c-0.3-0.4-0.5-0.6-0.6-0.9l24.3-12.6c2.3,2.4,2-3.1,2.7,1.7
			c0.7,5.3-1.4-3.9-0.4,2.1c1.1,6-0.3,5.1-0.3,5.1s-1.5,2.3-0.8,4.4c0.7,2.1,2.1,1.4,2.1,3.5L285.5,158.4z M259.3,151.2
			c-0.1-0.3-0.1-0.5-0.1-0.8l19.9-13.6l1,1.5l3.5,1.1c0.2,0.3,0.4,0.6,0.6,0.9L259.3,151.2z M259,148.6l-0.1-0.6v-1.2l16.5-12.4
			l1.1,1.1l2.1,0.7l0.2,0.3L259,148.6z M258.9,144.6v-2.8l7.9-8l1.5,0.1c0,0,0.9,0.5,1.7-0.2c0.3-0.3,0.7-0.6,1.1-0.9
			c1.7,0.3,3.7,1,3.7,1l0.4,0.4L258.9,144.6z M169.1,81.1c-1.1-0.1-2.9,1.1-2.4,0c0.5-0.9-2.5-0.9-5.2-0.8c2.2-1.5,4.6-3.2,6.1-4.3
			c1.1,0.7,1.5,0.8,2.2,0.6c0.9-0.3,2.5,0.3,2.5,0.3h0.1L169.1,81.1z M127.7,89.7c0,0-0.7,0.5-1.8,1.2l-0.5-4c0.6,0.3,2.8-0.7,2,0.1
			l2.8-0.4C130.3,87.9,127.7,89.7,127.7,89.7z M110.5,106.8c1.3-0.7,2-0.8,2.9-0.7c1.2,6.5,5.9,30.8,7.9,40.6c-0.1,0-0.3,0-0.4,0
			l-11.8-39.3C109.5,107.2,110,107.1,110.5,106.8z M134.3,177.3c-5.9-5.5,2.7-0.5-1.4-3.6c-1.3-1-1.1-1.5-0.5-1.8l14,23.5
			c-0.6,0.6-1.5,1-4.3-1.5c-0.7-0.6-1.3-1.1-1.7-1.4l-6.3-11.9C136.3,180.9,138.1,180.8,134.3,177.3z M307.1,157.9
			c-0.1,1.7,3.3,4.2,3.3,4.2l1.1,3.9c0.3,1.6,1.6,5.2,1.6,5.2l-2.1,2.5l-1.6,0.2c0,0-0.3-1,0.3,1.3c0.5,2.3,0,0-0.8,2.6
			c1.1-0.7-0.8,2.6,0,0c-1.1,0.7,0,0-1.7-2.1c-0.5-0.5-0.7-1.5,0.1-4.5l-3.1-0.6c-0.9-1.5-2.3-0.4-2.3-0.4s0-1.3,1.1-2.6s0,0,0-1.6
			s0,0,1.5-0.4c1.5-0.4,1.2-1.3,0.9-3.9c-0.1-1.4-0.9-3.1-1.1-3.3s-0.5-0.3,1.6-2.9C306.6,154.6,307.2,156.2,307.1,157.9z
			 M118.8,89.5c0.9-0.3,1.6-0.7,2.1-1l-1.4,7c-1,0.7-2,1.5-3,2.3c0.6-2.4,1.1-5.6,1.4-8.3C118.1,89.6,118.4,89.6,118.8,89.5z
			 M124.3,167.9C124.3,167.9,124.3,167.9,124.3,167.9c2.4,1.4-0.8-0.1,1.2,0.8c2,0.9-1.6,0,0.4,0.7c2,0.7,0,0,1.1,1.1
			c1.1,1.1-1.4,0.1-1.4,0.1s-0.1,0-0.2-0.1L124.3,167.9z M106.2,239.5c-0.3,0.2-0.5,0.5-0.8,0.7l1.5,2l2,0.5c0,0,2,0,2.5,4s0,0,1,5
			c0,0,0,0.1,0,0.1c-0.2,0.7-0.4,1.2-0.4,1.2s0,0.1-0.1,0.2c-0.6-0.6-1.5-1.5-2,0c-1,2.9-0.1,0.2,0.9,2.3c-0.2,0.6-0.4,1.2-0.6,1.9
			l-1.1,2.9l-0.4,0.9c-0.4-0.2-0.7-0.4-1-0.5c-0.1,0.2-0.3,0.4-0.5,0.7c0,0-1,0.8-2.3,0.9c-1.3,0.1-0.9-1.9-2.4-3
			c-1.5-1.1-1.8,0.4-3.7,1.5c-1.1-1.6-1.5-1.7-1.6-1c-0.2-0.3-0.5-0.5-1-0.5c-1.8,0,0,0-1.6-1.2c-0.3-0.3-0.6-0.3-0.8-0.3
			c-3.3-4.2-6.2-8.3-8.5-11.9c0-0.4,0-0.9,0.1-1.6c0.4-2.6,1.1-1.5,2.6-3.7c0.1-0.2,0.3-0.5,0.5-0.7c0.3-0.1,0.7-0.3,1-0.4
			c1.3-0.6,2.3-0.9,3.1-1.1c0.3,0.2,0.7,0.4,1.1,0.7c2,0.5,0.7,0.2,1.9,0.2l-0.3-1.1c0,0,0.2-1.1,0.2-2.3l1.6,0.4
			c0,0,1.8-0.6,2.8-0.3v-2.2l6.3,4C106.1,238.4,106.1,239,106.2,239.5z M113.4,91.1c0.9-0.8,2.2-1.5,3.6-2.2c0.1,0,0.2,0.1,0.3,0.1
			l-2.7,10.4c-0.9,0.8-1.6,1.5-2.1,2c-0.2,0.1-0.3,0.1-0.5,0.2L113.4,91.1z M97.4,123.6l1.8-2.1c-0.2,0.9-0.5,2-0.9,3.2
			c0,0,0,0.1,0,0.1L97.4,123.6z M99.4,126.3L99.4,126.3c1.7-2.1,4-3.8,4.7-4.4l0.6-1.6l0-0.4c2.4,5.6,8.6,18.1,12.3,25.6
			c-0.6-0.6-1.7-1.5-1.9-0.7c-0.2,0.7-0.3,1.1-0.5,1.3c-3.7-7.7-9-18.4-10.3-19.5c-2.1-1.7,0,0,3.8,8.7c0.7,1.7,1.5,3.4,2.3,5
			c0.1,0.1,0.1,0.2,0.2,0.4c0.7,1.5,1.4,3,2.1,4.3c-0.1,0-0.1,0-0.2,0l-3.2-4.5l-0.6-0.8L99.4,126.3z M112.7,170.8l0.5,0.3
			c0,0,0,0.1,0,0.2l1.1,1c0,0,0,0,0.4,1.4c0.3,1.1,0.1,0.4,0.1-0.5c2.2,8.6,7.5,28.5,10,34.3c0.2,0.4,0.4,0.8,0.5,1.1
			c0.3,0.5,0.5,0.9,0.8,1.3c1.9,3.4,1.9,3.4,1.9,3.4l-0.8-3.1l0-0.1l-9.5-35.1c0-0.5,0-0.9,0-1.1c0-0.7,0.3-0.9,0.3-0.9
			s0.3-0.7,0.1-1.2c-0.1-0.5,0.4,0.1,0.7-1.2c0-0.2,0.4-0.6,0.6-0.8c0.4,1.5,1,3.4,1.7,5.6l-0.9-0.5c0,0-0.2,0.8,0.1,2.7
			c0.5,0.1,1,0.1,1.5,0.3c3.2,10.7,7.8,25.4,8.6,26c1.4,1,1.4,1,1.4,1l-8.3-26.5c0.7,0.3,1.3,0.7,1.8,1.3c1.7,2.1,1.4-0.4,2.4-0.1
			l7.7,17.7c0.2,1.6,0.6,3.9,1.4,5.8c0.1,0.2,0.1,0.3,0.2,0.5l-0.1,0.7c-0.2-0.1-0.3-0.2,0,0.2l0,0c0,0,0.1,0.1,0.3,0.3
			c0.2,0.3,0.6,0.8,1.1,1.5c1,1.4,1.6,2.1,2,2.4c0.2,1.9-0.5,2.2-0.8,2.9c-0.3,0.8-0.3,2.1-0.3,2.1c0,2.1,1.6,3.4,1.6,3.4l1.2,2.7
			c0,0,1.5,1,1.5,2.1c0,1-0.3,0.5,0,2.1c0.3,1.5-0.3,0.3,0.3,1.5l1-1.2l1.5-1.4c0,0,0,0,0,0c2.2,3.6,6.5,10.6,9.2,15.1
			c-0.1,0.4-0.2,0.6-0.4,0.7c-0.1,0.4-0.3,1-0.5,1.6c0,1.4,0,0,2,2.4c2,2.4,1,4.8,1.7,6.8s0,0,0.3,3.7c0.1,1.1-1.4,0.2-2.8,0.7
			L145,227.1l9.6,27.4c-1.3,1.3,0.2-0.1,0.2,1.8c-0.1,2-0.3,1.7-1.6,3.7c0,0.1-0.1,0.1-0.1,0.1l-13.8-29.3l11.5,28.2
			c-0.4,0.7-0.8,1.6-1.4,2.7l-1.2-0.5c-3.7-7.1-9.7-18.6-14.3-27.3c-0.5-0.9-0.9-1.7-1.4-2.6c-2.1-4-3.8-7.1-4.6-8.7l3.3-1.5
			c-0.2-0.4-0.5-1.1-1-2.6c0,0-1.3,1-1.8,1.7c-0.5,0.8-2.6,0.5-3.3,0.8c-0.8,0.3-1.5,0.5-2.8,0.3c-1.3-0.3-1,0.3-2.3,0.8
			c-1.3,0.5,0,0-1-0.3c-1-0.3-2.3,0.5-2.3,0.5s0,0-0.1,0.5c-0.1,0.3-0.2,0.8-0.4,1.5c-0.1,0.2-0.1,0.4-0.1,0.5l-4.9-6.4
			c0,0,1.9,2.7,4.8,7c-0.1,0.6-0.1,0.5-0.2,1.9c-0.3,2.1,0,0,0.7,2.4c-0.5,0.1-0.6,0.4-0.6,0.7l-11.1-17.7c0.6,0.3,1.1,0.2,0.8-1.1
			c-0.3-1.3-0.4-1.8-0.5-2l3.4-22.5l0.9-5.6l1.7,1.8c0,0.6,0.1,1.1,0.1,1.5l-0.1,5.4c0,0.1,0,0.3,0,0.4c0,0,0,0,0,0l-0.2,10l0.9-8.5
			c0.5,0.9,0.8,1.4,1.1,1.8c-0.8,3.6-2.1,10.8-1.3,13.4c0.5,1.8,1.6,4.9,2.4,7.4c0.8,2.4,1.5,4.2,1.5,4.2s-0.6-2.1-1.2-4.8
			c-0.7-3.1-1.4-7-1.2-9.7c0.2-3,0.3-7.1,0.3-9.8c0.2,0.5,0.4,1,0.5,2c0.5,3.1-0.6,1,0.7,4.4c1.3,3.4,0.8-0.3,1.3,3.4
			c0.5,3.6,0.5,4.1,0.5,5.7c0,0.7,0.9,1.2,1.7,1.8c0.9-0.5,1.8-1.1,2.4-1.6c0-0.4-0.2-0.9-0.4-1.7c-1.7-4.7-1.7-6.3-3.2-9.4
			c-1.5-3.1-2.6-10.3-2.1-8.2c0.5,2,5,5.7,5.5,6c0,0,0,0,0-0.1c-0.5-1-1.1-1.3-1.8-2.2c-0.8-0.9,0,0-0.5-1.5c-0.5-1.5-0.8,0-1.4-2
			c-0.5-2,0,0,0-1.6c0-1.6,0-0.7,0-2c0-1.4,0,0-0.4-1.9c0,0,0,0,0-0.1c-0.4-0.9-0.3-1.5,0,0c0.1,0.2,0.2,0.4,0.3,0.6
			c0.7,1.2,0,0-0.1-1.4c-0.1-1.4,0,0-0.8-1.9c-0.2-0.4-0.8-0.9-1.1-1.4s0-0.8,0.4-1.8c0.4-0.9,0.3-0.5,0.8-2.4
			c0.5-1.9-1.1,2-0.9,0.4c0.1-1.5-0.3-0.5-0.3-0.5s-0.4,0.1,0-1.4s-0.4,0.5-0.4,0.8s-0.4-1.1-0.7,1.9c-0.3,3-0.9-1.6-0.4-3.1
			s0,0,0.4-1.6c0.1-0.6,0-0.7,0-1.1c0-0.3,0-1.5,0-1.9L112.7,170.8z M95.3,172.5c0-0.4-0.1-0.6-0.1-0.9l3.7-0.3l0.2,0l-0.2,0.1
			L95.3,172.5z M103.9,174l-0.2,0C103.8,173.9,103.9,173.9,103.9,174z M94.8,180.5l-1.9,1.5c0.1-0.7,0.2-1.4,0.3-2.1
			c0.2-0.7,0.5-1.4,0.8-2.1c0.4-1.1,0.7-2.2,0.9-3.1c0.1-0.5,0.2-0.9,0.3-1.3l3.6-0.5l1.3-0.2c-0.9,2.7-0.9,2.7-0.9,2.7l1.4,0.3
			l-1.6,1.3L94.8,180.5z M106.9,178.9L106.9,178.9C106.9,178.9,106.9,178.9,106.9,178.9c0.4,0.2,0.7,0.5,0.5,1.1l0.1,0.1l-0.5,6.2
			l-2.1,23.4c0-0.1-0.1-0.3-0.3-0.9c-0.7-1.8,0.4,1.5-0.7-1.8c-1.2-5-0.9-7-0.9-8c1-5.9,2.3-13.5,3.2-19L106.9,178.9z M107.4,234.5
			c-0.2,1.1,0.1,1.1-0.4,1.5l-7.1-4.3v-0.2l-1.3-1.1c0.2-0.1,0.3-0.2,0.5-0.3c0.3-0.2,0.5-0.3,0.7-0.4c-0.2,0.4-0.4,1,0.8,1.9
			c2.5,1.8,0.1,0.1,1.8-0.7l5.2,3.2C107.5,234.1,107.4,234.3,107.4,234.5z M256.1,291.1c-2.6,3.2-4.9,7.6-6.2,6.8
			c-1.3-0.8-2.2,2.5-1.3-0.8s0.8-4.1,2.5-5.5c1.4-1.2,1.9-1.6,2-1.8c0.1-0.1-1.2,2.1,0.2,1.3c1.4-0.8,3-2.6,3-2.6v-3.4l1.8-1.8
			c0,0-0.2-1.8,1.6-2.2c2.7-0.6,4.5-2.1,5.5-2.4c0.9-0.3,1.8-0.3,1.8-0.3l0,2.4c0,0,2.1-1.5-0.6,0.9c-2.8,2.5-3.7,1.5-3.7,1.5
			c-2.1,2.8-1.8,3.7-3.4,4.2C257.8,287.9,258.7,287.9,256.1,291.1z M274.4,280c-2,0.2-4.1,2.4-4.1,2.4c1.2-3.1,1.2-1.8,1.2-3.1
			c-1.5,2.8,0-1.2,0,0c1.5-2.8,0.3-1.5,1.5-2.8s3.4-2.8,3.4-2.8S276.4,279.7,274.4,280z M282.3,268.3c0.2-1.3,0.1-1-0.2-0.4
			c-0.4-0.8-0.4-0.1-0.3,0.4c-0.2,0.2-0.4,0.4-0.6,0.5c-0.5,0.2-1.3,0.6-2,0.9c0.3-0.4,0.6-0.9,0.9-1.5c0.6-1.2,1.2-1.8,2.1-2.5
			c0.9-0.6,1.2-0.9,2.1-1.2c0.5-0.2,1.6-0.1,2.6-0.2c-0.2,1-0.4,2.1-0.7,3.1c-0.7,1-1.4,2.1-1.9,2.4
			C283.6,270.4,283.4,270.9,282.3,268.3z"/>
		<path d="M283.3,200.6c0-0.2,0-0.4,0-0.6C283.1,200.5,283.2,200.5,283.3,200.6z"/>
		<path d="M283.3,200.7c0,0,0-0.1-0.1-0.1C283.3,201.2,283.3,201.1,283.3,200.7z"/>
		<path class="st0" d="M218.1,141.8C218.2,141.6,218.2,141.6,218.1,141.8L218.1,141.8z"/>
		<path class="st0" d="M218,142.2c0,0.1-0.1,0.2-0.1,0.4C217.9,142.5,218,142.3,218,142.2z"/>
		<path d="M238.2,203.2c-0.4,0.3-0.7,0.5-1,0.7C237.7,204.2,238.7,204.8,238.2,203.2z"/>
		<path d="M247.9,163.8c-0.6-1.4-0.8,0-0.6-1.4c0.2-1.4,0.8,0.4,0.2-1.4c-0.6-1.8,1-1.2,1.6-2s1.4,0.6,0.6-0.8s1.2-1.2-0.8-1.4
			s0.2,0-2-0.2c-0.5,0-0.8-0.1-1.1-0.1c-1.1-0.1-1.2,0-2.3-0.3c-1.4-0.4-1-0.6-2.2-0.6c-1.1,0-1.6,0.4-2.4-0.5
			c-0.2-0.7-0.3-1.4-0.5-1.7c-0.4-0.7,0.9-0.6,0.3-2.1c0-0.6,2.1-0.3,0.2-1.2c-0.2-0.1-0.4-0.2-0.5-0.3c0-0.6-0.1-1.1-0.7-1.7
			c-1.1-1.1-1.3-1.3-1.7-2.4s-0.7-1.1-0.9-2.2c-0.2-1.1,0.7-0.9,0.7-1.5s0.7-2-0.7-1.5c-1.3,0.4-1.3,0.4-1.3,0.4
			c-0.2,1.5-1.1,0.7-1.1,0.7l-1.3,0.4l0.4,1.7c0,0-0.4,0.6-0.9,1.1c-1.7,1.7-1.4,1.2-1.7,1.7c-0.1-0.1-0.2-0.1-0.5-0.2
			c-1.3-0.2-1.3,0.3-1.3,0.9c0,0.7,0.7,0.7,0,2c-0.2,0.3-0.2,0.5-0.2,0.6c0,0.2,0.3-0.1-0.2,0.4c0,0,0-0.1-0.1-0.1
			c-0.1-0.4-0.4-0.6-0.7-0.9c-0.6-0.5-1.4-0.9-1.6-1.7c-0.3-1.1-1.4-2-1.4-2s-0.7-1.3-1.5-1.1c-0.7,0.2-0.7,0.2-1.2,0.2l-0.5-1.1
			l-2.2-0.9c0,0,0,0,1.1-1.5c0.5-0.8,1.3-0.9,1.4-2.5c0.1-1.6-1.2-1.2-1.9-3.2c-0.7-2,0,0,0-0.9s-2-2.6-2-2.6s0,0,0.7-1.7
			c0.7-1.7,0,0,0-1.3c0-1.3,0,0,0-2.6c0,0-1.3-1.1-2.1-1.4c-0.7-0.3-1.5-2.2-1.7-3.2l-5.7,12.4l0.7,3.4l1.1,10.7
			c0,0,1.1,0.9,1.7,1.1c0.7,0.2,1.5,0.9,1.5,0.9s0.6-0.4,1.3-1.1c0.1,0.4,0.4,1.2,1,1.5c0.9,0.4,3.7,2.4,4.8,2.6
			c1.1,0.2,2.2,0.7,3,0.7c0,0,0.1,0,0.1,0c-0.2,1.2-0.1,2.8-0.2,3.7c-0.2,1.4,0.4,4.6-0.2,7.2s0,6.6-1.8,8.6
			c-1.4,1.5-1.4,3.4-1.8,4.4l1.5,4.9c1.2,0.6,2.5,1.3,3.6,2c0.3-0.9,1-2.3,2-0.9l5.5,0.7l0.7,1.5c0,0,0,0,2.5,0.7
			c0.2-0.2,0.3-0.4,0.5-0.7c0.5-0.6,0-2.1,0-2.1s0,0,1.8-0.8c0,0,0.5-1,2.8-2.1c-2.1-0.3,2.3-1,0,0c2.1,0.3,0,0,1-2.8
			c0,0,0-0.1,0-0.1c0,0,0-0.1,0-0.1c0-0.1,0.1-0.2,0.1-0.3c0.2-0.6,0.5-1.4,0,0c0,0.1-0.1,0.2-0.1,0.3c0,0,0,0.1,0,0.1
			c0,0.1,0,0.1,0,0.1s0,0,1.8,1.8l1-0.8l1.8,1.3l2.3-1c0,0,1.3,0.5,2.3,1c1,0.5,1.5,0.5,2.1,1.3c0.5,0.8-1,1-3.1,1c-2.1,0,0,0-1,1.5
			s0,0-1.8,1.5c0,0-1.3-0.5-1.8,0.6l-2.8,2.2c0,0,0.1,0,0.1,0c0.1,0,0.2,0,0.3-0.1c0,0,0.1,0,0.1,0c0,0,0,0,0,0c0,0,0,0,0,0
			c0,0,0,0,0,0c0,0,0,0-0.1,0c-0.1,0-0.2,0-0.3,0.1c-0.1,0-0.1,0-0.1,0c-1.1,0.2-0.3,0.1,0,1c0.6-0.1,1-0.3,0.1,0.5
			c0.1,1.4-0.3,1.3-1.8,0.5c0,0.2,0,0.4-0.1,0.6c-0.4,3.3,0,1.5-0.4,3.3s0-1.1-0.4,1.8s-0.4,2.9-0.4,2.9s0,0.1,0,0.2
			c1.5,0.1,2.4-0.9,1.9,0.4c-0.6,1.6,1-0.2-0.6,1.6c-1.6,1.8-1.6,0.8-1.6,1.8c0,1,1.4,2.4,1.4,2.4l1.6,0.1l1.2,0.1l1.6,1.2
			c0,0,0,0,0.1,0.1c0.4,0.2,1.8,1.1,0.9,1c-1-0.2-1.8-0.4-2.8,0.4c0.1,0.1,0.1,0.1,0,0c-1,0.8-1,1.4-0.4,2s1.6,2.6,2.2,1.6
			c0.6-1,1.4-0.8,1.6-1.4l1.8-0.8c0,0,0.4-0.2,1,0.2c0,0,0.1,0,0.1,0.1c0.5,0.4,0.7,1.3,0.7,1.3s1.8,2.2-0.2,1.6c-2-0.6-2-0.6-2-0.6
			s1.2,2,0.2,2c-1,0-0.2,1.8-0.2,1.8c1.8,0.8,1-0.2,1.8,0.8c0,0,0,0,0,0l21.2-3.1l-21.6-5.5l25.6,3.9c0-0.3-0.1-1.5,0.3-2.2
			l-21.2-9.6l23.7,8.6c0.1-0.1,0.2-0.2,0.3-0.4l-19.7-19l20.3,16.8l-9.1-21.9l10.1,20.2c0.7,0.2,2.2,1.5,2.1,0.8
			c-0.1-0.3,0.1-0.3,0.4-0.2l-4.9-21c-1.1-0.2-1.9-0.3-2.4-0.1c-0.2,0-0.3,0.1-0.5,0.2c-0.8,0.2-1.9,0.6-2.9,0.4
			c-1.3-0.2-1.6-1.4-1.8-2.5c-0.1,0-0.1-0.1-0.2-0.1c-1.8-1.1,0,0-3.7-0.4c-1.5-0.2-0.4,1.5-1.5-1.1c-1.1-2.6,0,0-2.6-2.9
			c-1.1-1.2-1.2-2-1.2-2l-3.2-0.9c0,0,0,0-3.8-0.9c0,0-1,1.2-3.9,2.3l-3.7-0.7c1.8-0.7-2-0.7-2-0.7c2.4-2.2-3.8,1.8-5.3,2.9
			c-0.1,0.1-0.2,0.2-0.3,0.2c-0.1,0.1-0.2,0.1-0.3,0.2c0,0,0,0,0,0c-0.2,0.1-0.1,0.1,0,0c0,0,0,0,0,0c0.1-0.1,0.2-0.1,0.3-0.2
			c0.2-0.1,0.3-0.2,0.3-0.2s0,0,0.4-2.6c0.2-1.5,5.1-2.9,7.3-4c2.2-1.1,0,0,1.8,0c1.8,0,1.1-1.5,1.1-3.3c0-0.7,0.2-1.3,0.4-1.9
			c-0.4,0.6,0.2,0.6-0.9,0.6c-0.2-0.1-0.4-0.2-0.5-0.3C246.9,166,248.4,165,247.9,163.8z M218.1,141.8
			C218.2,141.6,218.2,141.6,218.1,141.8L218.1,141.8z M217.9,142.6c0-0.2,0.1-0.3,0.1-0.4C218,142.3,217.9,142.5,217.9,142.6z"/>
		<path d="M250.9,220.9c0.2,0.9,0,0,0-1.3c-0.1,0-0.2,0.1-0.2,0.1C249.9,220.5,250.7,219.7,250.9,220.9z"/>
		<path d="M252.7,219.5c0-0.5,0.1-0.7,0.2-0.9l-1.9,0.3c0,0.2-0.1,0.5-0.1,0.7C251.7,219.3,252.7,221.1,252.7,219.5z"/>
		<path d="M256.1,219.9C254.3,218.9,256.7,220.5,256.1,219.9L256.1,219.9z"/>
		<path d="M253.9,218.7c0,0,0.1-0.1,0.2-0.3l-0.5,0.1C253.8,218.6,253.9,218.7,253.9,218.7z"/>
		<path d="M254.9,218.5c1.2,1.4,0.6,0.8,1.2,1.4c1.8,1,0.6,1,1.8,1c1.8,0.4,2.8,1.2,2.8,1.2l1.9,0l0.3,0.3l13.7-4.9
			c-0.4-0.5-0.7-1.2-1.1-1.9l0,0l0,0.1l-0.3-0.1l-20.5,2.7C254.8,218.4,254.8,218.4,254.9,218.5z"/>
		<path d="M290.1,203c0.2-1.2,0.2-2.8,0.2-2.8s-0.3-1.7-1.2-1.2c-0.3,0.1-0.5,0.3-0.7,0.4l0.5,3.1
			C289.5,203.3,289.9,203.9,290.1,203z"/>
		<path d="M264.6,224.1c0,0,0.3,0.3,0.1,1l11.6-3.4c0.2-0.4,0.4-0.6,0.4-0.6l2.5-2.5c0,0-0.3,0-0.8-0.1l-14.3,5.2L264.6,224.1z"/>
		<path d="M264.2,226.5C263.3,227.1,264.2,226.5,264.2,226.5L264.2,226.5z"/>
		<path d="M283.9,206.8c0.4,0.1,0.7,0.1,0.8-0.2c0.4-1.6,1.6-1,1.2-2.2c0,0,0.7-0.2,1.3-0.6l-0.4-3.1c-0.8,1.1-0.2,0.6-1.1,1.3
			c-1.8,0.6-1.8,0.6-1.8,0.6s0.2,1-0.2-0.8c-0.1-0.6-0.2-0.9-0.3-1.1c0,0.3-0.1,0.5-0.1-0.1c-0.1-0.2-0.1-0.1,0-0.6
			c0-2.8-0.2-2.4,0-3.6c0.2-1.2,0.2-1.2,0.2-1.2s2.2,1.6,2.2,1c0-0.3,0.2-0.2,0.4-0.3l-1.6-11.7c-1.1,1.9,0.4,3.6-0.6,4.1
			c-1,0.5-0.4,2.4-0.4,2.4s-0.4-0.6-0.8-1.6c-0.4-1-0.4-1-0.4-1c-0.8-1.8-0.2-3-1.2-3.2c-1-0.2,0.2-0.8-1-0.2
			c-1.2,0.6-0.1,0.2-1.1,0.6L283.9,206.8z"/>
		<path d="M282.4,188.5c0,0.1,0.1,0.1,0.1,0.2C282.5,188.6,282.5,188.6,282.4,188.5z"/>
		<path d="M282.5,188.7C282.6,188.9,282.7,189,282.5,188.7L282.5,188.7z"/>
		<path d="M283.3,200.7c0-0.5,0-1.3-0.1-0.8c0,0.3,0,0.5,0,0.6C283.3,200.6,283.3,200.7,283.3,200.7z"/>
		<path d="M282.3,188.2c0,0.1,0.1,0.2,0.1,0.3C282.4,188.4,282.3,188.3,282.3,188.2z"/>
		<path d="M282.2,188.1C282.3,188.1,282.3,188.1,282.2,188.1C282.3,188.1,282.2,188.1,282.2,188.1z"/>
		<path d="M282.3,188.1C282.3,188.2,282.3,188.2,282.3,188.1C282.3,188.2,282.3,188.2,282.3,188.1z"/>
		<path d="M282.5,188.7C282.5,188.7,282.5,188.7,282.5,188.7C282.5,188.7,282.5,188.7,282.5,188.7z"/>
		<path d="M287.4,192.8c0.3-0.3,0.9-0.5,1.2,0.1c0,0,1.2,1.8,1.2,0.6c0-1.2,0.2,1.4,0-1.2c-0.2-2.6,1.2-1.6-0.2-2.6
			c-1.4-1,0,1.6-1.4-1c-1.4-2.6-0.6-1.8-1.4-2.6c-0.3-0.3-0.5-0.9-0.6-1.5L287.4,192.8z"/>
		<path d="M271.6,279.3C271.6,278.1,270,282,271.6,279.3L271.6,279.3z"/>
		<path d="M276.5,273.8c0,0-2.1,1.5-3.4,2.8s0,0-1.5,2.8c0,1.2,0,0-1.2,3.1c0,0,2.1-2.1,4.1-2.4S276.5,273.8,276.5,273.8z"/>
		<path d="M259.3,287.4c1.5-0.4,1.2-1.4,3.4-4.2c0,0,0.9,0.9,3.7-1.5c2.8-2.5,0.6-0.9,0.6-0.9l0-2.4c0,0-0.9,0-1.8,0.3
			c-0.9,0.3-2.8,1.8-5.5,2.4c-1.8,0.4-1.6,2.2-1.6,2.2l-1.8,1.8v3.4c0,0-1.5,1.8-3,2.6c-1.4,0.8-0.1-1.4-0.2-1.3
			c-0.2,0.2-0.7,0.6-2,1.8c-1.7,1.4-1.5,2.1-2.5,5.5s0,0,1.3,0.8c1.3,0.8,3.6-3.6,6.2-6.8C258.7,287.9,257.8,287.9,259.3,287.4z"/>
		<path d="M90,180.2c0,0,0,0.1-0.1,0.1C90.5,180.2,90.3,180.2,90,180.2z"/>
		<path d="M89.9,180.3c-0.2,0-0.4,0.1-0.8,0.2C89.7,180.5,89.8,180.5,89.9,180.3z"/>
		<path class="st0" d="M121.6,88.5C121.6,88.5,121.6,88.6,121.6,88.5C121.6,88.6,121.6,88.6,121.6,88.5z"/>
		<path class="st0" d="M121.5,88.8c0,0,0-0.1,0.1-0.1C121.6,88.7,121.5,88.7,121.5,88.8z"/>
		<path d="M87.8,259.8c-0.4-0.5-0.8-1-1.2-1.5c0,0.3,0,0.5,0,0.7C88.1,259.9,86.3,259.1,87.8,259.8z"/>
		<path d="M91.6,261.3c0.1,0.1,0.4,0.3,0.7,0.5c2.5,0-4.1-4.2-1.5-3.5c0.3,0.1,0.6,0.1,0.8,0.1c-1.6-2.3-3.4-4.9-5-7.5
			c0,0.3,0,0.6,0,1c0,1.2,0,2.3,0,3.2c1.3,1.8,2.6,3.8,3.9,5.6C90.9,261,91.3,261.2,91.6,261.3z"/>
		<path d="M120.9,146.7c0.1,0,0.3,0,0.4,0c-1.9-9.8-6.7-34.2-7.9-40.6c-0.9-0.1-1.6,0-2.9,0.7c-0.6,0.3-1.1,0.5-1.5,0.7L120.9,146.7
			z"/>
		<path d="M133.3,95.3l0,0.7c0.3-0.3,0.6-0.5,0.9-0.8C133.9,95.3,133.6,95.3,133.3,95.3z"/>
		<path d="M122.5,146.5c0.2-0.1,0.5-0.2,0.7-0.3c-0.2-6.9,0-16.6,0-21.1c0-5.8,0-9.5,0-9.5l0.3-5.4l1,14.6c0,0,0.4,9.4,0.7,18.3
			c0.5-1,1.2-0.1,1.7,1.4c0-0.2,0-0.5,0-0.7c-0.3-5.4,2.4-36.6,2.4-36.6s-0.4,27.5-1.2,41.2c0.2,0.9,0.3,1.5,0.3,1.5s0,0,0.5-0.1
			l9.1-18.8l-7.4,18.5c0.1,0,0.3,0,0.5-0.1c0.7-0.1,1,0,1.1,0.3l11.7-20.8c0,0-5,11.3-9,19.4c0.5-0.7,1-1.4,1.6-2.1
			c2.5-3.2,7.2-7.3,9.6-9.2c0-0.2,0-0.3,0-0.5c0-1.9-0.3-2.8-0.6-3.7c0,0,1.6,0.8,2.8,0.7l0.8-10.5l-0.8,0.7c-0.7-0.9-1.6-2-2.6-3.1
			l-0.2,0.9l0.1-1c-0.7-0.8-1.4-1.7-2.1-2.6l-0.8,6.9l0.5-7.3c-0.9-1.1-1.8-2.3-2.8-3.4l-0.7,8.5l0.3-9.1c-0.8-1-1.6-2-2.4-3
			l-0.1,10.6l-0.8-11.7c-1.1-1.3-2-2.6-2.9-3.7l0.4,12.8l-1.2-13.8c-1.6-2.1-2.6-3.6-2.6-3.8c0.2-0.9,0.7-2.2,0.9-2.8
			c0.1-0.3,0.5-0.7,1.1-1.2l-0.1-1.6c-0.3,0-0.5,0-0.6,0c-0.6,0-1,0-1.4,0l-0.1,0.3c0,0-5.6,2.6-7,5c-1.5,2.3-4.4,7-4.4,7
			s-2.1-0.9-4-1.5c-0.4-0.1-0.7-0.1-1-0.2L122.5,146.5z"/>
		<path d="M155.4,237.3c0-0.1,0-0.1,0-0.2C155.5,237.2,155.4,237.2,155.4,237.3L155.4,237.3z"/>
		<path d="M155.5,236.8C155.5,236.8,155.5,236.8,155.5,236.8C155.5,236.8,155.5,236.8,155.5,236.8z"/>
		<path d="M155.5,236.8c0,0.1,0,0.2,0,0.3C155.5,237,155.5,236.9,155.5,236.8z"/>
		<path d="M155.5,236.6c0,0,0,0.1,0,0.1C155.5,236.7,155.5,236.6,155.5,236.6z"/>
		<path d="M155.4,237.9C155.3,238.4,155.3,238.8,155.4,237.9L155.4,237.9z"/>
		<path d="M118.2,277.4c1.4,1.4,2,1.4,2.4,2.7c0.3,1.4,2,2,2,2c1-2,0.7-3.7,0.7-3.7c0.3-2,0.7,0.3,0.3-2c-0.3-2.4-0.3-4.1-0.3-4.1
			s0.9,0.2,1.8-0.1c-0.2,1.4-0.6,2.8,0.2,3.9c0.2,0.2,0.3,0.4,0.3,0.4c2-3.5,2-3.5,2-3.5s-0.2-0.9-0.2-1.7c0.6-0.2,1.2-0.4,1.9-0.6
			c2.3,2.2,1.3-0.1,2.3,2.3l1,0c0.1-2,0.7-3.9,2.5-1.5c0.5,0.6,0.8,1.1,1.1,1.5l1.6,0l-22.4-24.3c0.4,2,0.2,3.3,0.5,4.2
			c0,0-1.5,0.1-0.8,1.8c0.7,1.7,0.7,2,1.4,3.4c0.7,1.4,2,3.7,2,3.7l2.7,3.1l-0.7,2.7c0,0,0,1.7-1,2.7c-1,1-1.4,1.7-1.6,2.7
			C117.8,274,116.8,276,118.2,277.4z"/>
		<path d="M267.2,235.2c0.3-0.4,0.6-1,0.8-1.5l-10.7,6.7c0.9,0,1.8-0.4,2.3-0.4l0.2,0c0.7,0.2,2.2,0.9,2.2,0.9l3.6-2.2
			C265.5,238.8,266.3,236.3,267.2,235.2z"/>
		<path d="M255.3,238.8c0.1,0.7-1.3-1.1,0.1,0.7c0.1,0.1,0.1,0.1,0.2,0.2l18.1-10c-0.2-2,0.3,1.3,0.9-2.6c0.1-0.7,0.2-1.3,0.4-1.8
			l-20.8,11.6C254.8,237.7,255.3,238.5,255.3,238.8z"/>
		<path d="M272.3,232.6c1.4-2.5,1.8,0.4,1.4-2.5c0-0.1,0-0.1,0-0.1l-5.2,3.3c0.3-0.1,0.6-0.3,0.6-0.3
			C270.2,234.1,271.7,233.8,272.3,232.6z"/>
		<path d="M264.4,226.2c0,0,0,0.1-0.1,0.1c-0.1,0-0.1,0.1-0.2,0.2l-0.2,0.7c-0.2,0.4-0.3,0.7-0.3,0.7s-2.2,0.4-2.9,1.4
			c0,0-0.7-0.4-1.8-0.4c-0.4,0-1-0.1-1.6-0.2l-2,0.7c0,0.3,0.3,0-0.5,1c0,0,0,0,0,0c0,0,0,0,0,0l-3.2,3.2c0,0,0.5,0.7,1.2,1.6
			l22.1-10.4c0.4-1.4,0.8-2.4,1.2-3L264.4,226.2z M254.6,231.1C254.6,231.1,254.6,231.1,254.6,231.1L254.6,231.1z M254.8,230.8
			c-0.1,0.1-0.2,0.2-0.2,0.3C254.6,231,254.7,230.9,254.8,230.8z"/>
		<path d="M205.9,220.4c0.3,0.4,0.7,0.6,1.3,0.7c1.2,0.8,1.8,0.2,2.4-0.6c0.3-0.4,0.8-0.8,1.3-1l-14.1-6.2l1.2,1.8
			c0.2,0,0.3,0,0.5,0.1l1.4,3l0.2,0.4l1.7,1.3c1.4-0.5,1.4-0.5,1.4-0.5s0,0,0.1,0c-0.6,0.9-0.3,0.7,0.2,0.1
			C203.8,219.5,204.9,219.9,205.9,220.4z"/>
		<path d="M201,220l-0.5-0.3l0.2,0.4C200.8,220.1,200.9,220,201,220z"/>
		<path d="M211,219.3c0.5-0.2,1.1-0.4,1.5-0.4c0.9,0,2.1-0.9,2.1-0.9s0.9,0,1.3-1.8l-21.1-6.6l0.6,1.5l0.1,0.1L211,219.3z"/>
		<path d="M89.9,180.3c0,0,0-0.1,0.1-0.1c-0.6,0.1-1.6,0.3-0.8,0.3"/>
		<path d="M185.6,152.5l-0.2,0C185.6,152.8,185.6,152.6,185.6,152.5z"/>
		<path d="M185.6,152.5l0.4-0.1C185.6,152.2,185.6,152.3,185.6,152.5z"/>
		<path d="M218.9,177.9c0.4-1.1,0.4-2.9,1.8-4.4c1.8-2,1.2-6,1.8-8.6s0-5.8,0.2-7.2c0.1-0.9,0-2.5,0.2-3.7c0,0-0.1,0-0.1,0
			c-0.9,0-2-0.4-3-0.7c-1.1-0.2-3.9-2.2-4.8-2.6c-0.7-0.3-0.9-1.2-1-1.5c-0.8,0.7-1.3,1.1-1.3,1.1s-0.9-0.7-1.5-0.9
			c-0.7-0.2-1.7-1.1-1.7-1.1l-1.1-10.7l-0.7-3.4l-2.5,5.3l2.4-5.9l-1.5-7.3l-7.4,14.9l7.3-15.7l0,0l0.7-5.4c0,0,0.7-2,1.3-2.6
			c0.2-0.2,1-0.2,1.8-0.1l8.9-19.4c-1.6-0.2-1.7-0.4-1.9-0.5l-8.2,14.5c0.2,0.7,0.6,1.1-0.7,1.3l-2.1,3.8
			c-0.8,4.2-2.6,13.4-3.1,14.3c-0.7,1.1-3,4.1-3,4.1s-2.7,0.6-4.7,1l-4.2,7.4l3.6-7.3c-0.5,0.1-0.9,0.2-1.2,0.2
			c-0.3,0.1-1-0.1-1.9-0.4l-0.2,0.3l0.2-0.3c-2.6-0.9-6.6-2.7-7.4-3.1c-1.1-0.4-7.4-4.6-8-5.4c-0.7-0.9-4.6-3-4.6-3
			s-0.7-0.9,0.2-2.2c0.1-0.1,0.1-0.2,0.2-0.3c0-0.3,0.2-1.8-0.1-3c-0.2,0.2-0.4,0.5-0.6,0.6c-0.3,0.3-1.5,2.7-1.7,5.2
			c-0.1,1.3,0.1,2.7,0.3,3.8c0.1-0.1,0.2-0.2,0.3-0.2c1.3-1.3,0.9,1.7,3.9,3.5c1.4,0.8-0.9,2.2,1.7,4.4s-2.6,2.2,0,3.5
			c0.8,0.4,0.8,0.8,0.5,1.3c1.1,1.7,2.6,2.8,2.6,2.8s2,0.9,2.7,1.4c0.2,0.1,0.6,0.3,1.2,0.4c-0.1-0.3,0.1-0.6,0.8-1.1
			c3.5-2.2,0,0,3.9,0.4c2.6,0.3,1.3,1,1.7,1.9c0.4,0.1,0.8,0.2,1.2,0.3c2,0.7,1.4,0.5,3.8,0.9c2.5,0.5,0,0,2.5-0.7s4.7-2,5.4-2.5
			l2.9-1.1c0,0-1.4,2.3-2,4.1c-0.7,1.8-0.5,0.9-0.5,1.6c0,0.6-0.7,0.5-2.8,1.3c-0.9,0.5-2.1,1.1-0.1,1.5c3.9,0.9,0,2.2,0,4.4
			s-4.4,2.6-6.1,5.7c-1.7,3.1,0,0,0.9,2.2c0.9,2.2,0,0,0.9,2.6c0.9,2.6-1.7,0.4-1.3,3.5c0.4,3.1,0,0,3.5,4.4c1.4,1.8,1,2.2,0.1,3.1
			c0.2,0.4,0.2,0.9,0.2,1.4c-0.4,2.2-1.5,0-0.4,2.2c3.7,3.7,1.5,1.9,3.7,3.7c-2.2-2.5-0.5-0.8,0.3,0c1.9,0.1,1.3,0.8,3.5,1.1
			c1.3,0.2,2.8,0.4,3.7,0.6c1.4-1.1,2.3-2.3,2.6-1.3c0.4,1.1,1.1,0.7,0,2.6c-1.1,1.9-1.1,1.9-1.1,1.9s0.2,1.5-0.3,2.7
			c0,0.8-0.1,1.6-0.1,2.1l10.3-1.5l-9.7,2.3c2.8,1.8,2.8,1.8,2.8,1.8s3.3,0,0,1.1c-0.2,0.1-0.4,0.1-0.5,0.1c3.9-0.2,6.9-0.4,7.2-0.4
			c0.4,0-6.4,0.9-13.5,1.9c0.3,0.4,0.8,0.8,1.2,1.2c-0.6-0.3-1.5-0.6-2.5-1c-3.1,0.4-6.1,0.8-8.6,1.1c0,0.3,0,0.7,0.1,0.9l23.3,1.2
			c0.7-2.5,1.4-5.5,2-8c0.6-3,0.5-6.1,0.3-8.2c2.8,0.2,1.3-3.3,2.3-2.7c0,0,0.1-0.2,0.2-0.6c-1.1-0.6-2.4-1.3-3.6-2L218.9,177.9z"/>
		<path d="M308.8,177.8C308,180.4,309.9,177.1,308.8,177.8L308.8,177.8z"/>
		<path d="M305.9,155.5c-2.1,2.6-1.8,2.8-1.6,2.9s0.9,1.9,1.1,3.3c0.3,2.6,0.5,3.5-0.9,3.9c-1.5,0.4-1.5-1.3-1.5,0.4s1.1,0.3,0,1.6
			s-1.1,2.6-1.1,2.6s1.3-1.1,2.3,0.4l3.1,0.6c-0.8,2.9-0.6,3.9-0.1,4.5c1.7,2.1,0.7,2.7,1.7,2.1c0.8-2.6,1.3-0.3,0.8-2.6
			c-0.5-2.3-0.3-1.3-0.3-1.3l1.6-0.2l2.1-2.5c0,0-1.3-3.6-1.6-5.2l-1.1-3.9c0,0-3.5-2.4-3.3-4.2
			C307.2,156.2,306.6,154.6,305.9,155.5z"/>
		<path d="M304.7,198.1c-0.3,0.4-0.7,0.8-1.7,1.7c-0.8,0.7-1.4,1.2-1.9,1.7c0.2,0.4,0.3,0.8,0,1.1c-1.5,2.5-1.5,2.5-1.5,2.5l0.6,2.9
			c0.5-0.4,1.4-9.8,1.4-3.1c0,7.9-2.4,2.8-1.2,6.3c0.2,0.6,0.4,1.2,0.5,1.8c1.5-4.8,3.1-10.5,3.6-13.2
			C304.6,199.2,304.6,198.7,304.7,198.1z"/>
		<path d="M313.7,191.5l-1.5-0.9l-2.1,1.9c0,0,0,0-1-2c-0.7-1.5-0.4-0.7-1.1,0.3c-0.1-0.1-0.1-0.3-0.2-0.5c-0.2-0.5-0.3-0.7-0.5-0.8
			l-1.2,0.5c0,0.7,0.1,1.4,0.1,2.2c0.1,0.1,0.2,0.1,0.2,0.1c-0.1,0.1-0.2,0.3-0.2,0.4c0,4.5-0.6,11-3.1,18.5
			c-0.6,1.8-1.1,3.4-1.6,4.9c0.1,0.8,0.1,1.6,0.1,2.4c0.1,0.3,0.3,0.5,0.5,0.7c0.4,0.3,1.5,0.3,2.2,0.5c0.3-0.4,0.4-1,0.4-2.1
			c0-3.2,1.6,2.4,1.6-0.4s-0.8-3.2,0-2.8c0.8,0.4,1.6-0.8,1.6-2.8c-0.1-0.1-0.1-0.3,0-0.7c-0.1-1.2-0.7-1,0-1.3
			c0.8-0.4,0-2.8,0.8-0.4c1.2-2.1,2.3-3.4,3-4.1c0.2-1.5-0.2-1.9-0.4-2.8c0-0.1-0.1-0.2-0.1-0.4c0.2-0.1,0.4-0.2,0.6-0.2
			c3.3-1.3,0,0,1-2.3c1-2.3,0,0,0.7-2s-0.3-1.6,0.3-3.6S313.7,193.8,313.7,191.5z"/>
		<path d="M121.1,209.6c0,0.3-0.3,0.6-0.7,1c-0.6,0.5-1.5,1.1-2.4,1.6c-1.6,0.9-3.4,1.7-3.9,2.4c0.6,2.7,1.2,4.8,1.2,4.8
			s-0.7-1.9-1.5-4.2c-0.3,1.2-4.3,2-4.3,2l6.9,5.8c0.1-0.5,0.1-0.5,0.1-0.5s1.3-0.8,2.3-0.5c1,0.3-0.3,0.8,1,0.3
			c1.3-0.5,1-1,2.3-0.8c1.3,0.3,2.1,0,2.8-0.3c0.8-0.3,2.8,0,3.3-0.8c0.5-0.8,1.8-1.7,1.8-1.7c0.5,1.4,0.8,2.1,1,2.6l-3.3,1.5
			c0.8,1.5,2.5,4.7,4.6,8.7l-0.4-3.6l1.7-0.7c0.4,0.3,0.8,0.6,1.2,0.8c-0.3,2.4-0.6,4.6-0.6,4.6s-0.2,0.6-0.5,1.4
			c4.6,8.8,10.7,20.2,14.3,27.3l1.2,0.5c0.6-1.1,1-2,1.4-2.7l-11.5-28.2l13.8,29.3c0,0,0.1-0.1,0.1-0.1c1.4-2,1.6-1.7,1.6-3.7
			c0.1-2-1.5-0.5-0.2-1.8l-9.6-27.4l10.8,26.5c1.5-0.6,2.9,0.4,2.8-0.7c-0.3-3.7,0.3-1.7-0.3-3.7s0.3-4.4-1.7-6.8c-2-2.4-2-1-2-2.4
			c0.2-0.7,0.4-1.2,0.5-1.6c0.1-0.1,0.3-0.3,0.4-0.7c-2.7-4.4-7-11.4-9.2-15.1c0,0,0,0,0,0l-1.5,1.4l-1,1.2c0,0,0,0,0,0
			c0,0,0,0,0,0.1c0,0.1,0.1,0.2,0.1,0.3c0,0.1,0,0.1,0.1,0.1c0,0.1,0,0.1,0,0c0,0,0-0.1-0.1-0.1c0-0.1-0.1-0.2-0.1-0.3
			c0,0,0,0,0-0.1c0,0,0,0,0,0c-0.5-1.3,0,0-0.3-1.5c-0.3-1.5,0-1,0-2.1c0-1-1.5-2.1-1.5-2.1l-1.2-2.7c0,0-1.6-1.4-1.6-3.4
			c0,0,0-1.3,0.3-2.1c0.2-0.7,1-1,0.8-2.9c-0.4-0.3-1-1-2-2.4c-0.5-0.7-0.8-1.2-1.1-1.5c-0.2-0.2-0.3-0.3-0.3-0.3l0,0
			c-0.3-0.4-0.1-0.3,0-0.2l0.1-0.7c0-0.1-0.1-0.3-0.2-0.5c-0.8-1.9-1.2-4.2-1.4-5.8l-7.7-17.7c-1-0.2-0.7,2.2-2.4,0.1
			c-0.5-0.6-1.1-1-1.8-1.3l8.3,26.5c0,0,0,0-1.4-1c-0.9-0.6-5.4-15.4-8.6-26c-0.6-0.1-1.1-0.2-1.5-0.3c-0.4-1.9-0.1-2.7-0.1-2.7
			l0.9,0.5c-0.7-2.2-1.2-4.1-1.7-5.6c-0.3,0.3-0.6,0.6-0.6,0.8c-0.3,1.4-0.8,0.7-0.7,1.2c0.1,0.5-0.1,1.2-0.1,1.2s-0.3,0.3-0.3,0.9
			c0,0.2,0,0.6,0,1.1l9.5,35.1c0,0,0.1,0.1,0.1,0.1c0,0-0.1,0-0.1,0l0.8,3.1c0,0,0,0-1.9-3.4C123.5,209.2,121.2,208.8,121.1,209.6z
			 M131.7,202.5l0.1-1.6l0.6,0.2L131.7,202.5z"/>
		<path d="M155.9,234.4c0.1-0.1,0.2-0.2,0.3-0.3l-8.6-14.8c0,0,0,0,0,0c-0.3,1.3-0.7,2.2-1,2.7c2.4,4.2,6.3,10.8,8.8,15.2
			c0-0.2,0.1-0.4,0.1-0.6c0.1-0.8,0.2-1.5,0.4-2.1C155.9,234.5,155.9,234.4,155.9,234.4z"/>
		<path d="M159.7,229.1c0.9-2.4,1.8-3.3,2.2-6.3c0.4-3,0.4-6.1,0.4-6.1c-3.9,2.2-2.2,5.2-3.9,2.2c-1.7-3,0-2.6-0.7-4.5
			c-0.6-2,1.1-2.4,1.1-4.1s1.3-3.5-1.3-3.9s-2.9,4.1-3.6,0.3c-0.7-3.8,1.5-2.1-0.7-3.8c-2.2-1.7-0.7-0.9-3.1-1.9
			c-2.5-1.1-2.5-1.1-2.5-1.1l-2.2-0.4l1.3,6.1c0.1,0.2,0.3,0.3,0.4,0.5l-0.3,1.3l0,0c0,0,0,0-0.1,0.4c2.1,3.4,2.1,3.4,2.1,3.4
			l-1.4,0.3l0.1,0.2c1,1,0,0,0.8,3.1c0.4,0.9,0.4,0.8,0.2,0.9c0.1,0.3,0,0.2-0.1,0.1c-0.1,0.1-0.3,0.4-0.4,1.1
			c-0.1,1.1-0.1,1-0.2,1.1l8.4,16c0.2-0.3,0.3-0.7,0.4-1.3C158.4,228.8,158.8,231.4,159.7,229.1z"/>
		<path d="M147.4,211.5c0.1,0.1,0.1,0.1,0.2,0.2C147.6,211.7,147.5,211.6,147.4,211.5L147.4,211.5z"/>
		<path class="st0" d="M143.5,225.3C143.5,225.3,143.5,225.3,143.5,225.3C143.5,225.3,143.5,225.3,143.5,225.3z"/>
		<path class="st0" d="M143.6,225.4c0,0.1,0.1,0.2,0.1,0.3C143.7,225.6,143.6,225.5,143.6,225.4z"/>
		<path class="st0" d="M143.5,225.3C143.6,225.3,143.6,225.3,143.5,225.3C143.6,225.3,143.6,225.3,143.5,225.3z"/>
		<path class="st0" d="M143.7,225.8C143.8,225.8,143.8,225.9,143.7,225.8L143.7,225.8z"/>
		<path class="st0" d="M143.7,225.8c0,0,0-0.1-0.1-0.1C143.7,225.7,143.7,225.7,143.7,225.8z"/>
		<path class="st0" d="M241.8,188.8c0.2,0,0.3-0.1,0.3-0.1C242.1,188.8,241.9,188.8,241.8,188.8z"/>
		<path class="st0" d="M241.7,188.9C241.7,188.9,241.8,188.8,241.7,188.9C241.8,188.8,241.8,188.8,241.7,188.9z"/>
		<path class="st0" d="M242.2,188.8C242.2,188.8,242.2,188.8,242.2,188.8C242.2,188.8,242.2,188.8,242.2,188.8z"/>
		<path class="st0" d="M242.3,188.7C242.3,188.7,242.3,188.7,242.3,188.7L242.3,188.7z"/>
		<path class="st0" d="M242.2,188.8C242.3,188.8,242.3,188.7,242.2,188.8C242.3,188.7,242.3,188.8,242.2,188.8z"/>
		<path d="M239.9,181.2C242.3,180.1,237.9,180.9,239.9,181.2L239.9,181.2z"/>
		<path d="M213.2,119.7c-0.1-0.8-0.2-1.5-0.2-1.5s-1.2-0.4-2.5-0.6l-4.4,8.8l1.5,7.3L213.2,119.7z"/>
		<path d="M207.9,117.5c-0.7,0.7-1.3,2.6-1.3,2.6l-0.7,5.4l0,0l3.8-8.1C208.8,117.3,208.1,117.3,207.9,117.5z"/>
		<path d="M233.8,140.4C233.8,140.3,233.8,140.3,233.8,140.4L233.8,140.4z"/>
		<path d="M233.8,140.5c0,0,0-0.1,0-0.1C233.8,140.4,233.8,140.5,233.8,140.5z"/>
		<path d="M233.7,141c0-0.1,0-0.1,0-0.2C233.7,140.9,233.7,141,233.7,141z"/>
		<path d="M233.8,140.8c0-0.1,0-0.2,0-0.3C233.8,140.6,233.8,140.7,233.8,140.8z"/>
		<path d="M183.9,109.9c-1.5,0.2-2,0.4-3,0.9c-1,0.4-3.1,1.3-3.9,2.2l7.1-3.1C184,109.9,184,109.9,183.9,109.9z"/>
		<path d="M193.1,136.9c0.3,0,0.7-0.1,1.2-0.2l10.7-22c-0.4-0.2-0.9-0.4-1.4-0.6c0,0-0.1,0-0.1,0l-12.3,22.4
			C192,136.7,192.7,136.9,193.1,136.9z"/>
		<path d="M199.6,135.5c0,0,2.4-3,3-4.1c0.5-0.8,2.3-10.1,3.1-14.3l-10.9,19.4C196.9,136.1,199.6,135.5,199.6,135.5z"/>
		<path d="M171.1,124.9c0,0,3.9,2.2,4.6,3c0.7,0.9,7,5,8,5.4c0.8,0.3,4.8,2.2,7.4,3.1l10.9-22.9c-0.4-0.1-0.7-0.2-0.9-0.2
			c-0.1,0-0.2,0-0.3,0l-10.1,17.9l8.9-18.3c-0.3-0.2-0.6-0.4-0.9-0.7c-0.2-0.1-0.3-0.3-0.4-0.4l-13.1,14.9l12.2-16.2
			c-0.5-0.8,0.2-1.4-0.8-1.4c-0.7,0-1.1,0.3-1.4,0.2l-16.3,11.3l15.2-12.4c-0.3-0.3-0.6-0.5-0.9-0.8l-16.3,5.8c0,0,0,0,0,0
			c-0.4,1.1,0.4,1.1-0.7,1.7c-2.6,1.5-1.3,0-2.6,1.5c-1.3,1.5-1.1,1.1-1.5,3c-0.4,1.8,0.1,1.8-0.4,2.7c-0.1,0.1-0.1,0.2-0.2,0.3
			C170.5,124,171.1,124.9,171.1,124.9z"/>
		<path d="M191.6,106.5c-0.5-0.3-0.9-0.4-1.1-0.3c-0.9,0.2-2.2-0.7-3,0.2c-0.9,0.9-0.7,1.5-1.5,2.2c-0.4,0.3-0.5,0.6-0.7,0.8
			L191.6,106.5z"/>
		<path d="M158.1,114.9c0,0-1.2,2-1.1,3l2.6-3.3c0,0,0.3-1.2,1.2-1.3l2.2-13c-0.2-0.2-0.2-0.4-0.3-0.9c-0.2-0.9-0.4-1.2-0.7-1.9
			l-5.8,19L158.1,114.9z"/>
		<path d="M148.5,91.4c-0.6-0.1-1.2-0.3-1.8-0.4l-3.3,27c0.7,0.9,1.5,1.8,2.1,2.6L148.5,91.4z"/>
		<path d="M139.9,113.6l0.7-22.8c-0.8,0.4-1.4,0.9-2.1,1.7c-0.3,0.4-0.6,0.6-0.9,0.7l-0.2,17.4C138.2,111.6,139,112.6,139.9,113.6z"
			/>
		<path d="M144.9,90.5c-0.6-0.2-0.9-0.8-2.5-0.4c0,0-0.1,0-0.1,0l-2,24c0.9,1.2,1.9,2.3,2.8,3.4L144.9,90.5z"/>
		<path d="M148.1,123.8l0.8-0.7l0-0.4l0,0.4l1.9-1.7c0-0.2,0-0.3,0-0.4l0,0.4l1.5-1.3l3.1-27.5c-0.2,0-0.5,0-0.8,0l-5.1,28.1
			l1.8-28.7c-0.3-0.1-0.6-0.1-1-0.2l-4.9,28.9C146.5,121.9,147.4,122.9,148.1,123.8z"/>
		<path d="M135.5,94.3c-0.1,0.1-0.2,0.1-0.2,0.2c-0.3,0.3-0.6,0.5-1,0.8c-0.3,0.3-0.6,0.5-0.9,0.8l0.3,9.8c0.9,1.1,1.8,2.4,2.9,3.7
			L135.5,94.3z"/>
		<path d="M131.1,98.1c-0.2,0.7-0.7,2-0.9,2.8c0,0.2,1,1.7,2.6,3.8l-0.6-7.8C131.6,97.5,131.2,97.9,131.1,98.1z"/>
		<path d="M162.6,113.8l1.2,0.2l1.7-12c-0.1-0.1-0.2-0.2-0.3-0.3l-3.8,11.8C162.6,113.8,162.6,113.8,162.6,113.8z"/>
		<path d="M155.3,117.4l4.8-22.8c-0.7-0.4-1.3-0.7-1.9-1l-4.9,25.6L155.3,117.4z"/>
		<path d="M167.8,106.7c0-0.2,0-0.5-0.1-0.8c-0.4-1.3,0.2-1.3-1-2.8c-0.7,2.2-1.9,7.5-2.5,10.8l0.1,0l0.9-1.3c0,0,0.1,0,0.3-0.1
			L167.8,106.7z"/>
		<path d="M121.3,233.6c-0.2,0.2-0.2,0-0.1-0.2c0,0,0,0,0-0.1c-0.1,0.2-0.2,0.7-0.4,1.7c-0.1,0.5-0.2,0.9-0.3,1.3
			c-0.9,0.7-2.1,1.6-2.9,2.4c0,0-0.1,0.1-0.2,0.3c6,8.1,13,17.3,14.8,19.7c1.4,1.9,5.3,5.7,9.3,9.7c0.2-0.6,0.4-1,0.7-1.2
			c0.1-0.5,0-1.1,0.3-2c0.1-0.3,0.2-0.6,0.3-0.9C136.7,255.8,128,243.3,121.3,233.6z"/>
		<path d="M121.7,232.4l22.7,29.3c0.2-0.3,0.4-0.4,0.4-0.4c0-0.3,0.1-0.5,0.2-0.6c0.1,0,0.2-0.1,0.3-0.1l-23.2-32.8
			c-1.6,0.8-2.6,1.4-2.6,1.4C120.1,230.8,121.7,231.2,121.7,232.4z"/>
		<path d="M115,246.9c0,0.1,0.1,0.2,0.1,0.4l0.3,0c0,0,18.8,20.9,23.9,25.2c0.4-1.3,0.7-2,1-2.6c-2.5-2.3-5-4.8-7.5-7.5
			c-5.7-6.2-11.7-14.8-16.4-22.1c-0.4,0.7-0.8,1.5-0.9,2.1C115,246.9,114.1,243.8,115,246.9z"/>
		<path d="M126,223.6l-0.3,2.7c-0.7,0.3-1.3,0.5-1.9,0.8l21.6,33.6c0.4,0,0.7,0,1,0l-12.7-26.1c-0.2,0.5-0.4,1-0.6,1.5l-0.4-3.6
			l-4.7-9.7L126,223.6z"/>
		<path d="M151.4,134.4c0.6-0.2,1.3-0.6,2.3-1.3l-0.4-5.4l1,5c0.2-0.1,0.3-0.2,0.4-0.3c1.1-0.9,0.2-2.5,0.5-3.5
			c0.1-0.4,0.7-0.9,1.3-1.5l-0.5-3.8l0.8,3.5c0.7-0.7,1.4-1.5,1.4-2.3c-0.1-1.6,0.4-0.9-0.2-3.7c0,0-0.9-2.2-1.1-3.2
			c-0.1-1,1.1-3,1.1-3l-1.9,1.7l-2.4,7.8l1.5-7l-2,1.8l-2.1,10.8l1.1-10l-1.5,1.3L151.4,134.4z"/>
		<path d="M149.2,133.5c0.3,0,0.5,0.1,0.6,0.2c0.4-4.2,1-10.7,1.1-12.4l-1.9,1.7L149.2,133.5z"/>
	</g>
</g>
</svg>
