<?xml version="1.0" encoding="utf-8"?>
<!-- Generator: Adobe Illustrator 20.1.0, SVG Export Plug-In . SVG Version: 6.00 Build 0)  -->
<!DOCTYPE svg PUBLIC "-//W3C//DTD SVG 1.1//EN" "http://www.w3.org/Graphics/SVG/1.1/DTD/svg11.dtd">
<svg version="1.1" xmlns="http://www.w3.org/2000/svg" xmlns:xlink="http://www.w3.org/1999/xlink" x="0px" y="0px"
	 viewBox="0 0 360 360" style="enable-background:new 0 0 360 360;" xml:space="preserve">
<style type="text/css">
	.st0{fill:none;}
</style>
<g id="Layer_10">
</g>
<g id="Layer_2">
</g>
<g id="Layer_3">
	<g>
		<path class="st0" d="M246,184.1C246,184,246,184,246,184.1L246,184.1z"/>
		<path class="st0" d="M129.9,286.6C129.9,286.6,129.9,286.6,129.9,286.6C129.9,286.6,129.9,286.6,129.9,286.6z"/>
		<path class="st0" d="M246.2,184.7c0-0.1,0-0.1,0-0.2C246.1,184.6,246.2,184.7,246.2,184.7z"/>
		<path class="st0" d="M246.1,184.3c0-0.1,0-0.2,0-0.2C246,184.2,246.1,184.2,246.1,184.3z"/>
		<path class="st0" d="M129.8,286.5C129.7,286.5,129.8,286.5,129.8,286.5L129.8,286.5z"/>
		<path d="M275.2,138.2c-0.7,0.3-2,1.3-2,1.3l0.3-0.7c0,0-1.1,0.2-2.1,0.7c-0.4,0.2-0.6,0.5-0.7,0.8c-0.1,0-0.8,0.3-1.7,0.7
			c-0.3,0.2-0.7,0.4-1.1,0.7c-0.9,0.2-1.8,0.4-2.8,0.5c0.7-0.6,1.5-1.1,2.2-1.5c1.6-1,0.6-0.7,0-0.4c-0.4,0.2-2.4,1.4-3.9,2.3
			c-0.7,0.1-1.2,0.2-1.2,0.2c0,0-0.1-0.1-0.1-0.1c0.1-0.1,0.1-0.2,0.2-0.3c0.6-0.4,1.3-0.9,1.5-1.3c0.3-0.5,0.6-1.4,0.8-2.2
			c0.1-0.1,0.2-0.2,0.2-0.2c1.8-1.3,5.3-4.4,3.1-4.4s2.6-2.6,1.8-4c-0.9-1.3,4.4-6.6,2.6-6.6s3.1-5.3,1.3-5.3c-1.8,0-4,2.2-4,2.2
			s-1.3-1.8-2.2-0.4c1.3-3.5-2.6-1.3-3.1-4c-0.4-2.6,0,0-0.4-1.3c-0.4-1.3-2.6-0.9-2.6-0.9s1.8-2.2,2.2-3.5c0.4-1.3,0-3.5,0-3.5
			l0.4-2.6l-4,1.3c0,0,0.4-1.3-1.8-3.5c-2.2-2.2-2.6,0.4-2.2-1.8c0.4-2.2,0.9-2.2-0.4-1.8c-0.2,0.1-0.5,0.1-0.7,0.1
			c0-0.1,0.1-0.2,0.1-0.3c0.1-0.4,0.1-0.7-0.7-0.6c-0.8,0.1-0.9,0.1-0.9,0.1s0-0.4,0-1.1s-0.3-0.1-0.7,0.1c-0.4,0.2-0.7,0.3-1.2,1
			s-0.6,1.2-0.5,0.7c0.1-0.4,0-0.7,0-0.7s-1,0.7-2,1.6c-0.4,0.3-0.7,0.8-0.9,1.2c0-0.9-0.2-2.3-0.4-4.3c-0.4-3.5-1.8-1.8-1.8-1.8
			s-0.4-2.2-0.9-4.9c-0.4-2.6,0,0-2.6,1.8c-2.6,1.8-4.9,4.4-4.9,4.4s0.4-1.8,1.8-3.5c1.3-1.8,0.4-2.6,0.9-4.4c0-0.2,0.1-0.4,0.1-0.6
			c0.1-0.1,0.1-0.2,0.2-0.3c0.4-0.7,0.1-2.6,0.1-2.6l-0.6,0.8c-0.2-0.3-0.6-0.3-1.1,0c0,0,0,0,0,0c0.2-0.4,0.3-0.8,0.5-1.3
			c0.7-1.7,0.5-2.1,0.5-2.1s-0.7-0.1-0.2-0.6s0.5-2,0.5-2s-0.2,0.2-0.6,0.4c-0.2,0-0.9-0.1-1.3,0.2c-0.2,0.1-0.7,0.7-1.2,1.1
			c-0.3-0.4-0.5-0.5-0.6-0.6c-0.2-0.6-0.5-1.5-0.8-3c-0.2-0.7-0.4-0.5-0.7,0.2c-0.2,0.1-0.4,0.2-0.7,0.6c-0.4,0.5-0.8,0.2-0.8,0.2
			s-0.3,0.2-0.4,1c-0.1,0.8,0.1,1.3,0.1,1.3l-0.5-0.1c0,0-0.2,0.8-0.4,1.3c0,0.1-0.1,0.5,0,0.9c-1.7,2.4-3.5,6.1-3.2,3
			c0.4-3.6-1.1,1.4-0.4-3.3c0.7-4.7-1.4,1.8-1.4-1.8c0-3.6-3.6,2.2-3.6,0.7s-1.1,1.8-0.7-4.3c0.4-6.2-1.1,1.1-0.7-1.4
			c0.3-2-0.3-2.2-1.3-3.1c-0.1-0.5-0.2-1.4-0.5-1.8c-0.4-0.6-0.4-0.3-0.5,0.1c-0.1,0.4-0.4-0.7-0.7-1c-0.2-0.2-0.3-0.2-0.4-0.1
			c0,0,0-0.1,0-0.1s-0.4,0.3-0.7,1.2c-0.1,0.4-0.1,1.1-0.1,1.8c-0.2,0.3-0.4,0.6-0.6,0.9c-0.1-0.4-0.2-0.6-0.3-0.8
			c-0.4-0.4-0.8,0.5-1,0.6c-0.2,0.1-0.5-0.1-0.5-0.1s-0.3,0.3-0.4,1.1c-0.1,0.8-0.4,0.7-0.4,0.7s-0.2,0.6-0.2,1.6
			c-0.1-0.3-0.2-0.7-0.3-1.2c-0.7-2.5,0,0-0.4-3.3c-0.4-3.3-2.2,3.3-1.8,0s0,0,0-3.6c0-3.6-2.2-1.4-4.3-0.4s-2.5,2.9-2.9-1.8
			c0-0.1,0-0.1,0-0.2c0-0.1,0-0.3,0.1-0.4c0.2-1.4-0.1-1.8-0.1-1.8s-0.4,0.2-0.3-0.2s0.2-0.8,0.2-1.2c0.1-0.4,0.1-1-0.2-0.6
			s-0.6,0.9-0.7,0.7c-0.1-0.2-0.1-0.5-0.1-0.5s-0.4,0.4-0.7,0.8c-0.1,0.2-0.3,0.5-0.3,0.8c-0.4,0.1-0.7,0.2-1.1,0.2
			c0-0.4,0-0.6,0-0.6s-0.6,0.2-0.2-0.3c0.4-0.5,0.5-0.9,0.5-0.9s-0.2-0.3-0.1-0.9c0.1-0.6,0.2-0.9,0.2-0.9l-1.4,0.8
			c0,0,0.2-0.9-0.3-0.6c-0.3,0.2-0.5,0.6-0.6,0.9c-0.1-0.3-0.2-0.7-0.4-1.2c-0.7-2.1-1.1-1.2-1.5,0.4l-0.3,0.1c0,0-1.2,2-1.2,2.7
			c0,0.7,0.5,1.8,0.5,1.8s0.1,0-0.2,1s-0.2,1.2,0,2.6c0.1,0.8,0.4,1.5,0.6,2.1c0,0.6,0.1,1.3,0.1,1.9c0,3.3,0-1.8-1.4-3.6
			c-0.8-1-1.1-0.3-1.1,1.1l0-0.2c0,0-0.6,1-0.6,2.8c0,1.1,0.1,2.4,0.2,3.2c0,0-0.1,0.1-0.1,0.1c-0.3-0.9-0.7-2.3-1-2.7
			c-0.1-0.1-0.2-0.2-0.4-0.2c0.1-0.6,0.2-1.2,0.2-1.6c0.1-0.9-0.2-1.9-0.2-2.3s-0.4-0.1-0.4-0.8c0-0.8-0.1-1.3-0.1-1.3l-0.6,0.6
			c0,0-0.1-0.5-0.6,0.1c-0.3,0.3-0.5,0.9-0.6,1.3l-0.6,0.2c0-0.2,0.1-0.3,0.1-0.5c0.3-0.6,0.5-1.3,0.7-1.9c0.5-1.6,0.1-1.1,0.1-1.6
			c0.1-0.5-0.3,0.2-0.2-1.2c0.1-1.4-0.1-1.6-0.1-1.6s-0.4,0.6-0.5-0.1c-0.1-0.7-0.2-0.6-0.2-0.6l-0.4,0.3c0-1.2-0.1-2.3-0.1-2.5
			c-0.1-0.2-0.3,0.2-0.5,1.2c-0.1,0.4-0.1,0.9-0.1,1.3c-0.2-0.1-0.5-0.4-0.7-1c-0.6-1.6-1.6-1.7-1.6-1.7s-0.5,0.8-0.7,1.9
			c-0.3-0.3-0.7-0.5-0.8-0.2c-0.4,0.6,0,1.6-0.1,1.5c-0.1-0.2-0.3-0.5-0.6,0.4s-0.2,1.1-0.2,1.1s0,0-0.2,0.8c-0.1,0.4-0.1,1,0,1.4
			c-0.1,0.3-0.2,1-0.3,1.7c-0.1,0-0.1,0.1-0.2,0.1c-0.2-0.7-0.2-1.1-0.2-1.1c0-0.2-0.1-0.4-0.2-0.8c-0.5-1.6-1.7-4.8-2.6-4.2
			c-1.1,0.7-1.5,1.3-1.3,2.4c0.2,1.1-1.3-1.1-1.5,0.4c-0.2,1.5-0.7,1.1-0.7,2.2c0,0.9-0.4,1.8-0.5,2.7c-0.2-0.4-0.2-0.4-1.3-0.8
			c-1.5-0.7,0,0-0.7-1.5c-0.5-1.1-1.3-1.2-1.8-1.1c-0.5-1.6-1.2-2-1.2-2s-0.7,0.1-1.6,1.1c-0.2,0.2-0.4,0.9-0.6,1.7
			c-0.3-0.9-0.8-2-1.4-2.3c-1.3-0.7-2.2-1.5-2.4-0.4c-0.2,0.8-0.5,1-0.6,1.6c-0.4,0.1-0.6,3.9-0.8,2.5c-0.2-1.5-1.1-1.3-1.1-1.3
			s0,0-1.5-1.1c-1.1-0.8,0,3.3-1.3,2.9c-1.1-0.4-0.3-0.1-0.1,1.4c-0.2,0.5-0.5,1.2-0.8,2c0,0,0-0.1-0.1-0.1
			c-0.7-1.3-1.1,0.4-1.5-0.7c-0.4-1.1-0.9-1.3-1.8-2.2s-0.9,1.3-2,0.4c0,0-0.9-1.1-1.3-2c-0.4-0.9-0.9-1.1-2-1.8
			c-1.1-0.7-0.7,1.1-1.1,2c-0.4,0.9,0,4,0,4s-0.9-0.4-1.8-1.3c-0.7-0.7-1.7,0.3-2.2,0.8c-0.5-0.7-0.9-1.4-0.9-1.4s-1.3,4.4-1.5,3.6
			s0-2.8-0.8-4.4c-0.8-1.5-1.3,2.1-1.3,2.1s-0.5-1.3-2.1-2.8c-1.5-1.5,0,0-0.3,2.1c-0.3,2.1,1,3.1-0.5,1.8c-1.5-1.3,0,0-0.8,0.8
			l1,3.6c-0.5-0.1-1-0.2-1.4-0.3c-1.1-0.5-0.5-1.5-2.5-1.1c-0.1-0.2-0.1-0.2-0.1-0.2s-1.8-2.1-2.1-1.2c-0.2,0.5-0.3,1.2-0.3,1.7
			c-0.1,0.1-0.3,0.2-0.4,0.3c-0.2,0.1-0.3,0.2-0.4,0.3c-0.4-0.1-0.8,0-0.8,0.6c-0.2,0.1-0.1,0.2,0,0.2c0.1,0.6,0.3,1.3,0.4,1.9
			c-0.1,0.4-0.1,0.9-0.1,1.5c-0.4-0.1-0.9-0.1-0.7,0.6c0.3,1.3-0.2,2.8,0.5,4.2l-0.3,0l-2.7-1.5c0,0,0,0-1.6-2c-0.8-1-0.8-1-1-0.2
			c-0.4-0.4-1.1-1.1-1.2-0.7c-0.2,0.7-0.5,2-0.5,2l0.5,1.6c0,0.1-0.1,0.1-0.1,0.2c-0.4-0.3-1.2-0.9-1.4-0.6
			c-0.6,0.9-0.5,1.9-0.5,2.2l0,0c-0.8-0.7-1.5-1.8-2.4-2.4c-1-0.7,0.2,2.1-0.5,2c-0.7-0.2-0.5,0.8-0.7,2c-0.2,1.2,0.7,2.6,0.8,3.5
			c0.2,0.8-1.5-1.2-2.3-2.3c-0.6-0.8-0.8-0.3-0.9,0c-1.3-0.5-2.9-0.7-2.9-0.7s-1.6-2-3.1-1.2c-1.5,0.8,2.6,5.8,0.9,4.7
			c-1.7-1.1-1.5,0.8-1.2,2.6c0,0,0,0.1,0,0.1c-0.6,0.1-1,0.3-1,0.5c0,0.7,0.3,1.3,0.5,1.8s-2.3-1.7-3.6-2c-1.3-0.3-1.3,0.2-1.3,0.2
			s1.1,0.2,2.5,1.2c1.4,1,2.4,2.2,2.4,2.2l1,1.1c0,0.3,0,0.5,0.1,0.8c-0.8-0.4-1.6-0.8-2-1c-0.6-0.4-0.7,0.5-0.7,0.5s-0.9-0.3-2-1
			c-1.1-0.8-1.4-0.6-1.4-0.6v0.6c0,0-0.7-0.5-1.5-0.9c-0.8-0.3-1-1-0.8-0.3c0.2,0.7,0.8,1.8,0.5,1.6c-0.3-0.2-0.5-0.4,0,0.5
			c0.3,0.5,0.6,1,0.8,1.3c-1.8,0.2,0,1.6,1.3,3.4c-0.8-0.2-0.9,0.4-0.9,0.4s0.5,2.6,0.2,2.1c-0.3-0.5-0.4-0.6-1.5-1.9
			c-1-1.3-1.4-1.4-1.4-1.4s0.2,0.9-0.5,0c-0.7-0.9-1.6-1.3-1.6-1.3v0.4c-0.2-0.4-0.5-0.8-0.7-1.2c-1-1.8-1.6-1.3-2-0.5
			c-0.3-0.3-0.8-0.5-1.3-0.8c-1.2-0.5-1.4-0.4-1.4-0.4s-0.2,0.5-1,0.3c-0.9-0.2-0.8-0.4-0.9,0c-0.1,0.3,0.3,0.7,0.6,1.1
			c-0.5,0-1.1,0.1-1.8,0.2c-0.9,0.2-0.3,1,0.6,1.9l-0.6,0.3c0,0,0.3,0.7,1,1.1c0.7,0.5,0.6,0.2,1.1,0.5c0.4,0.3,0.4,0.5,1,0.8
			c-0.1,0-0.2,0-0.3,0c-2.2-0.4,0.3,2.1,2.5,4.4c0.1,0.5,0.4,1.4,0.8,1.8c0.5,0.5,0.3,0.8,0.3,0.8s0,0.4,0.8,1.3
			c0.3,0.3,0.5,0.7,0.6,1c-0.7-0.9-0.6-0.4-0.6-0.4s-0.3,0.1-0.9-0.7s-1.8-1.2-1.8-1.2l-0.4,0.5c0,0-0.7-0.3-1-0.5
			c-0.3-0.2-0.3,0-0.2,1.4c0.1,1.4,0.5,1.9,0.5,1.9l-0.5-0.3c0,0,0.2,1,0.7,2.3c0.5,1.3,0.6,1.8,0.6,1.8s-0.3-0.3-0.9-1.3
			c-0.5-1-0.9-0.7-0.9-0.7v0.7c-0.5-0.4-1-0.7-1.5-0.8c-2.3-0.5,0.5,1.8-2.8,0s-3.2-1.4-2.8,0.5c0.1,0.4,0.5,0.9,0.9,1.5l-0.8,0
			c0,0,0.2,0.3,0.8,0.8c0.6,0.5,0.3,0.9,0.3,0.9s-0.3,0.3,0.4,0.9c0.3,0.2,0.8,0.7,1.3,1.1c-0.2,0-0.4-0.1-0.6-0.1
			c-3.7-0.9,0,0,1.4,2.8c1.3,2.6,3.9,1.9,5.7,3l-0.4,0.4l0.5,1.1c0,0,0.9,0.8,1.5,1.1c0.6,0.4,1.4-0.2,0.7,0.5
			c-0.2,0.2,0.7,0.4,1.4,0.6c0.4,0.1,1,0.1,1.5,0.1c0.1,0.1,0.3,0.2,0.4,0.3l-0.6,0.7c0,0,0.3,0.2,1,0.6c0.4,0.2,1.1,0.3,1.7,0.3
			c0.4,0.3,0.8,0.6,1.1,0.8c-0.3,0.1-0.6,0.2-0.9,0.3c-1.1-0.5-2.4-1-4-1.6c-5-1.8,0,0-4.6-0.9c-2.6-0.5-1.8,0.5-0.6,1.6l-0.3,0
			c0,0-0.1,0.2,0.3,0.5s1.1,0.6,1.1,0.6l-0.3,0.4c0,0,0.5,0.6,0.8,0.8c0.2,0.1,0.8,0.2,1.4,0.4c2.1,2.6,3.4,3.8,3.4,3.8
			c-3,1.5-1.3,1.9-1.3,1.9s2.6,0.8,3.8,0.8l-3,0.8c-0.1,0-0.1-0.1-0.2-0.1c-1.7-1.1-2.1-0.7-2.3-0.8c-0.2-0.1,0.1,0.5-0.8,0.7
			c-0.8,0.2-0.9-0.1-0.8,0.3c0.1,0.3,0.9,0.9,1.3,1.2c-0.1,0.5,0,1.1,1,1.4c1.7,0.4-0.4,1.5,1.3,3.5c0.9,1,1.2,1.7,1.6,2.1
			c-0.4,0-0.7,0-0.9,0.1c-1.1,0.8-0.8,1.1-1.1,0.8c-0.3-0.3-2.8-1.9-3.9-2.2c-1.1-0.3-0.8,1.1-0.8,1.1s-4.4-2.2-4.2-0.8
			c0.3,1.4,2.2,3.4,2.2,3.4s1.1,0.7,2.5,0.7c1.4,0,0.3-1.4,1.4,0s1.9,0.8,3,1.1s0.3,1.9,1.7,1.9c1.4,0,2.5,0,3.3,0.3
			c0.8,0.3,2.7,2.4,3.3,2.5c0,0-2.6,1.4-2.6,2.3c0,0.9,1.5,2.2,3.7,3.7c-0.9,0-1.4,0-1.4,0l-0.6,0.2c0,0-0.1,0.7,0.5,1.4
			c0.6,0.7,1.4,1.1,1.9,1.4c0.6,0.2,0.8,0.9,0.8,0.9s0.5,0.5,2,0.8c1.6,0.3,0.7,1,1.2,1.2c0.6,0.2,1.5,0.8,2.4,0.9
			c0.9,0.1-0.2,1.1,0.6,1.5c0.8,0.3,2.8,0.7,3.1,0.7c0.2,0-0.2,0.3,0.8,0.8c1,0.5,2.5,1.2,2.8,1.2c0.3,0-0.6,0.6,0.3,0.9
			c0.5,0.2,2.4,1,4.1,1.7c0.3,0.7,0.4,1.1,0.4,1.1c-0.7-0.9-2.3-1.6-3-1.2c-0.4-0.2-0.7-0.4-0.8-0.4c-0.6-0.2-1.1-0.4-1.3-0.3
			c-0.2,0.1-0.9-1-1.5-1.2c-0.5-0.2-0.7-0.2-1-0.2c-0.2-0.2-0.4-0.2-0.5-0.3c-0.1-0.1-0.1-0.1-0.3-0.2c-0.3-0.2-0.3-0.1-0.1,0
			c0,0-0.1,0-0.1,0c-0.8-0.1-2.6-1.3-2.6-1.3c-1.6-0.6-1.5-0.4-3.3-0.1c-1.9,0.3-1.3-0.8-4.3-1.1c-3-0.3-1.8-0.5-1.8-0.5
			s-0.3-1.3-2.5-1.6c-2.9-0.5-2.6-1-2.6-1c-2.8-1.1-3-0.4-1.8,1.8c1.3,2.4,3,3.2,3,3.2s0.3,0.5,1.9,1.3s0.8,1.1,2.2,1.9
			c1.3,0.8,2.7,1.6,3.5,1.3c0.8-0.3,0.3,0.8,1.9,1.3c1.6,0.5,4.9,1.3,4.9,1.3s0.5,0.3,2.4,1.1c0.7,0.3,1.7,0.2,2.6,0
			c-0.4,1.4,0.5,1.5,1.7,3c1.3,1.5,4.7,1.2,4.7,2.7c0,1.4,1.4,2.2,3.9,3.1c0.8,0.9,1.8,1.9,2.8,3.1c-2.3-1.1-4.7-2.2-6.6-2.9
			c-4.9-1.7-7.2-2.6-7.2-2.6s-0.4,0.9,0.1,1.1c0.6,0.2,4.4,1.5,4.4,1.5s8,3.2,10.9,5.8c1,0.9,2,1.8,3,2.7c1.4,1.8,2.6,3.6,3.6,5.2
			c2,3.3,3.3,7.1,4.2,11c-1.8,0.2-1.4,4.6-1.8,7.9c-0.2,1.9,0.4,3.3,1.8,4.4c-0.6,3.4-1.7,7.6-3.5,12.5c-4.6,12.8-9.3,19.3-9.3,19.3
			s-1.7,1.5-0.4,2.3c1.3,0.8-2.6,5-2.6,5l-5.1,4.6c0,0,0,4.2,1.7,4.2c0.9,0,0.7,0.9,0.6,1.8c-0.1,0.1-0.2,0.1-0.2,0.1
			s-0.9,1.9,0.9,3.5c0.5,0.4,0.6,0.5,0.6,0.5c0.2,0.2,0.6,0.5,1.2,1c3,2.7,3,1.5,5.5,4.2c2.6,2.7,1.7,2.7,3.8,4.6s1.3,1.9,3.8,2.3
			s1.7,1.9,4.3,1.9c2.6,0,2.6-0.4,5.1-0.4s3.8-0.8,6.8,0.8c3,1.5,2.1,1.5,5.5,2.7c3.4,1.2,4.7,3.8,6.8,3.1c2.1-0.8,2.1-1.5,6-1.2
			c3.8,0.4,6.8,0.4,9.8,0.8s4.3,0,8.1,0.4c3.8,0.4,6,0.8,9.8-1.2c1.9-1,3.1-1.4,4.2-2c4-1,7.4-2.5,10.2-4.2c3.4-2.1,5.5-5.7,9.6-8.6
			c0.5-0.2,0.8-0.4,1.1-0.6c0.8-0.6,3.2-1.5,5.4-2.5c0.8-0.1,1.2,0,2-0.3c1.8-0.9,1-0.7,4.8-4.1c1.3-1.2-0.9-5-5.1-13.4
			c-3.1-6.2-12-23.9-14.9-35.2c-0.2-0.6-0.3-1.3-0.4-2.2c0,0,0.1,0,0.1-0.1c1.2-1,2.2-3.2,2.2-5.6c0-2.4-1.8-5.9-1.8-5.9
			s-0.2,0-0.6,0.1c0-0.6,0.1-1.3,0.1-1.9c0.7-2.6,2-6,4.3-10.2c1.2-2.1,2.3-4.3,3.5-6.6c0.5-0.1,1.3-0.2,2.3-0.7
			c1.9-0.8,1.7-0.8,1.9-1.2c0.2-0.1,0.4-0.1,0.8-0.2c1-0.3,0.4-0.8,0.7-0.8c0.3,0,0.7-0.4,1.6-0.8c0.8-0.5,0.1-0.7,0.6-1
			s0.6-0.4,1.2-1.3c0.7-0.9-0.1-0.5,0.5-0.9c0.6-0.5,0.6-0.7-0.1-0.6c-0.3,0-0.8,0.2-1.2,0.4c-0.1-0.3-0.1-0.7,0-1.3c0,0,0,0,0,0
			c0.9-0.2,2.9-0.5,3.6-0.7s0.6-0.9,0.6-0.9s1.3-0.4,2.3-0.7c0.5-0.2,0.8-0.5,0.9-0.9c1.3,0,2.8-0.1,3.8-0.5c1.2-0.5,2.3-0.9,3-1.2
			c0.1,0,0.3,0,0.4-0.1c2.4-0.2-0.2-2.4,1.2-3c1.4-0.6,4.3-0.4,5.1-2.9c0,0,1.4,0.2,2.1,0s0.7-0.4,1.4-0.5c0.7-0.1,0.6-0.1,1.1-0.4
			c0.6-0.3,0.4-0.6,0.8-0.7c0.5-0.1,0.4-0.2,1-0.7c0.7-0.6,0.3-0.5,0.7-0.7c0.5-0.2-0.3-0.4-1.1-0.7c-0.1,0-0.3,0-0.4,0
			c-0.1-0.1-0.1-0.2-0.2-0.4c0-0.1-0.1-0.1-0.2-0.2c0-0.2-0.1-0.3,0.2-0.6c0.4-0.4,0.2-0.6,0.2-0.6s-0.9,0.1-2,0
			c-1.1-0.1-1.7,0.7-1.7,0.7s-0.6-0.1-1.3-0.1s-1,0.7-1,0.7s-0.6,0.2-1.3,0.6c-0.4,0.2-1,0.7-1.5,1.1c-0.6,0.2-1.3,0.3-2,0.4
			c0.4-0.5,0-0.5-0.8-0.5c-0.5,0-1.2,0.5-1.5,0.6c0,0-0.1,0-0.1,0c0,0,0,0,0,0c0.2-0.3-0.2-0.5-1.1-0.3c-0.5,0.1-0.9,0.5-1.3,0.8
			c-0.2-0.3-0.3-0.8-0.2-1.7c0,0,2.6,0.4,5.5-0.4c3-0.8,0,0,2.1-1.2s-1.7-1.5-1.7-1.5s1.7-1.9,2.6-3.5c0.3-0.5-0.4-1-1.4-1.5
			c1.3-1.1,6.2-5.3,6.9-6.8c0.7-1.4-0.3-1.1-1.8-0.7c0.4-0.7,0.7-1.5,1-2.1c0.7-2,0.9-3.8,0.9-5c1.1-0.9,2.6-2.2,3.5-3.6
			c1.8-2.6,0.9-6.6,0.9-6.6s3.5-3.5,3.5-5.3c0-0.1,0-0.1,0-0.2c0.3-0.4,0.6-0.9,0.7-1.4C273.1,139.8,275.9,138,275.2,138.2z
			 M265.9,147.7c-1.1,1.1,0.3-1.6-1.1,1.1c-1.3,2.6-4.2,5-4.2,5l1.3-2.9v-2.1l4.5-4C266.4,144.8,266.9,146.6,265.9,147.7z
			 M258.3,150.6c1.1-0.8,1.3,0.8,1.3,0.8s0,2.4-2.1,4c-2.1,1.6-2.1-0.5-1.3-1.6C256.9,152.7,257.2,151.3,258.3,150.6z M231.4,185.2
			c0,0-0.3,2.8-3.4,5.8c-3.1,3.1-4.3,2.8-4.3,2.8l-0.6,1.4c0.6,1.4-1.7,7.2-1.7,7.2c-0.5,1.4-3.9,11.5-4.6,19.8
			c-1.9,0.3-3.8,0.6-5,0.8c-0.2,0-0.4,0.1-0.5,0.1c0-9.6,2.2-22,3-23.8c0.9-2-0.3-1.1,1.4-2c1.7-0.9-2.1,14-0.1,13.4
			c2-0.6,7-16.8,7.6-15.4c0,0-0.9-1.7-1.6-3.3s0.3-3.4,0.3-3.4s2.5,0,2.1-0.9c-0.3-0.9,0.3-1.8,0.6-3.4s1.2-2.1,1.5-3.7
			c0.3-1.5,0.9,4.6,0.9,4.6l2.8-8h1.2l3.1-5.2l1.5-1.2c0,0,0.3,0.3-0.6,3.7c-0.9,3.4-0.6,4-3.4,7.1c-0.4,0.4-0.8,0.8-1.1,1.2
			c0,0.1-0.1,0.3-0.1,0.4c-0.6,2.1-1.5,2.5-1.2,4.3C229.5,188.7,231.4,185.2,231.4,185.2z M227.2,201.6c0,0.7-1.8,3.9-1.8,3.9
			s-4.1,9.3-4.4,16c-0.7,0.1-1.5,0.2-2.3,0.4c0-0.6,0-1.1,0-1.5c0.5-4.2,5.3-16.7,6.2-18.3C225.8,200.5,227.2,200.9,227.2,201.6z
			 M226.9,268.8c2.3,5.2,7.2,13.4,7.2,13.4s-0.9,1.4-2,2c-1.1,0.6-2.3-0.6-2.3,0.6c0,1.1,1.4,2.6-0.9,3.4c-2.3,0.9-0.9,2.6-2.3,0.9
			s-0.9,0.3-4.6-13.2c-2.8-10.1-7.1-27.6-9.3-39.8c2.2-0.5,4-0.9,5.4-1.3C220.5,246.3,225.1,264.7,226.9,268.8z M191.5,302.9
			c-0.7,1.1-2.1,0.4-3.5-2.1c-1.4-2.5,2.5-32.5,3.2-50.2c0.2-4.1,0.1-8.4-0.2-12.8c2.1,0,4.2-0.1,6.3-0.2c0.7,8.2,2,29,2,32.7
			c0,3.9,0.4,10.3,0.4,13.4c0,3.2-1.8,2.1-1.8-3.2s-1.8-19.8-1.8-19.8c0-5-2.9-5.1-2.9-5.1s-0.2,3.9-0.4,8.7c-0.1,3.6,0,5.2-0.3,7
			c-0.4,1.8,1.4-1.1,1.8,1.4c0.2,1.4,0.3,6.9,0.3,12.4c0,4.4,0,8.8,0,11c0,5,0.4,4.2-0.7,5.7C192.9,303.3,192.2,301.9,191.5,302.9z
			 M216.8,119.1c0,0,1.4,0.2,0.7,2.8s-1.2,5.3-1.2,5.3s-1.4-1.6-1.4-3.5S216.8,119.1,216.8,119.1z M220.8,109.4
			c0.7-0.5-0.4,0.9,0.5,2.1c1.2,1.6,1.6,1.6,0.9,3.7s-2.1,3.5-2.1,3.5s2.1-1.6,1.4,0.5c-0.7,2.1,0.2,1.8-0.9,3.5
			c-1.2,1.6-2.8,3-2.8,3s0.7-4.2,0.9-5.1c0.2-0.9-1.2-1.8-0.7-3.5c0.5-1.6,0.2-4.2,0.2-4.2S220.1,109.9,220.8,109.4z M240,155.2
			c-0.3-3.1,3.4-7.7,3.4-7.7s0,1.5-0.1,3.6c0.2-0.4,0.4-0.8,0.7-1.1c1.5-1.5,0.3-4,1.2-5.2c0.9-1.2,4.6-3.1,4.6-3.1
			s-0.9,5.5-2.5,7.4c0,0,1.8,1.8-0.6,3.1c-2.5,1.2-3.7,2.1-3.7,2.1c-0.1,0.8-0.3,1.5-0.5,1.9l4.2-1.9c0,0,0.1,3-2.4,5.2
			s-5.5,2.2-5.5,2.2v-3.7l2-0.9C240.4,156.7,240.1,156.1,240,155.2z M246,184.1C246,184,246,184,246,184.1L246,184.1z M246,184.1
			c0,0.1,0,0.1,0,0.2C246.1,184.2,246,184.2,246,184.1z M246.1,184.6c0,0.1,0,0.1,0,0.2C246.2,184.7,246.1,184.6,246.1,184.6z
			 M233.3,169c-1.2,3.7-1.2,4.3-2.5,6.1c-1.2,1.8-3.1,3.1-3.1,3.1c0-0.9-1.5,0.3,0.6-4.3c2.1-4.6,4-6.8,4-6.8S234.5,165.3,233.3,169
			z M216.6,174.9c1.4-5.3,7.8-19.4,8.8-22.6c1.1-3.2,5-4.2,5-4.2s-9.9,19.1-12,27.2S215.2,180.2,216.6,174.9z M220.5,292.3
			c-1.2,1-2.2,0.8-2.9,0.1c-1.3-1.3-1.9-3-2.4-5.4c-0.5-2.3-5.6-29.2-7.5-50.1c0.7-0.1,1.4-0.2,2-0.3c0.2,2.7,0.5,5.2,0.9,7.6
			c2.8,17,6.4,35.9,8.5,41.7C220.9,291,221.8,291.1,220.5,292.3z M205.4,224c-0.7,0.1-1.3,0.2-2,0.2c-0.3-7.8-0.4-15.1-0.2-18.5
			c-0.5,0-1-0.6-1.4-2.5c-1.1-5-2.1-9.2-0.7-7.4s-1.8-6-1.8-6s-1.4-6,0.4-5.7s0.7-2.3,2.1-3.5c3.2-2.8,1.1-3.9,3.2-2.8
			c1.8,0.9,2.9-4.6,3.1-2.8c1-2.6,1.8-4.3,1.8-4.3s-4.2,31.8-4.6,41.4C205.2,215.5,205.2,219.7,205.4,224z M189.1,162.6
			c0,0,0.9,1.4,0,3.9c-0.9,2.5,0,1.4,0.2,3c0.2,1.6,0.2,5.6-0.5,7.4c-0.7,1.9,0.7,1.9,0.2,3.5c-0.5,1.6,0.2,6.5-1.6,6.5
			s-3-3.7-3-3.7s-1.9-3.2-2.1-5.6c-0.2-2.3-0.2-2.3-0.2-2.3s-0.9-1.2-0.9-4.2c0-3,0-3,0-3s-0.2-1.9,0.2-5.1c0.5-3.2,1.9-3.5,1.9-3.5
			s-1.4-0.7-0.2-3.9c1.2-3.2,2.1-5.8,2.5-4.6c0.5,1.2,1.2,4.6,1.2,4.6c1.2,0.9,1.6,2.1,1.6,3.9s-0.2,3.7-0.2,3.7L189.1,162.6z
			 M161.5,142.6c-0.5-2.7,1.4-1.2,1.4-1.2c0.1,0.5,4.5,6.8,4.6,5.6c0.1-1.3,0,0,1.5,2.1c1.5,2.1,0.8,5.2,0.8,5.2s0,0,1.2,1.9
			c1.2,1.9,0.5,4.5,1.4,3.4c0.9-1.1,1.8,2.8,1.4,6.1c-0.4,3.3-1,2.4-2.1,2c-1-0.4-1.6-0.8-3.8-2.6s-1.3-2.9-1.6-5.4
			c-0.3-2.5,0,0-1.5-2.1s-1.2-1.4-1.7-4.1c-0.5-2.7,0,0-1.7-1.8c-1.7-1.8-0.7-1.4,0.2-3c0.8-1.6,0,0-1.8-2.3s-0.2-1.5,0-2.8
			C159.9,142.2,162,145.3,161.5,142.6z M193.9,128c-0.7,6.8-0.8,24.4-0.8,24.4s-0.9,11.6-1.9,6.9c-1-4.7-0.2-21.5,0-28.5
			c0.2-7.1,0.1-6.1,0.6-8.1S194.7,121.2,193.9,128z M145.7,167.9c0.5,0.8,1.1-1.3,1.6,0c0.5,1.3,0.5,2.9,0.8,3.7
			c0.3,0.8,0.5,2.9,0.5,2.9l1.3,2.7c0,0,0.8-3.7,1.6-2.1c0.8,1.6,1.1,1.9,1.3,3.2s0.3,3.2,0.3,3.2s6.2,8.8,8.3,16
			c2.1,7.2,0.8,10.7,0.8,9.4s-2.4-9.6-2.4-9.6c0-1.1-6.2-12.6-7-14.2c-0.8-1.6-2.9-2.1-4.5-3.7c-0.6-0.6-1.1-1.3-1.3-1.9
			c-0.2-0.2-0.4-0.4-0.5-0.7c-1.3-2.1-3.6-5.9-2.7-5.3c1.9,1.1,1.9,1.1,1.9,1.1s-1.1-1.9-1.9-3.6c-0.4-1-0.8-1.9-0.8-2.5
			c0-1.6,0.5-2.7,0.5-2.7S145.2,167.1,145.7,167.9z M185.8,224.5c-0.3-2.6-0.8-5.7-1.3-9.6c0,0-2.8-9.2-2.5-11.3s1.4,1.4,2.1,4.6
			c0.5,2.2,1.9,9.4,2.8,16.4C186.6,224.5,186.2,224.5,185.8,224.5z M184.4,197.6c0,0,3.4,1.1,5.1,1.6c0.8,3.6,2.7,13.6,2.7,13.6
			s0.5-2,0.3-4.5c-0.2-2.3-1.6-7.9-1.8-8.8c0.9,0,2-0.1,2.9,5.6c0.6,4.3,1.5,12.3,2.3,19.7c-2.3,0-4.8,0-6.4-0.1
			C187.7,210.3,184.8,198.2,184.4,197.6z M205.8,237.1c0.1,2.7,0.2,5.1,0.2,6.7c0,6.4-1.1,9.6-1.4,6c-0.2-1.8-0.5-6.7-0.7-12.6
			C204.5,237.2,205.2,237.2,205.8,237.1z M207.1,223.7c-0.2-19.1,1.4-23.7,1.4-23.7l2.1-2.1c0,0.7-1.2,12.6-1.2,25.5
			C208.6,223.5,207.9,223.6,207.1,223.7z M209.6,168.2c-2.1,2.5-3.5,4.6-3.9,3.2s0.4-2.5-1.8,1.1s-3.2,5.7-3.5,2.5
			c-0.4-3.2-1.8-7.1-0.7-8.8c1.1-1.8,1.4-1.4,2.5-0.7c1.1,0.7,0.7,1.1,1.1-2.8s-0.4-7.1,1.1-5.7c1.4,1.4,0,0,1.1-3.9
			c1.1-3.9-0.4-6,1.1-3.9c1.4,2.1,0.4,0.4,1.4-2.5c1.1-2.8,0.7-7.8,1.8-4.6c1.1,3.2,1.1,3.2,1.1,3.2s-0.4-5,0.7-2.5
			c1.1,2.5,1.1,0.7,1.1,2.5c0,0.5,0,0.7,0,0.7c0,0,0,0,0,0c0,0.1,0,0.3,0,1c0,0,2.8-2.8,2.5,0c-0.4,2.8-1.1,3.9,0,1.4
			c1.1-2.5,0-1.4,1.1-4.2c1.1-2.8,1.4-4.2,2.1-2.5c0.2,0.5,0.3,0.8,0.3,0.9c0-0.1-0.1-1.1,0.8-2.6c1.4-2.5,0.4-4.2,1.4-2.5
			c1.1,1.8,0.4-0.7,2.5-2.5s1.1-4.6,2.1-1.8c1.1,2.8,0.4,6.4,0.4,6.4s2.1,0.7-1.1,2.8s0.7,0.4-1.1,2.5c-1.8,2.1,1.1,0-1.8,2.1
			c-0.7,0.5-1.1,0.6-1.3,0.6c0,0.2-0.1,0.5-0.1,0.8c-0.7,3.5-0.4,4.2-2.1,6s-1.4,3.2-1.4,3.2s0.4,0.7-1.4,2.8
			c-1.8,2.1-1.8,2.1-1.8,2.1s-1.8-0.7-2.1,1.8C211,166.8,211.7,165.7,209.6,168.2z M180.6,299.4c-0.7-2.8,3.2-20.5,5-42.4
			c0.7-9,1.1-14.6,1.2-19.1c0.3,0,0.6,0,0.9,0c0,10.5-0.1,30.5-1.1,40.3c-1.1,11.3-2.1,23-3.2,23.7
			C182.3,302.6,181.3,302.2,180.6,299.4z M245.2,125.2c0.8-1.9,1.6,0.3,1.9,1.1s-0.3,3.2-0.3,4c0,0.8-2.1,4-2.1,4s0.3,1.6-0.8,3.7
			c-1.1,2.1-1.9,1.6-1.3,2.9s-3.7,4-4.5,3.7l-3.7,3.2c0,0,0.5-2.9,1.1-4.5c0.5-1.6,0.3-2.1,1.3-4.5c1.1-2.4,1.3-1.3,2.1-3.5
			c0.8-2.1,0-1.6,1.1-3.7c1.1-2.1,1.6-0.5,1.9-1.6c0.3-1.1,1.1-2.4,2.7-2.9C246,126.5,244.4,127,245.2,125.2z M208.4,95.8
			c0.6-2.9,0.6-2.9,0.6-2.9s1.3-1,1.9-2.6c0.6-1.6,3.8-2.6,3.8-2.6s1.6,0,0.6,2.6c-1,2.6,1.3,1,0.3,3.5c-1,2.6-1.9,5.4-1.9,5.4
			s1.9-1.3,1,1.3c-1,2.6-1.9,6.4-1.9,6.4s1.3-1.3,0.3,1.3c-1,2.6-2.2,5.1-3.8,7c-1.6,1.9-1.9,1.3-2.2-1.9c-0.3-3.2,0.3-4.8,0.3-4.8
			s-1.6-3.2-1-5.1s2.2-3.5,2.2-3.5S207.8,98.7,208.4,95.8z M129.9,286.6C129.9,286.6,129.9,286.6,129.9,286.6
			C129.9,286.6,129.9,286.6,129.9,286.6z M129.8,286.5C129.8,286.5,129.7,286.5,129.8,286.5L129.8,286.5z M228.3,254.1
			c3.2,6.2,11.8,23.1,12.9,25.2c1.2,2.1,1.2,2.1,1.2,2.1s-2.3,1.4-2.5,0c-0.2-1.4-14.8-30.5-16.9-36.5c-0.9-2.6-1.9-6.6-2.7-10.8
			c1-0.3,1.6-0.6,2.2-0.8C223.9,240.9,226.2,250,228.3,254.1z"/>
		<path class="st0" d="M218,117c-0.5,1.6,0.9,2.5,0.7,3.5c-0.2,0.9-0.9,5.1-0.9,5.1s1.6-1.4,2.8-3c1.2-1.6,0.2-1.4,0.9-3.5
			c0.7-2.1-1.4-0.5-1.4-0.5s1.4-1.4,2.1-3.5s0.2-2.1-0.9-3.7c-0.8-1.2,0.2-2.5-0.5-2.1c-0.7,0.5-2.5,3.5-2.5,3.5
			S218.4,115.4,218,117z"/>
		<path class="st0" d="M215,123.7c0,1.8,1.4,3.5,1.4,3.5s0.5-2.8,1.2-5.3s-0.7-2.8-0.7-2.8S215,121.9,215,123.7z"/>
		<path class="st0" d="M220.3,234.2c0.8,4.1,1.8,8.2,2.7,10.8c2.1,6,16.6,35.1,16.9,36.5c0.2,1.4,2.5,0,2.5,0s0,0-1.2-2.1
			c-1.2-2.1-9.7-19-12.9-25.2c-2.2-4.2-4.4-13.2-5.9-20.8C221.9,233.6,221.2,233.9,220.3,234.2z"/>
		<path class="st0" d="M218.6,220.4c0,0.4-0.1,0.9,0,1.5c0.8-0.1,1.6-0.2,2.3-0.4c0.4-6.8,4.4-16,4.4-16s1.8-3.2,1.8-3.9
			s-1.4-1.2-2.3,0.5C223.9,203.7,219.1,216.3,218.6,220.4z"/>
		<path class="st0" d="M212.8,236.1c2.2,12.2,6.5,29.7,9.3,39.8c3.7,13.5,3.2,11.5,4.6,13.2s0,0,2.3-0.9c2.3-0.9,0.9-2.3,0.9-3.4
			c0-1.1,1.1,0,2.3-0.6c1.1-0.6,2-2,2-2s-4.9-8.3-7.2-13.4c-1.8-4.1-6.4-22.5-8.8-34C216.7,235.2,215,235.6,212.8,236.1z"/>
		<path class="st0" d="M215.6,210.7c-2,0.6,1.8-14.3,0.1-13.4c-1.7,0.9-0.5,0-1.4,2c-0.8,1.8-2.9,14.2-3,23.8c0.2,0,0.4-0.1,0.5-0.1
			c1.1-0.2,3-0.5,5-0.8c0.7-8.3,4.2-18.4,4.6-19.8c0,0,2.3-5.7,1.7-7.2C222.6,193.8,217.6,210.1,215.6,210.7z"/>
		<path class="st0" d="M229.3,187.4c-0.3-1.8,0.6-2.1,1.2-4.3c0-0.1,0.1-0.3,0.1-0.4c0.4-0.3,0.7-0.7,1.1-1.2
			c2.8-3.1,2.5-3.7,3.4-7.1c0.9-3.4,0.6-3.7,0.6-3.7l-1.5,1.2l-3.1,5.2h-1.2l-2.8,8c0,0-0.6-6.1-0.9-4.6c-0.3,1.5-1.2,2.1-1.5,3.7
			s-0.9,2.5-0.6,3.4c0.3,0.9-2.1,0.9-2.1,0.9s-0.9,1.8-0.3,3.4s1.6,3.3,1.6,3.3l0.6-1.4c0,0,1.2,0.3,4.3-2.8
			c3.1-3.1,3.4-5.8,3.4-5.8S229.5,188.7,229.3,187.4z"/>
		<path class="st0" d="M232.4,167.1c0,0-1.8,2.1-4,6.8c-2.1,4.6-0.6,3.4-0.6,4.3c0,0,1.8-1.2,3.1-3.1c1.2-1.8,1.2-2.5,2.5-6.1
			C234.5,165.3,232.4,167.1,232.4,167.1z"/>
		<path class="st0" d="M238.8,161.6c0,0,3.1-0.1,5.5-2.2s2.4-5.2,2.4-5.2l-4.2,1.9c0.3-0.5,0.5-1.1,0.5-1.9c0,0,1.2-0.9,3.7-2.1
			c2.5-1.2,0.6-3.1,0.6-3.1c1.5-1.8,2.5-7.4,2.5-7.4s-3.7,1.8-4.6,3.1c-0.9,1.2,0.3,3.7-1.2,5.2c-0.3,0.3-0.5,0.7-0.7,1.1
			c0.1-2,0.1-3.6,0.1-3.6s-3.7,4.6-3.4,7.7c0.1,1,0.4,1.6,0.8,1.8l-2,0.9V161.6z"/>
		<path class="st0" d="M206,243.9c0-1.7-0.1-4-0.2-6.7c-0.6,0.1-1.3,0.1-2,0.2c0.3,5.9,0.6,10.8,0.7,12.6
			C205,253.4,206,250.2,206,243.9z"/>
		<path class="st0" d="M209.9,170.7c0,0-0.8,1.7-1.8,4.3c-0.2-1.8-1.3,3.7-3.1,2.8c-2.1-1.1,0,0-3.2,2.8c-1.4,1.3-0.4,3.9-2.1,3.5
			s-0.4,5.7-0.4,5.7s3.2,7.8,1.8,6s-0.4,2.5,0.7,7.4c0.4,1.9,0.9,2.5,1.4,2.5c-0.2,3.4-0.1,10.7,0.2,18.5c0.7-0.1,1.4-0.2,2-0.2
			c-0.1-4.3-0.2-8.5,0-11.9C205.7,202.5,209.9,170.7,209.9,170.7z"/>
		<path class="st0" d="M210.6,244.2c-0.4-2.3-0.7-4.9-0.9-7.6c-0.6,0.1-1.3,0.2-2,0.3c1.9,20.9,7,47.8,7.5,50.1
			c0.5,2.4,1.1,4.1,2.4,5.4c0.7,0.7,1.7,0.9,2.9-0.1c1.4-1.2,0.4-1.4-1.4-6.4C217,280.1,213.4,261.2,210.6,244.2z"/>
		<path class="st0" d="M210.6,197.9l-2.1,2.1c0,0-1.6,4.6-1.4,23.7c0.8-0.1,1.6-0.2,2.3-0.4C209.5,210.5,210.6,198.6,210.6,197.9z"
			/>
		<path class="st0" d="M230.4,148.1c0,0-3.9,1.1-5,4.2c-1.1,3.2-7.4,17.3-8.8,22.6s-0.4,8.5,1.8,0.4S230.4,148.1,230.4,148.1z"/>
		<path class="st0" d="M159.8,143.5c-0.1,1.3-1.7,0.4,0,2.8s2.6,0.7,1.8,2.3c-0.8,1.6-1.9,1.2-0.2,3c1.7,1.8,1.2-0.9,1.7,1.8
			c0.5,2.7,0.2,2,1.7,4.1s1.2-0.4,1.5,2.1c0.3,2.5-0.6,3.6,1.6,5.4s2.7,2.2,3.8,2.6c1,0.4,1.6,1.3,2.1-2c0.4-3.3-0.5-7.2-1.4-6.1
			c-0.9,1.1-0.2-1.5-1.4-3.4c-1.2-1.9-1.2-1.9-1.2-1.9s0.7-3.1-0.8-5.2c-1.5-2.1-1.4-3.4-1.5-2.1c-0.1,1.3-4.6-5.1-4.6-5.6
			c0,0-1.9-1.6-1.4,1.2C162,145.3,159.9,142.2,159.8,143.5z"/>
		<path class="st0" d="M213.4,162.6c0,0,0,0,1.8-2.1c1.8-2.1,1.4-2.8,1.4-2.8s-0.4-1.4,1.4-3.2s1.4-2.5,2.1-6
			c0.1-0.3,0.1-0.6,0.1-0.8c0.2,0,0.6-0.1,1.3-0.6c2.8-2.1,0,0,1.8-2.1c1.8-2.1-2.1-0.4,1.1-2.5s1.1-2.8,1.1-2.8s0.7-3.5-0.4-6.4
			c-1.1-2.8,0,0-2.1,1.8s-1.4,4.2-2.5,2.5c-1.1-1.8,0,0-1.4,2.5c-0.9,1.5-0.8,2.5-0.8,2.6c0-0.1-0.1-0.3-0.3-0.9
			c-0.7-1.8-1.1-0.4-2.1,2.5c-1.1,2.8,0,1.8-1.1,4.2c-1.1,2.5-0.4,1.4,0-1.4c0.4-2.8-2.5,0-2.5,0c0-0.7,0-0.9,0-1c0,0,0,0,0,0
			c0-0.1,0-0.3,0-0.7c0-1.8,0,0-1.1-2.5c-1.1-2.5-0.7,2.5-0.7,2.5s0,0-1.1-3.2c-1.1-3.2-0.7,1.8-1.8,4.6c-1.1,2.8,0,4.6-1.4,2.5
			c-1.4-2.1,0,0-1.1,3.9c-1.1,3.9,0.4,5.3-1.1,3.9c-1.4-1.4-0.7,1.8-1.1,5.7s0,3.5-1.1,2.8c-1.1-0.7-1.4-1.1-2.5,0.7
			c-1.1,1.8,0.4,5.7,0.7,8.8c0.4,3.2,1.4,1.1,3.5-2.5s1.4-2.5,1.8-1.1s1.8-0.7,3.9-3.2c2.1-2.5,1.4-1.4,1.8-3.9
			C211.7,161.9,213.4,162.6,213.4,162.6z"/>
		<path class="st0" d="M184.1,208.2c-0.7-3.2-1.8-6.7-2.1-4.6s2.5,11.3,2.5,11.3c0.5,3.9,1,7,1.3,9.6c0.4,0,0.8,0,1.1,0
			C186,217.6,184.6,210.3,184.1,208.2z"/>
		<path class="st0" d="M183.4,301.9c1.1-0.7,2.1-12.4,3.2-23.7c0.9-9.8,1-29.8,1.1-40.3c-0.3,0-0.6,0-0.9,0
			c-0.1,4.5-0.5,10.1-1.2,19.1c-1.8,21.9-5.7,39.6-5,42.4C181.3,302.2,182.3,302.6,183.4,301.9z"/>
		<path class="st0" d="M196,224.7c-0.8-7.3-1.7-15.4-2.3-19.7c-0.9-5.7-1.9-5.7-2.9-5.6c0.2,0.9,1.6,6.6,1.8,8.8
			c0.2,2.5-0.3,4.5-0.3,4.5s-1.9-10-2.7-13.6c-1.6-0.5-5.1-1.6-5.1-1.6c0.3,0.7,3.2,12.7,5.1,27C191.1,224.6,193.6,224.7,196,224.7z
			"/>
		<path class="st0" d="M194,301.9c1.1-1.4,0.7-0.7,0.7-5.7c0-2.2,0-6.6,0-11c0-5.5-0.1-11-0.3-12.4c-0.4-2.5-2.1,0.4-1.8-1.4
			c0.4-1.8,0.2-3.4,0.3-7c0.1-4.9,0.4-8.7,0.4-8.7s2.9,0.1,2.9,5.1c0,0,1.8,14.5,1.8,19.8s1.8,6.4,1.8,3.2c0-3.2-0.4-9.5-0.4-13.4
			c0-3.7-1.3-24.6-2-32.7c-2.1,0.1-4.2,0.1-6.3,0.2c0.3,4.4,0.4,8.7,0.2,12.8c-0.7,17.7-4.6,47.7-3.2,50.2c1.4,2.5,2.8,3.2,3.5,2.1
			C192.2,301.9,192.9,303.3,194,301.9z"/>
		<path class="st0" d="M206.5,103.5c-0.6,1.9,1,5.1,1,5.1s-0.6,1.6-0.3,4.8c0.3,3.2,0.6,3.8,2.2,1.9c1.6-1.9,2.9-4.5,3.8-7
			c1-2.6-0.3-1.3-0.3-1.3s1-3.8,1.9-6.4c1-2.6-1-1.3-1-1.3s1-2.9,1.9-5.4c1-2.6-1.3-1-0.3-3.5c1-2.6-0.6-2.6-0.6-2.6s-3.2,1-3.8,2.6
			c-0.6,1.6-1.9,2.6-1.9,2.6s0,0-0.6,2.9c-0.6,2.9,0.3,4.2,0.3,4.2S207.1,101.6,206.5,103.5z"/>
		<path class="st0" d="M191.9,122.7c-0.6,2-0.4,1-0.6,8.1c-0.2,7.1-1,23.8,0,28.5c1,4.7,1.9-6.9,1.9-6.9s0-17.6,0.8-24.4
			C194.7,121.2,192.5,120.7,191.9,122.7z"/>
		<path class="st0" d="M143,166.3c0,0.6,0.3,1.5,0.8,2.5c0.8,1.8,1.9,3.6,1.9,3.6s0,0-1.9-1.1c-1-0.5,1.3,3.2,2.7,5.3
			c0.2,0.3,0.4,0.5,0.5,0.7c0.3,0.6,0.7,1.3,1.3,1.9c1.6,1.6,3.7,2.1,4.5,3.7c0.8,1.6,7,13.1,7,14.2c0,0,2.4,8.3,2.4,9.6
			s1.3-2.1-0.8-9.4c-2.1-7.2-8.3-16-8.3-16s0-1.9-0.3-3.2s-0.5-1.6-1.3-3.2c-0.8-1.6-1.6,2.1-1.6,2.1l-1.3-2.7c0,0-0.3-2.1-0.5-2.9
			c-0.3-0.8-0.3-2.4-0.8-3.7c-0.5-1.3-1.1,0.8-1.6,0c-0.5-0.8-2.1-4.3-2.1-4.3S143,164.7,143,166.3z"/>
		<path class="st0" d="M244.4,127c-1.6,0.5-2.4,1.9-2.7,2.9c-0.3,1.1-0.8-0.5-1.9,1.6c-1.1,2.1-0.3,1.6-1.1,3.7
			c-0.8,2.1-1.1,1.1-2.1,3.5c-1.1,2.4-0.8,2.9-1.3,4.5c-0.5,1.6-1.1,4.5-1.1,4.5l3.7-3.2c0.8,0.3,5.1-2.4,4.5-3.7s0.3-0.8,1.3-2.9
			c1.1-2.1,0.8-3.7,0.8-3.7s2.1-3.2,2.1-4c0-0.8,0.5-3.2,0.3-4s-1.1-2.9-1.9-1.1S246,126.5,244.4,127z"/>
		<path class="st0" d="M261.9,150.8l-1.3,2.9c0,0,2.9-2.4,4.2-5c1.3-2.6,0,0,1.1-1.1c1.1-1.1,0.5-2.9,0.5-2.9l-4.5,4V150.8z"/>
		<path class="st0" d="M256.1,153.7c-0.8,1.1-0.8,3.2,1.3,1.6c2.1-1.6,2.1-4,2.1-4s-0.3-1.6-1.3-0.8
			C257.2,151.3,256.9,152.7,256.1,153.7z"/>
		<path class="st0" d="M188.4,159.6c0-1.9-0.5-3-1.6-3.9c0,0-0.7-3.5-1.2-4.6c-0.5-1.2-1.4,1.4-2.5,4.6c-1.2,3.2,0.2,3.9,0.2,3.9
			s-1.4,0.2-1.9,3.5c-0.5,3.2-0.2,5.1-0.2,5.1s0,0,0,3c0,3,0.9,4.2,0.9,4.2s0,0,0.2,2.3c0.2,2.3,2.1,5.6,2.1,5.6s1.2,3.7,3,3.7
			s1.2-4.9,1.6-6.5c0.5-1.6-0.9-1.6-0.2-3.5c0.7-1.9,0.7-5.8,0.5-7.4c-0.2-1.6-1.2-0.5-0.2-3c0.9-2.5,0-3.9,0-3.9l-0.9,0.7
			C188.2,163.3,188.4,161.4,188.4,159.6z"/>
	</g>
</g>
</svg>
