<?xml version="1.0" encoding="utf-8"?>
<!-- Generator: Adobe Illustrator 20.1.0, SVG Export Plug-In . SVG Version: 6.00 Build 0)  -->
<!DOCTYPE svg PUBLIC "-//W3C//DTD SVG 1.1//EN" "http://www.w3.org/Graphics/SVG/1.1/DTD/svg11.dtd">
<svg version="1.1" id="Layer_2" xmlns="http://www.w3.org/2000/svg" xmlns:xlink="http://www.w3.org/1999/xlink" x="0px" y="0px"
	 viewBox="0 0 360 360" style="enable-background:new 0 0 360 360;" xml:space="preserve">
<style type="text/css">
	.st0{fill:none;}
</style>
<g>
	<path d="M332.7,140.9c-3.9-18.7-19.1-28.5-38.8-48.6c-19.6-20.1-59.3-28.5-70.7-29.5c-18.7-1.5-38.3,3.9-50,7.4
		c-11.8,3.4-26.5,13.3-31.4,20.6c-4.9,7.4-16.1,27.5-16.1,27.5s-6.4,10.3-9.4,13.7c-2.9,3.4-2,5.9-2.9,11.8
		c-1,5.9-8.4,27.5-11.3,32.5c-2.9,4.9-4.9,11.3-7.4,15.2s-2.9,9.9-0.5,12.3c2.5,2.5,3.5,3.8,10.3,8.9c5.8,4.4,3.9,3.4,5.8,8.8
		c0,0-3.3,8.2-3.8,9.6s0.5,3.9,0.5,3.9s-1,1.5-1,4.9c0,3.4-1.9,3.9,1,5.9c2.9,2,0-0.5,0,2.4s-0.5,2.5,0.5,8.8c1,6.4,1.4,8.3,0,12.3
		c-1.1,3.4-4.5,7.9-4,10.8c0.5,2.9-4.4,8.7-1.9,17.3c2.9,10.3,5,10.7,11.8,12.7c6.9,2,42.1,9.3,58.8,4.4c0,0,19.6-6.9,29-10.3
		c9.3-3.4,15.4-0.9,27.2-4.8c11.8-3.9,14.7-8.3,16.7-16.7s16.1-33.9,16.1-33.9c3.9-0.1,5,1.1,9.5,2.1c4.4,1,3.8,8,15.1,4.6
		c10.3-3.1,8.5-5.6,13.4-10.9c0.2-0.3,0.5-0.5,0.8-0.8c5.9-5.9,22.1-33.3,29.5-49C336.7,179.2,336.7,159.6,332.7,140.9z M188.8,260
		c-0.8,0.1-1.7,0.3-2.4,0.4c-0.7,0.1-1.2-0.1-1.9-0.6c0.7,0,1.2-0.2,1.5-0.5c1-1.3,0.7-7.3,0.7-7.3c0.5-1.1,3.1-1.6,5.1-1.9
		c0.5,2.1,0.9,5.1,0.1,6.4C191,257.8,189.7,259.2,188.8,260z M171.9,270.6l0-0.2c0,0,0.1,0,0.1-0.1c1.5-1.2,0.3-4.8,0.3-4.8
		s-0.6-4.8,0.9-3.6c1.5,1.2,1.8,1.2,2.7,1.2s2.7-0.3,2.7-0.3s1.4-0.7,2.5-0.9c-0.3,0.9,0,1.7,0.5,3.9c0.7,2.9-1,4.9-2,5.9
		c-1,1-3.3-0.3-4.9-0.7C173.9,270.9,172.9,270.6,171.9,270.6z M311.1,200c2.4,0,0,0,2-1.2c2-1.2,1.2,2.8,2.8,0s1.2-0.4-0.8,4.8
		c-1.6,4.1,0,5.7,1.6,4.7c-1.6,1.6-4.2,3.6-5.3,5.9c-1.6,3.1-10.1,11.7-13.2,14.8l-2.7,1.6c0,0-2.3,1.2-4.7-0.8s0,0,1.9-1.2
		s3.1-4.3,3.1-4.3l-2.3,0.3c1.9-3.1,3.2-7.7,3.5-10.6c3-2.4,6.8-5.8,8.8-9.2c-2.4,1.4-6.4,4-9.3,6.7c-4.4,4.1-10.4-2.8-8.6-3.5
		c1.8-0.7,0.8-1.5,0.6-4.1c-0.2-2.6-0.6-5.4-1.5-6.7c-0.9-1.4,3.8-2.1,5.6-5.9c1.2-2.5,1.8-5.3,2.4-7.4c-2-0.2-3.4-1.5-3.4-1.5
		s-2,2.4-3.2,2.4c-1.2,0-2,0.4-3.2,0c-1.2-0.4-2.8-0.4-2.8-0.4s-2.8,0.8-6.4,1.6c-3.6,0.8-0.8-5.2-4.8-0.8c-1.7,1.9-3,2.7-4.2,3.1
		c-0.1,0-0.1,0-0.2,0.1c-0.4,0.1-0.7,0.2-1.1,0.3c-0.2,0-0.4-0.1-0.7-0.1c0,0-3.5-0.8-3.1-1.9s1.2-3.9,1.2-3.9l2.6-6.3
		c0,0-1.4,0.5-3,0.1c-0.8-0.2-0.9-1-0.8-1.9c0.3,0.1,0.7,0.1,1-0.1c3.8-1.8,4.3-1.5,6.7-3.9s0,0,5.6-3.2c1.3-0.7,1.5-0.5,1.4-0.2
		c0.1-0.2,0.4-0.8,1-1.8c2.4-4-2.4,2,2-6.8s-2,1.6-1-3.1c1-4.7,1-0.5,1.4-2.9c0.4-2.4,2-0.4,1.6-5.2c-0.2-2,6.8,5.2,5.2,2.4
		c-1.6-2.8,5.2,2.4,8,7.6s0,0,0.8-6.8c0.3-2.3,1.6,0.8,3.2,6.4c1.6,5.6,0.4-1.2,0.8-7.2c0.4-6,2,2,2-0.8s1.6,2.4,2.8-2.8
		c0.7-3.2,4,5.2,6,12.1s2.8,23.7,2.8,23.7s-0.4,2.4,0.4,4s0,2.4-1.2,4c-1.2,1.6-1.6,3.6-1.6,3.6s-0.4,2.4-1.6,4
		C308.3,199.2,308.7,200,311.1,200z M264.1,188.3C264,188.3,264,188.3,264.1,188.3L264.1,188.3z M264.1,188.3c0.2,0,0.8,0.1,1,0.2
		C264.5,188.4,264.2,188.4,264.1,188.3z M156.3,311c-8.5,0.8-20.1-0.8-29.2-3.1l-8.6-2.6c0,0-3-4.6-4.2-7.6
		c-1.2-2.9-2.9-8.2-3.5-11.2c-0.2-1.1,0.1-2.7,0.5-4.4c0.8,1.3,2,3.4,2.3,5.1c0.5,2.7,2.7,4.6,4.6,6.4c1.8,1.8,0.5-7.3,0.5-7.3
		s1.4-4.1,0.5-7.8c-0.3-1.4-0.5-2.5-0.5-3.3c-0.1-0.2-0.3-0.4-0.3-0.5c-0.7-1,0.2-1.2-1.9-1.4c-2.1-0.2-2.6,0-3.6-0.7
		s-1.1-1-1.6-2.1c-0.5-1.2-0.3-2.6-0.3-2.6l0.1,0.1c0-0.6-0.1-1.3-0.2-2.2c-0.3-3,1.7-2,1-4.3c-0.2-0.6-0.4-1.7-0.5-3
		c-0.3-1.3-0.7-3.9-0.9-4.9c-0.2-1.4-0.6-3,0-3.6c0.1-0.1,0.3-0.2,0.4-0.3l0.1-0.4l0.2,0.2c0.5-0.2,1-0.2,1.8-0.2
		c1.2,0-0.4-1.6-0.2-2.2c0.2-0.6-1-1-2.3-2c-1.2-1-2.2-2.7-1.4-5.9c0.3-1.2,0.8-2.4,1.3-3.5c0.1-0.4,0.3-0.9,0.4-1.4
		c0.4-1,1.1-2.1,1.9-3.1c-0.2-0.9-0.1-1.5,0.1-2.2c1.3-1.7,3.7-5.1,4.9-8.8c1.8-5.3,0.6-10.6-5.9-12.4c-3.5-1-7.3-1.6-9.9-1.9
		c-3.9-1.1-6-3.6-5.2-6.3c0.8-2.7,2.8-5.5,4.3-8.5c0.1-0.2,0.1-0.5,0.3-0.8c1.7-4.3,11-29.3,12.8-36.2c0.8-3.4,2.5-8.5,3.9-12.7
		c-0.2,0.2-0.3,0.3-0.3,0.3s-1.7-3.4,2.2-7.3c1.3-1.3,2.7-3.2,4.1-5.4c1.8-1.2,4.1-2.7,6.3-4c5-2.8,1.7-9,19.6-27.5
		c2.7-2.7,5.2-5,7.5-6.8c11.8-12.5,26-13.8,38.2-16.8c12.2-3.1,38.9-1.7,49.8,0.9c10.9,2.6,21.4,4.8,31.4,14.4s26.1,20,38.4,33.1
		c2.3,2.5,4.3,5.5,6,9c-1.3-1.1-2.9-2.2-3.7-3.7c-0.7-1.3-3.4-3.6-6-5.8c0.6,0.2,0.4-0.4-2.1-2.9c-7.8-8.2-1.2-2.3-7.8-8.2
		s-10.1-7.8-11.7-8.6S279.5,99,274.4,99s-8.6,0-12.5,4.7s-3.9,3.5-11.3,9c-2.4,1.7-4.3,3.1-6,4.2c-3.5,5.6-8.1,14.3-6.7,20.8
		c0.3,1.6,0.3,2.5-0.1,3c0.4,1.4,0.9,2.9,1.6,4.4c0,0.1,0.1,0.2,0.1,0.3c0.6,3.5,1.6,7.8,3.2,9.7c3,3.6,8.6,7,9.3,8.3
		c0.7,1.3,1.3,2.7,1,5c-0.3,2.3-3.3,15.2-2.7,18.9c0.7,3.6-1.7,6.2,3.6,7.9c1,0.3,2.1,0.6,3.4,0.9c5.2,1.4,14.7,3.9,17.4,4.9
		c3.8,1.4,5.5,1,6.5,3.8s0.7,0.7,2.1,4.1s3.4,6.2,4.1,7.2c0.7,1,1,3.8-0.3,3.8c-0.2,0-0.3,0.1-0.4,0.1c-1.1,0.1-2.6,0.3-4.3,0.7
		c-1.1,0.2-2.1,0.4-2.9,0.5c0.7-1,1.6-2,2.4-2.5c1.6-1,1.3-1,0.3-2.2c-1.1-1.2-3.9,1.2-5.5,1.5s-7.9-2.6-11.2-3.6
		c-3.3-1-7.6,1.2-7.6,1.2c-3.5,1.2-5.1,1.2-7.8,1.9s-12.8,1.2-17.9,5.1s-17.5,4.3-20.2,3.5s-3.1-2.7-9.3,1.2s-6.6,6.6-6.6,6.6
		s4.1-6.3,8.9-3.1c0,0-2.2,3.1-4.7,6.2c-0.1,2.3-0.2,4.5-0.3,5.4c-0.4,2.4-0.8,1.6-1.6,3.6c-0.7,1.9-1.8,1.3-3.9,1.5
		c-0.3-0.5-0.7-0.8-1.2-1c-2.4-0.9-9.6,0.6-9.6,0.6l-0.9,2.1c0,0-0.3,2.1,0.2,3.2c-0.5,2.1-1.2,4.6-1.7,6c-0.1,0-0.2-0.1-0.3-0.1
		c0,0-2.1,0.6-3.3,0.3c-1.2-0.3-1.8-0.6-2.6-0.9c0.5-2.4,1.1-5.8,1.2-7.3c0-0.4,0.1-0.7,0.2-1c0.2-0.1,0.7-0.1,1.8,0
		c1.7,0.2,2.6,0.8,3.1,1.3l-0.2-2.7c-0.1,0-0.2,0-0.3,0c-1.6,0-4.8-2.2-6.6-3.6c-2,0.3-4.4,1.1-6.3,0.3c-0.7-0.3-1-0.8-1.1-1.4
		c-0.1,0-0.2,0-0.3,0l-0.9,6.1c0.2,0.5,0.4,0.6,1.4-0.6c1.7-2.3,2.2-2,4.2-1.6c1.3,0.2,2.1,0.6,2.9,1.1c0.1,1.4,0.3,4.3-0.6,6.5
		c-1.2,3-2.5,3.2-3.8,3.6c-1.3,0.4-2.8-0.9-4.5-1.1c-1.7-0.2-0.9,0.4,1.1,1.5c1.7,0.9,2.7,1.7,4.3,1.9c0,0.3,0,1.8,0.1,3.5
		c-0.3,0.9-0.8,2-1.5,3.3c-1.1,1.9-1.9,3.8-2.3,5c-1.1,0.2-2.5,0.3-3.7,0.4c0.9,0.8,2.3,2,3.8,1.7c1.4-0.2,3.2-0.2,4.2-0.1
		c1.3-0.8,2.3-1.4,3-1.6c1.7-0.5,1.7-0.5,1.7-0.5s7.3,2.8,9.5,1.9c0.6-0.3,1.3-0.4,2.2-0.5c-0.7-0.3-1.3-0.8-1.9-1.2
		c-3.2-2.1-2.1-5.3-3.2-8.1c-0.3-0.9-0.6-1.7-0.8-2.4c0.1,0,0.2,0,0.3,0c0.9,0.3,3.3,2.7,5.4,2.4c1.3-0.2,2.2-1.4,2.8-2.3
		c0.2,0.2,0.4,0.5,0.4,0.8c0.4,1.4,0.7,2.5-0.4,4.6c-1.1,2.1,0.4,4.2-0.7,5.7c0,0,0,0-0.1,0.1c2.2-0.5,4.9-1.6,8.1-4.8
		c5.7-5.7,7.9-7.6,9.3-11.7c1.4-4,0,9.8-2.9,13.6s-7.6,9.3-11.7,11.4c-2.9,1.5-6.2,6.4-8.8,11c-0.9,2.8-1.8,5.4-2.6,7.3
		c-1.1,2.6-2.2,4.4-3.4,5.9C170,308.2,162.2,310.4,156.3,311z"/>
	<path d="M150.7,181.4c-2.2,3-3.9,6.5-7.3,13.8c-2,4.3-2.1,6.7-1.4,8.4c-0.3,1.6-0.8,4.8,0,7.6c1.1,3.9,5.6,5,6.7,2.2
		c1.1-2.8,1.5-4.5,1.5-4.5c3-1.7,3-4.3,6-4.7c3-0.4,5.6,0.9,5.6,0.9c-1.9-0.7-6.4,2.7-7.5,6.6c-1.1,3.9,1.1,6.2,3.4,6.7
		c2.2,0.6,9.5,0.6,11.8-2.2c1.4-1.8,3.1-5.3,3.4-9.6c1.3-3.8,1-8.2,0.2-10.6c-1.3-3.4-4.3-12-4.7-15.1c-0.2-1.3-0.4-3.1-0.5-4.8
		c-1.2-0.4-2.8-1-3.8-1.2c-1.7-0.4-4.7-0.9-4.7-0.9C155,175.4,152.9,178.4,150.7,181.4z"/>
	<path class="st0" d="M180.8,299.9c0.8-1.9,1.7-4.5,2.6-7.3c2.7-4.6,5.9-9.5,8.8-11c4-2.1,8.8-7.6,11.7-11.4s4.3-17.6,2.9-13.6
		c-1.4,4-3.6,6-9.3,11.7c-3.2,3.2-5.9,4.3-8.1,4.8c0,0,0,0,0.1-0.1c1.1-1.4-0.4-3.5,0.7-5.7c1.1-2.1,0.7-3.2,0.4-4.6
		c-0.1-0.3-0.2-0.6-0.4-0.8c-0.5,0.9-1.5,2.1-2.8,2.3c-2.1,0.3-4.5-2.1-5.4-2.4c-0.1,0-0.2,0-0.3,0c0.2,0.7,0.5,1.5,0.8,2.4
		c1.1,2.8,0,6,3.2,8.1c0.6,0.4,1.3,0.9,1.9,1.2c-0.9,0.1-1.6,0.3-2.2,0.5c-2.2,0.9-9.5-1.9-9.5-1.9s0,0-1.7,0.5
		c-0.7,0.2-1.7,0.8-3,1.6c-1.1-0.1-2.8-0.1-4.2,0.1c-1.5,0.2-2.9-0.9-3.8-1.7c1.3-0.1,2.6-0.2,3.7-0.4c0.4-1.1,1.2-3.1,2.3-5
		c0.7-1.3,1.2-2.5,1.5-3.3c-0.1-1.7-0.1-3.2-0.1-3.5c-1.6-0.2-2.7-1-4.3-1.9c-1.9-1.1-2.8-1.7-1.1-1.5c1.7,0.2,3.2,1.5,4.5,1.1
		c1.3-0.4,2.6-0.6,3.8-3.6c0.9-2.2,0.8-5.1,0.6-6.5c-0.8-0.5-1.6-0.9-2.9-1.1c-2-0.3-2.4-0.7-4.2,1.6c-1,1.3-1.2,1.1-1.4,0.6
		l0.9-6.1c0.1,0,0.2,0,0.3,0c0,0.6,0.3,1.1,1.1,1.4c1.9,0.8,4.3,0,6.3-0.3c1.9,1.4,5,3.6,6.6,3.6c0.1,0,0.2,0,0.3,0l0.2,2.7
		c-0.5-0.5-1.4-1.1-3.1-1.3c-1.1-0.1-1.5-0.1-1.8,0c-0.1,0.3-0.2,0.6-0.2,1c-0.1,1.5-0.8,4.9-1.2,7.3c0.9,0.3,1.5,0.6,2.6,0.9
		c1.2,0.3,3.3-0.3,3.3-0.3c0.1,0,0.2,0.1,0.3,0.1c0.4-1.4,1.2-3.9,1.7-6c-0.5-1.1-0.2-3.2-0.2-3.2l0.9-2.1c0,0,7.2-1.5,9.6-0.6
		c0.5,0.2,0.9,0.5,1.2,1c2.1-0.2,3.2,0.3,3.9-1.5c0.8-2,1.2-1.2,1.6-3.6c0.2-1,0.3-3.1,0.3-5.4c2.5-3.1,4.7-6.2,4.7-6.2
		c-4.7-3.1-8.9,3.1-8.9,3.1s0.4-2.7,6.6-6.6s6.6-1.9,9.3-1.2s15.2,0.4,20.2-3.5s15.2-4.3,17.9-5.1s4.3-0.8,7.8-1.9
		c0,0,4.3-2.2,7.6-1.2c3.3,1,9.6,4,11.2,3.6s4.5-2.7,5.5-1.5c1.1,1.2,1.4,1.2-0.3,2.2c-0.8,0.5-1.7,1.4-2.4,2.5
		c0.8-0.1,1.7-0.2,2.9-0.5c1.7-0.3,3.2-0.5,4.3-0.7c0.1-0.1,0.2-0.1,0.4-0.1c1.4,0,1-2.7,0.3-3.8c-0.7-1-2.7-3.8-4.1-7.2
		s-1-1.4-2.1-4.1s-2.7-2.4-6.5-3.8c-2.7-1-12.2-3.5-17.4-4.9c-1.3-0.3-2.5-0.6-3.4-0.9c-5.3-1.7-3-4.3-3.6-7.9
		c-0.7-3.6,2.3-16.6,2.7-18.9c0.3-2.3-0.3-3.6-1-5c-0.7-1.3-6.3-4.6-9.3-8.3c-1.6-2-2.6-6.2-3.2-9.7c0-0.1-0.1-0.2-0.1-0.3
		c-0.7-1.5-1.3-3-1.6-4.4c0.4-0.5,0.4-1.4,0.1-3c-1.4-6.5,3.2-15.1,6.7-20.8c1.6-1.1,3.6-2.4,6-4.2c7.4-5.4,7.4-4.3,11.3-9
		s7.4-4.7,12.5-4.7s14,1.9,15.6,2.7s5.1,2.7,11.7,8.6s0,0,7.8,8.2c2.5,2.6,2.7,3.1,2.1,2.9c2.7,2.2,5.3,4.5,6,5.8
		c0.9,1.5,2.4,2.7,3.7,3.7c-1.7-3.4-3.7-6.5-6-9c-12.2-13.1-28.3-23.5-38.4-33.1s-20.5-11.8-31.4-14.4c-10.9-2.6-37.6-3.9-49.8-0.9
		c-12.2,3-26.4,4.4-38.2,16.8c-2.4,1.8-4.9,4.1-7.5,6.8c-18,18.5-14.6,24.7-19.6,27.5c-2.2,1.2-4.5,2.7-6.3,4
		c-1.4,2.1-2.8,4.1-4.1,5.4c-3.9,3.9-2.2,7.3-2.2,7.3s0.1-0.1,0.3-0.3c-1.5,4.3-3.1,9.3-3.9,12.7c-1.7,6.9-11.1,32-12.8,36.2
		c-0.1,0.3-0.2,0.6-0.3,0.8c-1.5,3-3.6,5.8-4.3,8.5c-0.8,2.7,1.3,5.2,5.2,6.3c2.6,0.4,6.4,1,9.9,1.9c6.5,1.8,7.7,7.1,5.9,12.4
		c-1.2,3.7-3.6,7.1-4.9,8.8c-0.2,0.7-0.3,1.3-0.1,2.2c-0.8,1.1-1.5,2.1-1.9,3.1c-0.2,0.5-0.3,0.9-0.4,1.4c-0.5,1-1,2.2-1.3,3.5
		c-0.8,3.3,0.2,4.9,1.4,5.9c1.2,1,2.5,1.4,2.3,2c-0.2,0.6,1.4,2.2,0.2,2.2c-0.7,0-1.3,0.1-1.8,0.2l-0.2-0.2l-0.1,0.4
		c-0.2,0.1-0.3,0.2-0.4,0.3c-0.6,0.6-0.3,2.1,0,3.6c0.1,1,0.6,3.6,0.9,4.9c0.2,1.3,0.3,2.4,0.5,3c0.7,2.3-1.3,1.3-1,4.3
		c0.1,0.9,0.1,1.6,0.2,2.2l-0.1-0.1c0,0-0.2,1.4,0.3,2.6c0.5,1.2,0.7,1.4,1.6,2.1s1.4,0.5,3.6,0.7c2.1,0.2,1.2,0.5,1.9,1.4
		c0.1,0.1,0.2,0.3,0.3,0.5c0.1,0.9,0.2,2,0.5,3.3c0.9,3.7-0.5,7.8-0.5,7.8s1.4,9.2-0.5,7.3c-1.8-1.8-4.1-3.7-4.6-6.4
		c-0.3-1.7-1.5-3.8-2.3-5.1c-0.4,1.7-0.7,3.3-0.5,4.4c0.6,2.9,2.4,8.2,3.5,11.2c1.2,2.9,4.2,7.6,4.2,7.6l8.6,2.6
		c9.2,2.3,20.8,4,29.2,3.1c5.9-0.6,13.7-2.9,21.1-5.2C178.6,304.4,179.7,302.5,180.8,299.9z M151.9,243.9c-0.8,2.1-2.6,5.5-2.6,4
		c0-1.6,0.5-8.4,0.5-8.4s2.4,0.5,3.4,0.3c1.1-0.3,2.1,0.3,2.1,0.3S152.7,241.7,151.9,243.9z M116.4,250.6c-0.2-1-0.2-1-0.2-1
		s-1.8-2.2,0.2-1.8c2,0.4,4.1,1.6,4.7,1.6c0.3,0,1-0.1,1.5-0.1c0.5,0.6,1.4,1,2.8,1.3c1.2,0.2,2.4,0.4,3.4,0.4
		c-0.7,1.9-2.2,3-3.4,2.6c-0.8-0.3-2.1,0.3-3.1,0.9l-0.4-2.4c0,0-1-0.4-2.7-0.4C117.7,251.6,116.6,251.6,116.4,250.6z M128.9,235.7
		l-0.2,0.6c0.1,0,0.3-0.1,0.4-0.1c-0.9,1.9-1.7,4-2.2,5.6l-0.3-0.1c0-0.6-0.1-3.1-0.1-5.1c0,0,0,0,0.1,0c0-0.4,0.1-0.7,0.2-1
		C127.2,234.6,128.9,235.7,128.9,235.7z M133.1,254.3c1-0.3,3,0.7,2.3,2.9c-0.7,2.3-1.6,8.2-1.6,8.2s0.6,1.3,1.9,2
		c0.6,0.3,1.3,0.1,2.1-0.1c-0.5,0.5-1,0.8-1.6,0.7c-1.3-0.3-3-1-4.3-1C130.6,267,132.7,257.9,133.1,254.3z M138.4,242
		c0.1-1.6,0.2-3.4,0.2-5.1c0.5-0.1,1.3-0.1,2.3-0.1C140.1,238.3,139.1,240.3,138.4,242z M127.6,268.3c-1.3-0.3-2.3-1-3.7-2.3
		c-1.3-1.3-2.3-2.7-2.3-2.7l-0.6-0.6c-0.2-1.6-0.4-3.2-0.5-4.1c0.5-0.2,0.9-0.4,1.2-0.4l0.2,0.9c1.3,2.5,0.9,4.6,4,4.9
		c0.7,0.1,1.6,0.2,2.4,0c0.1,1.5,0.8,4.1,1.6,6.6c-0.6-0.2-1.4-0.4-2.3-0.6C128,269.2,128.1,268.5,127.6,268.3z M147.1,256.8
		c-1.3,0.8-3.6,4.5-3.6,4.5s0.3-2.4,0.5-3.7c0.3-1.3-2.8-2.4-1.5-2.1c1.3,0.3,4.4-1.8,4.7-2.6C147.2,252.9,148.4,256,147.1,256.8z
		 M235.6,181.9c-0.3,1.8-2,5.3-3.6,8.3c-1.3,0.8-2.4,1.3-3.4,1.7c-1.8,0.7-17.5,4.3-25.9,5.1c-0.8-0.5-1.6-1.1-2.5-1.6
		c-1.2-0.4-2.5-1-4-1.7c-5.6-2.6-10.5-7.5-14.1-11.2c-3.6-3.6-4.9-6.6-5.9-9.2c-1-2.6,1.6-10.5,1.6-10.5s1-1.6,2,0
		c0.7,1.2,1.5,2.3,1.8,3.4c-0.2,4.6-0.3,11.3-0.1,12c0.3,1.2,4.3,4,8.6,7c4.2,3,9.3,1.5,11.1,1.2s-4.3-6.4-5.8-8.2s-3.3-3.9-5.7-5.7
		c-0.9-0.7-0.6,2.1-1.5,0.6c-0.8-1.4-1.9-4.1-1.6-11.9c1.2-4.2,2.2-7.3,2.2-7.3s0,2.2,1.7,5.6c1.7,3.4-1.1,1.1,1.7,3.4
		c3.4-6.7,2.2-9,1.7-11.2c-0.6-2.2,1.1-3.4-0.6-6.2c-0.4-0.6-0.6-1-0.8-1.4c0.3-1,0.7-1.8,1.1-2.5c0.6-0.3,1.3-0.7,2.1-0.9
		c2.3-0.6,1.3-0.8,0-1.1c0.7-0.4,1.5-0.5,2.5-0.5c3.2,0,14.1,2.5,18.8,3.6c2.7,1.3,5,2.6,6.2,3.5c4.1,3.3,8.8,2.3,11.6,18.2
		c0.8,4.4,1.5,6.5,2,7.2C236.4,175.5,236,179.8,235.6,181.9z M159.3,174.1c0,0,3,0.4,4.7,0.9c1,0.3,2.6,0.8,3.8,1.2
		c0.2,1.7,0.3,3.5,0.5,4.8c0.4,3,3.4,11.6,4.7,15.1c0.9,2.4,1.2,6.8-0.2,10.6c-0.3,4.3-1.9,7.8-3.4,9.6c-2.2,2.8-9.5,2.8-11.8,2.2
		c-2.2-0.6-4.5-2.8-3.4-6.7c1.1-3.9,5.6-7.3,7.5-6.6c0,0-2.6-1.3-5.6-0.9c-3,0.4-3,3-6,4.7c0,0-0.4,1.6-1.5,4.5
		c-1.1,2.8-5.6,1.7-6.7-2.2c-0.8-2.8-0.4-6,0-7.6c-0.7-1.7-0.7-4,1.4-8.4c3.4-7.3,5.2-10.8,7.3-13.8
		C152.9,178.4,155,175.4,159.3,174.1z M161.7,266.6c-1,1.5-0.3,1.5-0.8,3.5c-0.2,0.9-1.3,1.4-2.5,1.7c-0.2,0.5-0.5,1.1-1.2,1.2
		c-0.5,0.1-1.1,0-1.5-0.1c0.2,0.1,0.4,0.2,0.7,0.3c-1.3,0.4-2.7,0.8-3.4,0.6c-1.7-0.3-3.7-2.7-3.7-2.7s-0.6-0.9-1.3-1.9
		c0.4-2.8,2,0,3.6,0.3c1.6,0.3,1,1.3,2.6,2.3c0.3,0.2,0.6,0.3,0.8,0.5c0-0.1,0.1-0.1,0.2-0.1l1.9-4.3c0.8-2.3,1.5-5.4,1.5-4.6
		c0,0.2,0,0.6,0,1.2l0.1-0.2c0,0,1.8-3,2.5-4.8c0.8-1.8,2.3,0.8,2.3,0.8S162.7,265.1,161.7,266.6z M115.7,186.1
		c-1.2-0.6-2.5-6.2-1.2-9.7c1.2-3.4,2.2-8.7,2.2-8.7l0.6,5c0,0,0.6,2.2,0.9,3.1c0.3,0.9-0.3,1.2,0.3,2.2s2.2-1.6,2.5,0.3
		c0.3,1.9-0.3,1.9,0.3,2.8c0.6,0.9,0.6,1.9,3.1,1.9c0.9,0,2.2,0,3.4,0.1c0.5-0.6,1.1-1.3,2.1-2.3c5.2-5.2,2.9-3.4,4.6-6.9
		c1.7-3.4,1.7-2.9,0-6.3c-1.7-3.4-7.5-2.9-10.9-3.4c-3.4-0.6-5.2-2.3-6.9-2.9c0.7,0.2,1.9-8.9,4-17.2c2-8.1,13.8-12.4,21.2-14.1
		c1.1-0.2,2.3-0.3,3.5-0.5c-0.1-1.1-0.6-2-2-2c-3.4,0-3.1,2.9-2.5-0.5c0.6-3.4-4.5-2.2,0.6-3.4c0.8-0.2,1.4-0.3,2-0.4
		c3.8,0.6,3.8,0.8,4.7,1.7c0.8,0.8,1.3,1.4,1,2.5c-0.2,0.9-0.8,1.4-0.1,1.9c1.7-0.1,5.4,0,7.3,1.9c2,2,6.9,13.3,8.3,20.8
		c0.7,3,0.7,5.2,0.3,7c-0.1,0.2-0.3,0.3-0.4,0.5c-0.3,1.8-0.4,2.5-1.2,3.7c0,0.1,0,0.3,0,0.4c-1,2-3.1,4.4-4.7,6.2
		c-1.5,0.9-15.1,12.3-18.7,14.2c-1.8,1-4.6,1.4-7,1.7c-2.4,1-5.1,1.2-8.3,1.1C120.8,186.8,116.5,186.5,115.7,186.1z"/>
	<path d="M222.9,146.2c-1.2-0.9-3.5-2.2-6.2-3.5c-4.7-1.1-15.6-3.6-18.8-3.6c-1,0-1.8,0.2-2.5,0.5c1.3,0.3,2.3,0.5,0,1.1
		c-0.8,0.2-1.5,0.5-2.1,0.9c-0.4,0.7-0.8,1.6-1.1,2.5c0.2,0.4,0.5,0.8,0.8,1.4c1.7,2.8,0,3.9,0.6,6.2c0.6,2.2,1.7,4.5-1.7,11.2
		c-2.8-2.2,0,0-1.7-3.4c-1.7-3.4-1.7-5.6-1.7-5.6s-1,3.1-2.2,7.3c-0.3,7.8,0.8,10.5,1.6,11.9c0.9,1.5,0.6-1.3,1.5-0.6
		c2.4,1.8,4.2,3.9,5.7,5.7s7.7,7.9,5.8,8.2s-6.9,1.8-11.1-1.2c-4.2-3-8.3-5.8-8.6-7c-0.2-0.8,0-7.4,0.1-12c-0.3-1.1-1.1-2.2-1.8-3.4
		c-1-1.6-2,0-2,0s-2.6,7.9-1.6,10.5c1,2.6,2.3,5.6,5.9,9.2c3.6,3.6,8.5,8.5,14.1,11.2c1.5,0.7,2.8,1.3,4,1.7
		c0.8,0.6,1.7,1.1,2.5,1.6c8.4-0.8,24.1-4.4,25.9-5.1c1-0.4,2.2-0.9,3.4-1.7c1.6-3,3.3-6.4,3.6-8.3c0.4-2.1,0.8-6.4,1-10.4
		c-0.5-0.7-1.2-2.8-2-7.2C231.7,148.6,227.1,149.5,222.9,146.2z"/>
	<path d="M132,267c1.3,0,3,0.7,4.3,1c0.6,0.1,1.1-0.2,1.6-0.7c-0.7,0.2-1.5,0.4-2.1,0.1c-1.3-0.7-1.9-2-1.9-2s1-5.9,1.6-8.2
		c0.7-2.3-1.3-3.3-2.3-2.9C132.7,257.9,130.6,267,132,267z"/>
	<path d="M129.9,270.7c-0.7-2.5-1.4-5.1-1.6-6.6c-0.9,0.1-1.7,0-2.4,0c-3.1-0.3-2.6-2.5-4-4.9l-0.2-0.9c-0.3,0.1-0.7,0.2-1.2,0.4
		c0.1,0.9,0.3,2.6,0.5,4.1l0.6,0.6c0,0,1,1.3,2.3,2.7c1.3,1.3,2.3,2,3.7,2.3c0.5,0.1,0.3,0.9-0.1,1.8
		C128.4,270.3,129.3,270.6,129.9,270.7z"/>
	<path d="M138.6,236.9c0,1.7-0.1,3.5-0.2,5.1c0.7-1.7,1.7-3.7,2.5-5.2C140,236.8,139.1,236.9,138.6,236.9z"/>
	<path d="M126.5,236.7c0.1,2,0.1,4.5,0.1,5.1l0.3,0.1c0.5-1.6,1.4-3.7,2.2-5.6c-0.1,0-0.3,0.1-0.4,0.1l0.2-0.6c0,0-1.7-1.1-2.2,0
		C126.6,236,126.6,236.4,126.5,236.7C126.6,236.7,126.5,236.7,126.5,236.7z"/>
	<path d="M119.3,251.6c1.6,0,2.7,0.4,2.7,0.4l0.4,2.4c1-0.6,2.3-1.2,3.1-0.9c1.2,0.4,2.7-0.6,3.4-2.6c-1-0.1-2.2-0.2-3.4-0.4
		c-1.4-0.3-2.2-0.7-2.8-1.3c-0.6,0.1-1.2,0.1-1.5,0.1c-0.6,0-2.6-1.2-4.7-1.6c-2-0.4-0.2,1.8-0.2,1.8s0,0,0.2,1
		C116.6,251.6,117.7,251.6,119.3,251.6z"/>
	<path class="st0" d="M311.1,193.6c0,0,0.4-2,1.6-3.6c1.2-1.6,2-2.4,1.2-4s-0.4-4-0.4-4s-0.8-16.9-2.8-23.7s-5.3-15.2-6-12.1
		c-1.2,5.2-2.8,0-2.8,2.8s-1.6-5.2-2,0.8c-0.4,6,0.8,12.9-0.8,7.2c-1.6-5.6-2.9-8.8-3.2-6.4c-0.8,6.8,2,12.1-0.8,6.8
		s-9.7-10.5-8-7.6c1.6,2.8-5.4-4.5-5.2-2.4c0.4,4.8-1.2,2.8-1.6,5.2c-0.4,2.4-0.3-1.8-1.4,2.9c-1,4.7,5.4-5.7,1,3.1s0.4,2.8-2,6.8
		c-0.6,1-0.9,1.5-1,1.8c0,0.2-0.1,0.3,0,0c0-0.2-0.2-0.5-1.4,0.2c-5.6,3.2-3.2,0.8-5.6,3.2s-2.9,2.1-6.7,3.9c-0.4,0.2-0.7,0.2-1,0.1
		c-0.1,0.8,0,1.7,0.8,1.9c1.6,0.4,3-0.1,3-0.1l-2.6,6.3c0,0-0.8,2.7-1.2,3.9s3.1,1.9,3.1,1.9c0.3,0.1,0.6,0.1,0.7,0.1
		c0.4-0.1,0.7-0.1,1.1-0.3c0.1,0,0.1,0,0.2-0.1c1.2-0.4,2.5-1.3,4.2-3.1c4-4.4,1.2,1.6,4.8,0.8c3.6-0.8,6.4-1.6,6.4-1.6
		s1.6,0,2.8,0.4c1.2,0.4,2,0,3.2,0c1.2,0,3.2-2.4,3.2-2.4s1.3,1.3,3.4,1.5c-0.7,2.1-1.3,4.9-2.4,7.4c-1.8,3.8-6.5,4.5-5.6,5.9
		c0.9,1.4,1.4,4.2,1.5,6.7c0.2,2.6,1.2,3.4-0.6,4.1c-1.8,0.7,4.1,7.6,8.6,3.5c2.9-2.7,6.9-5.3,9.3-6.7c-2,3.4-5.8,6.9-8.8,9.2
		c-0.4,2.9-1.7,7.5-3.5,10.6l2.3-0.3c0,0-1.2,3.1-3.1,4.3s-4.3-0.8-1.9,1.2s4.7,0.8,4.7,0.8l2.7-1.6c3.1-3.1,11.7-11.7,13.2-14.8
		c1.1-2.3,3.7-4.3,5.3-5.9c-1.6,1-3.2-0.6-1.6-4.7c2-5.2,2.4-7.6,0.8-4.8s-0.8-1.2-2.8,0c-2,1.2,0.4,1.2-2,1.2
		c-2.4,0-2.8-0.8-1.6-2.4C310.7,196,311.1,193.6,311.1,193.6z"/>
	<path class="st0" d="M179.6,271.7c1-1,2.6-2.9,2-5.9c-0.5-2.2-0.8-3-0.5-3.9c-1.1,0.2-2.5,0.9-2.5,0.9s-1.8,0.3-2.7,0.3
		s-1.2,0-2.7-1.2c-1.5-1.2-0.9,3.6-0.9,3.6s1.2,3.6-0.3,4.8c0,0-0.1,0-0.1,0.1l0,0.2c0.9,0,1.9,0.3,2.8,0.4
		C176.3,271.3,178.6,272.7,179.6,271.7z"/>
	<path class="st0" d="M191.9,250.1c-2,0.3-4.6,0.8-5.1,1.9c0,0,0.3,6.1-0.7,7.3c-0.3,0.4-0.9,0.5-1.5,0.5c0.7,0.4,1.3,0.7,1.9,0.6
		c0.7-0.1,1.6-0.3,2.4-0.4c0.8-0.8,2.2-2.2,3.1-3.6C192.8,255.2,192.3,252.2,191.9,250.1z"/>
	<path d="M153.2,239.6c-1.1,0.3-3.4-0.3-3.4-0.3s-0.5,6.9-0.5,8.4c0,1.6,1.8-1.8,2.6-4c0.8-2.1,3.4-4,3.4-4S154.3,239.4,153.2,239.6
		z"/>
	<path d="M142.5,255.5c-1.3-0.3,1.8,0.8,1.5,2.1c-0.3,1.3-0.5,3.7-0.5,3.7s2.3-3.7,3.6-4.5c1.3-0.8,0.1-3.9,0.1-3.9
		C146.9,253.7,143.8,255.7,142.5,255.5z"/>
	<path d="M276.7,167.2C276.6,167.5,276.7,167.4,276.7,167.2L276.7,167.2z"/>
	<path d="M124.8,186.7c3.1,0.1,5.8-0.1,8.3-1.1c2.4-0.3,5.2-0.7,7-1.7c3.5-1.9,17.1-13.3,18.7-14.2c1.7-1.8,3.7-4.2,4.7-6.2
		c0-0.1,0-0.3,0-0.4c0.8-1.1,0.9-1.9,1.2-3.7c0.2-0.1,0.3-0.3,0.4-0.5c0.3-1.8,0.4-4-0.3-7c-1.4-7.5-6.3-18.9-8.3-20.8
		c-1.9-1.9-5.6-2-7.3-1.9c-0.8-0.5-0.2-1,0.1-1.9c0.3-1.1-0.2-1.7-1-2.5c-0.8-0.8-0.8-1.1-4.7-1.7c-0.6,0.1-1.2,0.3-2,0.4
		c-5,1.1,0,0-0.6,3.4c-0.6,3.4-0.9,0.5,2.5,0.5c1.4,0,1.9,0.9,2,2c-1.2,0.2-2.3,0.3-3.5,0.5c-7.5,1.7-19.2,6-21.2,14.1
		c-2.1,8.4-3.3,17.5-4,17.2c1.7,0.6,3.4,2.3,6.9,2.9c3.4,0.6,9.2,0,10.9,3.4c1.7,3.4,1.7,2.9,0,6.3c-1.7,3.4,0.6,1.7-4.6,6.9
		c-1,1-1.6,1.7-2.1,2.3c-1.2-0.1-2.5-0.1-3.4-0.1c-2.5,0-2.5-0.9-3.1-1.9c-0.6-0.9,0-0.9-0.3-2.8c-0.3-1.9-1.9,0.6-2.5-0.3
		s0-1.2-0.3-2.2c-0.3-0.9-0.9-3.1-0.9-3.1l-0.6-5c0,0-0.9,5.3-2.2,8.7c-1.2,3.4,0,9,1.2,9.7C116.5,186.5,120.8,186.8,124.8,186.7z"
		/>
	<path d="M161.2,259.8c-0.8,1.8-2.5,4.8-2.5,4.8l-0.1,0.2c0-0.6,0-1,0-1.2c0-0.8-0.7,2.3-1.5,4.6l-1.9,4.3c-0.1,0-0.2,0.1-0.2,0.1
		c-0.3-0.2-0.5-0.4-0.8-0.5c-1.6-1-1-2-2.6-2.3c-1.6-0.3-3.2-3.1-3.6-0.3c0.7,1,1.3,1.9,1.3,1.9s2,2.3,3.7,2.7
		c0.7,0.1,2.1-0.2,3.4-0.6c-0.2-0.1-0.4-0.2-0.7-0.3c0.4,0.1,1,0.2,1.5,0.1c0.7-0.1,1.1-0.7,1.2-1.2c1.2-0.3,2.3-0.9,2.5-1.7
		c0.5-2-0.3-2,0.8-3.5c1-1.5,1.8-6,1.8-6S161.9,258,161.2,259.8z"/>
</g>
</svg>
