<?xml version="1.0" encoding="utf-8"?>
<!-- Generator: Adobe Illustrator 20.1.0, SVG Export Plug-In . SVG Version: 6.00 Build 0)  -->
<!DOCTYPE svg PUBLIC "-//W3C//DTD SVG 1.1//EN" "http://www.w3.org/Graphics/SVG/1.1/DTD/svg11.dtd">
<svg version="1.1" id="Layer_2" xmlns="http://www.w3.org/2000/svg" xmlns:xlink="http://www.w3.org/1999/xlink" x="0px" y="0px"
	 viewBox="0 0 360 360" style="enable-background:new 0 0 360 360;" xml:space="preserve">
<style type="text/css">
	.st0{fill:none;}
	.st1{fill:#FFFFFF;}
</style>
<g>
	<polygon points="123.4,135.4 123.4,135.4 123.4,135.4 	"/>
	<polygon points="123.3,135.4 123.3,135.4 123.3,135.4 	"/>
	<path d="M123.4,135.4L123.4,135.4C123.4,135.5,123.4,135.4,123.4,135.4z"/>
	<path d="M123.2,135.3C123.2,135.3,123.2,135.3,123.2,135.3C123.2,135.3,123.2,135.3,123.2,135.3L123.2,135.3z"/>
	<path d="M276.8,181.2c15.7-18.4,19-25.5,15.7-28.2c-3.7-3.1-26.2,0.7-46.5,5.4c1.4-2.4,3.2-5.4,5.9-9.5
		c11.9-18.4,11-20.6,15.3-30.2c1.6-3.7,5.2-15.4,6.8-23.6s-14.4-1-32.8,9.3c-5.3,2.9-9.6,5.8-13.6,8.6c-1.2-11.2-4.5-23.7-6.9-30.8
		c-0.6-1.7-2.1-7.6-14.6,6.9c-9.8,11.5-14.5,23.5-16,28.2c-2.9-13.4-6.2-25.5-7.4-29.3c-2.5-8-13.7-29.2-17.3-26.1
		c-3.5,3.1-5.5,6.6-12.1,23.9c-2.7,7.2-3.9,15.9-4.3,23.6c-1.7-1.8-3.5-3.7-5.2-5.4c-10.2-10.5-21.9-16.8-29.5-18.7
		c-4.3-1.1-7.4-2.1-8,1.7c-1.2,6.8,3.2,18.8,0.9,18.8c-1.6,0-8.9-5.8-10.5-3.1c-0.7,1.2,0,6.3,1.4,10.8c2.1,6.9,3.6,10.8,4.8,13.5
		c-13.9-6-31.5-11.5-35.5-11.2c-5.9,0.5,0,5.5,8.2,23.8s18.2,29.5,18.2,29.5s3.9,1.1-11,0.5c-20.8-0.9-28.2,2.5-28.2,2.5
		s4.6,9.6,29.7,30.7c18.6,15.6,29.5,19.2,38.5,20.9c-2.3,3.3-3.7,7.6-4.1,12.1c-0.8,8.5,3.1,19.4,5.4,26.2
		c2.4,6.9,20.6,1.3,39.2-5.1c14.1-4.8,21.1-15.9,24.9-23.7c1.6,1.3,3.2,2.5,4.7,3.3c9.2,5,23.3,9.6,40.2,10.5
		c24.8,1.3,42.3-5,42-10.2c-0.4-8.4-7.5-12.8-16.4-19.9c-3.5-2.8-9.4-5.9-16.8-8.3C255.1,201.6,267.5,192.1,276.8,181.2z
		 M154.7,151.4c9.1,0.9,19.6,7.8,24.2,13.7c4.6,5.9,5.9,8.7,9.1,20.1c2.3,8.4,0.4,19.6-0.9,14.6c-1.2-4.7,0.9-3.6-2.7-10.9
		c-1.4-2.7-1.5-3.4-1.3-3.5c-0.3-0.3-0.8-0.8-1.5-1.5c-4.6-5-6.8-9.6-4.6-5c2.3,4.6,4.6,10.5,1.8,7.8s-3.2-3.2-5.5-3.6
		c-2.3-0.5-3.6-1.4-5-1.8c-1.4-0.5-3.6-1.4-3.6-1.4l-3.6-2.3c0,0-5.5-3.2-4.6-0.9s1.4,4.1,1.4,4.1c-1.4,3.6-1.4,3.6-1.4,3.6
		l0.5,10.9c0,0-4.1,1.8-10-8.2s-6.8-20.1-4.6-27.4C144.7,152.3,145.6,150.5,154.7,151.4z M104.6,121c-1.7-5-3.7-9.5-2.9-12.4
		c0.8-2.9,14.5,8.3,17.8,12.9c3.3,4.6,8.7,13.7,8.7,13.7l-4.1,0.8l-0.7-0.5c0,0,0,0,0,0c0,0,0,0-0.1,0c0,0-0.1-0.1-0.1-0.1
		c-0.1-0.1-0.2-0.1-0.3-0.2c-1.2-0.8,0,0,1.2,5c1.2,5,0.4,2.1,1.2,7.5c0.8,5.4,0,0,1.7,7c1.7,7,0,0,0.4,2.5s-2.1-4.1-2.1-2.1
		c0,2.1-2.5-5-2.5-0.8c0,4.1,0,0,3.7,8.7c3.7,8.7,7.9,14.5,7.9,14.5s-5.4-5-9.9-11.2c-4.6-6.2-7.9-13.7-11.2-20.7
		C110,138.4,106.3,126,104.6,121z M99,203c0,0-23.1-13.5-30.5-19.9c-7.4-6.4-9.3-8-6.7-8.3c2.6-0.3,18.3-3.2,28.2,1s4.8,2.9,0.3,2.2
		c-4.5-0.6-12.2-2.2-7.4,0c4.8,2.2,4.8,2.2,1.9,2.2s-3.8-1.9-2.9,0c1,1.9-2.9,0.3,1,1.9s5.1,0.6,6.7,2.2s1,1.9,2.2,3.2
		s2.6,2.2,3.5,3.5c1,1.3,0.3,1.3,2.2,4.2c1.9,2.9,4.8,9,7.4,11.2S99,203,99,203z M106.4,199.3c-5-10.5-5.5-10-3.2-9.6
		c2.3,0.5,3.2,0.9,5.5,0.9s1.4-1.4,5-2.3c3.6-0.9,5-1.4,8.7-0.9c3.6,0.5,4.6,0.5,10,1.8c5.5,1.4,10,2.3,12.8,4.6s4.6,3.2,8.7,6.4
		c4.1,3.2,10.5,8.7,15.5,10.9s11.4,4.1,5.9,4.1c-5.5,0-1.8,0-7.3-1.4c-5.5-1.4-4.1,0-8.2-2.3c-4.1-2.3-8.2-2.3-4.6-0.5l-8.2,1.4
		h-1.8c4.1,0.5-6.8,8.7-15.5,6.4S111.4,209.8,106.4,199.3z M167.2,249c-0.2,0.2-0.5,0.3-0.8,0.5c-10.6,6.5-30.5,9.5-34,9.5
		c-2.1,0-3.2-2.4-4.2-6c-2.6-2.6-4.9-6.3-5.2-11.2c-0.7-11.4-1-13.1,2-15.8c2.5-2.2,0.6,0.7-0.1,3.8c0.2,2.1,0.6,5.3,1,8.2
		c2.2-3.5,7.1-6.2,5.8-4.6c-1.3,1.7,2.4-2.4,1,1.7c-1.3,4-1,2-1.3,4s0.7-1.3-0.3,2s-2.4,0.7-1,3.4c1.3,2.7,2.4,4,2.4,4
		s1.3,0.7,4,0.3c2.2-0.3,2.6-0.3,3.9-0.7c2.9-6.3,7.1-16,7.1-16l7.7-1.8c0,0,0,0-2.3,5.9c-0.9,2.4-2.2,5.4-3.6,8.4
		c0.5-0.1,1-0.1,1.7-0.2c3.7-0.3,2.4,1.7,2.4,1.7s0.3,0,0.7-0.1c4.4-7.5,5.8-13,5.8-13l5.4-4.1c0,0-0.5,2.7-0.9,6.3
		c-0.2,1.7-0.6,4-1,6l1.1-0.6l4.7-1c4.4-0.3,10.8-3.7,10.8-3.7S176.7,243.3,167.2,249z M254.2,218.5c4.7,2,7.7,4.1,9.5,6
		c0.6,0.4,2.8,2.1,4.5,5.6c2,4.1,1.7,4.5-2,8c-4.4,4.1-23.3,5.8-36.3,5.1c-6.6-0.3-9.1-0.3-14.5-1.6c-9.8-2.3-21.2-7-21.2-7
		s8.2,2.8,16.1,4.7c-0.7-0.5,0.4,0.1,0.4-1.3c0-1.7,2.1,0.6,2.1,0.6s1.5,0.3,4.5-1.1c3-1.4,0,0-1.5-1.1c-1.5-1.1-3.9-2-5.1-2.8
		c-1.2-0.8,7.7,1.4,13.1,2.3c5.3,0.8,3.9,0.3,7.1,0.8c3.3,0.6,7.7-1.1,10.7-2.5c3-1.4,0.9-1.1,5.1-1.7s1.2,0,2.4-1.7
		c0.8-1.2,0.3-2-1.8-3.7c-2.1-1.7-3.6-1.4-4.5-2c-0.9-0.6-2.7-1.7-1.5-2c1.2-0.3-4.2-2.5-5.1-3.4c-0.9-0.8,3.6,0.3,6.2,0.6
		s4.8,1.7,5.6,0.8s-3.3-2.8-5.3-3.4c-2.1-0.6-3.6-1.7-8-3.7C230.4,212,242,213.4,254.2,218.5z"/>
	<path d="M124.5,235.8c-0.1,2.1-0.2,3.9,0.4,3.7C124.7,238.3,124.6,237,124.5,235.8z"/>
	<path class="st0" d="M164.3,240.9l-1.1,0.6c0.4-2,0.8-4.4,1-6c0.5-3.6,0.9-6.3,0.9-6.3l-5.4,4.1c0,0-1.4,5.5-5.8,13
		c-0.4,0.1-0.7,0.1-0.7,0.1s1.3-2-2.4-1.7c-0.7,0.1-1.2,0.1-1.7,0.2c1.4-3,2.7-6.1,3.6-8.4c2.3-5.9,2.3-5.9,2.3-5.9l-7.7,1.8
		c0,0-4.2,9.7-7.1,16c-1.2,0.4-1.6,0.4-3.9,0.7c-2.7,0.3-4-0.3-4-0.3s-1-1.3-2.4-4c-1.3-2.7,0,0,1-3.4s0,0,0.3-2s0,0,1.3-4
		c1.3-4-2.4,0-1-1.7c1.3-1.6-3.6,1.1-5.8,4.6c-0.4-2.9-0.8-6.1-1-8.2c0.7-3.2,2.6-6.1,0.1-3.8c-3,2.7-2.7,4.4-2,15.8
		c0.3,4.8,2.6,8.5,5.2,11.2c1,3.7,2.1,6,4.2,6c3.5,0,23.4-3.1,34-9.5c0.3-0.2,0.6-0.4,0.8-0.5c9.5-5.7,12.6-12.9,12.6-12.9
		s-6.4,3.4-10.8,3.7L164.3,240.9z M124.5,235.8c0.1,1.2,0.2,2.4,0.4,3.7C124.3,239.8,124.4,238,124.5,235.8z"/>
	<path class="st0" d="M234.9,214c4.5,2,5.9,3.1,8,3.7c2.1,0.6,6.2,2.5,5.3,3.4s-3-0.6-5.6-0.8s-7.1-1.4-6.2-0.6
		c0.9,0.8,6.2,3.1,5.1,3.4c-1.2,0.3,0.6,1.4,1.5,2c0.9,0.6,2.4,0.3,4.5,2c2.1,1.7,2.6,2.5,1.8,3.7c-1.2,1.7,1.8,1.1-2.4,1.7
		s-2.1,0.3-5.1,1.7c-3,1.4-7.4,3.1-10.7,2.5c-3.3-0.6-1.8,0-7.1-0.8c-5.3-0.8-14.3-3.1-13.1-2.3c1.2,0.8,3.6,1.7,5.1,2.8
		c1.5,1.1,4.5-0.3,1.5,1.1c-3,1.4-4.5,1.1-4.5,1.1s-2.1-2.3-2.1-0.6c0,1.5-1.1,0.8-0.4,1.3c-7.9-1.9-16.1-4.7-16.1-4.7
		s11.4,4.7,21.2,7c5.4,1.3,7.9,1.3,14.5,1.6c13,0.7,32-1,36.3-5.1c3.7-3.5,4-3.8,2-8c-1.7-3.5-3.9-5.2-4.5-5.6
		c-1.9-1.9-4.9-4.1-9.5-6C242,213.4,230.4,212,234.9,214z"/>
	<path class="st0" d="M129.6,218.9c8.7,2.3,19.6-5.9,15.5-6.4h1.8l8.2-1.4c-3.6-1.8,0.5-1.8,4.6,0.5c4.1,2.3,2.7,0.9,8.2,2.3
		c5.5,1.4,1.8,1.4,7.3,1.4c5.5,0-0.9-1.8-5.9-4.1s-11.4-7.8-15.5-10.9c-4.1-3.2-5.9-4.1-8.7-6.4s-7.3-3.2-12.8-4.6
		c-5.5-1.4-6.4-1.4-10-1.8c-3.6-0.5-5,0-8.7,0.9c-3.6,0.9-2.7,2.3-5,2.3s-3.2-0.5-5.5-0.9c-2.3-0.5-1.8-0.9,3.2,9.6
		C111.4,209.8,121,216.6,129.6,218.9z"/>
	<path class="st0" d="M142.4,159.6c-2.3,7.3-1.4,17.3,4.6,27.4s10,8.2,10,8.2l-0.5-10.9c0,0,0,0,1.4-3.6c0,0-0.5-1.8-1.4-4.1
		s4.6,0.9,4.6,0.9l3.6,2.3c0,0,2.3,0.9,3.6,1.4c1.4,0.5,2.7,1.4,5,1.8c2.3,0.5,2.7,0.9,5.5,3.6s0.5-3.2-1.8-7.8c-2.3-4.6,0,0,4.6,5
		c0.7,0.8,1.2,1.3,1.5,1.5c-0.2,0.1-0.1,0.7,1.3,3.5c3.6,7.3,1.6,6.3,2.7,10.9c1.3,5,3.3-6.2,0.9-14.6c-3.2-11.4-4.6-14.1-9.1-20.1
		c-4.6-5.9-15-12.8-24.2-13.7C145.6,150.5,144.7,152.3,142.4,159.6z"/>
	<path class="st0" d="M105.1,206.6c-2.6-2.2-5.5-8.3-7.4-11.2c-1.9-2.9-1.3-2.9-2.2-4.2c-1-1.3-2.2-2.2-3.5-3.5s-0.6-1.6-2.2-3.2
		s-2.9-0.6-6.7-2.2s0,0-1-1.9c-1-1.9,0,0,2.9,0s2.9,0-1.9-2.2c-4.8-2.2,2.9-0.6,7.4,0c4.5,0.6,9.6,1.9-0.3-2.2s-25.6-1.3-28.2-1
		c-2.6,0.3-0.6,1.9,6.7,8.3C76,189.6,99,203,99,203S107.7,208.8,105.1,206.6z"/>
	<path class="st1" d="M123.4,135.4C123.4,135.4,123.4,135.5,123.4,135.4L123.4,135.4C123.4,135.4,123.4,135.4,123.4,135.4z"/>
	<path class="st0" d="M124.5,166.2c4.6,6.2,9.9,11.2,9.9,11.2s-4.1-5.8-7.9-14.5c-3.7-8.7-3.7-4.6-3.7-8.7c0-4.1,2.5,2.9,2.5,0.8
		c0-2.1,2.5,4.6,2.1,2.1s1.2,4.6-0.4-2.5c-1.7-7-0.8-1.7-1.7-7c-0.8-5.4,0-2.5-1.2-7.5c-1.2-5-2.5-5.8-1.2-5
		c0.1,0.1,0.3,0.2,0.3,0.2c0,0,0,0,0,0l0,0c0,0,0,0,0,0c0,0,0.1,0.1,0.1,0.1c0,0,0,0,0,0l0,0c0,0,0,0,0,0c0,0,0.1,0,0.1,0
		c0,0,0,0,0,0l0,0c0,0,0,0,0,0l0.7,0.5l4.1-0.8c0,0-5.4-9.1-8.7-13.7c-3.3-4.6-17-15.8-17.8-12.9c-0.8,2.9,1.2,7.5,2.9,12.4
		s5.4,17.4,8.7,24.5C116.6,152.5,120,160,124.5,166.2z"/>
</g>
</svg>
