<?xml version="1.0" encoding="utf-8"?>
<!-- Generator: Adobe Illustrator 20.1.0, SVG Export Plug-In . SVG Version: 6.00 Build 0)  -->
<!DOCTYPE svg PUBLIC "-//W3C//DTD SVG 1.1//EN" "http://www.w3.org/Graphics/SVG/1.1/DTD/svg11.dtd">
<svg version="1.1" id="Layer_2" xmlns="http://www.w3.org/2000/svg" xmlns:xlink="http://www.w3.org/1999/xlink" x="0px" y="0px"
	 viewBox="0 0 360 360" style="enable-background:new 0 0 360 360;" xml:space="preserve">
<style type="text/css">
	.st0{fill:none;}
	.st1{fill:#FFFFFF;}
</style>
<g>
	<path class="st0" d="M190.2,166.2c-1.1-0.6-1.4-1.2-2-1.9c-0.6-0.8-0.9-1.7-1.1-2.5H186v-4.7h-16.9l-0.5,4.6l-1.7,0
		c-0.1,0.7-0.5,1.5-1.2,2.3c-0.4,0.5-0.9,1-1.3,1.3c0,12.1,0.4,34.8,0.8,54.7c0.2,10,0.3,16,0.4,19.5h21.5
		C187.4,226.5,189.6,180,190.2,166.2z"/>
	<path class="st0" d="M273.2,238.5c0.1-0.4,0.2-3,0.5-14.1c0.5-21.7,1.2-46.4,1.6-58.1c-1-0.5-1.3-1-1.9-2c-0.5-0.8-0.7-1.6-0.7-2.3
		l-1.7,0l-0.3-4.9h-15.8v4.7h-1.5c-0.1,0.9-0.3,1.9-1.1,2.8c-0.5,0.6-1,1-1.5,1.2c0.5,10.6,2.1,33.1,2.6,54.2
		c0.2,10.9,0.4,16.6,0.4,19.5h19.5C273.3,239,273.2,238.7,273.2,238.5C273.2,238.8,273.2,238.1,273.2,238.5z"/>
	<path class="st0" d="M144.8,224.4c0.5-23.8,1.9-49.3,2.4-58.5c-1-0.7-1.8-1.6-2.3-2.5c-0.4-0.6-0.6-1.1-0.8-1.6l-1.6,0v-4.7h-14.8
		l-0.4,4.7h-1.4c-0.2,0.7-0.6,1.4-1.2,2.2c-0.8,0.9-1.6,1.7-2,2c0.3,10.7,1.2,33.1,1.7,53.9c0.2,9.5,0.3,15.6,0.4,19.5h19.2
		C144.2,237.9,144.5,234.1,144.8,224.4z"/>
	<path class="st0" d="M106.2,166.1c-1-0.6-1.5-1.2-2-2c-0.5-0.8-0.7-1.6-0.8-2.2h-2v-4.7H88.2v4.7h-1.3c-0.1,0.9-0.3,1.9-1.1,2.8
		c-0.4,0.5-0.9,0.9-1.4,1.2c0.1,15.8,0.8,58.5,1.1,73.7h17.6C103.5,224,105.6,179.2,106.2,166.1z"/>
	<path class="st0" d="M211.9,157.1v4.7h-1.3c-0.1,0.7-0.4,1.5-1.1,2.4c-0.6,0.7-1.3,1.2-1.9,1.6c0.3,16.5,1.7,62.6,2.1,73.7h20.6
		c0.1-2.7,0.3-7.1,0.5-15.1c0.5-23.6,1.9-48.8,2.4-58.2c-1-0.5-1.3-1-1.9-1.9c-0.6-0.9-0.7-1.7-0.7-2.4H229v-4.7H211.9z"/>
	<path d="M298.6,270.3c-0.1,0-0.1,0-0.2,0C298.5,270.3,298.5,270.3,298.6,270.3z"/>
	<path d="M315.5,259.3l-8.8,0v-11.8h-8v-7.9h-3c-0.1-2.9-0.2-7.2-0.3-13.5c-0.5-22.7-2.4-49.2-3.2-59.9c0.5-0.2,1.3-0.7,2.1-1.5
		c0.7-0.9,1-1.9,1.1-2.8l1,0v-6.6h-1.9v-29.4h4.2v-9.7L183.5,79.4L59.3,116.2v9.7h5.3v29.4h-2.2v6.6h1.9c0,0.7,0.2,1.6,0.7,2.4
		c0.7,1,0.9,1.5,2.1,2c-0.6,11.1-1.8,35.9-2.3,58.1c-0.2,10.6-0.5,14-0.6,15.1h-3.2v7.9h-5.8l-0.9,11l-8.3,0l-1.1,20.5h271.8
		L315.5,259.3z M120,266.8c-0.6,0-0.8,0-0.9,0c0,0,0,0,0,0c-0.1,0-0.3,0-1.1,0c-2.3,0-2.3,0-4,0c-1.7,0-2-1.1-4.3-1.4
		c-2.3-0.3-2.7,0.2-3.7,0.6c-2.6,0.9-3.7,0.9-3.7,0.9h-3.4c0,0-2.6-0.3-4-0.3c-1.4,0-12.9-0.3-12.9-0.3s-7.2-1.4-8.9,0
		c-1.7,1.4,0,0.6-1.7,1.4c-1.7,0.9-2.6,1.1-3.7,0.3c-2.3-1.7,0-1.4-2.3-1.7c-0.4-0.1-0.8-0.1-1.1-0.1c0.6-0.4,1.3-1.1,2.4-2.1
		c0,0,3.2,0.4,6,0.4s22.2,0.4,26.6,0c4.4-0.4,21.7,0.4,21.7,0.4s0.9,0.3,2.2,1.1C122.3,266.4,121.2,266.8,120,266.8z M170.3,250.1
		c1.5,0,17.1,0,17.1,0l30.3,0.7c0,0-1.7,1-2.7,1.7c-1,0.7-1.5,1-2.2,0.7c-0.7-0.2-2-0.5-2-0.5l-2.9-0.5l-2.9,0.2l0.7,1.5l-2.7-0.2
		l-3.4-1c0,0-2.9,0.2-4.6,0s-3.9-0.7-5.6-0.5c-1.7,0.2-6.4,0.7-8.1,0.5s-7.6-1.5-8.8-1.5C171.3,251.3,168.9,250.1,170.3,250.1z
		 M157.4,251.6c1.9,0.6,3.2,2.2,3.2,2.2h-5.5l-4.8-0.3l-4.8,0.3l-2.2,0.3l-5.5-0.3l-3.2,0.3c0,0-1.6,0-2.6,0.3s-2.2-1.6-2.2-1.6
		s0,0-1.3,0.3s-1.6-1.3-1.6-1.3S155.5,251,157.4,251.6z M304.1,250.2c2.5,0.7,0.7,4,0.7,4l-2.5,2.9c0,0-11.9,0-13.3,0.4
		c-1.4,0.4-11.2,0-11.2,0s-4-0.4-4.3-1.4c-0.4-1.1,0,0,2.2,0s2.9-1.4,2.9-1.4s-2.5-1.1-4-1.1s-6.1,1.1-6.1,1.1s-1.4,0.7-3.6,0.7
		s0,0-2.9-1.1c-1.1-0.4-1.8,1.8-5,2.2c-1.3,0.1-2.2,0-2.5-1.4h-0.2h-3.6c0,0-2.2,0-3.2,0s-2.9,0-2.9,0l-4.3-0.4h-4.3h-2.5l-4.3-2.2
		c0,0,0,0-1.8,0.7s-1.4,0.4-3.2-0.4c-1.8-0.7,0,0-2.2-1.1c-2.2-1.1,0,0-3.2-0.4l4.7-1.4c0,0,11.5,0.4,16.6,0.4
		c5,0,13.3,0.7,13.3,0.7l0.4,0.1c-0.1-0.2-0.2-0.5-0.2-0.8c0,0,5-0.4,8.6-0.7c3.6-0.4,13.7-0.7,19.4,0s10.1,0,12.6,0
		C296.5,249.4,301.5,249.4,304.1,250.2z M121.9,244.7c0,0-1.7-1.5-2.6-1.5c-0.9,0-2-0.6-2.9-0.6s-1.5-0.3-2.6,0.3s-1.7-0.6-4.1,0
		s-0.6-1.5,3.2-1.7c0,0,26.5,0,30.6,0.6c4.1,0.6,13.4,0.6,13.4,0.6l-1.2,2.6l-17.2-0.9c0,0-9,0.6-9.9,0.9s-3.8,0-3.8,0L121.9,244.7z
		 M165.4,159.2c0,0-5.7-0.2-7.4-0.2c-1.7,0-12-1.3-12-1.3l21.4,0.2l0.2,2.8L165.4,159.2z M162.8,218.2c-0.4-0.7-1.5-5.9-1.1-8.1
		s0.2-6.7,0-13.3c-0.2-6.5-0.4-16.3-0.7-18.7c-0.2-2.4-0.4-5.2-0.4-5.2l-1.5-0.6l0.9,34.8c0,0-1.3,1.3-1.5-1.1
		c-0.2-2.4-0.7-35.8-0.7-35.8s-1.6-0.3-1.9,0.2c0,0.5,0,1.4-0.1,3.1c-0.2,6.1-0.4,6.3-1.1,5.4c-0.7-0.9-0.9-0.2-0.9-2.8
		s0.2-9.2,0.2-9.2s0.3-1.2,6.9-0.6c2.2,0.2,2,1.5,2,2.8s0.4,40.7,0.4,40.7S163.3,218.9,162.8,218.2z M162.6,165.5
		c-0.7,0,0.6-0.9,0-1.1c-2.4-0.7-8.5-0.4-11.3-1.1s-5.2-0.7-4.1-0.9c1.1-0.2,4.6-0.9,9.8-0.7c5.2,0.2,8.1,1.3,8.1,1.3
		S163.3,165.5,162.6,165.5z M124.2,161.2c-0.5,0.2-0.5,0.9-0.5,0.9c0.6,0.3,0.3,0.6-1.1,2.1c-1.4,1.5-1.8,1.5-3.7,1.7
		c-1.2,0.1-4-0.5-4-0.5s1.4-0.6,2.9-1.5s0.6-2.7,0.6-2.7s2.1,0,3.4-0.5c0.5-0.2,1.2-0.8,1.2-0.8s0,0-0.5-0.8c-0.5-0.8,0,0-0.3-0.9
		c-0.2-0.6-4.7-1.1-4.7-1.1l8.7,0.2c0,0-0.2,2.1-0.3,3.4C125.9,162,124.7,161,124.2,161.2z M119.6,173.3c-0.6-0.5-1.4-1.2-1.1,0.3
		c0.3,1.5,0.2,13,0.2,13s-1.4,1.9-1.4-0.6c0-1.3-0.3-1.8-0.5-2.2l0-1.6c0.4-1.6,0.7-2.6,0.7-4.4c0-1.8,0-2.1-0.9-2.7c0,0,0,0,0,0
		l-0.2-6.4l-2.1,0.2c0,0,0,0.2,0,0.5l-0.4-1.2l-2.3-1.1l0.5-1.1c0,0,6.4-0.6,7.9,0.6c1.5,1.2,1.1,0.9,1.1,2.1
		c0,1.2,1.2,34.6,1.2,38.4c0,3.8-0.5,9-0.8,7s-0.5-10.5-0.5-14.2c0-3.7-0.9-11.1-1.1-14.6S120.2,173.8,119.6,173.3z M124.3,220
		c-0.5-20.9-1.4-43.3-1.7-53.9c0.4-0.4,1.2-1.1,2-2c0.7-0.8,1.1-1.5,1.2-2.2h1.4l0.4-4.7h14.8v4.7l1.6,0c0.2,0.5,0.4,1.1,0.8,1.6
		c0.5,0.8,1.3,1.7,2.3,2.5c-0.5,9.1-1.9,34.6-2.4,58.5c-0.2,9.7-0.6,13.5-0.9,15.1h-19.2C124.6,235.7,124.5,229.6,124.3,220z
		 M165.7,239.5c-0.1-3.5-0.2-9.5-0.4-19.5c-0.4-19.8-0.8-42.6-0.8-54.7c0.4-0.4,0.9-0.8,1.3-1.3c0.7-0.8,1.1-1.6,1.2-2.3l1.7,0
		l0.5-4.6H186v4.7h1.2c0.1,0.8,0.4,1.7,1.1,2.5c0.6,0.7,0.9,1.3,2,1.9c-0.7,13.7-2.9,60.3-3,73.3H165.7z M246.6,160.8
		c-0.3,0-0.7,0-1,0c3.4,0.5,6.1,0.2,5.6,1.6c-0.5,1.5-1.5,3.1-2,3.6c-0.5,0.5,0.2,0.7,0.3,4.3c0.2,3.6,2.6,55.9,2.5,56.9
		c-0.2,1-1.5,0.7-1.5,0.7s-2.8-57.4-3.3-57.7s-0.3,0.8-0.3,0.8l1.6,56.1l-2.5-0.3l-1.6-54.1c0,0-1.1,0.7-1.1,1.1s0,3.8,0,3.8
		l-2.1-0.2l-1-2.5l-1.1,0.3l-1.5-1.3c0,0,0-2.3,0-2.8s-0.3-2.6-0.3-2.6s-0.8-1.1,1-1.3c1.8-0.2,7.2-0.5,7.2-0.5s-6.4-0.5-7.9-0.3
		s-1.8-0.3-2.6-1.5c-0.8-1.1-1.1-3.6-1.1-3.6s4.1-0.5,7.7-0.6c-4.1-0.1-8.5-0.2-8.5-0.2s4.7-0.4,6.1-0.7c1.5-0.4,2.6-0.6,3.2-0.9
		l-2.8-0.7l-2.2-0.7l16.8,0.6l-0.4,3.2C253.7,161,251.1,161,246.6,160.8z M230.6,161.8c0,0.7,0.2,1.6,0.7,2.4
		c0.6,0.9,0.9,1.4,1.9,1.9c-0.5,9.4-1.9,34.6-2.4,58.2c-0.2,8-0.3,12.4-0.5,15.1h-20.6c-0.4-11.2-1.8-57.2-2.1-73.7
		c0.6-0.4,1.3-0.9,1.9-1.6c0.7-0.9,1-1.7,1.1-2.4h1.3v-4.7H229v4.7H230.6z M208.9,160c-1-0.5,0.5-0.5-1-0.5s-2.2,0.5-3,0.2
		c-0.7-0.2-5,0-5.7-0.5s-5-1-5-1l16.3-0.5v2.7C210.7,160.5,209.9,160.5,208.9,160z M209.8,162c0,0,0,1.7-1.2,2.5
		c-1.2,0.7-3.2,1-4.2,1c-1,0-1.7-1-1.7-1s-1-1-3-1.5c-2-0.5-5-0.7-0.5-1.2C203.6,161.2,209.8,162,209.8,162z M207.7,223.1v3.8
		c0,0-1.1-1.3-1.1-2.1s-0.4-4-0.6-5c-0.2-1-0.2,0.8-0.2-1c0-1.7-0.2-4.5-0.2-6.6c0-2.1,0.2-1.7-0.2-3.8c0-2.7,0-5.1-0.1-6.2
		c-0.2-3.7-1.2-30.5-1.2-30.5l-1.7,0.2l0.2,8.1l0.4,0.8c0,0,0.8,19.9,0.6,22.6c-0.1,0.7-0.1,2.1-0.1,3.9c-0.2,0.5-0.3,1-0.3,1
		s0.2,5.7,0.4,7c0,0.1,0,0.2,0,0.3c0,0.4,0,0.8,0,1.2c-0.1,0.3-0.3,0.4-0.6,0c-0.8-0.8-1.1-4.1-1.1-5.1s0-1.9,0-2.7
		c0-0.8,0-1.7,0.2-2.9s-0.2-1.3,0-3s0-1.9,0.2-2.9c0.2-1,0.4-1.7,0-2.5s-0.8-0.8-0.6-2.3c0.2-1.5,0.2-0.2,0-3.6
		c-0.1-1.9-0.4-6.8-0.7-10.8l0.1-1.4l-0.2-10l-1.7-0.4l-0.1,7.4c-0.3,0.3-1-0.8-1-1.7c0-1.1,0-1.9,0.2-2.7S198,170,198,170
		c-1.3-0.2-1,0.6-1,1.1l-1-0.6l-1.3-0.4l0.1-3.9c0,0,10.4-1,11.3,0.7c1,1.7,0.8,5.1,0.8,5.1C207,177.6,207.7,223.1,207.7,223.1z
		 M179.3,240.7c4.8,0,17.2,0.3,21.2,0.3c3.9,0,9.4-0.9,13.9-0.9c4.5,0,20.3,1.2,22.1,1.2s2.1-0.3,5.7,0l0.6,4.2c0,0-1.8,0.3-2.7,0.9
		s-9.1,0-10.3,0.3c-1.2,0.3-5.7,0-5.7,0s-2.1,0-4.5-1.2c0,0-1.5,0-3.9,0.3l-2.7,0.6l-1.8-0.6l-2.7,0.6l-3.3-2.1
		c-0.9-0.9-2.7-0.3-2.7-0.3l-1.5,2.1l-5.4-0.3c0,0-2.7-0.3-4.5,0.3c-1.8,0.6-3.3-0.9-3.3-0.9l-0.6-1.8c0,0-2.1,0.3-3.3,0.3
		c-1.2,0-2.7,0-3.6,0.3c-0.9,0.3-2.7-0.6-2.7-0.6l-4.2-0.9l-2.7-1.8C171.8,240.7,174.5,240.7,179.3,240.7z M296.2,247.5l-26.8-0.3
		c0,0-4.4-0.9-5.3-0.6c-0.9,0.3-2.2-2.2-2.2-2.2c-1.6,0.6-1.6,2.2-1.6,2.2s-1.2,0-2.5,0.6s-1.6-0.6-3.1-0.6c-1.6,0-3.7-0.3-5.3,0.3
		c-1.6,0.6-5-2.8-5-2.8s2.5-0.3,4.4-2.8c0,0,3.1-0.3,6.6,0c3.4,0.3,13.7-0.6,20.9,0.3c7.2,0.9,20.3-0.3,21.2-0.6L296.2,247.5z
		 M253.8,239.5c-0.1-2.9-0.2-8.6-0.4-19.5c-0.5-21-2-43.6-2.6-54.2c0.5-0.3,1-0.7,1.5-1.2c0.7-0.9,1-1.9,1.1-2.8h1.5v-4.7h15.8
		l0.3,4.9l1.7,0c0,0.7,0.2,1.5,0.7,2.3c0.6,0.9,0.9,1.4,1.9,2c-0.3,11.7-1.1,36.4-1.6,58.1c-0.3,11.1-0.4,13.7-0.5,14.1
		c0,0.1,0,0.5,0.1,1H253.8z M293.9,225.6c0,2.5,0.1,7.5-0.2,8.2c-1,1.7-1.7,2.5-1,2.7l-1.2,0.7c-0.5-2-0.5-3.7-0.5-3.7l0.2-3.5
		c0,0-0.7-0.5-1.2-1.5c-0.5-1-1-2.2-1-2.2l0.2-2c0.7-2.5,0.5-4.2,0.5-5c0-0.7-0.2-5,0-6.9c0.1-0.8-0.2-1.5-0.6-2
		c-0.2-8.3-0.7-28.2-0.7-29.4c0-1.6-1.3-4.2-1.3-4.2l0.5,32.1c-1.1-2-1.3-4.7-1.3-4.7s0.7-5.7,0.5-8.4c-0.1-1.4-0.6-1.7-1.1-1.6
		c-0.3-10-0.6-21-0.6-21l-1,0.3v31.3c-0.2-0.2-1.2-1-1.4-1.7c-0.2-0.7-0.7-36.7-0.7-36.7s6.2-0.2,7.9,0c1.7,0.2,0.2-0.2,0.7,4
		c0.5,4.2,2.7,48.1,3,50.8C293.7,223.9,293.9,223.1,293.9,225.6z M292.3,164.2c-1.3,1.1-0.8,2.3-1.5,2.1s-1.1,0.2-1.7,0
		c0,0-0.2-0.8-1.1-1s-0.2,1-1-0.2c-0.8-1.1-0.6-0.4-1.7-0.6c-1.1-0.2-3.2,0-4.8-0.4c-1.5-0.4-3.6-1.7-3.6-1.7s1.5-2.3,14.9-0.8
		C293.7,161.9,293.7,163,292.3,164.2z M295.1,161.3c0,0-13.1-0.2-16-0.2c-2.9,0-3.6-0.4-2.9-1c0.8-0.6,0.6,0.2,1.5,0
		c0,0,0.1,0,0.1,0c0,0,0.1,0,0.2,0c0,0,0,0,0,0c0.1,0,0.3-0.1,0.7-0.1c1.9-0.4,2.3-0.4,3.4-0.6s1.5,0,2.1-0.6c0,0,0.4-1.1,1-1.3
		l10.5-0.2L295.1,161.3z M182.9,82.5l113.2,35.7l0.3,2.3c0,0-0.3,0.1-0.9,0.2c1.3,0.5,2.1,1.5,0.7,1.5c-1.6,0,0-0.7-1.6,0
		c-1.6,0.7-2,0.7-3.3,1c-1.3,0.3-3.2-0.2-4.2,0.3c-2.6,1.3-8.8,0.7-11.1,1s-3.3-1.3-4.2-1c-1,0.3-2,1-2.9,1s-1.6,0.7-2.9,0.3
		c-1.3-0.3-1.6-0.3-2.9-0.3s-9.1-1.3-10.1-1.3c-1,0-2.6,0.3-2.6,0.3h-1.6c0,0-7.5,0.7-8.8,1c-1.3,0.3-3.9,0.7-3.9,0.7h-55.3
		c0,0-1,0-2.5,0c-2.5-0.5-6.2-1.6-9.2-0.8c-3.8,1-3.8,0.5-6.2,0.8c-0.3,0-0.5,0.1-0.7,0.1c-1.2,0-2-0.1-2.2-0.1c-1-0.3-1.3-1-2.9-1
		c-1.6,0-1-1-2.9,0c-0.2,0.1-0.4,0.2-0.5,0.3c-2.6-0.3-2.6-0.3-2.6-0.3s-3.3-0.1-4.8-0.5c-4.3-1.3-5.7-1.5-7.1-1.5
		c-0.8,0-4-0.1-7.2-0.2l-0.4-0.1l-2.9-0.3l-3.3,0.4l-2.6-2.2c47.7,0,150.3,0,167.3,0c-2.6-1.5-3.4-0.4-4.3-0.7c-1-0.3-7.2-2-8.9-2.3
		c-1.6-0.3-1.3-1-3-1s-2-0.3-3-0.7c-1-0.3-1.6-0.7-2.6-1c-1-0.3-84.6-24.9-84.6-24.9s-0.1,0-0.2,0.1c-0.7-0.5-1.5-1-2.1-0.8
		c-2.3,0.6-2.6,1.8-3.5,1.7c-2.6-0.3-2.9-0.6-3.7-0.3c-0.9,0.3-5.2,0.9-6.9,1.2c-1.7,0.3-2-0.3-4,0.3s-8.6,4.3-10.4,4.6
		c-1.7,0.3,0.3-0.6-1.7,0.3c-2,0.9-1.7,1.4-3.5,1.4c-1.7,0,0-0.9-1.7,0c-1.7,0.9-7.5,0.6-11,2.3c-3.5,1.7-0.3,0.9-3.5,1.7
		c-3.2,0.9-3.7,0.9-4.9,0.9s-10.3,1.3-11.7,1.9c-1.4,0.6-7.2,3.1-8.6,2.5c-1.2-0.5-6.9,0.4-8.8,0.7l10.7-3.1L182.9,82.5z
		 M81.2,172.8c-0.2,1.1-0.2,0.3-0.2,2c0,1.7-0.2,4.7-0.2,4.7s-1.1,0.3-1.2-0.3c-0.2-0.6-0.3-8.7-0.3-8.7l-1.2-0.2l-0.8-1.6l-1.7-1.8
		c0,0,2.6-0.2,3.4-0.2c0.9,0,2.8,0.2,3.6,0.8s0.9,1.4,0.8,3.9c-0.2,2.5,0.2,35.8,0.2,35.8s-0.9,0.9-1.1-0.8
		c-0.2-1.7-0.8-21.9-0.6-25.6C82,177,81.2,172.8,81.2,172.8z M84.8,158.3c0-0.8,1.7-0.3,1.7-0.3s0.2,2,0.2,2.7
		c0,0.6-1.1,0.6-1.1,0.6l-2.8,0.5c0,0-1,0-2.3-0.1c0,0,0,0,0.1-0.1c0.5-0.4,1-1,1.4-1.4c1.5,0,2.6-0.1,2.9-0.2
		C85.6,159.7,84.8,159,84.8,158.3z M83.2,165.4c-0.8,0.5-1.9,0.8-2.5,0.9c-0.5,0.3-0.8,0.2-0.8,0.2s0.3-0.1,0.8-0.2
		c0.3-0.2,0.8-0.5,1.3-1.2c1.2-1.7,1.4-2.3,0.8-2.5c-0.6-0.2-2.2,0.6-1.4,0.2c0.8-0.5,4.2,0,4.2,0S84.7,164.7,83.2,165.4z
		 M84.5,165.8c0.4-0.3,0.9-0.6,1.4-1.2c0.7-0.9,1-1.9,1.1-2.8h1.3v-4.7h13.2v4.7h2c0.1,0.6,0.3,1.4,0.8,2.2c0.6,0.9,1.1,1.5,2,2
		c-0.6,13.2-2.7,57.9-3,73.5H85.6C85.3,224.3,84.6,181.6,84.5,165.8z M254,267.1h-2.9c0,0-1.8-0.7-3.2-0.4s-4,1.4-4,1.4
		s-1.4-0.4-2.9,0c-1.4,0.4-2.5,1.1-2.5,1.1c-2.4-1.6,0.9-0.2,0.9-1.7s0,0-2.4-1.2c-0.8-0.4-1.2,0.3-3.3-0.6c0,0-1.5,0.9-3.9,3.3
		c0,0-1.2-0.3-3.9,0.2c-0.5,0-1,0-1.5,0.1c-0.3-0.1-0.8-0.1-1.8-0.2c-0.2,0-0.3,0-0.4,0c-1.1-0.1-0.5-0.1,0,0c0-0.2,0.3-0.8,0.1-2.6
		c-0.1-1.2-3.3,0-3.3,0s-2.7,0-3.6-0.6s-1.5-0.9-3.6-1.5c-2.1-0.6-7.2,1.5-8.7,1.8s-3.9-0.3-4.8-0.3s-4.5,0-4.5,0s-1.8-0.6-3-0.6
		c-1.2,0-3.6-0.6-3.6-0.6l-3.3-1.8c0,0,0,0-0.2-0.9c1.4,0.2,1.4,0.2,3.3,0.5c2.5,0.4,4,0,6.1,0.4c2.2,0.4,1.8-0.7,4.3-0.4
		c2.5,0.4,14,0,19.1,0s36.3-1.1,36.3-1.1S254.8,264.5,254,267.1z M314.1,273.5c-2.5-1.8,0.4-0.7-2.5-1.8c-2.9-1.1,0.4-1.1-2.9-1.1
		c-3.2,0-2.4-2.8-4.3-2.5c-2.5,0.4-3.2,2.2-3.2,2.2c-2.5,0-1.1,0.4-2.5,0c0,0-2.2,0.7-3.2,0s-4.7-1.8-5.8-2.2c0,0-3.2-0.4-4.3-0.4
		s-2.5,0-2.5,0s-3.2-1.1-4.3-0.7c-1.1,0.4-1.4,1.8-1.4,1.8s-1.1,0.4-2.5,0.4s-4-1.1-5-1.4c-1.1-0.4-1.1-1.1-3.2-1.4
		c-2.2-0.4-4-0.4-5-0.7c-1.1-0.4-3.2-0.4-3.6-1.4s-1.1-2.2,0-2.9c1.1-0.7,4.7-1.1,4.7-1.1h23.8l22.3,0.4l5.4,0.7
		c0,0-1.1,0.4-0.7,2.9c0.4,2.5,0,2.5,0.4,4.7C313.8,271,315,274.2,314.1,273.5z"/>
	<path d="M298,270.1C298,270.1,298,270.1,298,270.1L298,270.1z"/>
	<path d="M298.3,270.2C298.2,270.2,298.2,270.2,298.3,270.2C298.2,270.2,298.2,270.2,298.3,270.2z"/>
	<polygon points="182.9,83.2 183.6,89.1 183,83.2 	"/>
	<path d="M273.2,238.5C273.2,238.1,273.2,238.8,273.2,238.5L273.2,238.5z"/>
	<path d="M278,160.1C278,160.1,278,160.1,278,160.1C278,160.1,278,160.1,278,160.1C278,160.1,278,160.1,278,160.1z"/>
	<path class="st0" d="M106.2,106.9c1.4,0.6,7.2-2,8.6-2.5c1.4-0.6,10.5-1.9,11.7-1.9s1.7,0,4.9-0.9c3.2-0.9,0,0,3.5-1.7
		c3.5-1.7,9.2-1.4,11-2.3c1.7-0.9,0,0,1.7,0c1.7,0,1.4-0.6,3.5-1.4c2-0.9,0,0,1.7-0.3c1.7-0.3,8.4-4,10.4-4.6s2.3,0,4-0.3
		c1.7-0.3,6.1-0.9,6.9-1.2c0.9-0.3,1.2,0,3.7,0.3c0.9,0.1,1.2-1.2,3.5-1.7c0.6-0.1,1.4,0.3,2.1,0.8c0.1,0,0.2-0.1,0.2-0.1l-0.6-5.9
		l0,0l0.6,5.9c0,0,83.6,24.6,84.6,24.9c1,0.3,1.6,0.7,2.6,1c1,0.3,1.3,0.7,3,0.7s1.3,0.7,3,1c1.6,0.3,7.9,2,8.9,2.3
		c0.9,0.3,1.8-0.8,4.3,0.7c-17,0-119.6,0-167.3,0l2.6,2.2l3.3-0.4l2.9,0.3l0.4,0.1c3.2,0.1,6.4,0.2,7.2,0.2c1.4,0,2.9,0.3,7.1,1.5
		c1.5,0.4,4.8,0.5,4.8,0.5s0,0,2.6,0.3c0.2-0.1,0.3-0.2,0.5-0.3c2-1,1.3,0,2.9,0c1.6,0,2,0.7,2.9,1c0.2,0.1,1,0.1,2.2,0.1
		c0.2,0,0.5,0,0.7-0.1c2.4-0.3,2.4,0.3,6.2-0.8c2.9-0.8,6.7,0.3,9.2,0.8c1.5,0,2.5,0,2.5,0H236c0,0,2.6-0.3,3.9-0.7
		c1.3-0.3,8.8-1,8.8-1h1.6c0,0,1.6-0.3,2.6-0.3c1,0,8.8,1.3,10.1,1.3s1.6,0,2.9,0.3c1.3,0.3,2-0.3,2.9-0.3s2-0.7,2.9-1
		c1-0.3,2,1.3,4.2,1s8.5,0.3,11.1-1c1-0.5,2.9,0,4.2-0.3c1.3-0.3,1.6-0.3,3.3-1c1.6-0.7,0,0,1.6,0c1.4,0,0.6-1-0.7-1.5
		c0.5-0.1,0.9-0.2,0.9-0.2l-0.3-2.3L182.9,82.5l-74.8,22l-10.7,3.1C99.3,107.3,105,106.4,106.2,106.9z"/>
	<path class="st0" d="M210.7,157.8l-16.3,0.5c0,0,4.2,0.5,5,1s5,0.2,5.7,0.5c0.7,0.2,1.5-0.2,3-0.2s0,0,1,0.5c1,0.5,1.7,0.5,1.7,0.5
		V157.8z"/>
	<path class="st0" d="M199.1,161.7c-4.5,0.5-1.5,0.7,0.5,1.2c2,0.5,3,1.5,3,1.5s0.7,1,1.7,1c1,0,3-0.2,4.2-1
		c1.2-0.7,1.2-2.5,1.2-2.5S203.6,161.2,199.1,161.7z"/>
	<path class="st0" d="M289.7,166.4c-1.7-0.2-7.9,0-7.9,0s0.5,35.9,0.7,36.7c0.2,0.6,1.2,1.5,1.4,1.7v-31.3l1-0.3c0,0,0.3,11,0.6,21
		c0.5,0,1,0.3,1.1,1.6c0.2,2.7-0.5,8.4-0.5,8.4s0.2,2.7,1.3,4.7l-0.5-32.1c0,0,1.3,2.6,1.3,4.2c0,1.2,0.5,21.1,0.7,29.4
		c0.4,0.5,0.7,1.2,0.6,2c-0.2,2,0,6.2,0,6.9c0,0.7,0.2,2.5-0.5,5l-0.2,2c0,0,0.5,1.2,1,2.2c0.5,1,1.2,1.5,1.2,1.5l-0.2,3.5
		c0,0,0,1.7,0.5,3.7l1.2-0.7c-0.7-0.2,0-1,1-2.7c0.4-0.6,0.2-5.7,0.2-8.2s-0.2-1.7-0.5-4.5c-0.2-2.7-2.5-46.6-3-50.8
		C290,166.2,291.4,166.7,289.7,166.4z"/>
	<path class="st0" d="M254.1,157.8l-16.8-0.6l2.2,0.7l2.8,0.7c-0.6,0.4-1.7,0.6-3.2,0.9c-1.5,0.4-6.1,0.7-6.1,0.7s4.3,0.1,8.5,0.2
		c-3.6,0.1-7.7,0.6-7.7,0.6s0.3,2.5,1.1,3.6c0.8,1.1,1.1,1.6,2.6,1.5s7.9,0.3,7.9,0.3s-5.4,0.3-7.2,0.5c-1.8,0.2-1,1.3-1,1.3
		s0.3,2.1,0.3,2.6s0,2.8,0,2.8l1.5,1.3l1.1-0.3l1,2.5l2.1,0.2c0,0,0-3.3,0-3.8s1.1-1.1,1.1-1.1l1.6,54.1l2.5,0.3l-1.6-56.1
		c0,0-0.2-1.1,0.3-0.8s3.3,57.7,3.3,57.7s1.3,0.3,1.5-0.7c0.2-1-2.3-53.3-2.5-56.9c-0.2-3.6-0.8-3.8-0.3-4.3c0.5-0.5,1.5-2.1,2-3.6
		c0.5-1.5-2.2-1.2-5.6-1.6c0.4,0,0.7,0,1,0c4.5,0.2,7.1,0.2,7.1,0.2L254.1,157.8z"/>
	<path class="st0" d="M291.8,161.7c-13.3-1.5-14.9,0.8-14.9,0.8s2.1,1.3,3.6,1.7c1.5,0.4,3.6,0.2,4.8,0.4c1.1,0.2,1-0.6,1.7,0.6
		c0.8,1.1,0,0,1,0.2s1.1,1,1.1,1c0.6,0.2,1-0.2,1.7,0s0.2-1,1.5-2.1C293.7,163,293.7,161.9,291.8,161.7z"/>
	<path class="st0" d="M206.2,167c-1-1.7-11.3-0.7-11.3-0.7l-0.1,3.9l1.3,0.4l1,0.6c0-0.6-0.4-1.3,1-1.1c0,0,0.6,1.7,0.4,2.5
		s-0.2,1.5-0.2,2.7c0,0.9,0.7,2,1,1.7l0.1-7.4l1.7,0.4l0.2,10l-0.1,1.4c0.3,4,0.6,8.9,0.7,10.8c0.2,3.4,0.2,2.1,0,3.6
		c-0.2,1.5,0.2,1.5,0.6,2.3s0.2,1.5,0,2.5c-0.2,1,0,1.1-0.2,2.9s0.2,1.9,0,3s-0.2,2.1-0.2,2.9c0,0.8,0,1.7,0,2.7s0.4,4.3,1.1,5.1
		c0.4,0.4,0.6,0.3,0.6,0c0-0.4,0-0.8,0-1.2c0-0.1,0-0.2,0-0.3c-0.2-1.3-0.4-7-0.4-7s0.1-0.5,0.3-1c0-1.8,0-3.2,0.1-3.9
		c0.2-2.7-0.6-22.6-0.6-22.6l-0.4-0.8l-0.2-8.1l1.7-0.2c0,0,1,26.8,1.2,30.5c0.1,1.2,0.1,3.5,0.1,6.2c0.4,2.1,0.2,1.7,0.2,3.8
		c0,2.1,0.2,4.9,0.2,6.6c0,1.7,0,0,0.2,1c0.2,1,0.6,4.2,0.6,5s1.1,2.1,1.1,2.1v-3.8c0,0-0.8-45.5-0.8-51
		C207,172.1,207.2,168.7,206.2,167z"/>
	<path class="st0" d="M284.2,158.8c-0.6,0.6-1,0.4-2.1,0.6s-1.5,0.2-3.4,0.6c-0.3,0.1-0.5,0.1-0.7,0.1c0,0,0,0-0.1,0c0,0,0,0,0,0
		c-0.1,0-0.2,0-0.2,0c0,0,0,0-0.1,0c-1,0.2-0.8-0.6-1.5,0c-0.8,0.6,0,1,2.9,1c2.9,0,16,0.2,16,0.2l0.6-4l-10.5,0.2
		C284.6,157.7,284.2,158.8,284.2,158.8z"/>
	<path class="st1" d="M278,160.1C278,160.1,278,160.1,278,160.1C278,160.1,278,160.1,278,160.1z"/>
	<path class="st0" d="M276.2,241.6c-7.2-0.9-17.5,0-20.9-0.3c-3.4-0.3-6.6,0-6.6,0c-1.9,2.5-4.4,2.8-4.4,2.8s3.4,3.4,5,2.8
		c1.6-0.6,3.7-0.3,5.3-0.3c1.6,0,1.9,1.2,3.1,0.6s2.5-0.6,2.5-0.6s0-1.6,1.6-2.2c0,0,1.2,2.5,2.2,2.2c0.9-0.3,5.3,0.6,5.3,0.6
		l26.8,0.3l1.2-6.6C296.5,241.3,283.4,242.6,276.2,241.6z"/>
	<path class="st0" d="M281.4,249.4c-5.8-0.7-15.8-0.4-19.4,0c-3.6,0.4-8.6,0.7-8.6,0.7c0.1,0.3,0.2,0.6,0.2,0.8l-0.4-0.1
		c0,0-8.3-0.7-13.3-0.7c-5,0-16.6-0.4-16.6-0.4l-4.7,1.4c3.2,0.4,1.1-0.7,3.2,0.4c2.2,1.1,0.4,0.4,2.2,1.1c1.8,0.7,1.4,1.1,3.2,0.4
		s1.8-0.7,1.8-0.7l4.3,2.2h2.5h4.3l4.3,0.4c0,0,1.8,0,2.9,0s3.2,0,3.2,0h3.6h0.2c0.2,1.5,1.2,1.6,2.5,1.4c3.2-0.4,4-2.6,5-2.2
		c2.9,1.1,0.7,1.1,2.9,1.1s3.6-0.7,3.6-0.7s4.7-1.1,6.1-1.1s4,1.1,4,1.1s-0.7,1.4-2.9,1.4s-2.5-1.1-2.2,0c0.4,1.1,4.3,1.4,4.3,1.4
		s9.7,0.4,11.2,0c1.4-0.4,13.3-0.4,13.3-0.4l2.5-2.9c0,0,1.8-3.2-0.7-4c-2.5-0.7-7.6-0.7-10.1-0.7
		C291.5,249.4,287.1,250.2,281.4,249.4z"/>
	<path class="st0" d="M313.1,264.2c-0.4-2.5,0.7-2.9,0.7-2.9l-5.4-0.7l-22.3-0.4h-23.8c0,0-3.6,0.4-4.7,1.1c-1.1,0.7-0.4,1.8,0,2.9
		s2.5,1.1,3.6,1.4c1.1,0.4,2.9,0.4,5,0.7c2.2,0.4,2.2,1.1,3.2,1.4c1.1,0.4,3.6,1.4,5,1.4s2.5-0.4,2.5-0.4s0.4-1.4,1.4-1.8
		c1.1-0.4,4.3,0.7,4.3,0.7s1.4,0,2.5,0s4.3,0.4,4.3,0.4c1.1,0.4,4.7,1.4,5.8,2.2s3.2,0,3.2,0c1.4,0.4,0,0,2.5,0c0,0,0.7-1.8,3.2-2.2
		c1.9-0.3,1.1,2.5,4.3,2.5c3.2,0,0,0,2.9,1.1c2.9,1.1,0,0,2.5,1.8c0.9,0.6-0.4-2.5-0.7-4.7C313.1,266.7,313.4,266.7,313.1,264.2z
		 M298.4,270.2c0,0,0.1,0,0.2,0C298.5,270.3,298.5,270.3,298.4,270.2z M298,270.1C298,270.1,298,270.1,298,270.1L298,270.1z
		 M298.2,270.2C298.2,270.2,298.2,270.2,298.2,270.2C298.2,270.2,298.2,270.2,298.2,270.2z"/>
	<path class="st1" d="M222.6,269.1c-0.1,0-0.3,0-0.4,0C222.3,269.1,222.4,269.1,222.6,269.1z"/>
	<path class="st1" d="M222.3,269C222.2,269,222.2,269,222.3,269C221.7,268.9,221.2,268.9,222.3,269z"/>
	<path class="st0" d="M253,261.3c0,0-31.3,1.1-36.3,1.1s-16.6,0.4-19.1,0c-2.5-0.4-2.2,0.7-4.3,0.4c-2.2-0.4-3.6,0-6.1-0.4
		c-1.9-0.3-2-0.3-3.3-0.5c0.2,0.9,0.2,0.9,0.2,0.9l3.3,1.8c0,0,2.4,0.6,3.6,0.6c1.2,0,3,0.6,3,0.6s3.6,0,4.5,0s3.3,0.6,4.8,0.3
		s6.6-2.4,8.7-1.8c2.1,0.6,2.7,0.9,3.6,1.5s3.6,0.6,3.6,0.6s3.2-1.2,3.3,0c0.2,1.8-0.1,2.4-0.1,2.6c0.4,0,0.8,0.1,0.4,0.1
		c1,0.1,1.5,0.2,1.8,0.2c0.5-0.1,1-0.1,1.5-0.1c2.7-0.5,3.9-0.2,3.9-0.2c2.4-2.4,3.9-3.3,3.9-3.3c2.1,0.9,2.5,0.2,3.3,0.6
		c2.4,1.2,2.4-0.3,2.4,1.2s-3.3,0-0.9,1.7c0,0,1.1-0.7,2.5-1.1c1.4-0.4,2.9,0,2.9,0s2.5-1.1,4-1.4s3.2,0.4,3.2,0.4h2.9
		C254.8,264.5,253,261.3,253,261.3z"/>
	<path class="st0" d="M177.2,243.4c0,0,1.8,0.9,2.7,0.6c0.9-0.3,2.4-0.3,3.6-0.3c1.2,0,3.3-0.3,3.3-0.3l0.6,1.8c0,0,1.5,1.5,3.3,0.9
		c1.8-0.6,4.5-0.3,4.5-0.3l5.4,0.3l1.5-2.1c0,0,1.8-0.6,2.7,0.3l3.3,2.1l2.7-0.6l1.8,0.6l2.7-0.6c2.4-0.3,3.9-0.3,3.9-0.3
		c2.4,1.2,4.5,1.2,4.5,1.2s4.5,0.3,5.7,0c1.2-0.3,9.4,0.3,10.3-0.3s2.7-0.9,2.7-0.9l-0.6-4.2c-3.6-0.3-3.9,0-5.7,0
		s-17.5-1.2-22.1-1.2c-4.5,0-10,0.9-13.9,0.9c-3.9,0-16.3-0.3-21.2-0.3s-7.6,0-9.1,0l2.7,1.8L177.2,243.4z"/>
	<path class="st0" d="M167.4,157.9l-21.4-0.2c0,0,10.2,1.3,12,1.3c1.7,0,7.4,0.2,7.4,0.2l2.2,1.5L167.4,157.9z"/>
	<path class="st0" d="M156.9,161.8c-5.2-0.2-8.7,0.4-9.8,0.7c-1.1,0.2,1.3,0.2,4.1,0.9s8.9,0.4,11.3,1.1c0.6,0.2-0.7,1.1,0,1.1
		c0.7,0,2.4-2.4,2.4-2.4S162.2,162,156.9,161.8z"/>
	<path class="st0" d="M161,166.4c-6.6-0.6-6.9,0.6-6.9,0.6s-0.2,6.6-0.2,9.2s0.2,2,0.9,2.8c0.7,0.9,0.9,0.7,1.1-5.4
		c0.1-1.7,0.1-2.6,0.1-3.1c0.3-0.5,1.9-0.2,1.9-0.2s0.4,33.4,0.7,35.8c0.2,2.4,1.5,1.1,1.5,1.1l-0.9-34.8l1.5,0.6
		c0,0,0.2,2.8,0.4,5.2c0.2,2.4,0.4,12.2,0.7,18.7c0.2,6.5,0.4,11.1,0,13.3s0.7,7.4,1.1,8.1c0.4,0.7,0.7-8.3,0.7-8.3
		s-0.4-39.4-0.4-40.7S163.2,166.6,161,166.4z"/>
	<path class="st0" d="M126,160.7c0.2-1.2,0.3-3.4,0.3-3.4l-8.7-0.2c0,0,4.5,0.5,4.7,1.1c0.3,0.9-0.2,0.2,0.3,0.9
		c0.5,0.8,0.5,0.8,0.5,0.8s-0.8,0.6-1.2,0.8c-1.2,0.5-3.4,0.5-3.4,0.5s0.9,1.8-0.6,2.7s-2.9,1.5-2.9,1.5s2.7,0.6,4,0.5
		c1.8-0.2,2.3-0.2,3.7-1.7c1.4-1.5,1.7-1.8,1.1-2.1c0,0,0-0.8,0.5-0.9C124.7,161,125.9,162,126,160.7z"/>
	<path class="st0" d="M119.9,185.3c0.2,3.5,1.1,11,1.1,14.6c0,3.7,0.2,12.2,0.5,14.2s0.8-3.2,0.8-7c0-3.8-1.2-37.2-1.2-38.4
		c0-1.2,0.5-0.9-1.1-2.1c-1.5-1.2-7.9-0.6-7.9-0.6l-0.5,1.1l2.3,1.1l0.4,1.2c0-0.3,0-0.5,0-0.5l2.1-0.2l0.2,6.4c0,0,0,0,0,0
		c0.9,0.6,0.9,0.9,0.9,2.7c0,1.8-0.3,2.8-0.7,4.4l0,1.6c0.2,0.4,0.5,0.9,0.5,2.2c0,2.4,1.4,0.6,1.4,0.6s0.1-11.5-0.2-13
		c-0.3-1.5,0.5-0.8,1.1-0.3S119.8,181.8,119.9,185.3z"/>
	<path class="st0" d="M85.6,162.8c0,0-3.4-0.5-4.2,0c-0.8,0.5,0.8-0.3,1.4-0.2c0.6,0.2,0.5,0.8-0.8,2.5c-0.5,0.7-0.9,1.1-1.3,1.2
		c0.7-0.2,1.7-0.5,2.5-0.9C84.7,164.7,85.6,162.8,85.6,162.8z"/>
	<path class="st1" d="M80.7,166.4c-0.4,0.1-0.8,0.2-0.8,0.2S80.2,166.6,80.7,166.4z"/>
	<path class="st0" d="M84.8,160c-0.3,0.1-1.4,0.2-2.9,0.2c-0.4,0.4-0.8,0.9-1.4,1.4c0,0,0,0-0.1,0.1c1.3,0,2.3,0.1,2.3,0.1l2.8-0.5
		c0,0,1.1,0,1.1-0.6c0-0.6-0.2-2.7-0.2-2.7s-1.7-0.5-1.7,0.3S85.6,159.7,84.8,160z"/>
	<path class="st0" d="M82.5,206.3c0.2,1.7,1.1,0.8,1.1,0.8s-0.3-33.3-0.2-35.8c0.2-2.5,0-3.3-0.8-3.9s-2.7-0.8-3.6-0.8
		c-0.9,0-3.4,0.2-3.4,0.2l1.7,1.8l0.8,1.6l1.2,0.2c0,0,0.2,8.1,0.3,8.7c0.2,0.6,1.2,0.3,1.2,0.3s0.2-3,0.2-4.7c0-1.7,0-0.9,0.2-2
		c0,0,0.8,4.2,0.6,8C81.7,184.5,82.3,204.6,82.5,206.3z"/>
	<path class="st0" d="M181.3,252.8c1.7,0.2,6.4-0.2,8.1-0.5c1.7-0.2,3.9,0.2,5.6,0.5s4.6,0,4.6,0l3.4,1l2.7,0.2l-0.7-1.5l2.9-0.2
		l2.9,0.5c0,0,1.2,0.2,2,0.5c0.7,0.2,1.2,0,2.2-0.7c1-0.7,2.7-1.7,2.7-1.7l-30.3-0.7c0,0-15.6,0-17.1,0s1,1.2,2.2,1.2
		C173.8,251.3,179.6,252.5,181.3,252.8z"/>
	<path d="M222.2,269C222.2,269,222.2,269,222.2,269c0.1,0.1,0.3,0.1,0.4,0.1C223,269.1,222.6,269,222.2,269z"/>
	<path class="st0" d="M128.6,245c0.9-0.3,9.9-0.9,9.9-0.9l17.2,0.9l1.2-2.6c0,0-9.3,0-13.4-0.6c-4.1-0.6-30.6-0.6-30.6-0.6
		c-3.8,0.3-5.5,2.3-3.2,1.7s2.9,0.6,4.1,0s1.7-0.3,2.6-0.3s2,0.6,2.9,0.6c0.9,0,2.6,1.5,2.6,1.5l2.9,0.3
		C124.8,245,127.7,245.2,128.6,245z"/>
	<path class="st0" d="M99.1,264.4c-4.4,0.4-23.8,0-26.6,0s-6-0.4-6-0.4c-1,1-1.8,1.7-2.4,2.1c0.3,0,0.6,0.1,1.1,0.1
		c2.3,0.3,0,0,2.3,1.7c1.1,0.9,2,0.6,3.7-0.3c1.7-0.9,0,0,1.7-1.4c1.7-1.4,8.9,0,8.9,0s11.5,0.3,12.9,0.3c1.4,0,4,0.3,4,0.3h3.4
		c0,0,1.1,0,3.7-0.9c1-0.3,1.4-0.9,3.7-0.6c2.3,0.3,2.6,1.4,4.3,1.4c1.7,0,1.7,0,4,0c0.8,0,1,0,1.1,0c0,0,0,0,0,0c0.1,0,0.3,0,0.9,0
		c1.1,0,2.3-0.5,3.1-0.9c-1.3-0.8-2.2-1.1-2.2-1.1S103.5,264,99.1,264.4z"/>
	<path class="st0" d="M128.5,253.2c1.3-0.3,1.3-0.3,1.3-0.3s1.3,1.9,2.2,1.6s2.6-0.3,2.6-0.3l3.2-0.3l5.5,0.3l2.2-0.3l4.8-0.3
		l4.8,0.3h5.5c0,0-1.3-1.6-3.2-2.2s-30.5,0.3-30.5,0.3S127.2,253.5,128.5,253.2z"/>
</g>
</svg>
