<?xml version="1.0" encoding="utf-8"?>
<!-- Generator: Adobe Illustrator 20.1.0, SVG Export Plug-In . SVG Version: 6.00 Build 0)  -->
<!DOCTYPE svg PUBLIC "-//W3C//DTD SVG 1.1//EN" "http://www.w3.org/Graphics/SVG/1.1/DTD/svg11.dtd">
<svg version="1.1" xmlns="http://www.w3.org/2000/svg" xmlns:xlink="http://www.w3.org/1999/xlink" x="0px" y="0px"
	 viewBox="0 0 360 360" style="enable-background:new 0 0 360 360;" xml:space="preserve">
<style type="text/css">
	.st0{fill:none;}
	.st1{fill:#FFFFFF;}
</style>
<g id="Layer_4">
</g>
<g id="Layer_3">
	<g>
		<path d="M225.8,167.5c0.9-32.2,9.8-49.2,9.8-49.2s-10.3,6.5-15.2,12.1c-5,5.5-10.5,13.3-10.5,13.3l11.3-3c0,0-5.1,19.5-7.3,33.9
			s-5.4,16.2-10.3,15.2c-13.1-2.7-14.4-50.2-14.4-57.4l9.8,3.6l-13.4-34.1l-13.4,34.1l9.8-3.6c0,7.2-1.2,54.7-14.4,57.4
			c-5,1-8.1-0.8-10.3-15.2s-7.3-33.9-7.3-33.9l11.3,3c0,0-5.6-7.8-10.5-13.3c-5-5.5-15.2-12.1-15.2-12.1s8.9,17.1,9.8,49.2
			c0.7,23.8-3.3,37,0.6,43.7c3.9,6.6,6,3.5,14.2,5.2c7.2,1.5,10.2,2,14.1,10.9c3.4,7.8,4.1,21.4,4.2,24.5c0,0.1,0,0.2,0,0.4
			c0,3.1,4.3,5.2,7.2,5.1c3.1-0.1,7.1-2,7.1-5.1c0-0.2,0-0.3,0-0.4c0.1-3.3,0.8-16.7,4.2-24.4c3.9-8.8,6.9-9.4,14.1-10.9
			c8.2-1.7,10.4,1.5,14.2-5.2C229.2,204.5,225.1,191.3,225.8,167.5z M213.8,140.8c0-0.3,2.2-4.1,6.3-8c1.8-1.7,7.7-6.4,7.7-6.4
			s0,0-0.1,0.1c2-1.7,3.7-3.2,3.7-3.2l-4.5,14.7l-0.6,0.3c0-0.2,0-0.4,0-0.4s0.3-0.6,0.4-1.2c0,0-0.5-0.6-0.5-0.8
			c0-0.2-0.1-0.4-0.1-0.6c-0.1-0.2,0-0.4,0.3-0.6s0-0.4-0.2-0.9c-0.1-0.2-0.2-0.5-0.3-0.7c0.7-2.2,1.1-3.6,1.1-3.6s-2.4,2.9-2.9,4.2
			c-0.1,0.2-0.1,0.4-0.2,0.7l-4,2.3c0.1-0.3,0.3-0.6,0.4-0.9c0.2-0.4,0.4-0.8,0.6-1.2c-1.2,0.9-5.4,5.4-5.4,5.4l5.7-1.1
			C221.1,138.9,213.8,141.3,213.8,140.8z M189,157.5c-1-1-1-1.2-1.6-2c-0.5-0.8-1.3-1.6-1.3-1.6s-0.7-1.6-0.8-1s0.7,1-0.1,0.5
			s-0.7-6-0.7-6l0,0c0-0.1,0-0.1,0-0.2c0-0.9-0.3-2.6-0.3-2.6s0.4-0.9,0.6-0.8c0.4,0.2-0.1,0.9,0,1.7c0.1,0.8,0.6,1.5,0.8,1.9
			c0.1,0.3,0.2,0.2,0.3,0.5c0.1,0.1,0.3,0.2,0.5,0.4c1.2,0.8,1.4,0.5,1.4,1.3s0.4,2.9,0.8,4.8C189.1,156.4,190,158.5,189,157.5z
			 M148.9,153.9c0,0,0.8,4.5,1.4,8.3c-0.1,0-0.1-0.1-0.3-0.3c-0.5-0.9-0.1-0.1-1.4-1.6c-0.5-5-1-8.8-1-8.8L148.9,153.9z
			 M151.1,173.6c-0.6,2.5,0,2.2-0.6,4.1c-0.5,1.4-1.1,1.8-1.5,2.4c0.1-5.2,0.3-11.8,0-16.2c0.1,0,0.2,0,0.2,0H149c0-0.2,0-0.5,0-0.7
			c0.4,0.5,0.4,0.7,0.3,0.7h0.7c0,0,0,0,0.4,1.1c0.3,1,0.1,0.3,0.6,1.2c0.2,2.6,0.3,5.2,0.4,6.8
			C151.2,173.1,151.2,173.3,151.1,173.6z M187.1,238.1c0,0,0,0,0,1.1s0,0,0.6,1.5c0.3,0.8,0.2,0.8-0.5,2c-0.3,0.5-0.6,0.9-1.4,2
			c-0.1,0.1-0.1,0.2-0.2,0.2c0.1-2.4,0.1-6.5,0.1-10.7c0.1-0.1,0.1-0.1,0.2-0.2c0.8-0.9,1.5-1.2,1.5-1.2l-0.5,3.5L187.1,238.1z
			 M186,107.4c0,0,0.6,0.9,0.8,1.7c0.2,0.8,5.5,14.4,5.5,15.3c0.1,0.9-1.8-2.7-1.8-2.7s-2.9-8.5-3.5-10.3c-0.4-1.3-1-2.1-0.9-1.4
			c0.1,0.5,0.2,2.2,0.3,3c0.4,2,1,4.3,1.5,5.8c0.9,2.7,2.9,6.1,4,8c0.9,1.3,2,2.6,2.3,2.8c0.5,0.5,0.5,0.6,0,0.7
			c-0.5,0.1-1.8-0.5-1.8-0.5c-0.1,0-0.1-0.1-0.2-0.1c-0.2-0.1-0.3-0.2-0.4-0.3c-1-0.5-4.5-2.2-4.5-2.2l0.1,2.1
			c-0.1,2.9-0.2,9.5,0,11.8c0.2,3.1-0.7,3.8-0.7,3.8s-0.5-0.7-0.7-1.4c-0.2-0.7,0.5-0.9-0.2-1.9c-0.7-0.9-1.7-2.6-1.4-3.6
			c0.1-0.5,0-3.9-0.2-7.1l0.7-0.3l0.4-21.3C185.6,108.5,186,107.4,186,107.4z M177.8,128.4c-0.6,2,0,2.3,1.2,2s2.9-0.5,2.9-0.5
			l-6.6,2.5l5-12.9C180.2,119.4,178.4,126.4,177.8,128.4z M168.7,193.5c5.6-1.1,8.6-11.2,8.6-11.2l0,0c0.3-0.8,0.7-2,1.1-3.5
			c1-3.4,1.2-7,1.6-5.9c0.6,1.8,0.6,5.5,0.4,8.7c0.1,0.7,0.2,1.4,0.3,2.2c0,0,0.6,4.7-1.6,9.7c-2.2,5-2.6,6.2-3.6,7.9
			c-1,1.6-1.4,2.4-1.2,4.2c0.2,1.8,0.6,3.6,0.6,3.6l1.1,3.4c-0.8-0.2-1.6-0.6-2-0.9c-1.4-1.1-5-5.6-6.4-7.8
			c-1.4-2.2-3.1-3.3-3.9-3.6c-0.8-0.3-2.2-0.3-3.9-1.1c-1.7-0.8-1.4-2-2.2-4.5c-0.8-2.5-2.5-4.2-3.3-7.5c-0.8-3.3,0-5.3,0.8-6.7
			c0.8-1.4,1.1,3.9,3.1,8.1C160.1,192.6,163.2,194.6,168.7,193.5z M139.7,123.8c-0.1-0.4-1.1-1.9-1.1-1.9s6.6,4.9,9,6.8
			c2.5,1.9,8.9,11.1,8.9,11.1l-1.1-0.4l0.1,0.1c-0.1-0.1-0.3-0.2-0.4-0.2l-2.1-0.8c0,0-0.1-0.1-0.2-0.3c-0.6-0.2-1.3-0.4-1.9-0.5
			c-2.6-0.3-3-0.5-3.1-0.1c0,0.2,0.2,1,0.5,2l0.4,3c-0.5-1.1-1.1-2.1-1.3-2.2c-0.6-0.3-1-0.4-1.3-0.6c-0.6-1.8-1.4-4-2.1-5.9
			c-0.8-3-1.7-6.1-2.3-7.2c-0.3-0.6-0.5-1.1-0.7-1.5C140.3,124.4,139.7,123.9,139.7,123.8z M217.9,211.4c-2.9,1.1-17.5-0.1-20.9,3
			c-2.5,2.3-4.6,5.9-5.8,9.7l-0.8,1.1c0,0-2,1.7-2.5,4.4c-0.3,1.5,0.2,1.2-0.9,1.5c-0.6,0.1-1,0.4-1.3,0.7c0-5.5-0.1-10.3-0.1-10.3
			V159c0.1,0.3,0.1,0.5,0.2,0.7c0.4,1.4,0.7,1.4,1,3.3c0.5,3.8,0.3,4,0.1,5.5c-0.2,1.4-0.2,1.9-0.2,3.3s1,3.8,0.6,4.4
			c-1.7,2.4-0.6,3.8-0.6,4.5c0,0.1,0,0.2-0.1,0.4c0.6,0.4,0.9,0.6,1.5,1.4c0.9,1.1,3.2,2.3,3.2,2.3s1.1,3.2,3.4,7.2
			c0.5,0.8,1.2,1.5,2,2.1c-1,0.5,0.6,1.1-0.5,1.3c-1.2,0.2-1.2-0.2-2.4,0s0.5,1.4,4.5,3.3c4,1.9,7.3,1.7,10.9,0.5
			c3.5-1.2,5.4-5.2,7.1-7.1c1.7-1.9,0.2-1.7,0.7-3.1s0.7-1.7,1.9-2.1c1.2-0.5,0.5-1.4,0.9-2.4c0.5-0.9,0.5-2.4,0.2-3.3
			c-0.2-0.7,0.6-0.9,1.1-0.9c0.1,1.1,0.1,2.4,0.2,3.4c0.3,2.3,0.6,12,0.6,16.9C221.9,205.4,220.8,210.2,217.9,211.4z M221.2,174
			c-0.2,4.3-1,3.9-1,2.9c0-1-0.4-2.9-0.4-3.7c0-0.8-0.2-1,0.2-2.5c0.4-1.4,0-3.9,0.6-5.6c0.6-1.6,1.4-12.1,1.4-12.1l1.6-2.5
			C223.7,150.5,221.4,169.6,221.2,174z"/>
		<path class="st0" d="M221.1,180.2c-0.5,0.1-1.2,0.3-1.1,0.9c0.2,0.9,0.2,2.4-0.2,3.3c-0.5,0.9,0.2,1.9-0.9,2.4
			c-1.2,0.5-1.4,0.7-1.9,2.1s0.9,1.2-0.7,3.1c-1.7,1.9-3.6,5.9-7.1,7.1c-3.6,1.2-6.9,1.4-10.9-0.5c-4-1.9-5.7-3.1-4.5-3.3
			s1.2,0.2,2.4,0c1.1-0.2-0.5-0.9,0.5-1.3c-0.8-0.6-1.5-1.3-2-2.1c-2.3-4-3.4-7.2-3.4-7.2s-2.3-1.1-3.2-2.3c-0.6-0.8-0.9-1-1.5-1.4
			c0-0.1,0.1-0.2,0.1-0.4c0-0.7-1.1-2.2,0.6-4.5c0.4-0.6-0.6-3-0.6-4.4s0-1.9,0.2-3.3c0.2-1.4,0.4-1.7-0.1-5.5
			c-0.2-1.9-0.6-1.9-1-3.3c-0.1-0.2-0.1-0.4-0.2-0.7v62.4c0,0,0.1,4.8,0.1,10.3c0.3-0.3,0.7-0.6,1.3-0.7c1-0.2,0.6,0,0.9-1.5
			c0.5-2.7,2.5-4.4,2.5-4.4l0.8-1.1c1.2-3.9,3.3-7.4,5.8-9.7c3.4-3.2,18.1-1.9,20.9-3s4-6,4-10.9c0-4.9-0.3-14.6-0.6-16.9
			C221.2,182.5,221.2,181.3,221.1,180.2z"/>
		<path class="st0" d="M141.7,126.6c0.6,1.2,1.5,4.2,2.3,7.2c0.7,1.9,1.5,4.1,2.1,5.9c0.3,0.2,0.7,0.3,1.3,0.6
			c0.3,0.1,0.8,1.1,1.3,2.2l-0.4-3c-0.3-1-0.5-1.8-0.5-2c0.1-0.4,0.5-0.2,3.1,0.1c0.6,0.1,1.3,0.3,1.9,0.5c0.1,0.2,0.2,0.3,0.2,0.3
			l2.1,0.8c0.1,0.1,0.3,0.2,0.4,0.2l-0.1-0.1l1.1,0.4c0,0-6.4-9.2-8.9-11.1c-2.5-1.9-9-6.8-9-6.8s1,1.5,1.1,1.9
			c0,0.1,0.6,0.6,1.4,1.2C141.2,125.5,141.5,126,141.7,126.6z"/>
		<path class="st0" d="M184.9,130.9l-0.7,0.3c0.2,3.2,0.3,6.6,0.2,7.1c-0.2,0.9,0.7,2.6,1.4,3.6c0.7,0.9,0,1.2,0.2,1.9
			c0.2,0.7,0.7,1.4,0.7,1.4s0.9-0.7,0.7-3.8c-0.2-2.4-0.1-8.9,0-11.8l-0.1-2.1c0,0,3.5,1.6,4.5,2.2c0.1,0.1,0.3,0.2,0.4,0.3
			c0.1,0,0.1,0.1,0.2,0.1c0,0,1.2,0.5,1.8,0.5c0.5-0.1,0.5-0.2,0-0.7c-0.3-0.3-1.3-1.6-2.3-2.8c-1.1-1.9-3.2-5.3-4-8
			c-0.5-1.5-1-3.8-1.5-5.8c-0.1-0.8-0.3-2.5-0.3-3c-0.1-0.7,0.5,0,0.9,1.4c0.5,1.8,3.5,10.3,3.5,10.3s1.9,3.6,1.8,2.7
			c-0.1-0.9-5.3-14.5-5.5-15.3c-0.2-0.8-0.8-1.7-0.8-1.7s-0.4,1.1-0.8,2.2L184.9,130.9z"/>
		<path class="st0" d="M150.1,161.9c0.1,0.2,0.2,0.3,0.3,0.3c-0.6-3.8-1.4-8.3-1.4-8.3l-1.3-2.3c0,0,0.6,3.8,1,8.8
			C150,161.8,149.6,161.1,150.1,161.9z"/>
		<path class="st1" d="M148.9,163.1c0,0.2,0,0.5,0,0.7h0.2C149.3,163.8,149.3,163.6,148.9,163.1z"/>
		<path class="st0" d="M150.3,165c-0.4-1.1-0.4-1.1-0.4-1.1h-0.7c-0.1,0-0.2,0-0.2,0c0.3,4.4,0.1,11,0,16.2c0.4-0.6,1.1-1,1.5-2.4
			c0.6-1.9,0-1.6,0.6-4.1c0.1-0.2,0.1-0.4,0.2-0.6c-0.1-1.5-0.2-4.1-0.4-6.8C150.4,165.3,150.6,165.9,150.3,165z"/>
		<path class="st0" d="M185.9,234c-0.1,0.1-0.1,0.1-0.2,0.2c0,4.1,0,8.2-0.1,10.7c0.1,0,0.2-0.1,0.2-0.2c0.8-1.1,1.1-1.4,1.4-2
			c0.6-1.2,0.8-1.2,0.5-2c-0.6-1.5-0.6-0.5-0.6-1.5s0-1.1,0-1.1l-0.2-1.8l0.5-3.5C187.4,232.8,186.6,233.1,185.9,234z"/>
		<path class="st0" d="M220.8,134.6c-0.2,0.5-0.4,0.9-0.6,1.2c-0.2,0.3-0.3,0.6-0.4,0.9l4-2.3c0.1-0.2,0.2-0.5,0.2-0.7
			c0.4-1.3,2.9-4.2,2.9-4.2s-0.4,1.5-1.1,3.6c0.1,0.2,0.1,0.5,0.3,0.7c0.2,0.5,0.5,0.6,0.2,0.9s-0.4,0.4-0.3,0.6
			c0.1,0.2,0.1,0.4,0.1,0.6c0,0.2,0.5,0.8,0.5,0.8c-0.1,0.6-0.4,1.2-0.4,1.2s0,0.1,0,0.4l0.6-0.3l4.5-14.7c0,0-1.7,1.5-3.7,3.2
			c0-0.1,0.1-0.1,0.1-0.1s-5.9,4.7-7.7,6.4c-4.1,3.8-6.3,7.6-6.3,8c0,0.5,7.3-1.9,7.3-1.9l-5.7,1.1
			C215.4,140,219.6,135.5,220.8,134.6z"/>
		<path class="st0" d="M158.1,188.4c-2-4.2-2.2-9.5-3.1-8.1c-0.8,1.4-1.7,3.3-0.8,6.7c0.8,3.3,2.5,5,3.3,7.5
			c0.8,2.5,0.6,3.6,2.2,4.5c1.7,0.8,3.1,0.8,3.9,1.1c0.8,0.3,2.5,1.4,3.9,3.6c1.4,2.2,5,6.7,6.4,7.8c0.5,0.4,1.2,0.7,2,0.9l-1.1-3.4
			c0,0-0.4-1.8-0.6-3.6c-0.2-1.8,0.2-2.6,1.2-4.2c1-1.6,1.4-2.8,3.6-7.9c2.2-5,1.6-9.7,1.6-9.7c-0.2-0.8-0.3-1.5-0.3-2.2
			c0.2-3.2,0.2-6.8-0.4-8.7c-0.4-1.1-0.6,2.6-1.6,5.9c-0.5,1.5-0.8,2.7-1.1,3.5l0,0c0,0-3.1,10.1-8.6,11.2S160.1,192.6,158.1,188.4z
			"/>
		<path class="st0" d="M187.9,149.6c0-0.8-0.3-0.5-1.4-1.3c-0.2-0.1-0.4-0.3-0.5-0.4c0-0.2-0.2-0.2-0.3-0.5
			c-0.1-0.4-0.6-1.2-0.8-1.9c-0.1-0.8,0.4-1.5,0-1.7c-0.2-0.1-0.6,0.8-0.6,0.8s0.3,1.7,0.3,2.6c0,0.1,0,0.1,0,0.2l0,0
			c0,0-0.1,5.5,0.7,6s0,0,0.1-0.5s0.8,1,0.8,1s0.8,0.8,1.3,1.6c0.5,0.8,0.5,0.9,1.6,2s0.1-1-0.3-3
			C188.3,152.5,187.9,150.4,187.9,149.6z"/>
		<path class="st0" d="M220.6,165.1c-0.6,1.6-0.2,4.1-0.6,5.6c-0.4,1.4-0.2,1.6-0.2,2.5c0,0.8,0.4,2.7,0.4,3.7c0,1,0.8,1.4,1-2.9
			c0.2-4.3,2.5-23.5,2.5-23.5l-1.6,2.5C222.1,153,221.2,163.5,220.6,165.1z"/>
		<path class="st0" d="M175.3,132.3l6.6-2.5c0,0-1.8,0.2-2.9,0.5s-1.7,0.1-1.2-2c0.6-2,2.4-9,2.4-9L175.3,132.3z"/>
	</g>
</g>
</svg>
