<?xml version="1.0" encoding="utf-8"?>
<!-- Generator: Adobe Illustrator 21.0.0, SVG Export Plug-In . SVG Version: 6.00 Build 0)  -->
<!DOCTYPE svg PUBLIC "-//W3C//DTD SVG 1.1//EN" "http://www.w3.org/Graphics/SVG/1.1/DTD/svg11.dtd">
<svg version="1.1" id="Layer_16" xmlns="http://www.w3.org/2000/svg" xmlns:xlink="http://www.w3.org/1999/xlink" x="0px" y="0px"
	 viewBox="0 0 601.5 360" style="enable-background:new 0 0 601.5 360;" xml:space="preserve">
<style type="text/css">
	.st0{fill:#FFFFFF;}
	.st1{fill:none;stroke:#000000;stroke-width:0;stroke-linecap:round;stroke-linejoin:round;}
	.st2{fill:#FFFFFF;}
</style>
<g>
	<path class="st0" d="M355.7,285.6c0,0-0.2,0.9-0.6,2.1c1.3,0.4,2.5,0.8,3.8,1.2C357,287.3,355.7,285.6,355.7,285.6z"/>
	<path d="M595.9,103.7c-0.6-0.9-4.3-1.9-4.3-1.9s0.7-3.2,0.7-5.7c0-2.5-25-3.8-37.8-4.4c-12.9-0.6-50.7-2.5-50.7-2.5
		s-2.1-2.5-4.3-1.9c-2.1,0.6-54-1.6-60.4-1.6c-6.4,0-24.5,6.3-29.5,13.3c-5,7-13.9,16-28.9,22.7c-7,3.1-18.5,6.9-27.4,8.5
		c-5,0.9-10.3,0.9-13.2,0.8c-3.3-4-7-7.6-9.7-12c-4.8-8-5.6-18.7-2.6-31.2c0.1-0.6,0.3-1.1,0.6-1.6l15.5-8l1.9-2l0.4-1
		c3.3-0.6,4.2,0,3.8-1.7c-0.6-2.4-3.2-5.7-3.2-5.7L330.6,68c0,0-2.3-4.9-8.5-6.1c-6.3-1.2-24.1,3.4-28.1,6.8
		c-10.5,9.1-26.3,31-33.9,43.6c-3.3,5.5-6.6,11.7-9.3,18.3c-1-0.1-2-0.3-3-0.4c-8.9-1.6-20.4-5.5-27.4-8.5
		c-15.1-6.7-23.9-15.8-28.9-22.7c-5-7-23.1-13.3-29.5-13.3c-6.4,0-58.3,2.2-60.4,1.6c-2.1-0.6-4.3,1.9-4.3,1.9S59.5,91,46.6,91.6
		c-12.9,0.6-37.8,1.9-37.8,4.4c0,2.5,0.7,5.7,0.7,5.7s-3.7,1-4.3,1.9c-1.6,2.7,1.4,8.9,6.4,10.8c5,1.9,10,4.4,10,4.4s0,0.6,6.4,6.3
		c5.2,4.6,17.9,7.6,17.9,7.6s-2.9,5.1,1.4,8.2s13.6,6.3,19.3,7.6c5.7,1.3,17.9,0,17.9,0s-5,3.2-2.1,5.1c2.9,1.9,6.4,5.1,12.1,5.7
		c5.7,0.6,5.7,0.6,5.7,0.6s-2.9,1.9,0.7,5.7c3.6,3.8,12.1,5.7,18.6,5.1c6.4-0.6,9.3,0.2,9.3,0.2s-5.4,3.5-4.7,8.6
		c0.7,5.1,4.3,5.7,8.6,6.3c4.3,0.6-0.7,7,4.3,8.9c5,1.9,14,0.8,16.1-1.1c2.1-1.9-0.7,8.2,6.4,10.8c7.1,2.5,14.3,0.6,14.3,0.6
		s-2.1,7.6,5,12.1c7.1,4.4,11.4,3.8,11.4,3.8s-3.3,8.5,1.2,11.6c9.3,6.3,16.6-4,16.6-4s-0.2,10.6,7.7,13.1
		c7.9,2.5,13.8-4.1,13.8-4.1s1.9,7,9.1,7c3.1,0,5.9-2,8.6-5.4c-1.3,11-2.6,23.1-5.2,35.3c-0.9,4.4-4.6,15.1-2.6,16.4
		c0,0-0.1,0-0.1,0.1c-5.1,2.7-6.6,6.9-6.6,6.9s-3.4,4.5-0.8,3.8c2.5-0.7,3,0.3,3,0.3s3,1.1,4.6,0.6c3.8-1.1,9.8-3.8,14.9-5.4
		c0.9-0.3,1.7-0.5,2.4-0.6c-0.8,2.6-1.7,5.7-1.5,7.5c0.3,3.5,1.5,5.5,1.5,5.5s0.1,3.6,1.1,3c1.2-0.7,2.5-2,2.5-2s2.7-0.6,4.6-3.8
		c1.2-2,2.2-6,3.1-9.8c2.4,0.6,5.2,1.5,7.1,2.8c4,2.7,7.6,6.6,11.5,5.9c2.5-0.4,2.1-1.2,2.7-1.2c2.2-0.2,2.5,1.5,2.5,0.2
		c0-1.6-0.9-3.6-0.9-3.6s0.4-3.6-2.7-6.3c-0.3-0.3-0.7-0.6-1-0.8c1.5-1.4,2.9-3.6,2.9-3.6s2.8,3.2,9.1,3c7.5-0.3,7.2-4.6,9.1-2.3
		c1.7,2,5,3.7,7.3,3.9c-2.9,2.6-2.6,6.2-2.6,6.2s-0.9,2-0.9,3.6c0,1.3,0.3-0.5,2.5-0.2c0.6,0.1,0.3,0.8,2.7,1.2
		c3.9,0.7,7.5-3.2,11.5-5.9c1.9-1.3,4.7-2.2,7.1-2.8c0.8,3.8,1.9,7.8,3.1,9.8c1.9,3.2,4.6,3.8,4.6,3.8s1.3,1.2,2.5,2
		c1,0.6,1.1-3,1.1-3s1.2-2,1.5-5.5c0.1-1.8-0.7-4.9-1.5-7.5c0.8,0.2,1.6,0.4,2.4,0.6c5.1,1.6,11.1,4.3,14.9,5.4
		c1.5,0.4,4.6-0.6,4.6-0.6s0.4-0.9,3-0.3c2.6,0.7-0.8-3.8-0.8-3.8s-1.5-4.3-6.6-6.9c-0.1-0.1-0.3-0.2-0.5-0.2
		c1.6-1.9-1.9-12-2.8-16.3c-2.3-11.2-3.6-22.5-4.9-32.8c2,1.9,4,2.9,6.3,2.9c7.1,0,9.1-7,9.1-7s5.9,6.7,13.8,4.1
		c7.9-2.5,7.7-13.1,7.7-13.1s7.3,10.3,16.6,4c4.6-3.1,1.2-11.6,1.2-11.6s4.3,0.6,11.4-3.8c7.1-4.4,5-12.1,5-12.1s7.1,1.9,14.3-0.6
		c7.1-2.5,4.3-12.7,6.4-10.8c2.1,1.9,11.1,3,16.1,1.1c5-1.9,0-8.2,4.3-8.9c4.3-0.6,7.9-1.3,8.6-6.3s-4.7-8.6-4.7-8.6
		s2.9-0.8,9.3-0.2c6.4,0.6,15-1.3,18.6-5.1c3.6-3.8,0.7-5.7,0.7-5.7s0,0,5.7-0.6c5.7-0.6,9.3-3.8,12.1-5.7c2.9-1.9-2.1-5.1-2.1-5.1
		s12.1,1.3,17.9,0c5.7-1.3,15-4.4,19.3-7.6s1.4-8.2,1.4-8.2s12.7-3,17.9-7.6c6.4-5.7,6.4-6.3,6.4-6.3s5-2.5,10-4.4
		C594.5,112.6,597.5,106.4,595.9,103.7z M495,123.8c0,0-5,4.4-7.3,4.4c-2.3,0,0.1,1.7-12.6-3.2c-12.7-4.8-17.9-9.9-15.8-10.2
		c5-0.8,6.2,1.1,8.1,1.1c1.9,0,5.7,0.7,5.7,0.7s1.9,2,3.5,2c1.5,0,3.8,0,3.8,0s2.7,0.4,3.8,0.4s15,3.2,15,3.2L495,123.8z
		 M511.2,120.2c-3.1-0.8-16.9-2.4-21.5-4c-4.6-1.6-5-3.6-1.2-2.8c3.8,0.8,4.2,1.6,8.4,1.2c4.2-0.4,9.6-2.4,10-1.2
		c0.4,1.2,1.5,0.8,3.8,0.8s7.3,0.8,8.8,0.8c1.5,0,11.9,0.4,11.9,0.4l-12.7,4C517.7,119,514.2,121,511.2,120.2z M380.2,128.2
		c14.5-7.4,34.7-27.8,39.2-32.5c4.5-4.8,9.1-5.6,17.4-6.9c8.3-1.3,60.7,1.7,62.4,3c0.1,0,0.1,0.1,0.2,0.1c2.3,0.3,5.7,0.6,8.5,1
		c2.1-0.3,4.8-0.5,8.3-0.3C524,93,588,97.4,588,97.4s0.2,0.5,0.3,1.2c-0.5,0.2-3.6,1.8-7.6,2.4c-4.3,0.7-7.3,1.4-9.6,1
		c-2.3-0.3-0.3,0.7-7.3,0.7c-2.8,0-6,0.3-9.3,0.6c-28.1-0.7-65.2-2.5-65.2-2.5s12.4-4.8,13.6-6.1c-2.2-0.3-4.2-0.7-6.2,0
		c-3,1.4-30.5,2.3-42.1,2.8c-2.7,1.1-6.9,3-9.5,4.7c-4,2.7-9.1,3.4-10.1,3.8c-1.1,0.4-4.7,0.8-5.8,0.8c-0.7,0-2.3,1-4.1,2.4
		c1,1.4,1.6,3,2.6,4.7c1.4,2.6,3.8,4.4,7.6,6.2c3.4,1.6,2.9,0,3.8-2.2c-2-1.4-2.7-2.7-3.9-3.9c-1.4-1.5,2.1-0.4,4.5,0.4
		c2.4,0.7,2.1-0.4,4.5-1.1c2.4-0.7,3.1-0.4,5.2-0.7c2.1-0.4,1.7-1.1,2.4-2.9c0.7-1.8-3.5-4.4-3-4.8c0.5-0.4,5,2.6,6.8,4.4
		c1.7,1.8,2.4,1.8,1.7,5.5c-0.7,3.6-4.5,2.9-9.7,4.4c-5.2,1.5-6.2,0.2-7.3-0.4c-0.2-0.1-0.4-0.2-0.6-0.4c0.4,1.3,0.9,3.4,1.1,4.3
		c0.3,1.5-2.8,2.6-5.2,2.9s-7.3-1.1-11.1-2.2c-1.3-0.4-3.3-1.9-5.3-3.7c-0.9,3.6-2.6,7.4-3.4,8.8c-1.2,2.1-6.5-4.7-5.7-3
		c0.8,1.7,2,5.9,1.2,8.9c-0.8,3-0.4-1-2.4-6.1c-0.3-0.9-10.7,4.2-11.5,8c0,0.2-0.1,0.4-0.3,0.7c-2.2,1-5,2.4-5,2.4s-1.2,0-3.1,0.3
		c-1.9,0.3-1.6-0.3-2.8,0.3c-1.2,0.7-0.6,1-2.8,1c-2.2,0-0.3,0.3-2.2,0c-1.9-0.3-1.9-0.3-1.9-0.3l-3.1-1c-0.6,2.3-1.6,2.9-1.6,2.9
		s0.7,0.8-2.6,1.5c-3.3,0.7-5.5,1.1-6.4,1.4c-0.9,0.3-1.6,1.6-2.5,1.6c-0.9,0-2.2-1.6-2.2-1.6s-2.2-3.3-3.1-3.6
		c-0.9-0.3-2.5-0.3-2.5-0.3s-5,1.6-5.9,0.3c-0.9-1.3-1.2-1.6-2.8-2.3c-0.4-0.2-0.9-0.5-1.2-0.7c-1-2-2.2-3.8-3.4-5.5
		C348.2,133.8,368.1,134.3,380.2,128.2z M382.2,167.4c-1.5-2.7-1.5-3.4-1.8-6.5c-0.4-3.1-1.1-4.2-1.1-4.2l-1.5-5.7c0,0,0,0,4.4-4.2
		c0,0,2.2,0,6.5,2.1c4.4,2.1,1.8,0.6,4-0.2s0,0,2.2-2.3l2.5-2.3c0,0,0,4.2-0.4,7.2c-0.4,3.1-0.7,4.2-2.2,6.5
		c-1.5,2.3-0.7,1.9-2.2,3.1s-1.5-1.9-2.9,1.9c-1.5,3.8-3.3,5.7-6.2,7.2C380.7,171.6,383.6,170.1,382.2,167.4z M353.2,230.6l-0.1-0.1
		c0,0-2.3,0.9-4-1.1c-1.6-1.9-3.6-5-4-6.1c0.1,0.5-0.1,1.1-1.5-0.1l-1.9-2c0,0,0.8,2.9,2.1,4.4c1.3,1.6,0.4,2.2,0.8,3.3
		c0.4,1.1,0,2.9,1.9,5.1c1,1.1,2.4,2.6,3.6,3.7c0.4,2.8,1.7,10.7,2.4,15.9c0.8,5.8,3.3,18.5,3.7,20.5c-0.4,0-1.4,0.2-2.6-0.1
		c-1.1-1.2-2.8-3.4-3.7-6.6c0.9,0.9,1.8,1.8,2.3,2c1.3,0.4,0.2,0-0.8-1.6c-1.1-1.6,0.6-1.1,0.6-1.1c-1.7-2.4-1.5-2.9-1.7-3.5
		c-0.2-0.7,0.2,1.1-0.2-0.7c-0.4-1.8-0.2-0.9-0.6-2.7c-0.2-0.7-0.8-1.5-1.4-2.3c-0.3-1.5-0.5-3.1-0.8-4.7h-0.4
		c0-0.5,0.1-0.9,0.1-0.9s-1.8,0.4-3.4-0.4c-0.6-0.3-1.1-0.8-1.5-1.2c-0.3-1-0.6-1.8-0.8-2.6c-0.4,0.4-0.8,0.8-1.4,1.1
		c-0.4,0.2-0.8,0.4-1.2,0.6c-0.3,0.1-0.6,0.1-1,0.1c-1.2-0.5-2.7-1.4-4.6-3.6c-0.3-0.3-0.6-0.7-0.8-1c-0.2-0.6-0.5-1.3-0.7-1.8
		c-0.5-1.5-0.5-2.9-0.1-2.2c0.4,0.7,2,1.7,2,1.7s0.3-1.9-0.4-2.4c-0.7-0.4-0.7-1.1-0.7-1.1v-1.1c0,0-2-1.6-2.2-2.9
		c-0.2-0.8-0.3-3-0.4-4.8c0.1,0.1,0.2,0.3,0.3,0.4c1.2,1.2,4.2,2.3,4.2,2.3l-0.1-0.9l-0.7-0.6c0,0,0.1-1,0.3-0.7
		c0.2,0.3,1.2,0.5,1.2,0.5h1.1c-1.6-1.3-2.8-2.2-3.4-3.4c-0.7-1.2-1.9-2.4-2.6-4.1c-0.7-1.8-0.9-0.4-0.9-0.4s-0.1,0.9-0.7-0.6
		s-1-3.1-1-3.1l-0.1,2.6l0.2,3.1c0,0,0.1,0.4,0.3,1c0,0,0,0,0,0l-0.8-1.6c0,0,0,0.8,0.1,2.2c-1.5,1.3-3.8,2.7-6,0.1
		c-1.9-2.2-1.3-4.7-1.6-4.8c0.3-2.8,0.3-6.1,0.3-6.1s-1,3-3.4,3.8c-0.9,0.3-1.5,0.1-1.9-0.2c0.2-4.5,0.4-7.9,0.6-9
		c0.8-3.4,4.1-9,9.8-11.6c1.9-0.9,3.8-1.4,5.6-1.7c3.9-0.8,6.9,0,11.4,2.3c5.3,2.7,8.5,13.5,9.3,17.8
		C351.8,220.7,352.8,226.8,353.2,230.6z M344.7,283.7c-3.7-3.7-5.1-12.2-5.1-12.2l-1.3-10.2c0,0,2.1,6.9,3.2,7.9s2.4,0.2,3.2,2.8
		c0.7,2.6,0.7,2.2,1.3,3.7c0.6,1.6,0.7,0.8,2.1,1.6c1.3,0.8,0,0,1.5,1.6c0,0,0.7,0.2,1.1,1.2c0.4,1,0,0-0.6,1
		c-0.6,1,0.2,0.8,2.1,1.4c1,0.3,1.7,1,1.7,1s-0.4,3-1.9,4.1C350.5,288.6,348.4,287.4,344.7,283.7z M242.9,285.3
		c0.2-1.5,0.2-3.6,0.8-5.8c0.6-2.1,1.5-2.2,1.8-2.8c1.2-2.1,1.6-3,1.6-3s-1-0.4-0.4-1.9s0.2-2.8,0.8-4.1c0.6-1.3,2.2-6.4,2.2-6.4
		s2.3,1.1,4.5-1.3c0.8-0.8,1.7-1.9,2.6-3c-0.1,0.3-0.1,0.6-0.2,1c-0.2,1-0.4,1.9-0.5,2.6c-1.5,2.1-2.9,1.9-2.9,1.9s-0.6,2.9-1.8,7.1
		c-0.5,1.8-1.2,2.9-1.6,3.4c0.2-0.1,0.4-0.3,0.7-0.5c1.3-1,3.7-3.8,5.5-5.9c-2.4,5.4-5.5,11.9-8.5,15.2
		C243.3,286.6,242.7,286.8,242.9,285.3z M177.8,157.3c1.1-2.9,2.8-6.4,2.8-6.4s1.7,2.9,2.2,4.7l4.5,2.3l3.4-0.6l4.5-4.1
		c0,0-0.8,7.1-2.2,8.8c-2,2.3-9.5,3.5-11.7,2.9c-2.2-0.6-2.2-1.8-2.8-4.7C177.8,157.3,176.7,160.2,177.8,157.3z M320,230.8
		c0,0,0.8,3.6,0.6,4c-0.2,0.5-0.5,1.3-0.5,1.3s-0.2,2.3-0.3,2.7c-0.2,0.5,0.8,1.8,0.8,1.8l0.3,3.2c0,1-0.2,1.3-0.5,2.7
		c-0.3,1.5-0.3,1.3-0.8,1.6c-0.5,0.3-0.2,1.3-0.2,1.3s-0.3,1.6,0.7,0.7c0.5-0.4,0.6-0.8,0.7-1c0-0.3,0-0.5,0-0.5s0.1,0.2,0,0.5
		c0,0.9-0.1,2.8-0.8,4.5c-0.3,0.8-1,1.7-1.7,2.5c0.5,0.2,0,2.3,0,3.1c0,0.9,0.7,0.3,0.2,1.6c-0.5,1.3-2.3,2.4-3.1,2.8
		c-0.8,0.4,0-1.3,0.3-6.5c0.1-1.9,0.1-5.5,0.2-9.4l-0.2-23.3L320,230.8z M262.8,283.1c-5.5,5.3-6.7,4.2-9,3.5
		c-2.1-0.7-2.7-3.9-2.7-4.5l2.3-6.4c0,0,2.5-1.2,4.3-3.9c1.8-2.7,1.2-0.6,1.8-1.4c0.6-0.8,1.4,0.8,0.2,3.9c-1.2,3.1,0.2,1.6,0.8,1.2
		c0.6-0.4,0.8-0.2,2-1.4c1.2-1.2,0.6-1.4,1-2.7c0.4-1.2,0.8-1.8,0.8-1.8s0.6-0.8,1.8-1.2c1.2-0.4,0.6-1.6,1-3.9
		c0.4-2.3,0.2-1.2,1.2-4.7c0.2-0.9,1-0.2,1.8-1c0.8-0.8,0.8,0.6,1.2-0.2c0.4-0.8,0.8-0.6,1-2.3c0.2-1.6,0,2.3-1.4,9.2
		C269.3,272.4,268.3,277.7,262.8,283.1z M251.8,237.9c0.9-4.5,0.9-7.4,1.2-9.3c0.2-1-0.4-2.4-0.9-3.6c0.2-1.8,0.5-3.6,0.7-5.2
		c-0.2-0.6-0.3-1.4,0-2.6c0.7-3.1,4.4-12.7,7.7-15.6c3.3-2.9,9.3-5,13-3.6c3.8,1.4,9.9,5,11.9,11.2c1.4,4.5,2.3,10.2,2,13.2
		c-0.1,5-0.2,17.7-0.2,27.1l-3.8-5.9c-0.1-1.1-0.2-3.7-0.3-6.2c-0.5,0.4-1,0.6-1.5,0.7c-1.1-0.7-2.6-2.2-3.2-5.6
		c-0.2-1.4-0.5-2.6-0.7-3.6c0-1.4,0.1-2.7,0.1-3.1c0-1,1.5-0.4,1.5-0.4l1.1-0.8c0,0,1.7-0.2,2.4-0.6c0.6-0.3-1-0.8-1.7-1.1
		c-0.2-0.1-0.4-0.2-0.7-0.3c-1.7-0.8-4.3-3.2-4.3-3.2l0,0.3c-0.1,0.1-0.1,0.2-0.1,0.4c0.1-0.1,0.1-0.1,0.1-0.2l0,0.5
		c-0.1-0.1-0.1-0.3-0.1-0.4c-0.2,0.3-0.6,0.7-1.4,1.3c-3.2,2.6-3,2.9-3.7,3.3l1.7,0.2l-0.2,1.2c0.1,0.2,0.1,0.3,0.2,0.5
		c-0.6,1-2.1,3.6-2.9,4.3c-0.4,0.4-0.1,0.4,0.5,0.2c0,0.3,0.5,0.2,1.2-0.3c0.3-0.2,0.8-0.6,1.3-1c0,0.1,0,0.2,0,0.3
		c0.2,0.8,0.6,0.4,0,1.8c-0.6,1.4,0,0.4-1.1,3.1c-1.2,1.9-4.7,4.4-7,5.9c0-0.1,0-0.3,0-0.4c0.3-4.2-0.3-9.9-0.3-9.9s0,0.1-0.1,0.3
		c0-1.7-0.1-2.9-0.1-2.9s-1.2-0.6-2.1,4.2c-0.9,4.8-2.4,7.7-3.7,10.3c-1.2,2.6-3.7,5.8-6.4,6.4c-1,0.2-1.6-0.1-2-0.7
		c0.1-0.5,0.1-0.9,0.2-1.4c0-0.5,0-1.2,0-2c0.1-0.8,0.3-1.6,0.4-2.2C250.9,241.5,251.5,239.8,251.8,237.9z M245.5,203.7l-1.3-6.5
		c0,0-0.7-3.8-0.3-4.2c0.1-0.1,0.1-1.7,0.2-3.8c0,0,0,0-0.1,0.1c-0.2-0.2-0.5-0.6-0.9-1c0.8,0.1,0.3-0.1-0.4-0.8
		c-0.6-3.2-1.1-7.2-1.1-10.8c0-3.3,0.2-6.8,0.4-9.9c0.3-0.7,0.7-1.6,1.2-2.7c0.1-0.2,0.2-0.4,0.2-0.5c-0.1,0.1-0.1,0.2-0.2,0.4
		c0.8-1.7-0.1,0.1,0.2-1.1c0.3-1.2,0.9-1.6,1.2-2.5c1,13.2,3.7,27.6,6.8,40.8l-0.3,1.4l0.3,2.8c0,0-3.7,7.9-4.4,12.1
		c-0.7,4.1-0.7,1-1-0.8c-0.2-1.8-2-9-2-9L245.5,203.7z M226.4,186c-0.5-0.4-1-0.8-1.5-1.2c-0.2-0.3-0.3-0.4-0.3-0.4l-2.2-4.6
		l-0.4-6.5l2.6,2.3l1.8-3.7l-0.9-5.6l0.9-6.5c0,0,1.1-1.4,2.4-1.8c1,1.3,0,0,0.8-0.1c0.1,0,0.2,0,0.3,0c0.3,0.1,0.4,0.2,0.5,0.4
		c-0.1,0.2-0.5,0.3,0.1,0.2c0.3,1-0.1,2.7-0.1,2.7s0.3,2.3,3.1,4.3c0,0,0,1.2,0,2c0-2,0,3.6-0.9,1.3c-0.9-2.3,0,1.6,0.9,3.3
		c0.9,1.6-1.6,0.3-1.6,0.3s0.9,3.6,2.5,5.9c1.5,2.3,0,0,0.9,1.6c-0.2,1.5-0.5,2.9-1.1,4c-0.8,1.7-4.8,4.2-6.2,3.7
		C227.6,187.1,227,186.5,226.4,186z M314.3,172.5c0,0,3.1-1.8,4.8-3.2c1.7-1.4,2.2-2.8,2.2-2.8s3.9,1.4,7.9,0.9
		c0.6-0.1,1.2-0.2,1.8-0.4c0,0.8,0,2.1-0.2,3.6c-0.3,2.5-1.4,3.9-2.6,4.8c-0.5,0.4-1.4,0.7-2.2,1c-1.7,0.2-3.3,0.1-4.7-0.2
		C317.3,175.3,314.3,172.5,314.3,172.5z M363,186.5c0-0.2-0.1-0.4-0.1-0.5c0-0.1-0.1-0.1-0.1-0.1s0,0,0.1,0.1c0,0.1,0.1,0.1,0.1,0.3
		L363,186.5z M360.2,177.6c-0.4,1.9-1.2,5-2.4,5c-1.9,0-1.6-1.6-1.6-1.6l-2.7,2c0,0-3.5,1.2-4.3,0c0,0-2.1,2-1.2,2.9
		c0,0-1.7-1.1-2.3-0.6c-0.4,2.1-1.2,5.4-1.4,5.8c-0.1,0.3-1,2.4-1.7,3.9c1.7-7,3.1-13.6,4.1-20.4c1.1-1.3,2.3-2.8,3.4-4.1l0.2,0.8
		c0,0,0.8,0.2,1.3-0.5c-0.2,1.1-0.3,2.2-0.5,3.2c-1.2,5.8-1.2,7.2-1.2,7.2s0.8,0.6,2.6-2.1c1.8-2.7,2-2.7,2.2-3.7
		c0.2-1,0.8-2.6,0.2-2c-0.6,0.6-1.9,3.2-1.7,2c0.2-1.2,0.8-2.8,0.8-2.8l1.3-2.8c0.4-1.6,0.4-2.6,0.4-2.6l-0.6-1.2l-0.2-1.6
		c0.2-0.6,0.4-1.1,0.7-1.5c0,0,0,0,0,0c0.1,0.6,0.2,0.2,0.3-0.5c0.4-0.6,0.7-1.2,0.4-2.2c0.3,1,0.9,1.3,1.2,2.6
		c0.3,1.3-0.6-0.5,0.2,1.1c-0.1-0.1-0.1-0.2-0.2-0.4c0.1,0.2,0.2,0.3,0.2,0.5c0.7,1.4,1.1,2.4,1.4,3.2
		C359.7,170.7,360,174.4,360.2,177.6z M287.5,257.7l-3.8-8.1c0-0.7,0-1.6,0-2.4l3.7,5.8C287.4,254.9,287.4,256.5,287.5,257.7z
		 M267.4,176.8c3.9,0,7.8-1.5,5.7,1.1c-1.2,1.5-3.8,3.1-6.4,4.2c-0.1,0-0.2,0-0.3,0.1c-1.1,0.2-2,0.3-2.8,0.3c-0.5-0.3-1-0.7-1.2-1
		c-0.7-0.8,0.2-1,0.2-1s-1.5-0.8-2.8-3c-0.9-1.5-0.8-3.4-0.7-4.5C261.4,174.8,265,176.8,267.4,176.8z M309.8,190.8
		c-1.3-0.7-3.5-4.6-3.5-4.6s2.3,0.5,4-0.2c1.8-0.7,1.3-1.6,2.3-3.2c1.3-2.1,2.5-3,3-3.9c0.5-0.9,0.8-1.8,0.8-1.8s3.3,1.4,4.3,1.1
		c0.7-0.2,0.9,1.4,1,2.3l0,0l0,0c0,0.4,0,0.6,0,0.6s-0.8,4.4-4,8C315.3,191.7,311,191.4,309.8,190.8z M243.1,164.1
		C243.1,164.3,243,164.3,243.1,164.1L243.1,164.1z M350.7,201.6c-0.5-0.4-0.9-0.9-1.3-1.5c0,0,0,0,0,0.1l0-0.1
		c-0.8-1.2-1.4-2.4-1.4-2.4l-0.5-2.2l1.7,0.5c0,0,0.9-0.9,1.4-0.7c0.5,0.2,1.5,1.1,1.5,1.1s1,0.4,1.7,0.2l0.5-1.6
		c0,0,0.3,0.1,1.9-1.1c-0.6-0.9-0.9-0.9-1.4-2.4c-0.3-0.8-0.5-1.2-0.7-1.7c1.5,0.7,3.2,2.2,5.6-0.7c2.4-0.5,3.1-1.4,3.2-2.1
		l-0.1,1.8c0,0,0.4,7-3.1,10.6c-2.7,2.9-3.6,4.2-5.3,3.6C353.4,202.8,351.7,202.5,350.7,201.6z M296.7,189.1c0.8,1.7,0,0,2.2,2.3
		c2.2,2.3,0,0,2.2,0c2.2,0,3.3,0,3.3,0s-0.6,3.5-4.2,6.4c-3.6,2.9-5.5-0.3-8.3-4.1c-1.1-1.5-1.8-3-2.2-4.5c-0.7,0.5-2.8,1.4-6.1-0.2
		c-4.2-2-5.8-9.9-6.4-13.4c-0.6-3.5,0.6,0.6,2.8,2.6c2.2,2,3.9,3.5,3.9,3.5l4.6,1.7l-0.4-2c0,0,4.4,4.4,6.1,4.7
		C295.9,186.5,295.4,185.9,296.7,189.1z M368.7,232.8c0,0-1.9,3.2-5.2,2.6c-2.3-1.3-4.2-4.3-5.4-7c-1.8-3.7-4.1-17-4.8-21.1
		c0.2,0.1,0.4,0.1,0.6,0.2c0.8,0.2,1.2,0.1,1.7,0c0.8,2.5,5.5,17,6.5,17.7c1.1,0.8,1.8,1.9,3.3,3.1s0.7,1.2-0.4-2.7
		c-1.1-3.8-4.8-11.9-1.8-6.9c2.9,5,2.9,3.8,4,6.5c1.1,2.7-0.7,1.5,1.1,2.7c0.5,0.3,1,0.5,1.4,0.6
		C369.5,229.9,369.2,231.4,368.7,232.8L368.7,232.8z M366.8,183.9c-0.5-1.1-0.9-2.5-1.1-4c0.9-1.6-0.6,0.7,0.9-1.6
		c1.6-2.3,2.5-5.9,2.5-5.9s-2.5,1.3-1.6-0.3c0.9-1.6,1.9-5.6,0.9-3.3c-0.9,2.3-0.9-3.3-0.9-1.3c0-0.7,0-2,0-2c2.8-2,3.1-4.3,3.1-4.3
		s-0.5-1.7-0.1-2.7c0-0.1,0-0.1,0.1-0.2c0.1-0.2,0.3-0.4,0.6-0.4c0.1,0,0.2,0,0.3,0c0.8,0-0.2,1.3,0.8,0.1c1.3,0.4,2.4,1.8,2.4,1.8
		l0.9,6.5l-0.9,5.6l1.8,3.7l2.6-2.3l-0.4,6.5l-2.2,4.6c0,0-2.2,2.8-3.5,3.2C371.6,188.1,367.5,185.6,366.8,183.9z M296.7,70.8
		c8.8-6,25.8-5.3,28.2-4.7c2.4,0.6,3.9,5,3.9,5s14.4-0.7,16.5-0.7s3.6,3.2,3.6,3.2s-2.2-2-5.6-0.5c-3.6,1.6-7.6,3.1-11.1,4.3
		l-0.7,0.5c0,0-1.6,1.9-2.9,3.5c-1,0.9-2.3,1.9-3.6,2.8c-0.7,0.4-1.4,0.8-2.2,1.2c-0.8,0.2-4.6,1.3-6.1,2.2c-1.7,1-3,1.7-4.8,5.6
		c-0.4,0.8-0.6,1.7-0.9,2.6c-1.3,3.3-1.5,6.6-1.2,9.4c0.4,3.8,0.6,3.4,4.1,7.2c3.5,3.8,11,7,14,9.7c0.3,0.3,0.5,0.5,0.8,0.7
		c0.5,0.7,1.1,1.4,1.6,2.2c0.8,1.4,0.8,2.4,0.8,2.4s0,0,0,0c0,0,0,0,0,0c-0.6,1.4-2.9,1.6-3.6,1.6c-0.7,0-0.7,0.1-1.8-0.1
		c-1.1-0.3-3.4-1-3.4-1s1.4,1,1.9,1.4c0.5,0.4,0.8,0.8,1.6,1c0.7,0.3,1.7,0.8,2.8,1c1.1,0.3,2.5,0.5,3.2,0.3
		c0.4-0.1,1.4-0.5,2.2-0.9c0.3,0.9,0.6,2.1,0.3,3.6c-0.6,2.8-2,4.3-2,4.3l2.2-1.3c-1,1.9-0.4,1.1-0.2,1.7c0.2,0.6,0.4,0,0.2,1.9
		c0,0.4-0.1,0.9-0.2,1.2c-0.4,0-0.9,0.1-1.5,0.2c0,0,0,0-1.9-0.3c-1.9-0.3-1.3,0-4.1-1.7c-2.8-1.7-3.2-1.7-5.4-4
		c-2.2-2.3,1.3,2.3,5.4,6.3c4.1,4,4.1,4,6.6,5c1,0.4,2.8,0.2,4.6-0.1c0.2,0.3,0.4,0.8,0.6,1.4c0.7,2.2,1.2,6.1-1.3,10.3
		c-0.2,0.2-0.4,0.4-0.6,0.7c-4,3.8-9,4.8-13.2,4.2c-2.5-0.4-3.3-0.7-3.4-0.9c-0.1,0.8-0.8,3.8-6,5.1c-6,1.5-11,0.2-13.6-1.9
		c-2.6-2.1-2.8-0.6-2.8-0.6l1.3,2.4c-0.3,0.4-0.6,0.8-0.9,1.3c0.1,0.2,0.3,0.4,0.4,0.6c1.3,2,2.7,3.7,3.5,4.8
		c0.4-0.2,0.9-0.7,1.8-0.7c1.7,0,0.9,2.3,4.4,0.5l0.5,0.5c-0.9,0.8-2.4,2.1-4.7,3.6c-4.3,2.8-7.4,2.6-11.7,1.7c-1-0.2-2-0.7-2.9-1.3
		c-0.9-0.7-2.1-1.8-3.2-3c0.9,0.3,2.7,0.7,4.8,0.7c2.9,0,7.2-2.6,5.4-1.7c-1.8,0.9-6.1-0.5-9.2-2.1c-2.3-1.2-3.9-4.6-4.6-6.5
		c0.4-0.7,0.9-1.5,1.3-2.1c0.3-0.5,0.4-1.3,0.4-2c0.6-2.5-0.4-4.3-0.4-4.3s-1.1,1.4-3.4,5c-2.2,3.5-8.3,5.6-13,5
		c-2.1-0.3-4.7-2.1-6.2-3.2c1.1-1.6,1.7-3.4,1.7-3.4s-2.4,1.3-6.1,1.3c-1.5,0-2.9-0.9-3.9-2c0-0.1,0.1-0.1,0.1-0.2
		c0.4-1.2,0,0-0.8-1.8c-0.8-1.8,0.6,0.8-0.2-1.4c-0.8-2.2,1.9,2.6,1.7,1.2c-0.1-0.4,0-0.5,0-0.5c-0.1-0.1-0.1-0.3-0.2-0.6
		c-0.8-2-0.4-1.2,0.8-0.6c1.1,0.6,0.2-0.2-0.6-1.6c-0.6-1.1-0.9-3-1.2-4.1c0.9,0.9,2.2,1.4,4.4,0.7c5-1.5,13.2-9.8,13.2-9.8
		s-11.7,7.4-14.4,3.4c-0.5-0.7-0.9-1.5-1.2-2.4c0-0.1-0.1-0.2-0.1-0.2c0-0.1,0-0.2-0.1-0.3c0.6,0.6,1.6,1.6,2.5,1.9
		c1.3,0.5,2.4,0.2,3.7-1.2c0.7-0.7,1-1.2,1.1-1.6c0,0,0,0,0,0c-0.1,0-0.2-0.1-0.3-0.1c-0.3,0.2-0.8,0.4-1.4,0.6
		c-0.8,0.2-0.4-0.5,0.1-1.2c-0.7-0.4-1.4-0.9-2.2-1.8c-1.7-1.9-1.4-1.6-2-3.9c-0.5-1.9,0.3-4.1,0.6-4.8c1.4-2.6,3.5-4.1,4.7-4.8
		c0.1,0.1,0.2,0.2,0.3,0.3c1.6,1.7,6.7,0.4,9.9-2.4c4.7-4.2-3,1.4-6.7,1.3c-0.2-0.1-0.4-0.2-0.6-0.3c-1-0.7-1.1-1.2-1.1-4.1
		c0-1.7,0.8-3.9,1.5-5.4c0.3-0.4,0.5-0.8,0.7-1.1c0.5-0.2,0.9-0.5,1.2-1c1.4-2,1.1-2.3,1.4-3.7c0.3-1.4,3.3-6.3,3.5-4
		c0.3,2.3,1.3,0.1,1.6-1.3c0.4-1.6,2.4-5.9,3.3-7.6c2.4-3.1,4.8-6.1,6.8-9.1c0.4-0.6,0.9-1.2,1.3-1.8C285.1,83.6,289,76,296.7,70.8z
		 M332.8,142.4c-0.1,0-0.2,0.1-0.3,0.1C332.6,142.4,332.7,142.4,332.8,142.4z M331.4,142.7c-0.1,0-0.1,0-0.1,0
		C331.3,142.7,331.3,142.7,331.4,142.7z M101.9,91.7c1.7-1.3,54.1-4.3,62.4-3c8.3,1.3,12.8,2.2,17.4,6.9
		c4.5,4.8,24.8,25.2,39.2,32.5c8.2,4.2,20.1,5.3,28.8,5.5c-0.4,1-0.8,2.1-1.1,3.2c-1,0.5-2.4,1.3-4.3,2c-3.4,1.3-3.8,0.4-5.9,0
		c-2.1-0.4-1.7-1.3-3.8-1.3c-1,0-2.5-0.1-3.9-0.2c-0.7,0.3-1.3,1.1-2.5,1.6c-1.3,0.5-2.3,0.3-2.3,0.3s-1.8-0.3-2.6,0
		c-0.8,0.3-1,0.3-1.3,1.6c-0.3,1.3-1.5,1.4-1.9,0.3c-0.3-0.8,0.2-3.8,0.4-5.4l-4.1,1.6l-0.5,1.1l-0.5,1.1c0,0-1,0.8-2.8,0.5
		c-1.8-0.3-0.8,0.5-0.8,0.5s0,0-3.4,2.7c1.3-0.3-3.4,2.7,0,0c-1.3,0.3,0,0-0.5-1.6c-0.4-1.2-1,1.4-2.1,2.2c-1,0.8,0.3-2.2,0.8-4.3
		c0.5-2,3-7.1,3.3-7.8c-4-2.5-1.2,0.9-4.1-2.6c-2-2.4-4.3-3.9-5.7-4.7c0,1.2-0.1,2.6,0.1,3.3c0.3,1.3,0,1.3,1.6,2.7
		c1.6,1.3,2.2,1,2.2,1s-1.3,0.7-3.2,1.3c-1.9,0.7,0,0-3.5,2c-0.9,0.5-1.6-1.7-1.6-1.7s-1.3,1-3.2,4c-1.9,3,0,0,0.6-2.3
		c0.6-2.3,0.6-1.7,1.3-4.6c0.2-1.2,0.6-3.3,0.6-3.3c0.6-1-0.9-2.3-0.9-2.3l0.3-3.9c-1.9-1.5-3.7-3.3-3.7-4.3c0-2.2,0-1.8-1.3-4.5
		c-1.3-2.7-1.7-4.9-4.2-6.2c-2.5-1.3-5.5-0.9-11.9-0.9c-3.9,0-8.2,0.3-11.3,0.5c-1.9-0.6-4-1.4-5.9-2.7c-2.6-1.7-6.8-3.6-9.5-4.7
		c-11.6-0.5-39.1-1.3-42.1-2.8C100.6,93,100.2,93,101.9,91.7z M98.6,113.8c-1.5-0.5-7.7-5.6-4.3-4.6c3.3,1.1,16.1-1.1,17.7-0.7
		c1.7,0.4,14.4-1.8,14.4-1.8s6.7-0.4,8-0.4c1.3,0,4-0.4,4-0.4s2.3-0.4,3-1.8c0.7-1.4,1.7,0,7,1.4c5.4,1.4,6,2.5,6,2.5l-15.7,2.1
		c0,0-10.7,2.1-19.1,2.8C111.3,113.8,103.6,115.5,98.6,113.8z M84.9,92.6c7.8-0.4,12,0.9,13.2,2.2c1.2,1.3,13.6,6.1,13.6,6.1
		s-37.2,1.8-65.2,2.5c-3.3-0.3-6.5-0.6-9.3-0.6c-7,0-5-1-7.3-0.7c-2.3,0.3-5.3-0.3-9.6-1c-4-0.6-7.1-2.2-7.6-2.4
		c0-0.7,0.3-1.2,0.3-1.2S77.1,93,84.9,92.6z M7.1,106.5l2.7-0.4c0,0,9,3.9,13.8,5.6c4.8,1.7,23.9,3.9,23.9,3.9s-12.2,2.5-24.7,0.6
		C10.3,114.2,7.1,106.5,7.1,106.5z M36.4,127c-3.7-1.7-10.6-6.7-10.6-6.7s26.8,0.2,34.2-1.7c7.4-2,10.7,2.8,16.8,4
		c2.8,0.5,5.7,0.9,8.2,1.1c-2.2,1-5,2.4-6,2.7c-1.3,0.3-2.3,0.3-3.9,0c-1.6-0.3-2.3,0-3.9,0.7c-0.5,0.2-2,1-3.8,2.1l-0.4-0.3
		c0,0-8.2,1.4-14.1,2C48.3,131.1,40.1,128.7,36.4,127z M75.4,145.1c-7.3,1.3-24.5-5.3-26.3-7c1.3-0.3,2.5-0.5,3.6-0.8
		c-0.5,0.7,0.3,1.1,0.3,1.1l2.9-0.3l2.3-0.3h2.3c0,0,1.6-0.3,3.2-1.7c1.6-1.4,0,0,2.3-1.4c2.3-1.4,3.9-2,3.2-1
		c-0.6,1-5.8,5.4-5.8,5.4s6.1-1.7,7.8-2c1.6-0.3,1.6-1,4.2-1.7c2.6-0.7-2.6,2.7-2.6,2.7s2.6-1,4.5-2s2.9-1.4,3.9-2
		c1-0.7,5.8-4.4,5.8-4.4l2.9-1c0,0-1.6,2.4-2.3,3.4c-0.6,1,7.1-3.7,7.1-3.7s2.4-1.1,4.5-2c3.3,1.7,10.7,5.2,12.3,4.6
		C113.2,130.3,99.6,141,75.4,145.1z M128.4,166c-5.2,1-15.5-0.5-20.2-1c-4.7-0.5-3.3-7.4-3.3-7.4l0.9-3.9c0,0-7,0-8.4,0.5
		c-1.4,0.5-7.5-0.5-11.7-1c-4.2-0.5,1.4-3.4,4.2-5.4c2.8-2,15.5-5.9,18.3-6.9c2.8-1,5.2-1.5,7.5-3.4c2.3-2,4.2,2,4.2,2
		s1.2,0.5,2.4,1.2c0.8-0.6,2.9-1.9,7.4-3.2c6.1-1.8,12.3-5.3,12.3-5.3l5.6,1.8c0,0,4.5,1.8,2.2,1.8c-2.2,0,2.2-1.8-2.2,0
		c-4.5,1.8-7.3,2.3-7.3,2.3s5.6,2.9,2.2,3.5c-3.4,0.6-1.1-0.6-3.4,0.6c-2.2,1.2-4.5,2.3-4.5,2.3c-3.4,1.8-6.1,2.9-6.1,2.9l-5.4,1.7
		l-1.9,2.1c0,0,3.7,0,7,1c3.3,1,0,0,2.8,0.5c2.8,0.5,8.4,0.5,10.8,0c2.3-0.5,9.4,0,9.4,0c-1.9,0.5-5.2,3.4-7.5,5.9s-2.3,1.5-4.7,2
		C136.8,161,133.5,165,128.4,166z M154.2,186.6c-2.8,1.5-2.8,2.5-5.6,3c-2.8,0.5-3.3,1-6.1,2c-2.8,1-5.2,1-4.7-2.5
		c0.5-3.4,1.4-0.5,0.5-3.4c2.8,0.4,2.3-1.7,4-3c1.7-1.3,3.4-3.3,4.4-3.8c1-0.5,0.7-1.8,1.9-2.3c1.2-0.5,1-0.3,1.7-1.5
		c0.7-1.3,0.7-1.5,1-3.1c0-0.1,0-0.1,0.1-0.2c-0.6,0.5-1.2,0.9-1.5,1.2c-1.5,1-5.8,5.9-9,7.6c-1.4,0.8-2.9,1.3-4.3,1.6
		c-1.7-1.1-2.3-1.5-3.9-1.5c-1.9,0-2.8-3.4-2.8-3.4s-0.5-1,1.4-3c1.9-2,2.3-4.4,2.3-4.4c3.7-3.9,1.9-2.5,5.6-5.4
		c3.7-3,6.1-4.9,8.4-7.4s8.9-3.4,8.9-3.4s-0.9,2.5,2.3,3.4c3.3,1,6.1,1.5,9.4,1c3.3-0.5,3.7-4.4,3.3-0.5c-0.5,3.9-0.9,3.4-1.4,5.9
		c-0.5,2.5-0.5,3.4-0.5,4.9c0,1.5-0.5,3.9-0.5,3.9l-3.3,6.4C165.9,178.8,157,185.1,154.2,186.6z M174.8,198.4
		c-2.9,3.1-12.4,3.1-12.4,3.1s-4.1-5-3.5-8c0.6-3.1,1.8-3.1,4.7-5.6c2.9-2.5,5.9-5,8.8-8.7c2.9-3.7,4.1-4.3,5.9-7.4
		c1.8-3.1,4.7-4.3,7.1-4.3c2.4,0,7.7,0.6,7.7,0.6S177.8,195.3,174.8,198.4z M195.1,172.3L193,180l-7.2,9.8l-2.1,3.2
		c0.9-1.8,2-4,3.3-6.3C190.2,181.4,192.7,175,195.1,172.3z M191.1,210.8c-6.6,6-10.6,4.6-12.4,0.9c-1.5-3.1,1-9.7,1.9-11.8
		c1.5-0.8,3.9-2.4,7.4-5.5l1.1-4l2.8-3.5c0,0,5-2.9,6.1-5.2c0.8-1.7,3.8-9.8,5.2-13.9c2.3-1.5,4.7-1.5,4.7-1.5s-7.5,18.5-10.1,27.3
		S193,209.1,191.1,210.8z M210.3,224.2c-1,1.3-4,3.5-7.1,5.2c-2.5,1.6-5.3,2.5-7.2,2.2c-2.2-0.2-1.3-4.2,0.7-12s10.7-40.7,10.7-40.7
		l3.7-3l1.6-3.5c0,0,0.2,0.7,0.5,1.7c-0.7,1.8-1.6,3.7-2.3,4.6c-1.3,1.8-2.6,0.9-2.6,3.2c0,2.3,0,4.2,0,6c0,1.8,0,1.8,0.4,4.2
		c0.4,2.3,2.6-0.5,2.6-0.5s0,3.7,0,10.1c0,6.5,1.3,3.7,2.6-2.8c0.5-2.6,1.2-6.2,1.8-9.6c-0.1,1.6-0.2,3.3-0.1,5c0,0.3,0,0.6,0.1,0.8
		c0.3-0.9,1.4-0.8,2.1-2.2c0.8-1.8,1.7-2.9,2-2c0.3,0.9-2,9.4-2,9.4S212,221.8,210.3,224.2z M220.3,238.2c-7-0.9-7.4-11-7-14.7
		c0.3-2.5,4.8-18.2,7.8-28.5c-0.1,1.3,0,2.9,0.7,6.4c1.1,5.7,1.1,1.7,0.5,6.3l-1.6,4.6c0,0,0.5,4,3.3,9.2c2.7,5.1,3.8,4.6,3.8,4.6
		s2.2-18.5,3-29.7c0.1,0.2,0.2,0.3,0.3,0.5c1.6,2.3,1.1,3.4,0.5,14.3c-0.4,7.7-1.9,11.7-1.7,15.6
		C227.8,231.8,224.3,238.7,220.3,238.2z M238.7,237.7c-2.1-0.5-3.6-1.7-4.7-3.1c0-0.2,0.1-0.4,0.1-0.7c-0.1-0.2-0.2-0.5-0.2-0.8
		c-0.2-2.3,1.1-12.9,1.5-13.4c0.4-0.5,1.1-4,1.1-4l1.6-0.4l-2-2.9l0.5-5l0.6-3.8c-0.2,1.1,2.3,5.3,2.3,5.3s0.2,2.7-0.2,6.9
		c-0.2,2.7-0.2,4.6-0.2,6.4c0-0.1,0-0.1,0-0.3l1.3-0.4l-0.2,10.7l2.3,3.3C241.5,237.3,240.2,238.1,238.7,237.7z M256.7,293.3
		c-1.4,1.1-1.7,1.7-3.3,2c-1.6,0.3-6.1,1-8.8,2.3c-2.6,1.3-7,1.9-7.5,1.9c-0.5,0-0.5-0.5-0.6-1.4c-0.1-0.9-0.6-0.6-0.9-0.7
		c-0.3-0.1,0.3-0.7,1.7-2.1c1.4-1.4,7.3-2.7,11-3.6c0.5-0.1,1.1-0.2,1.8-0.3c0.7,0.6,1.6,1.1,2.7,1.3c3.3,0.4,6.1-0.5,8.2-1.6
		c-0.1,0.1-0.2,0.3-0.3,0.5C260.4,292.7,258.6,291.8,256.7,293.3z M264.1,301.4c-0.3,2.3-2.7,6.6-3.1,5.5c-0.7-2.2-2.4-0.8-2.7-1.6
		s-0.1-3.5,0.4-6.3c0.6-2.7,1.5-7,2.9-7.4c2-0.6,2.2,2,2.5,3.1C264.5,296,264.3,299.1,264.1,301.4z M288.1,301.3
		c-0.1,0.5,0.6,1.7,0.6,1.7s-0.6-0.2-0.8-0.3c-0.3,0-1.3,0-1.2-0.4c0.2-0.6,0.1-1.5-0.6-0.9c-0.7,0.5-1.8,0-2.5-0.4
		c-0.9-0.5-3.7-2.1-4.8-2.8c-1.2-0.6-3.2-1.9-3.9-3.1c-0.7-1.2-1.3-0.5,0.9-2c3-2.1,9.7,3,11,4.6C288,299.3,288.3,300.2,288.1,301.3
		z M331,293.8c-0.8,1.3-3.1,2.7-4.4,3.3c-1.3,0.7-4.5,2.5-5.5,3c-0.8,0.5-2.1,1-2.9,0.4c-0.8-0.6-0.9,0.4-0.7,1
		c0.2,0.5-1,0.4-1.4,0.4c-0.2,0-0.9,0.3-0.9,0.3s0.7-1.3,0.7-1.8c-0.2-1.2,0.1-2.1,1.5-3.9c1.4-1.7,9.2-7.2,12.6-5
		C332.4,293.2,331.8,292.6,331,293.8z M345.4,300.3c0.5,2.5,0.6,4.9,0.4,5.7c-0.3,0.7-1.8-0.5-2.5,1.4c-0.3,1-2.6-2.8-2.8-4.9
		c-0.3-2.1-0.4-4.9-0.1-6c0.3-1.1,0.5-3.4,2.3-2.8C344,294,344.9,297.9,345.4,300.3z M365.6,295.7c1.2,1.5,1.7,2.1,1.4,2.1
		c-0.3,0.1-0.7-0.2-0.9,0.6c-0.2,0.8-0.2,1.3-0.7,1.3c-0.5,0-4.5-1-6.9-2.5c-2.4-1.5-6.5-2.6-8-3c-1.5-0.5-1.7-1-2.9-2.3
		c-1.6-1.6-3.4-1-3.7-1.9c-0.3-0.9-0.9-1-0.3-1c0.6,0,0.9,0.4,0.9,0.4s0.1,0,0.4,0c1.8,1.6,4,3.1,5.9,2.8c1.1-0.2,1.9-0.8,2.6-1.6
		c0.8,0.2,1.5,0.4,2.1,0.6C359,292.5,364.4,294.2,365.6,295.7z M383.6,238.4c-1.1-0.3-2.7-0.9-3.3-2.3c-1-2.2-2-4.7-0.7-4.3
		c0,0,1.4-0.4,1.4-1.4c0,0,0.7-1.1,0.3-2.2c-0.3-1.1,0,0-2.7-4.3c-1.2-1.8-2.5-3.9-3.7-5.7c-0.1-0.2-0.1-0.5-0.1-0.7
		c0-1.2,0.4-1.9-0.4-3.8c-0.7-1.9-1.1-3.8-1.1-3.8c-2.2-3.1-1.5-3.1-2.2-5.8c-0.4-1.4-1-3.6-1.6-5.5c0.2-0.4,0.3-0.8,0.3-1.2
		c0-1.2,1.1-2.1,1.2-3.3c0-1.2,0-1.2,0-1.2s-0.2-0.3-0.6-0.7c3.4-0.4,6.9-4.9,6.9-4.9s10.1,33.8,10.5,37.5
		C388.2,227.9,388,235.6,383.6,238.4z M405.1,230.9c0,0-9.5-1.7-11.5-6.1c-2.1-4.3-13.2-39.8-13.2-39.8s1.2-3,2.9-5.2
		s2.9-2.2,3.7-3.9s1.2-3.5,1.2-3.5l1.6,3.5l3.7,3c0,0,8.7,32.9,10.7,40.7C406.3,227.4,407.2,230,405.1,230.9z M422.3,211.7
		c-1.8,3.7-5.7,5.1-12.4-0.9c-1.9-1.7-4-8.3-6.6-17.1c-2.6-8.8-10.1-27.3-10.1-27.3s3.1,0,5.7,2.3c0.4,0.4,0.8,0.7,1.2,1
		c2,4.6,6.3,14.4,8.3,18.8c2.6,5.9,3,5.1,5.3,7.1c1.5,1.3,4.7,3.2,6.7,4.4C421.4,202.3,423.8,208.7,422.3,211.7z M438.6,201.5
		c0,0-9.4,0-12.4-3.1S408,168.1,408,168.1s0.9-0.1,2.1-0.2c2.2,2.5,6.2,7.3,8.2,9.7c2.8,3.4,3.2,4.6,4.8,4.6s6.8,1.7,6.8,1.7
		s-2.4-1.7-5.2-5.5c-2.8-3.8-5.6-5.9-4.4-5.9c0.8,0,2.3,0.8,3.6,1.3c1.2,1.7,2.4,2.7,4.7,5.5c2.9,3.7,5.9,6.2,8.8,8.7
		c2.9,2.5,4.1,2.5,4.7,5.6C442.8,196.6,438.6,201.5,438.6,201.5z M471.3,177.3c0,0-0.9,3.4-2.8,3.4c-1.6,0-2.2,0.4-3.9,1.5
		c-1.4-0.3-2.9-0.8-4.3-1.6c-3.2-1.8-7.5-6.6-9-7.6c-0.4-0.3-0.9-0.7-1.5-1.2c0,0.1,0,0.1,0.1,0.2c0.2,1.5,0.2,1.8,1,3.1
		c0.7,1.3,0.5,1,1.7,1.5c1.2,0.5,1,1.8,1.9,2.3c1,0.5,2.7,2.5,4.4,3.8c1.7,1.3,1.3,3.4,4,3c-0.9,3,0,0,0.5,3.4
		c0.5,3.4-1.9,3.4-4.7,2.5s-3.3-1.5-6.1-2c-2.8-0.5-2.8-1.5-5.6-3s-11.7-7.9-11.7-7.9l-3.3-6.4c0,0-0.5-2.5-0.5-3.9
		c0-1.5,0-2.5-0.5-4.9c-0.5-2.5-0.9-2-1.4-5.9c-0.5-3.9,0,0,3.3,0.5c3.3,0.5,6.1,0,9.4-1c3.3-1,2.3-3.4,2.3-3.4s6.6,1,8.9,3.4
		c2.3,2.5,4.7,4.4,8.4,7.4c3.7,3,1.9,1.5,5.6,5.4c0,0,0.5,2.5,2.3,4.4C471.8,176.3,471.3,177.3,471.3,177.3z M515.4,153.2
		c-4.2,0.5-10.3,1.5-11.7,1s-8.4-0.5-8.4-0.5l0.9,3.9c0,0,1.4,6.9-3.3,7.4c-4.7,0.5-15,2-20.2,1c-5.2-1-8.4-4.9-10.8-5.4
		c-2.3-0.5-2.3,0.5-4.7-2c-2.3-2.5-5.6-5.4-7.5-5.9c0,0,7-0.5,9.4,0c2.3,0.5,8,0.5,10.8,0c2.8-0.5-0.5,0.5,2.8-0.5c3.3-1,7-1,7-1
		l-7-7.9c0,0,2.3-0.5,3.7-1.5s4.7-2.5,4.7-2.5s1.9-3.9,4.2-2c2.3,2,4.7,2.5,7.5,3.4s15.5,4.9,18.3,6.9
		C514,149.7,519.6,152.7,515.4,153.2z M525.7,145.1c-24.2-4.2-37.7-14.8-36.1-14.2c1.6,0.5,9-2.9,12.3-4.6c2.1,0.9,4.5,2,4.5,2
		s7.8,4.8,7.1,3.7c-0.6-1-2.3-3.4-2.3-3.4l2.9,1c0,0,4.9,3.7,5.8,4.4c1,0.7,1.9,1,3.9,2s4.5,2,4.5,2s-5.2-3.4-2.6-2.7
		c2.6,0.7,2.6,1.4,4.2,1.7c1.6,0.3,7.8,2,7.8,2s-5.2-4.4-5.8-5.4c-0.6-1,1-0.3,3.2,1c2.3,1.4,0.6,0,2.3,1.4c1.6,1.4,3.2,1.7,3.2,1.7
		h2.3l2.3,0.3l2.9,0.3c0,0,0.8-0.4,0.3-1.1c1.2,0.3,2.4,0.5,3.6,0.8C550.1,139.8,533,146.4,525.7,145.1z M564.7,127
		c-3.7,1.7-12,4.1-16.5,3.6c-5.8-0.6-14.1-2-14.1-2l-0.4,0.3c-1.8-1-3.3-1.9-3.8-2.1c-1.6-0.7-2.3-1-3.9-0.7c-1.6,0.3-2.6,0.3-3.9,0
		c-1-0.3-3.8-1.7-6-2.7c2.5-0.2,5.4-0.5,8.2-1.1c6.1-1.1,9.4-5.9,16.8-4c7.4,2,34.2,1.7,34.2,1.7S568.4,125.3,564.7,127z
		 M578.3,116.1c-12.5,2-24.7-0.6-24.7-0.6s19.1-2.2,23.9-3.9c4.8-1.7,13.8-5.6,13.8-5.6l2.7,0.4C594,106.5,590.8,114.2,578.3,116.1z
		"/>
	<path class="st0" d="M346.6,139.7c1.6,0.7,1.9,1,2.8,2.3c0.9,1.3,5.9-0.3,5.9-0.3s1.6,0,2.5,0.3c0.9,0.3,3.1,3.6,3.1,3.6
		s1.2,1.6,2.2,1.6c0.9,0,1.6-1.3,2.5-1.6c0.9-0.3,3.1-0.7,6.4-1.4c3.3-0.7,2.6-1.5,2.6-1.5s0.9-0.7,1.6-2.9l3.1,1c0,0,0,0,1.9,0.3
		c1.9,0.3,0,0,2.2,0c2.2,0,1.6-0.3,2.8-1c1.2-0.7,0.9,0,2.8-0.3c1.9-0.3,3.1-0.3,3.1-0.3s2.8-1.4,5-2.4c0.1-0.2,0.2-0.4,0.3-0.7
		c0.8-3.8,11.2-8.9,11.5-8c2,5.1,1.6,9.1,2.4,6.1c0.8-3-0.4-7.2-1.2-8.9c-0.8-1.7,4.4,5.1,5.7,3c0.8-1.4,2.5-5.2,3.4-8.8
		c2,1.8,3.9,3.3,5.3,3.7c3.8,1.1,8.7,2.5,11.1,2.2s5.6-1.5,5.2-2.9c-0.2-0.9-0.8-3-1.1-4.3c0.2,0.1,0.4,0.2,0.6,0.4
		c1.1,0.6,2.1,1.8,7.3,0.4c5.2-1.5,9-0.7,9.7-4.4c0.7-3.6,0-3.6-1.7-5.5c-1.7-1.8-6.3-4.8-6.8-4.4c-0.5,0.4,3.7,3,3,4.8
		c-0.7,1.8-0.3,2.6-2.4,2.9c-2.1,0.4-2.8,0-5.2,0.7c-2.4,0.7-2.1,1.8-4.5,1.1c-2.4-0.7-5.9-1.8-4.5-0.4c1.2,1.2,1.9,2.5,3.9,3.9
		c-0.8,2.2-0.3,3.9-3.8,2.2c-3.8-1.8-6.2-3.6-7.6-6.2c-0.9-1.7-1.5-3.4-2.6-4.7c1.8-1.4,3.5-2.4,4.1-2.4c1.1,0,4.7-0.4,5.8-0.8
		c1.1-0.4,6.2-1.1,10.1-3.8c2.6-1.7,6.8-3.6,9.5-4.7c11.6-0.5,39.1-1.3,42.1-2.8c2-0.7,4-0.3,6.2,0c-1.2,1.3-13.6,6.1-13.6,6.1
		s37.2,1.8,65.2,2.5c3.3-0.3,6.5-0.6,9.3-0.6c7,0,5-1,7.3-0.7c2.3,0.3,5.3-0.3,9.6-1c4-0.6,7.1-2.2,7.6-2.4c0-0.7-0.3-1.2-0.3-1.2
		s-64-4.3-71.9-4.8c-3.5-0.2-6.2,0-8.3,0.3c-2.8-0.4-6.2-0.8-8.5-1c-0.1,0-0.1-0.1-0.2-0.1c-1.7-1.3-54.1-4.3-62.4-3
		c-8.3,1.3-12.8,2.2-17.4,6.9c-4.5,4.8-24.8,25.2-39.2,32.5c-12.1,6.2-32.1,5.7-38.2,5.3c1.2,1.7,2.4,3.5,3.4,5.5
		C345.8,139.3,346.2,139.5,346.6,139.7z"/>
	<path class="st0" d="M577.5,111.7c-4.8,1.7-23.9,3.9-23.9,3.9s12.2,2.5,24.7,0.6c12.5-2,15.7-9.7,15.7-9.7l-2.7-0.4
		C591.3,106.1,582.3,110,577.5,111.7z"/>
	<path class="st0" d="M548,138.5l-2.9-0.3l-2.3-0.3h-2.3c0,0-1.6-0.3-3.2-1.7c-1.6-1.4,0,0-2.3-1.4c-2.3-1.4-3.9-2-3.2-1
		c0.6,1,5.8,5.4,5.8,5.4s-6.1-1.7-7.8-2c-1.6-0.3-1.6-1-4.2-1.7c-2.6-0.7,2.6,2.7,2.6,2.7s-2.6-1-4.5-2s-2.9-1.4-3.9-2
		c-1-0.7-5.8-4.4-5.8-4.4l-2.9-1c0,0,1.6,2.4,2.3,3.4c0.6,1-7.1-3.7-7.1-3.7s-2.4-1.1-4.5-2c-3.3,1.7-10.7,5.2-12.3,4.6
		c-1.6-0.6,12,10,36.1,14.2c7.3,1.3,24.5-5.3,26.3-7c-1.3-0.3-2.5-0.5-3.6-0.8C548.8,138.1,548,138.5,548,138.5z"/>
	<path class="st0" d="M541.1,118.6c-7.4-2-10.7,2.8-16.8,4c-2.8,0.5-5.7,0.9-8.2,1.1c2.2,1,5,2.4,6,2.7c1.3,0.3,2.3,0.3,3.9,0
		c1.6-0.3,2.3,0,3.9,0.7c0.5,0.2,2,1,3.8,2.1l0.4-0.3c0,0,8.2,1.4,14.1,2c4.5,0.4,12.8-2,16.5-3.6c3.7-1.7,10.6-6.7,10.6-6.7
		S548.6,120.5,541.1,118.6z"/>
	<path class="st0" d="M359.7,199.4c3.5-3.7,3.1-10.6,3.1-10.6l0.1-1.8c-0.2,0.7-0.9,1.6-3.2,2.1c-2.4,2.8-4.2,1.4-5.6,0.7
		c0.2,0.5,0.4,0.9,0.7,1.7c0.6,1.5,0.9,1.5,1.4,2.4c-1.7,1.1-1.9,1.1-1.9,1.1l-0.5,1.6c-0.7,0.2-1.7-0.2-1.7-0.2s-1-0.9-1.5-1.1
		c-0.5-0.2-1.4,0.7-1.4,0.7l-1.7-0.5l0.5,2.2c0,0,0.6,1.2,1.4,2.4l0,0.1c0,0,0,0,0-0.1c0.4,0.6,0.8,1.1,1.3,1.5
		c1,0.8,2.8,1.2,3.8,1.3C356.2,203.6,357,202.3,359.7,199.4z"/>
	<path class="st0" d="M357.6,163.4c-0.1-0.3-0.2-0.5-0.3-0.7c0-0.1-0.1-0.1-0.1-0.2c-0.3-0.6-0.4-0.8,0,0c0,0.1,0.1,0.1,0.1,0.2
		C357.4,162.9,357.5,163.2,357.6,163.4c0.1,0.1,0.1,0.2,0.2,0.4c-0.8-1.7,0.1,0.1-0.2-1.1c-0.3-1.3-0.9-1.6-1.2-2.6
		c0.3,1,0,1.5-0.4,2.2c-0.1,0.7-0.1,1.1-0.3,0.5c0,0,0,0,0,0c-0.3,0.4-0.5,0.9-0.7,1.5l0.2,1.6l0.6,1.2c0,0,0,1-0.4,2.6l-1.3,2.8
		c0,0-0.6,1.6-0.8,2.8c-0.2,1.2,1.2-1.4,1.7-2c0.6-0.6,0,1-0.2,2c-0.2,1-0.4,1-2.2,3.7c-1.8,2.7-2.6,2.1-2.6,2.1s0-1.4,1.2-7.2
		c0.2-1,0.4-2.1,0.5-3.2c-0.4,0.7-1.3,0.5-1.3,0.5l-0.2-0.8c-1.1,1.4-2.3,2.8-3.4,4.1c-1,6.8-2.4,13.4-4.1,20.4
		c0.6-1.5,1.5-3.6,1.7-3.9c0.2-0.3,1-3.7,1.4-5.8c0.6-0.4,2.3,0.6,2.3,0.6c-0.9-0.9,1.2-2.9,1.2-2.9c0.8,1.2,4.3,0,4.3,0l2.7-2
		c0,0-0.4,1.6,1.6,1.6c1.2,0,2-3.1,2.4-5c-0.2-3.2-0.5-6.9-0.9-10.5c-0.3-0.8-0.8-1.8-1.4-3.2C357.8,163.7,357.7,163.6,357.6,163.4z
		"/>
	<path d="M362.8,186c0,0.1,0.1,0.3,0.1,0.5l0-0.2C362.9,186.2,362.9,186.1,362.8,186z"/>
	<path class="st0" d="M368.2,227.9c-1.8-1.2,0,0-1.1-2.7c-1.1-2.7-1.1-1.5-4-6.5c-2.9-5,0.7,3.1,1.8,6.9c1.1,3.8,1.8,3.8,0.4,2.7
		s-2.2-2.3-3.3-3.1c-1-0.7-5.7-15.2-6.5-17.7c-0.4,0.1-0.8,0.2-1.7,0c-0.2-0.1-0.4-0.1-0.6-0.2c0.7,4.1,3,17.4,4.8,21.1
		c1.3,2.6,3.1,5.6,5.4,7c3.2,0.6,5.2-2.6,5.2-2.6l0,0c0.5-1.4,0.8-2.8,0.9-4.3C369.2,228.4,368.7,228.3,368.2,227.9z"/>
	<path class="st0" d="M377.3,187.3c0,0-3.4,4.6-6.9,4.9c0.4,0.4,0.6,0.7,0.6,0.7s0,0,0,1.2c0,1.2-1.2,2.1-1.2,3.3
		c0,0.4-0.1,0.8-0.3,1.2c0.6,1.9,1.2,4.2,1.6,5.5c0.7,2.7,0,2.7,2.2,5.8c0,0,0.4,1.9,1.1,3.8c0.7,1.9,0.4,2.7,0.4,3.8
		c0,0.3,0,0.5,0.1,0.7c1.2,1.7,2.5,3.8,3.7,5.7c2.7,4.3,2.4,3.2,2.7,4.3c0.3,1.1-0.3,2.2-0.3,2.2c0,1.1-1.4,1.4-1.4,1.4
		c-1.4-0.4-0.3,2.2,0.7,4.3c0.6,1.3,2.2,2,3.3,2.3c4.3-2.8,4.6-10.5,4.2-13.6C387.4,221.1,377.3,187.3,377.3,187.3z"/>
	<path d="M362.8,186c0-0.1-0.1-0.1-0.1-0.1S362.8,185.9,362.8,186z"/>
	<path class="st0" d="M393.6,179l-3.7-3l-1.6-3.5c0,0-0.4,1.7-1.2,3.5s-2.1,1.7-3.7,3.9s-2.9,5.2-2.9,5.2s11.1,35.5,13.2,39.8
		c2.1,4.3,11.5,6.1,11.5,6.1c2.1-0.9,1.2-3.5-0.8-11.2C402.2,211.8,393.6,179,393.6,179z"/>
	<path class="st0" d="M437.5,187.9c-2.9-2.5-5.9-5-8.8-8.7c-2.2-2.8-3.4-3.8-4.7-5.5c-1.3-0.5-2.8-1.3-3.6-1.3
		c-1.2,0,1.6,2.1,4.4,5.9c2.8,3.8,5.2,5.5,5.2,5.5s-5.2-1.7-6.8-1.7s-2-1.3-4.8-4.6c-2-2.4-6-7.1-8.2-9.7c-1.2,0.1-2.1,0.2-2.1,0.2
		s15.3,27.2,18.3,30.3s12.4,3.1,12.4,3.1s4.1-5,3.5-8C441.6,190.4,440.4,190.4,437.5,187.9z"/>
	<path class="st0" d="M413.7,195.6c-2.3-2-2.6-1.2-5.3-7.1c-2-4.5-6.3-14.3-8.3-18.8c-0.4-0.3-0.7-0.6-1.2-1
		c-2.6-2.3-5.7-2.3-5.7-2.3s7.5,18.5,10.1,27.3c2.6,8.8,4.7,15.4,6.6,17.1c6.6,6,10.6,4.6,12.4,0.9c1.4-3-1-9.5-1.9-11.7
		C418.4,198.8,415.2,196.9,413.7,195.6z"/>
	<path class="st0" d="M372.9,187.6c1.3-0.5,3.5-3.2,3.5-3.2l2.2-4.6l0.4-6.5l-2.6,2.3l-1.8-3.7l0.9-5.6l-0.9-6.5
		c0,0-1.1-1.4-2.4-1.8c-1,1.3,0,0-0.8-0.1c-0.1,0-0.2,0-0.3,0c-0.3,0.1-0.4,0.2-0.6,0.4c-0.1,0.1-0.1,0.1-0.1,0.2
		c-0.3,1,0.1,2.7,0.1,2.7s-0.3,2.3-3.1,4.3c0,0,0,1.2,0,2c0-2,0,3.6,0.9,1.3c0.9-2.3,0,1.6-0.9,3.3c-0.9,1.6,1.6,0.3,1.6,0.3
		s-0.9,3.6-2.5,5.9c-1.5,2.3,0,0-0.9,1.6c0.2,1.5,0.5,2.9,1.1,4C367.5,185.6,371.6,188.1,372.9,187.6z"/>
	<path class="st0" d="M511.1,147.8c-2.8-2-15.5-5.9-18.3-6.9s-5.2-1.5-7.5-3.4c-2.3-2-4.2,2-4.2,2s-3.3,1.5-4.7,2.5
		s-3.7,1.5-3.7,1.5l7,7.9c0,0-3.7,0-7,1c-3.3,1,0,0-2.8,0.5c-2.8,0.5-8.4,0.5-10.8,0c-2.3-0.5-9.4,0-9.4,0c1.9,0.5,5.2,3.4,7.5,5.9
		c2.3,2.5,2.3,1.5,4.7,2c2.3,0.5,5.6,4.4,10.8,5.4c5.2,1,15.5-0.5,20.2-1c4.7-0.5,3.3-7.4,3.3-7.4l-0.9-3.9c0,0,7,0,8.4,0.5
		s7.5-0.5,11.7-1C519.6,152.7,514,149.7,511.1,147.8z"/>
	<path class="st0" d="M467.6,169.9c-3.7-3.9-1.9-2.5-5.6-5.4c-3.7-3-6.1-4.9-8.4-7.4c-2.3-2.5-8.9-3.4-8.9-3.4s0.9,2.5-2.3,3.4
		c-3.3,1-6.1,1.5-9.4,1c-3.3-0.5-3.7-4.4-3.3-0.5c0.5,3.9,0.9,3.4,1.4,5.9c0.5,2.5,0.5,3.4,0.5,4.9c0,1.5,0.5,3.9,0.5,3.9l3.3,6.4
		c0,0,8.9,6.4,11.7,7.9s2.8,2.5,5.6,3c2.8,0.5,3.3,1,6.1,2s5.2,1,4.7-2.5c-0.5-3.4-1.4-0.5-0.5-3.4c-2.8,0.4-2.3-1.7-4-3
		c-1.7-1.3-3.4-3.3-4.4-3.8c-1-0.5-0.7-1.8-1.9-2.3c-1.2-0.5-1-0.3-1.7-1.5c-0.7-1.3-0.7-1.5-1-3.1c0-0.1,0-0.1-0.1-0.2
		c-0.9-0.7-1.9-1.6-2.6-2.2c-0.4-0.3-0.8-0.6-1.2-1c-0.2-0.3,0.3,0.2,1.2,1c1.2,0.7,2.4,1.2,2.6,2.2c0.6,0.5,1.2,0.9,1.5,1.2
		c1.5,1,5.8,5.9,9,7.6c1.4,0.8,2.9,1.3,4.3,1.6c1.7-1.1,2.3-1.5,3.9-1.5c1.9,0,2.8-3.4,2.8-3.4s0.5-1-1.4-3
		C468,172.4,467.6,169.9,467.6,169.9z"/>
	<path d="M447.2,169.6c0.8,0.6,1.8,1.5,2.6,2.2C449.5,170.8,448.3,170.4,447.2,169.6z"/>
	<path d="M446,168.7c0.4,0.4,0.8,0.7,1.2,1C446.3,168.9,445.7,168.4,446,168.7z"/>
	<path class="st1" d="M357.3,162.7c0-0.1-0.1-0.1-0.1-0.2"/>
	<path d="M357.6,163.4c-0.1-0.2-0.2-0.5-0.3-0.7C357.4,162.9,357.5,163.1,357.6,163.4z"/>
	<path d="M357.2,162.5C356.8,161.7,356.9,162,357.2,162.5L357.2,162.5z"/>
	<path class="st0" d="M383.6,170.1c2.9-1.5,4.7-3.4,6.2-7.2c1.5-3.8,1.5-0.8,2.9-1.9s0.7-0.8,2.2-3.1c1.5-2.3,1.8-3.4,2.2-6.5
		c0.4-3.1,0.4-7.2,0.4-7.2l-2.5,2.3c-2.2,2.3,0,1.5-2.2,2.3s0.3,2.2-4,0.2c-4.4-2.1-6.5-2.1-6.5-2.1c-4.4,4.2-4.4,4.2-4.4,4.2
		l1.5,5.7c0,0,0.7,1.1,1.1,4.2c0.4,3.1,0.4,3.8,1.8,6.5C383.6,170.1,380.7,171.6,383.6,170.1z"/>
	<path class="st0" d="M480.5,118.6c0,0-2.3,0-3.8,0c-1.5,0-3.5-2-3.5-2s-3.8-0.7-5.7-0.7c-1.9,0-3.1-1.9-8.1-1.1
		c-2.1,0.3,3.1,5.4,15.8,10.2c12.7,4.8,10.3,3.2,12.6,3.2c2.3,0,7.3-4.4,7.3-4.4l4.2-1.6c0,0-13.8-3.2-15-3.2
		S480.5,118.6,480.5,118.6z"/>
	<path class="st0" d="M518.8,119.4l12.7-4c0,0-10.4-0.4-11.9-0.4c-1.5,0-6.5-0.8-8.8-0.8s-3.5,0.4-3.8-0.8c-0.4-1.2-5.8,0.8-10,1.2
		c-4.2,0.4-4.6-0.4-8.4-1.2c-3.8-0.8-3.5,1.2,1.2,2.8c4.6,1.6,18.4,3.2,21.5,4C514.2,121,517.7,119,518.8,119.4z"/>
	<path class="st0" d="M104.4,94.8c3,1.4,30.5,2.3,42.1,2.8c2.7,1.1,6.9,3,9.5,4.7c1.9,1.3,4.1,2.1,5.9,2.7c3.1-0.2,7.3-0.5,11.3-0.5
		c6.4,0,9.3-0.4,11.9,0.9c2.5,1.3,3,3.6,4.2,6.2c1.3,2.7,1.3,2.2,1.3,4.5c0,1,1.8,2.8,3.7,4.3l-0.3,3.9c0,0,1.6,1.3,0.9,2.3
		c0,0-0.4,2.2-0.6,3.3c-0.6,3-0.6,2.3-1.3,4.6c-0.6,2.3-2.5,5.3-0.6,2.3c1.9-3,3.2-4,3.2-4s0.7,2.2,1.6,1.7c3.5-2,1.6-1.3,3.5-2
		c1.9-0.7,3.2-1.3,3.2-1.3s-0.6,0.3-2.2-1c-1.6-1.3-1.3-1.3-1.6-2.7c-0.2-0.7-0.2-2.1-0.1-3.3c1.4,0.8,3.7,2.4,5.7,4.7
		c2.9,3.5,0.1,0.1,4.1,2.6c-0.3,0.7-2.8,5.8-3.3,7.8c-0.5,2.2-1.8,5.2-0.8,4.3c1-0.8,1.7-3.3,2.1-2.2c0.5,1.6-0.8,1.9,0.5,1.6
		c3.4-2.7,3.4-2.7,3.4-2.7s-1-0.8,0.8-0.5c1.8,0.3,2.8-0.5,2.8-0.5l0.5-1.1l0.5-1.1l4.1-1.6c-0.3,1.7-0.7,4.7-0.4,5.4
		c0.4,1.1,1.6,1,1.9-0.3c0.3-1.3,0.6-1.3,1.3-1.6c0.8-0.3,2.6,0,2.6,0s1,0.3,2.3-0.3c1.3-0.5,1.8-1.3,2.5-1.6
		c1.4,0.1,2.9,0.2,3.9,0.2c2.1,0,1.7,0.9,3.8,1.3c2.1,0.4,2.5,1.3,5.9,0c1.9-0.7,3.4-1.5,4.3-2c0.4-1.1,0.7-2.1,1.1-3.2
		c-8.7-0.2-20.5-1.3-28.8-5.5c-14.5-7.4-34.7-27.8-39.2-32.5c-4.5-4.8-9.1-5.6-17.4-6.9c-8.3-1.3-60.7,1.7-62.4,3
		C100.2,93,100.6,93,104.4,94.8z"/>
	<path class="st0" d="M20.4,101c4.3,0.7,7.3,1.4,9.6,1c2.3-0.3,0.3,0.7,7.3,0.7c2.8,0,6,0.3,9.3,0.6c28.1-0.7,65.2-2.5,65.2-2.5
		s-12.4-4.8-13.6-6.1c-1.2-1.3-5.4-2.6-13.2-2.2c-7.8,0.4-71.9,4.8-71.9,4.8s-0.2,0.5-0.3,1.2C13.3,98.9,16.4,100.4,20.4,101z"/>
	<path class="st0" d="M47.5,115.6c0,0-19.1-2.2-23.9-3.9c-4.8-1.7-13.8-5.6-13.8-5.6l-2.7,0.4c0,0,3.2,7.7,15.7,9.7
		C35.3,118.1,47.5,115.6,47.5,115.6z"/>
	<path class="st0" d="M111.6,130.9c-1.6,0.5-9-2.9-12.3-4.6c-2.1,0.9-4.5,2-4.5,2s-7.8,4.8-7.1,3.7c0.6-1,2.3-3.4,2.3-3.4l-2.9,1
		c0,0-4.9,3.7-5.8,4.4c-1,0.7-1.9,1-3.9,2s-4.5,2-4.5,2s5.2-3.4,2.6-2.7c-2.6,0.7-2.6,1.4-4.2,1.7c-1.6,0.3-7.8,2-7.8,2
		s5.2-4.4,5.8-5.4c0.6-1-1-0.3-3.2,1c-2.3,1.4-0.6,0-2.3,1.4c-1.6,1.4-3.2,1.7-3.2,1.7h-2.3l-2.3,0.3l-2.9,0.3c0,0-0.8-0.4-0.3-1.1
		c-1.2,0.3-2.4,0.5-3.6,0.8c1.9,1.7,19,8.2,26.3,7C99.6,141,113.2,130.3,111.6,130.9z"/>
	<path class="st0" d="M52.8,130.6c5.8-0.6,14.1-2,14.1-2l0.4,0.3c1.8-1,3.3-1.9,3.8-2.1c1.6-0.7,2.3-1,3.9-0.7
		c1.6,0.3,2.6,0.3,3.9,0c1-0.3,3.8-1.7,6-2.7c-2.5-0.2-5.4-0.5-8.2-1.1c-6.1-1.1-9.4-5.9-16.8-4c-7.4,2-34.2,1.7-34.2,1.7
		s6.9,5,10.6,6.7C40.1,128.7,48.3,131.1,52.8,130.6z"/>
	<path class="st0" d="M240.3,232.4l0.2-10.7l-1.3,0.4c0,0.1,0,0.2,0,0.3c0.1-1.8,0-3.8,0.2-6.4c0.4-4.2,0.2-6.9,0.2-6.9
		s-2.5-4.2-2.3-5.3l-0.6,3.8l-0.5,5l2,2.9l-1.6,0.4c0,0-0.7,3.5-1.1,4c-0.4,0.5-1.6,11.1-1.5,13.4c0,0.3,0.1,0.6,0.2,0.8
		c0,0.2-0.1,0.5-0.1,0.7c1.1,1.4,2.6,2.6,4.7,3.1c1.4,0.4,2.7-0.5,3.9-2L240.3,232.4z"/>
	<path class="st0" d="M231.6,211.2c0.5-10.9,1.1-12-0.5-14.3c-0.1-0.2-0.2-0.3-0.3-0.5c-0.8,11.1-3,29.7-3,29.7s-1.1,0.6-3.8-4.6
		c-2.7-5.1-3.3-9.2-3.3-9.2l1.6-4.6c0.5-4.6,0.5-0.6-0.5-6.3c-0.7-3.5-0.7-5.1-0.7-6.4c-3,10.3-7.5,26-7.8,28.5
		c-0.4,3.7-0.1,13.7,7,14.7c4.1,0.5,7.6-6.4,9.6-11.4C229.7,222.9,231.2,218.9,231.6,211.2z"/>
	<path class="st2" d="M243.1,164.1C243,164.3,243.1,164.3,243.1,164.1L243.1,164.1z"/>
	<path class="st0" d="M185.4,167.5c-2.4,0-5.3,1.2-7.1,4.3c-1.8,3.1-2.9,3.7-5.9,7.4c-2.9,3.7-5.9,6.2-8.8,8.7
		c-2.9,2.5-4.1,2.5-4.7,5.6c-0.6,3.1,3.5,8,3.5,8s9.4,0,12.4-3.1c2.9-3.1,18.3-30.3,18.3-30.3S187.8,167.5,185.4,167.5z"/>
	<path class="st0" d="M183.8,193l2.1-3.2l7.2-9.8l2.1-7.7c-2.4,2.7-4.9,9.1-8,14.5C185.8,189,184.7,191.1,183.8,193z"/>
	<path class="st0" d="M207.9,166.3c0,0-2.3,0-4.7,1.5c-1.5,4-4.4,12.1-5.2,13.9c-1.1,2.3-6.1,5.2-6.1,5.2l-2.8,3.5l-1.1,4
		c-3.5,3.1-5.9,4.7-7.4,5.5c-0.9,2.1-3.4,8.7-1.9,11.8c1.8,3.7,5.7,5.1,12.4-0.9c1.9-1.7,4-8.3,6.6-17.1S207.9,166.3,207.9,166.3z"
		/>
	<path class="st0" d="M234.3,183.9c0.5-1.1,0.9-2.5,1.1-4c-0.9-1.6,0.6,0.7-0.9-1.6c-1.6-2.3-2.5-5.9-2.5-5.9s2.5,1.3,1.6-0.3
		c-0.9-1.6-1.9-5.6-0.9-3.3c0.9,2.3,0.9-3.3,0.9-1.3c0-0.7,0-2,0-2c-2.8-2-3.1-4.3-3.1-4.3s0.5-1.7,0.1-2.7c-0.6,0.1-0.2,0-0.1-0.2
		c-0.1-0.2-0.3-0.4-0.5-0.4c-0.1,0-0.2,0-0.3,0c-0.8,0,0.2,1.3-0.8,0.1c-1.3,0.4-2.4,1.8-2.4,1.8l-0.9,6.5l0.9,5.6l-1.8,3.7
		l-2.6-2.3l0.4,6.5l2.2,4.6c0,0,0.1,0.2,0.3,0.4c0.5,0.4,1,0.8,1.5,1.2c0.6,0.5,1.2,1.1,1.7,1.6
		C229.5,188.1,233.6,185.6,234.3,183.9z"/>
	<path class="st0" d="M143.8,158.6c2.3-2.5,5.6-5.4,7.5-5.9c0,0-7-0.5-9.4,0c-2.3,0.5-8,0.5-10.8,0c-2.8-0.5,0.5,0.5-2.8-0.5
		c-3.3-1-7-1-7-1l1.9-2.1l5.4-1.7c0,0,2.8-1.2,6.1-2.9c0,0,2.2-1.2,4.5-2.3c2.2-1.2,0,0,3.4-0.6c3.4-0.6-2.2-3.5-2.2-3.5
		s2.8-0.6,7.3-2.3c4.5-1.8,0,0,2.2,0c2.2,0-2.2-1.8-2.2-1.8l-5.6-1.8c0,0-6.1,3.5-12.3,5.3c-4.6,1.3-6.7,2.6-7.4,3.2
		c-1.3-0.6-2.4-1.2-2.4-1.2s-1.9-3.9-4.2-2c-2.3,2-4.7,2.5-7.5,3.4c-2.8,1-15.5,4.9-18.3,6.9c-2.8,2-8.4,4.9-4.2,5.4
		c4.2,0.5,10.3,1.5,11.7,1c1.4-0.5,8.4-0.5,8.4-0.5l-0.9,3.9c0,0-1.4,6.9,3.3,7.4c4.7,0.5,15,2,20.2,1c5.2-1,8.4-4.9,10.8-5.4
		C141.5,160.1,141.5,161,143.8,158.6z"/>
	<path class="st0" d="M169.1,172.4c0,0,0.5-2.5,0.5-3.9c0-1.5,0-2.5,0.5-4.9c0.5-2.5,0.9-2,1.4-5.9c0.5-3.9,0,0-3.3,0.5
		c-3.3,0.5-6.1,0-9.4-1c-3.3-1-2.3-3.4-2.3-3.4s-6.6,1-8.9,3.4s-4.7,4.4-8.4,7.4c-3.7,3-1.9,1.5-5.6,5.4c0,0-0.5,2.5-2.3,4.4
		c-1.9,2-1.4,3-1.4,3s0.9,3.4,2.8,3.4c1.6,0,2.2,0.4,3.9,1.5c1.4-0.3,2.9-0.8,4.3-1.6c3.2-1.8,7.5-6.6,9-7.6
		c0.4-0.3,0.9-0.7,1.5-1.2c0.3-1,1.5-1.5,2.6-2.2c0.9-0.7,1.4-1.2,1.2-1c-0.4,0.4-0.8,0.7-1.2,1c-0.8,0.6-1.8,1.5-2.6,2.2
		c0,0.1,0,0.1-0.1,0.2c-0.2,1.5-0.2,1.8-1,3.1c-0.7,1.3-0.5,1-1.7,1.5c-1.2,0.5-1,1.8-1.9,2.3c-1,0.5-2.7,2.5-4.4,3.8
		c-1.7,1.3-1.3,3.4-4,3c0.9,3,0,0-0.5,3.4c-0.5,3.4,1.9,3.4,4.7,2.5c2.8-1,3.3-1.5,6.1-2c2.8-0.5,2.8-1.5,5.6-3
		c2.8-1.5,11.7-7.9,11.7-7.9L169.1,172.4z"/>
	<path d="M151.3,171.8c0.9-0.7,1.9-1.6,2.6-2.2C152.7,170.4,151.6,170.8,151.3,171.8z"/>
	<path d="M153.9,169.6c0.4-0.3,0.8-0.6,1.2-1C155.4,168.4,154.8,168.9,153.9,169.6z"/>
	<path class="st1" d="M243.5,163.4c0.1-0.3,0.3-0.6,0.4-0.9"/>
	<path d="M243.9,162.5C244.3,161.7,244.2,162,243.9,162.5L243.9,162.5z"/>
	<path d="M208.1,143.2C204.8,145.9,209.4,142.9,208.1,143.2L208.1,143.2z"/>
	<path class="st0" d="M178.4,160.2c0.6,2.9,0.6,4.1,2.8,4.7c2.2,0.6,9.7-0.6,11.7-2.9c1.5-1.7,2.2-8.8,2.2-8.8l-4.5,4.1l-3.4,0.6
		l-4.5-2.3c-0.6-1.8-2.2-4.7-2.2-4.7s-1.7,3.5-2.8,6.4S177.8,157.3,178.4,160.2z"/>
	<path class="st0" d="M218.1,200.5c0,0,2.2-8.5,2-9.4c-0.3-0.9-1.1,0.3-2,2c-0.7,1.5-1.8,1.3-2.1,2.2c0-0.3,0-0.6-0.1-0.8
		c-0.1-1.7-0.1-3.4,0.1-5c-0.6,3.4-1.3,7-1.8,9.6c-1.3,6.5-2.6,9.2-2.6,2.8c0-6.5,0-10.1,0-10.1s-2.2,2.8-2.6,0.5
		c-0.4-2.3-0.4-2.3-0.4-4.2c0-1.8,0-3.7,0-6c0-2.3,1.3-1.4,2.6-3.2c0.7-0.9,1.6-2.8,2.3-4.6c-0.4-1-0.5-1.7-0.5-1.7l-1.6,3.5l-3.7,3
		c0,0-8.7,32.9-10.7,40.7s-2.9,11.7-0.7,12c1.9,0.2,4.7-0.7,7.2-2.2c3.1-1.6,6.1-3.8,7.1-5.2C212,221.8,218.1,200.5,218.1,200.5z"/>
	<path class="st0" d="M119.7,113.1c8.4-0.7,19.1-2.8,19.1-2.8l15.7-2.1c0,0-0.7-1.1-6-2.5c-5.4-1.4-6.4-2.8-7-1.4
		c-0.7,1.4-3,1.8-3,1.8s-2.7,0.4-4,0.4c-1.3,0-8,0.4-8,0.4s-12.7,2.1-14.4,1.8c-1.7-0.4-14.4,1.8-17.7,0.7c-3.3-1.1,2.9,4.1,4.3,4.6
		C103.6,115.5,111.3,113.8,119.7,113.1z"/>
	<path class="st0" d="M247.2,217.3c0.7-4.1,4.4-12.1,4.4-12.1l-0.3-2.8l0.3-1.4c-3.1-13.3-5.8-27.6-6.8-40.8
		c-0.3,0.9-0.9,1.2-1.2,2.5c-0.3,1.3,0.6-0.5-0.2,1.1c0.1-0.1,0.1-0.2,0.2-0.4c0.1-0.3,0.3-0.6,0.4-0.9c0.3-0.6,0.4-0.8,0,0
		c-0.1,0.3-0.3,0.6-0.4,0.9c-0.1,0.2-0.2,0.3-0.2,0.5c-0.5,1.1-0.9,2-1.2,2.7c-0.2,3.1-0.4,6.7-0.4,9.9c0,3.6,0.6,7.6,1.1,10.8
		c0.7,0.8,1.2,1,0.4,0.8c0.4,0.5,0.7,0.8,0.9,1c0,0,0,0,0.1-0.1c0,2.1-0.1,3.6-0.2,3.8c-0.3,0.5,0.3,4.2,0.3,4.2l1.3,6.5l-1.2,3.8
		c0,0,1.7,7.2,2,9C246.5,218.3,246.5,221.4,247.2,217.3z"/>
	<path d="M315.2,73.6c2.1,0.4,3,1.1,4.1,1.3c1.1,0.2,2.7-0.2,3.3-2.2c-0.1-0.5-0.1-0.9-0.2-1.4c-0.3-0.6-1.1-1.1-2.8-1
		c-1.8,0.1-7.1,1-11.9,2.2c-0.9,0.5-1.9,0.9-2.8,1.4c0.4,0,0.9,0,1.3-0.1C309.8,73.8,313,73.3,315.2,73.6z"/>
	<path class="st0" d="M276,96.5c-0.9,1.7-2.9,6-3.3,7.6c-0.3,1.3-1.3,3.6-1.6,1.3c-0.3-2.3-3.3,2.6-3.5,4c-0.3,1.4,0,1.7-1.4,3.7
		c-0.3,0.5-0.8,0.8-1.2,1c-0.2,0.3-0.4,0.7-0.7,1.1c-0.7,1.5-1.5,3.7-1.5,5.4c0,2.9,0.2,3.4,1.1,4.1c0.2,0.1,0.4,0.2,0.6,0.3
		c3.7,0.2,11.4-5.5,6.7-1.3c-3.2,2.8-8.3,4.1-9.9,2.4c-0.1-0.1-0.2-0.2-0.3-0.3c-1.2,0.7-3.4,2.2-4.7,4.8c-0.3,0.7-1.1,3-0.6,4.8
		c0.6,2.2,0.3,2,2,3.9c0.8,0.9,1.5,1.4,2.2,1.8c-0.4,0.6-0.9,1.4-0.1,1.2c0.6-0.2,1.1-0.4,1.4-0.6c0.1,0,0.2,0.1,0.3,0.1
		c0,0,0,0,0,0c-0.2,0.3-0.5,0.9-1.1,1.6c-1.3,1.4-2.4,1.7-3.7,1.2c-0.9-0.4-1.9-1.3-2.5-1.9c0,0.1,0,0.2,0.1,0.3
		c0,0.1,0.1,0.2,0.1,0.2c0.3,0.9,0.7,1.7,1.2,2.4c2.6,4,14.4-3.4,14.4-3.4s-8.2,8.3-13.2,9.8c-2.2,0.7-3.5,0.1-4.4-0.7
		c0.2,1.1,0.6,3,1.2,4.1c0.8,1.4,1.7,2.2,0.6,1.6c-1.1-0.6-1.5-1.4-0.8,0.6c0.1,0.2,0.2,0.4,0.2,0.6c0.1,0.1,0.2,0.6,0,0
		c-0.1-0.1-0.1,0,0,0.5c0.2,1.4-2.5-3.4-1.7-1.2c0.8,2.2-0.6-0.4,0.2,1.4c0.8,1.8,1.1,0.6,0.8,1.8c0,0.1-0.1,0.1-0.1,0.2
		c1.1,1.1,2.4,2,3.9,2c3.6,0,6.1-1.3,6.1-1.3s-0.7,1.8-1.7,3.4c1.5,1.2,4.1,3,6.2,3.2c4.7,0.6,10.8-1.4,13-5c2.2-3.5,3.4-5,3.4-5
		s1,1.8,0.4,4.3c0,0.8-0.1,1.5-0.4,2c-0.4,0.6-0.8,1.4-1.3,2.1c0.7,1.8,2.3,5.3,4.6,6.5c3.1,1.7,7.4,3.1,9.2,2.1
		c1.8-0.9-2.5,1.7-5.4,1.7c-2,0-3.8-0.5-4.8-0.7c1.1,1.2,2.3,2.2,3.2,3c0.9,0.6,1.9,1.1,2.9,1.3c4.3,0.9,7.4,1.2,11.7-1.7
		c2.3-1.5,3.8-2.8,4.7-3.6l-0.5-0.5c-3.5,1.8-2.6-0.5-4.4-0.5c-0.9,0-1.3,0.5-1.8,0.7c-0.8-1.1-2.2-2.9-3.5-4.8
		c-0.1-0.2-0.3-0.4-0.4-0.6c0.3-0.4,0.6-0.8,0.9-1.3l-1.3-2.4c0,0,0.2-1.5,2.8,0.6c2.6,2.1,7.6,3.4,13.6,1.9c5.2-1.3,5.9-4.3,6-5.1
		c-0.1-0.1,0-0.2,0-0.2s0,0.1,0,0.2c0.2,0.2,0.9,0.5,3.4,0.9c4.2,0.6,9.2-0.4,13.2-4.2c0.2-0.2,0.4-0.4,0.6-0.7
		c2.5-4.3,2-8.1,1.3-10.3c-0.2-0.6-0.4-1.1-0.6-1.4c-1.8,0.4-3.6,0.5-4.6,0.1c-2.5-1-2.5-1-6.6-5c-4.1-4-7.6-8.6-5.4-6.3
		c2.2,2.3,2.5,2.3,5.4,4c2.8,1.7,2.2,1.3,4.1,1.7c1.9,0.3,1.9,0.3,1.9,0.3c0.6-0.2,1.1-0.2,1.5-0.2c0.1-0.4,0.1-0.8,0.2-1.2
		c0.2-1.9,0-1.3-0.2-1.9c-0.2-0.6-0.8,0.2,0.2-1.7l-2.2,1.3c0,0,1.4-1.5,2-4.3c0.3-1.4,0-2.7-0.3-3.6c-0.8,0.4-1.7,0.7-2.2,0.9
		c-0.7,0.3-2.2,0-3.2-0.3c-1.1-0.3-2-0.8-2.8-1c-0.7-0.3-1.1-0.6-1.6-1c-0.5-0.4-1.9-1.4-1.9-1.4s2.3,0.8,3.4,1
		c1.1,0.3,1.1,0.1,1.8,0.1c0.7,0,3-0.3,3.6-1.6c0,0,0,0,0,0c0,0,0,0,0,0s-0.1-1-0.8-2.4c-0.6-0.7-1.1-1.5-1.6-2.2
		c-0.2-0.2-0.5-0.5-0.8-0.7c-3-2.7-10.5-5.9-14-9.7c-3.5-3.8-3.7-3.3-4.1-7.2c-0.3-2.8-0.1-6.1,1.2-9.4c0.2-0.9,0.5-1.8,0.9-2.6
		c1.8-3.8,3.1-4.6,4.8-5.6c1.5-0.9,5.3-2,6.1-2.2c0.8-0.4,1.5-0.8,2.2-1.2c1.3-0.8,2.6-1.9,3.6-2.8c1.4-1.6,2.9-3.5,2.9-3.5l0.7-0.5
		c3.6-1.2,7.5-2.7,11.1-4.3c3.4-1.5,5.6,0.5,5.6,0.5s-1.4-3.2-3.6-3.2s-16.5,0.7-16.5,0.7s-1.5-4.4-3.9-5
		c-2.4-0.6-19.4-1.4-28.2,4.7c-7.6,5.2-11.6,12.8-12.5,14.8c-0.4,0.6-0.9,1.2-1.3,1.8C280.8,90.4,278.5,93.4,276,96.5z M307.7,72.6
		c4.8-1.2,10-2.1,11.9-2.2c1.7-0.1,2.5,0.4,2.8,1c0.1,0.4,0,0.9,0.2,1.4c-0.6,2-2.2,2.3-3.3,2.2c-1.1-0.2-2-0.9-4.1-1.3
		s-5.4,0.2-8.9,0.4c-0.4,0-0.9,0-1.3,0.1C305.9,73.6,306.8,73.1,307.7,72.6z M306.8,161.9c-1.3,1.7-5.3,1.7-6.4,1.4
		c-1.1-0.3-2.4-0.8-3.5-2c-1.1-1.1-1.9-1.7-2.4-3.1c-0.5-1.4,1.3,0.6,1.3,0.6s-1.1-1.7-2.4-5c-1.3-3.4-0.8-7.6-0.8-7.6
		s0.3,2.8,3.7,8.4c3.5,5.6,9.1,5.9,9.1,5.9c2.1,0,3.7-4.8,3.7-4.8S308.2,160.2,306.8,161.9z"/>
	<path d="M332.4,142.4c0.1,0,0.2-0.1,0.3-0.1C332.7,142.4,332.6,142.4,332.4,142.4z"/>
	<path d="M331.2,142.7c0,0,0.1,0,0.1,0C331.3,142.7,331.3,142.7,331.2,142.7z"/>
	<path class="st0" d="M259.7,177.6c1.3,2.2,2.8,3,2.8,3s-0.9,0.2-0.2,1c0.2,0.3,0.7,0.6,1.2,1c0.8,0,1.7,0,2.8-0.3
		c0.1,0,0.2,0,0.3-0.1c2.6-1.1,5.1-2.7,6.4-4.2c2.1-2.6-1.8-1.1-5.7-1.1c-2.4,0-6-2-8.4-3.7C258.9,174.2,258.9,176.2,259.7,177.6z"
		/>
	<path class="st0" d="M321.6,181.1c0,0,0-0.3,0-0.6l0,0l0,0c-0.1-0.9-0.3-2.5-1-2.3c-1,0.2-4.3-1.1-4.3-1.1s-0.3,0.9-0.8,1.8
		c-0.5,0.9-1.8,1.8-3,3.9c-1,1.6-0.5,2.5-2.3,3.2c-1.8,0.7-4,0.2-4,0.2s2.3,3.9,3.5,4.6c1.3,0.7,5.5,0.9,7.8-1.6
		C320.8,185.6,321.6,181.1,321.6,181.1z"/>
	<path d="M253.6,158.1C253.8,158.7,253.7,158.2,253.6,158.1L253.6,158.1z"/>
	<path d="M305.5,160.5c0,0-5.6-0.3-9.1-5.9c-3.5-5.6-3.7-8.4-3.7-8.4s-0.5,4.2,0.8,7.6c1.3,3.4,2.4,5,2.4,5s-1.9-2-1.3-0.6
		c0.5,1.4,1.3,2,2.4,3.1c1.1,1.1,2.4,1.7,3.5,2c1.1,0.3,5.1,0.3,6.4-1.4c1.3-1.7,2.4-6.2,2.4-6.2S307.6,160.5,305.5,160.5z"/>
	<path class="st0" d="M294.2,186.2c-1.7-0.3-6.1-4.7-6.1-4.7l0.4,2l-4.6-1.7c0,0-1.7-1.5-3.9-3.5c-2.2-2-3.3-6.1-2.8-2.6
		c0.6,3.5,2.2,11.4,6.4,13.4c3.3,1.6,5.4,0.7,6.1,0.2c0.5,1.4,1.1,3,2.2,4.5c2.8,3.8,4.7,7,8.3,4.1c3.6-2.9,4.2-6.4,4.2-6.4
		s-1.1,0-3.3,0c-2.2,0,0,2.3-2.2,0c-2.2-2.3-1.4-0.6-2.2-2.3C295.4,185.9,295.9,186.5,294.2,186.2z"/>
	<path d="M320.1,163.3c0-0.1,0-0.2,0-0.2S320,163.1,320.1,163.3z"/>
	<path class="st0" d="M321.3,176.2c1.4,0.3,3,0.4,4.7,0.2c0.8-0.3,1.7-0.6,2.2-1c1.2-0.9,2.3-2.3,2.6-4.8c0.2-1.5,0.2-2.8,0.2-3.6
		c-0.6,0.2-1.2,0.4-1.8,0.4c-3.9,0.5-7.9-0.9-7.9-0.9s-0.4,1.4-2.2,2.8c-1.7,1.4-4.8,3.2-4.8,3.2S317.3,175.3,321.3,176.2z"/>
	<path class="st0" d="M261.7,291.7c-1.5,0.4-2.4,4.7-2.9,7.4c-0.6,2.7-0.7,5.5-0.4,6.3s2-0.6,2.7,1.6c0.4,1.1,2.8-3.1,3.1-5.5
		c0.3-2.3,0.4-5.5,0.1-6.6C263.9,293.6,263.6,291.1,261.7,291.7z"/>
	<path class="st0" d="M275.8,293.1c-2.1,1.5-1.5,0.8-0.9,2c0.7,1.2,2.7,2.4,3.9,3.1c1.2,0.6,3.9,2.3,4.8,2.8
		c0.7,0.4,1.8,0.9,2.5,0.4c0.7-0.5,0.8,0.3,0.6,0.9c-0.1,0.4,0.9,0.3,1.2,0.4c0.2,0,0.8,0.3,0.8,0.3s-0.7-1.2-0.6-1.7
		c0.1-1.1-0.1-2-1.3-3.6C285.5,296.1,278.7,291,275.8,293.1z"/>
	<path class="st0" d="M260.8,291.7c0.1-0.2,0.2-0.4,0.3-0.5c-2.2,1.1-5,2-8.2,1.6c-1.2-0.2-2.1-0.7-2.7-1.3
		c-0.6,0.1-1.2,0.2-1.8,0.3c-3.7,0.9-9.6,2.2-11,3.6c-1.4,1.4-2,2-1.7,2.1c0.3,0.1,0.8-0.2,0.9,0.7c0.1,0.9,0.1,1.4,0.6,1.4
		c0.5,0,4.9-0.6,7.5-1.9c2.6-1.3,7.1-2,8.8-2.3c1.6-0.3,1.9-0.9,3.3-2C258.6,291.8,260.4,292.7,260.8,291.7z"/>
	<path class="st0" d="M342.7,293.6c-1.8-0.5-2.1,1.8-2.3,2.8c-0.3,1.1-0.1,3.9,0.1,6c0.3,2.1,2.5,6,2.8,4.9c0.6-1.9,2.2-0.7,2.5-1.4
		c0.3-0.7,0.1-3.2-0.4-5.7C344.9,297.9,344,294,342.7,293.6z"/>
	<path class="st0" d="M330,291.6c-3.4-2.3-11.1,3.3-12.6,5c-1.4,1.7-1.7,2.7-1.5,3.9c0.1,0.5-0.7,1.8-0.7,1.8s0.7-0.2,0.9-0.3
		c0.4,0,1.5,0,1.4-0.4c-0.2-0.6-0.1-1.6,0.7-1c0.8,0.6,2.1,0,2.9-0.4c1-0.6,4.2-2.3,5.5-3c1.3-0.7,3.6-2.1,4.4-3.3
		C331.8,292.6,332.4,293.2,330,291.6z"/>
	<path class="st0" d="M353.5,290.6c-0.7,0.8-1.5,1.4-2.6,1.6c-1.9,0.3-4.2-1.2-5.9-2.8c-0.2,0-0.4,0-0.4,0s-0.3-0.5-0.9-0.4
		c-0.6,0,0,0,0.3,1c0.3,0.9,2,0.3,3.7,1.9c1.2,1.2,1.4,1.8,2.9,2.3c1.5,0.5,5.6,1.6,8,3c2.4,1.5,6.4,2.5,6.9,2.5
		c0.5,0,0.5-0.5,0.7-1.3c0.2-0.8,0.6-0.5,0.9-0.6c0.3-0.1-0.2-0.7-1.4-2.1c-1.2-1.5-6.6-3.2-10-4.5C355,291,354.3,290.8,353.5,290.6
		z"/>
	<path class="st0" d="M342,199.8c-4.5-2.3-7.5-3.1-11.4-2.3c-1.8,0.3-3.7,0.8-5.6,1.7c-5.7,2.6-9,8.2-9.8,11.6
		c-0.3,1.1-0.5,4.5-0.6,9c0.4,0.3,1,0.5,1.9,0.2c2.5-0.8,3.4-3.8,3.4-3.8s0,3.4-0.3,6.1c0.3,0.1-0.3,2.6,1.6,4.8
		c2.2,2.6,4.5,1.2,6-0.1c-0.1-1.4-0.1-2.2-0.1-2.2l0.8,1.6c0,0,0,0,0,0c-0.2-0.6-0.3-1-0.3-1l-0.2-3.1l0.1-2.6c0,0,0.4,1.5,1,3.1
		s0.7,0.6,0.7,0.6s0.2-1.3,0.9,0.4c0.7,1.8,1.9,2.9,2.6,4.1c0.7,1.2,1.9,2.1,3.4,3.4h-1.1c0,0-1-0.2-1.2-0.5
		c-0.2-0.3-0.3,0.7-0.3,0.7l0.7,0.6l0.1,0.9c0,0-3-1-4.2-2.3c-0.1-0.1-0.2-0.2-0.3-0.4c0.1,1.8,0.2,4.1,0.4,4.8
		c0.3,1.3,2.2,2.9,2.2,2.9v1.1c0,0,0,0.7,0.7,1.1c0.7,0.4,0.4,2.4,0.4,2.4s-1.6-1-2-1.7c-0.4-0.7-0.4,0.7,0.1,2.2
		c0.2,0.5,0.4,1.2,0.7,1.8c0.2,0.3,0.5,0.7,0.8,1c1.9,2.2,3.4,3.1,4.6,3.6c0.4,0,0.8-0.1,1-0.1c0.4-0.2,0.8-0.4,1.2-0.6
		c0.6-0.4,1-0.8,1.4-1.1c0.2,0.8,0.4,1.6,0.8,2.6c0.4,0.5,0.9,1,1.5,1.2c1.6,0.8,3.4,0.4,3.4,0.4s0,0.4-0.1,0.9h0.4
		c0.3,1.6,0.5,3.2,0.8,4.7c0.7,0.7,1.3,1.5,1.4,2.3c0.4,1.8,0.2,0.9,0.6,2.7c0.4,1.8,0,0,0.2,0.7c0.2,0.7,0,1.1,1.7,3.5
		c0,0-1.7-0.4-0.6,1.1c1.1,1.6,2.1,2,0.8,1.6c-0.5-0.2-1.5-1.1-2.3-2c0.9,3.2,2.6,5.4,3.7,6.6c1.2,0.3,2.2,0.1,2.6,0.1
		c-0.4-2-2.9-14.7-3.7-20.5c-0.7-5.2-2-13.1-2.4-15.9c-1.2-1.2-2.6-2.6-3.6-3.7c-1.9-2.2-1.5-4-1.9-5.1c-0.4-1.1,0.4-1.8-0.8-3.3
		c-1.3-1.6-2.1-4.4-2.1-4.4l1.9,2c1.4,1.2,1.6,0.6,1.5,0.1c0,0,0-0.1-0.1-0.1c-0.1-0.3,0-0.1,0.1,0.1c0.3,1,2.3,4.2,4,6.1
		c1.7,2,4,1.1,4,1.1l0.1,0.1c-0.4-3.8-1.4-9.9-2-12.9C350.5,213.4,347.3,202.5,342,199.8z"/>
	<path class="st0" d="M250,247.1c-0.1,0.5-0.1,0.9-0.2,1.4c0.4,0.6,1,0.9,2,0.7c2.8-0.6,5.2-3.9,6.4-6.4c1.2-2.6,2.8-5.5,3.7-10.3
		c0.9-4.8,2.1-4.2,2.1-4.2s0.1,1.2,0.1,2.9c0-0.2,0.1-0.3,0.1-0.3s0.7,5.8,0.3,9.9c0,0.1,0,0.3,0,0.4c2.3-1.5,5.8-4,7-5.9
		c1.1-2.7,0.6-1.8,1.1-3.1c0.6-1.4,0.2-1,0-1.8c0-0.1,0-0.2,0-0.3c-0.5,0.4-1,0.8-1.3,1c-0.7,0.5-1.2,0.6-1.2,0.3
		c-0.6,0.2-0.9,0.2-0.5-0.2c0.8-0.6,2.3-3.2,2.9-4.3c0-0.1-0.1-0.3-0.2-0.5l0.2-1.2l-1.7-0.2c0.7-0.4,0.6-0.8,3.7-3.3
		c0.7-0.6,1.2-1,1.4-1.3c0-0.2,0.1-0.3,0.1-0.4l0-0.3c0,0,2.6,2.4,4.3,3.2c0.3,0.1,0.5,0.2,0.7,0.3c0.7,0.2,2.3,0.8,1.7,1.1
		c-0.7,0.4-2.4,0.6-2.4,0.6l-1.1,0.8c0,0-1.5-0.6-1.5,0.4c0,0.4,0,1.6-0.1,3.1c0.2,1,0.4,2.2,0.7,3.6c0.6,3.4,2.1,4.9,3.2,5.6
		c0.5-0.1,1-0.3,1.5-0.7c0.1,2.5,0.2,5.1,0.3,6.2l3.8,5.9c-0.1-9.4,0.1-22.2,0.2-27.1c0.3-3-0.5-8.7-2-13.2
		c-2-6.2-8.2-9.8-11.9-11.2c-3.8-1.4-9.7,0.7-13,3.6c-3.3,2.9-7.1,12.4-7.7,15.6c-0.2,1.1-0.2,2,0,2.6c-0.3,1.6-0.5,3.3-0.7,5.2
		c0.6,1.2,1.1,2.6,0.9,3.6c-0.3,1.9-0.3,4.8-1.2,9.3c-0.4,1.9-0.9,3.6-1.5,5c-0.1,0.6-0.3,1.4-0.4,2.2
		C250,245.9,250,246.5,250,247.1z"/>
	<path d="M276.2,220.8l0-0.5c0,0-0.1,0.1-0.1,0.2C276.1,220.6,276.1,220.7,276.2,220.8z"/>
	<path class="st0" d="M272,256.2c-0.2,1.6-0.6,1.4-1,2.3c-0.4,0.8-0.4-0.6-1.2,0.2c-0.8,0.8-1.5,0.1-1.8,1c-1,3.5-0.8,2.5-1.2,4.7
		c-0.4,2.3,0.2,3.5-1,3.9c-1.2,0.4-1.8,1.2-1.8,1.2s-0.4,0.6-0.8,1.8c-0.4,1.2,0.2,1.4-1,2.7c-1.2,1.2-1.4,1-2,1.4
		c-0.6,0.4-2,1.8-0.8-1.2c1.2-3.1,0.4-4.7-0.2-3.9c-0.6,0.8,0-1.2-1.8,1.4c-1.8,2.7-4.3,3.9-4.3,3.9l-2.3,6.4c0,0.6,0.7,3.8,2.7,4.5
		c2.3,0.8,3.5,1.8,9-3.5c5.5-5.3,6.4-10.7,7.8-17.6C272,258.5,272.2,254.6,272,256.2z"/>
	<path class="st0" d="M247.6,281.9c3-3.3,6.2-9.8,8.5-15.2c-1.8,2.2-4.2,5-5.5,5.9c-0.3,0.2-0.5,0.4-0.7,0.5c-0.4,0.5-0.5,0.5,0,0
		c0.4-0.5,1-1.6,1.6-3.4c1.2-4.2,1.8-7.1,1.8-7.1s1.3,0.2,2.9-1.9c0.2-0.7,0.3-1.6,0.5-2.6c0.1-0.3,0.1-0.6,0.2-1
		c-0.9,1.1-1.9,2.2-2.6,3c-2.2,2.3-4.5,1.3-4.5,1.3s-1.6,5.1-2.2,6.4c-0.6,1.3-0.2,2.6-0.8,4.1s0.4,1.9,0.4,1.9s-0.4,0.9-1.6,3
		c-0.3,0.5-1.2,0.6-1.8,2.8c-0.6,2.1-0.6,4.3-0.8,5.8C242.7,286.8,243.3,286.6,247.6,281.9z"/>
	<path class="st0" d="M283.6,247.2c0,0.8,0,1.7,0,2.4l3.8,8.1c-0.1-1.3-0.1-2.9-0.1-4.7L283.6,247.2z"/>
	<path class="st0" d="M353.9,283.3c0,0-0.6-0.7-1.7-1c-1.9-0.6-2.6-0.4-2.1-1.4c0.6-1,0.9,0,0.6-1c-0.4-1-1.1-1.2-1.1-1.2
		c-1.5-1.6-0.2-0.8-1.5-1.6c-1.3-0.8-1.5,0-2.1-1.6c-0.6-1.6-0.6-1.2-1.3-3.7c-0.7-2.6-2.1-1.8-3.2-2.8s-3.2-7.9-3.2-7.9l1.3,10.2
		c0,0,1.3,8.5,5.1,12.2c3.7,3.7,5.8,4.9,7.3,3.7C353.5,286.2,353.9,283.3,353.9,283.3z"/>
	<path d="M345.1,223.2c0,0,0,0.1,0.1,0.1C345.1,223,345,222.8,345.1,223.2z"/>
	<path d="M320.9,248.7c0,0,0,0.2,0,0.5C321,248.9,320.9,248.7,320.9,248.7z"/>
	<path class="st0" d="M315.7,224.5l0.2,23.3c0,3.9-0.1,7.6-0.2,9.4c-0.3,5.2-1.1,6.9-0.3,6.5c0.8-0.4,2.6-1.6,3.1-2.8
		c0.5-1.3-0.2-0.7-0.2-1.6c0-0.8,0.5-2.9,0-3.1c0.7-0.8,1.4-1.7,1.7-2.5c0.7-1.7,0.8-3.7,0.8-4.5c-0.1,0.2-0.2,0.6-0.7,1
		c-1,0.9-0.7-0.7-0.7-0.7s-0.3-1,0.2-1.3c0.5-0.3,0.5-0.2,0.8-1.6c0.3-1.5,0.5-1.8,0.5-2.7l-0.3-3.2c0,0-0.9-1.3-0.8-1.8
		c0.2-0.5,0.3-2.7,0.3-2.7s0.3-0.8,0.5-1.3c0.2-0.5-0.6-4-0.6-4L315.7,224.5z"/>
	<path d="M250,273.1C249.5,273.6,249.6,273.6,250,273.1L250,273.1z"/>
</g>
<polygon points="362.3,184.8 363.7,186.1 363.3,186.5 362.6,186.6 "/>
<path d="M150.3,134.4c0,0-1.1,0.9-1.9,1.5c-0.8,0.5,0.8,1.2,0.8,1.2l3.7-1.3L150.3,134.4z"/>
</svg>
