<?xml version="1.0" encoding="utf-8"?>
<!-- Generator: Adobe Illustrator 20.1.0, SVG Export Plug-In . SVG Version: 6.00 Build 0)  -->
<!DOCTYPE svg PUBLIC "-//W3C//DTD SVG 1.1//EN" "http://www.w3.org/Graphics/SVG/1.1/DTD/svg11.dtd">
<svg version="1.1" id="Layer_16" xmlns="http://www.w3.org/2000/svg" xmlns:xlink="http://www.w3.org/1999/xlink" x="0px" y="0px"
	 viewBox="0 0 601.5 360" style="enable-background:new 0 0 601.5 360;" xml:space="preserve">
<style type="text/css">
	.st0{fill:none;}
	.st1{fill:none;stroke:#000000;stroke-width:0;stroke-linecap:round;stroke-linejoin:round;}
	.st2{fill:#FFFFFF;}
</style>
<g>
	<path class="st0" d="M355.6,277.4c0,0-0.1,0.8-0.5,1.9c1.1,0.3,2.3,0.7,3.4,1.1C356.8,279,355.6,277.4,355.6,277.4z"/>
	<path d="M572.5,113.2c-0.5-0.9-3.9-1.7-3.9-1.7s0.6-2.9,0.6-5.2c0-2.3-22.6-3.4-34.2-4c-11.6-0.6-45.8-2.3-45.8-2.3
		s-1.9-2.3-3.9-1.7c-1.9,0.6-48.7-1.4-54.5-1.4s-22.1,5.7-26.7,12c-4.5,6.3-12.5,14.5-26.1,20.5c-6.3,2.8-16.7,6.3-24.7,7.7
		c-4.5,0.8-9.3,0.8-11.9,0.7c-3-3.6-6.3-6.8-8.7-10.8c-4.4-7.2-5-16.9-2.3-28.2c0.1-0.5,0.3-1,0.5-1.5l14-7.2l1.7-1.8l0.4-0.9
		c2.9-0.5,3.8,0,3.5-1.5c-0.5-2.2-2.9-5.1-2.9-5.1L333,81c0,0-2.1-4.4-7.7-5.5c-5.6-1.1-21.8,3-25.3,6.1c-9.5,8.2-23.8,28-30.6,39.4
		c-3,5-6,10.5-8.4,16.5c-0.9-0.1-1.8-0.2-2.7-0.4c-8.1-1.5-18.4-4.9-24.7-7.7c-13.6-6-21.6-14.2-26.1-20.5c-4.5-6.3-20.9-12-26.7-12
		c-5.8,0-52.6,2-54.5,1.4c-1.9-0.6-3.9,1.7-3.9,1.7s-34.2,1.7-45.8,2.3c-11.6,0.6-34.2,1.7-34.2,4c0,2.3,0.6,5.2,0.6,5.2
		s-3.4,0.9-3.9,1.7c-1.4,2.4,1.3,8,5.8,9.7c4.5,1.7,9,4,9,4s0,0.6,5.8,5.7c4.7,4.2,16.1,6.9,16.1,6.9s-2.6,4.6,1.3,7.4
		c3.9,2.9,12.2,5.7,17.4,6.9c5.2,1.1,16.1,0,16.1,0s-4.5,2.9-1.9,4.6c2.6,1.7,5.8,4.6,11,5.2c5.2,0.6,5.2,0.6,5.2,0.6
		s-2.6,1.7,0.6,5.2c3.2,3.4,11,5.2,16.8,4.6c5.8-0.6,8.4,0.1,8.4,0.1s-4.9,3.2-4.2,7.7c0.6,4.6,3.9,5.2,7.7,5.7s-0.6,6.3,3.9,8
		c4.5,1.7,12.6,0.7,14.5-1c1.9-1.7-0.6,7.4,5.8,9.7c6.4,2.3,12.9,0.6,12.9,0.6s-1.9,6.9,4.5,10.9c6.4,4,10.3,3.4,10.3,3.4
		s-3,7.6,1.1,10.5c8.4,5.7,15-3.6,15-3.6s-0.2,9.6,6.9,11.9c7.1,2.3,12.4-3.7,12.4-3.7s1.8,6.3,8.2,6.3c2.8,0,5.3-1.8,7.7-4.9
		c-1.2,9.9-2.4,20.9-4.7,31.8c-0.8,4-4.1,13.6-2.3,14.8c0,0-0.1,0-0.1,0.1c-4.6,2.4-5.9,6.2-5.9,6.2s-3.1,4.1-0.7,3.4
		c2.3-0.6,2.7,0.2,2.7,0.2s2.7,1,4.1,0.6c3.5-1,8.9-3.5,13.5-4.9c0.8-0.2,1.5-0.4,2.2-0.6c-0.8,2.3-1.5,5.1-1.4,6.8
		c0.2,3.2,1.3,5,1.3,5s0.1,3.3,1,2.7c1.1-0.6,2.2-1.8,2.2-1.8s2.4-0.5,4.1-3.5c1-1.8,2-5.4,2.8-8.9c2.2,0.6,4.7,1.4,6.4,2.5
		c3.7,2.4,6.9,5.9,10.4,5.3c2.2-0.4,1.9-1.1,2.4-1.1c1.9-0.2,2.3,1.3,2.3,0.2c0-1.4-0.8-3.2-0.8-3.2s0.3-3.3-2.4-5.7
		c-0.3-0.2-0.6-0.5-0.9-0.8c1.4-1.3,2.6-3.3,2.6-3.3s2.5,2.9,8.2,2.7c6.8-0.3,6.5-4.2,8.2-2.1c1.5,1.8,4.5,3.3,6.5,3.5
		c-2.6,2.4-2.3,5.6-2.3,5.6s-0.8,1.8-0.8,3.2c0,1.1,0.3-0.4,2.3-0.2c0.5,0.1,0.2,0.7,2.4,1.1c3.5,0.6,6.8-2.9,10.4-5.3
		c1.7-1.1,4.3-2,6.4-2.5c0.8,3.4,1.7,7.1,2.8,8.9c1.7,2.9,4.1,3.5,4.1,3.5s1.1,1.1,2.2,1.8c0.9,0.5,1-2.7,1-2.7s1.1-1.8,1.3-5
		c0.1-1.6-0.6-4.4-1.4-6.8c0.7,0.2,1.4,0.3,2.2,0.6c4.6,1.4,10,3.9,13.5,4.9c1.4,0.4,4.1-0.6,4.1-0.6s0.4-0.9,2.7-0.2
		c2.4,0.6-0.7-3.4-0.7-3.4s-1.4-3.8-5.9-6.2c-0.1-0.1-0.3-0.1-0.4-0.2c1.4-1.7-1.7-10.8-2.5-14.7c-2.1-10.1-3.3-20.3-4.4-29.6
		c1.8,1.7,3.6,2.6,5.7,2.6c6.4,0,8.2-6.3,8.2-6.3s5.3,6,12.4,3.7c7.1-2.3,6.9-11.9,6.9-11.9s6.6,9.3,15,3.6
		c4.1-2.8,1.1-10.5,1.1-10.5s3.9,0.6,10.3-3.4c6.4-4,4.5-10.9,4.5-10.9s6.4,1.7,12.9-0.6c6.4-2.3,3.9-11.5,5.8-9.7
		c1.9,1.7,10,2.7,14.5,1c4.5-1.7,0-7.4,3.9-8s7.1-1.1,7.7-5.7c0.6-4.6-4.2-7.7-4.2-7.7s2.6-0.7,8.4-0.1c5.8,0.6,13.5-1.1,16.8-4.6
		c3.2-3.4,0.6-5.2,0.6-5.2s0,0,5.2-0.6c5.2-0.6,8.4-3.4,11-5.2c2.6-1.7-1.9-4.6-1.9-4.6s11,1.1,16.1,0c5.2-1.1,13.5-4,17.4-6.9
		c3.9-2.9,1.3-7.4,1.3-7.4s11.4-2.7,16.1-6.9c5.8-5.2,5.8-5.7,5.8-5.7s4.5-2.3,9-4C571.2,121.2,573.9,115.7,572.5,113.2z
		 M481.5,131.4c0,0-4.5,4-6.6,4c-2.1,0,0.1,1.5-11.3-2.9c-11.4-4.4-16.2-8.9-14.3-9.2c4.5-0.7,5.6,1,7.3,1c1.7,0,5.2,0.6,5.2,0.6
		s1.7,1.8,3.1,1.8c1.4,0,3.5,0,3.5,0s2.4,0.4,3.5,0.4s13.5,2.9,13.5,2.9L481.5,131.4z M496,128.1c-2.8-0.7-15.2-2.2-19.4-3.6
		c-4.2-1.5-4.5-3.3-1-2.5c3.5,0.7,3.8,1.5,7.6,1.1c3.8-0.4,8.7-2.2,9-1.1c0.3,1.1,1.4,0.7,3.5,0.7c2.1,0,6.6,0.7,8,0.7
		s10.7,0.4,10.7,0.4l-11.4,3.6C501.9,127,498.8,128.9,496,128.1z M377.8,135.3c13.1-6.7,31.3-25.1,35.4-29.4
		c4.1-4.3,8.2-5.1,15.7-6.3c7.5-1.2,54.8,1.6,56.3,2.7c0.1,0,0.1,0.1,0.1,0.1c2.1,0.2,5.1,0.6,7.7,0.9c1.9-0.3,4.4-0.4,7.5-0.3
		c7.1,0.4,64.9,4.3,64.9,4.3s0.2,0.5,0.3,1.1c-0.4,0.2-3.3,1.6-6.8,2.2c-3.9,0.6-6.6,1.3-8.7,0.9c-2.1-0.3-0.3,0.6-6.6,0.6
		c-2.5,0-5.4,0.2-8.4,0.5c-25.4-0.6-58.9-2.2-58.9-2.2s11.2-4.3,12.3-5.5c-2-0.3-3.8-0.7-5.6,0c-2.8,1.3-27.6,2-38,2.5
		c-2.4,1-6.3,2.7-8.6,4.3c-3.6,2.4-8.2,3.1-9.2,3.4c-1,0.3-4.3,0.7-5.2,0.7c-0.6,0-2.1,0.9-3.7,2.2c0.9,1.2,1.5,2.8,2.3,4.3
		c1.3,2.3,3.4,3.9,6.9,5.6c3.1,1.5,2.6,0,3.4-2c-1.8-1.3-2.5-2.4-3.5-3.5c-1.3-1.3,1.9-0.3,4.1,0.3c2.2,0.7,1.9-0.3,4.1-1
		c2.2-0.7,2.8-0.3,4.7-0.7c1.9-0.3,1.6-1,2.2-2.6c0.6-1.6-3.1-3.9-2.7-4.3c0.5-0.4,4.6,2.3,6.1,4c1.6,1.6,2.2,1.6,1.6,4.9
		c-0.6,3.3-4.1,2.6-8.8,3.9s-5.6,0.2-6.6-0.3c-0.2-0.1-0.4-0.2-0.5-0.3c0.3,1.2,0.8,3.1,1,3.9c0.3,1.3-2.5,2.3-4.7,2.6
		c-2.2,0.3-6.6-1-10-2c-1.2-0.3-3-1.7-4.8-3.4c-0.8,3.3-2.4,6.7-3.1,8c-1.1,1.9-5.8-4.2-5.1-2.7c0.7,1.5,1.8,5.4,1.1,8
		c-0.7,2.7-0.3-0.9-2.2-5.5c-0.3-0.8-9.7,3.8-10.4,7.2c0,0.2-0.1,0.4-0.2,0.6c-2,0.9-4.5,2.2-4.5,2.2s-1.1,0-2.8,0.3
		c-1.7,0.3-1.4-0.3-2.5,0.3c-1.1,0.6-0.6,0.9-2.5,0.9c-2,0-0.3,0.3-2,0c-1.7-0.3-1.7-0.3-1.7-0.3l-2.8-0.9c-0.6,2.1-1.4,2.7-1.4,2.7
		s0.6,0.7-2.4,1.4c-3,0.7-5,1-5.8,1.3c-0.8,0.3-1.4,1.5-2.3,1.5s-2-1.5-2-1.5s-2-3-2.8-3.2c-0.8-0.3-2.3-0.3-2.3-0.3
		s-4.5,1.5-5.3,0.3c-0.8-1.2-1.1-1.5-2.5-2.1c-0.4-0.2-0.8-0.4-1.1-0.7c-0.9-1.8-1.9-3.4-3.1-5C348.8,140.4,366.8,140.9,377.8,135.3
		z M379.6,170.7c-1.3-2.4-1.3-3.1-1.6-5.9c-0.3-2.8-1-3.8-1-3.8l-1.3-5.2c0,0,0,0,3.9-3.8c0,0,2,0,5.9,1.9c3.9,1.9,1.6,0.6,3.6-0.1
		c2-0.7,0,0,2-2.1l2.3-2.1c0,0,0,3.8-0.3,6.5c-0.3,2.8-0.7,3.8-2,5.9c-1.3,2.1-0.7,1.7-2,2.8c-1.3,1-1.3-1.7-2.6,1.7
		c-1.3,3.4-3,5.2-5.6,6.5S380.9,173.2,379.6,170.7z M353.4,227.7l-0.1-0.1c0,0-2.1,0.8-3.6-1c-1.5-1.7-3.3-4.5-3.6-5.5
		c0,0.4-0.1,1-1.4-0.1l-1.7-1.8c0,0,0.8,2.6,1.9,4c1.1,1.4,0.4,2,0.8,3c0.4,1,0,2.6,1.7,4.6c0.9,1,2.2,2.3,3.2,3.4
		c0.4,2.5,1.6,9.7,2.2,14.3c0.7,5.3,3,16.7,3.3,18.5c-0.4,0-1.3,0.2-2.4,0c-1-1.1-2.5-3.1-3.3-6c0.8,0.8,1.6,1.6,2.1,1.8
		c1.1,0.4,0.2,0-0.8-1.4c-1-1.4,0.6-1,0.6-1c-1.5-2.2-1.3-2.6-1.5-3.2c-0.2-0.6,0.2,1-0.2-0.6c-0.4-1.6-0.2-0.8-0.6-2.4
		c-0.2-0.7-0.7-1.4-1.3-2c-0.2-1.4-0.5-2.8-0.7-4.2h-0.4c0-0.5,0-0.8,0-0.8s-1.6,0.3-3.1-0.3c-0.6-0.3-1-0.7-1.4-1.1
		c-0.3-0.9-0.5-1.6-0.7-2.3c-0.3,0.4-0.7,0.7-1.3,1c-0.3,0.2-0.7,0.4-1.1,0.6c-0.3,0-0.6,0.1-0.9,0.1c-1.1-0.5-2.4-1.3-4.2-3.2
		c-0.3-0.3-0.5-0.6-0.7-0.9c-0.2-0.6-0.4-1.2-0.6-1.7c-0.5-1.4-0.5-2.6-0.1-2s1.8,1.5,1.8,1.5s0.2-1.7-0.4-2.1c-0.6-0.4-0.6-1-0.6-1
		v-1c0,0-1.8-1.4-2-2.6c-0.1-0.7-0.3-2.7-0.4-4.4c0.1,0.1,0.2,0.3,0.3,0.4c1.1,1.1,3.8,2,3.8,2l-0.1-0.8l-0.6-0.6
		c0,0,0.1-0.9,0.3-0.7c0.2,0.3,1.1,0.5,1.1,0.5h1c-1.4-1.2-2.5-2-3.1-3.1c-0.6-1.1-1.7-2.1-2.3-3.7s-0.8-0.4-0.8-0.4
		s-0.1,0.8-0.6-0.6S330,218,330,218l-0.1,2.3l0.2,2.8c0,0,0.1,0.4,0.3,0.9c0,0,0,0,0,0l-0.7-1.4c0,0,0,0.8,0.1,2
		c-1.3,1.2-3.4,2.4-5.4,0.1c-1.7-2-1.2-4.2-1.4-4.3c0.3-2.5,0.3-5.5,0.3-5.5s-0.9,2.7-3.1,3.4c-0.8,0.3-1.3,0.1-1.7-0.2
		c0.1-4,0.3-7.1,0.6-8.1c0.7-3.1,3.7-8.2,8.9-10.5c1.7-0.8,3.4-1.3,5.1-1.5c3.6-0.7,6.2,0,10.3,2.1c4.8,2.4,7.6,12.2,8.4,16.1
		C352.1,218.8,353.1,224.3,353.4,227.7z M345.7,275.7c-3.4-3.4-4.6-11-4.6-11l-1.2-9.2c0,0,1.9,6.2,2.9,7.1c1,0.9,2.2,0.2,2.9,2.5
		c0.7,2.3,0.7,2,1.2,3.4c0.5,1.4,0.7,0.7,1.9,1.4c1.2,0.7,0,0,1.4,1.4c0,0,0.7,0.2,1,1.1c0.3,0.9,0,0-0.5,0.9
		c-0.5,0.9,0.2,0.7,1.9,1.2c0.9,0.3,1.5,0.9,1.5,0.9s-0.3,2.7-1.7,3.7C350.9,280.1,349.1,279.1,345.7,275.7z M253.8,277.2
		c0.2-1.3,0.2-3.3,0.7-5.2c0.6-1.9,1.4-2,1.7-2.5c1.1-1.9,1.5-2.7,1.5-2.7s-0.9-0.4-0.4-1.7c0.6-1.3,0.2-2.5,0.7-3.7
		c0.6-1.2,2-5.8,2-5.8s2.1,1,4.1-1.1c0.7-0.7,1.5-1.7,2.4-2.7c-0.1,0.3-0.1,0.6-0.2,0.9c-0.2,0.9-0.3,1.7-0.5,2.4
		c-1.4,1.9-2.6,1.7-2.6,1.7s-0.6,2.6-1.7,6.4c-0.5,1.6-1.1,2.6-1.4,3.1c0.1-0.1,0.3-0.3,0.6-0.5c1.2-0.9,3.3-3.4,5-5.4
		c-2.1,4.9-5,10.7-7.7,13.8C254.2,278.3,253.6,278.5,253.8,277.2z M195.1,161.6c1-2.6,2.5-5.8,2.5-5.8s1.5,2.6,2,4.2l4,2.1l3-0.5
		l4-3.7c0,0-0.7,6.4-2,7.9c-1.8,2.1-8.6,3.2-10.6,2.6c-2-0.5-2-1.6-2.5-4.2C195.1,161.6,194.1,164.3,195.1,161.6z M323.4,228
		c0,0,0.7,3.2,0.6,3.6c-0.1,0.4-0.4,1.2-0.4,1.2s-0.1,2-0.3,2.5c-0.1,0.4,0.7,1.6,0.7,1.6l0.3,2.9c0,0.9-0.1,1.2-0.4,2.5
		c-0.3,1.3-0.3,1.2-0.7,1.5c-0.4,0.3-0.1,1.2-0.1,1.2s-0.3,1.5,0.6,0.6c0.4-0.4,0.6-0.7,0.6-0.9c0-0.3,0-0.4,0-0.4s0.1,0.1,0,0.4
		c0,0.8-0.1,2.6-0.7,4.1c-0.3,0.7-0.9,1.6-1.5,2.3c0.4,0.2,0,2.1,0,2.8c0,0.8,0.6,0.3,0.1,1.4c-0.5,1.2-2.1,2.2-2.8,2.6
		c-0.7,0.4,0-1.2,0.2-5.9c0.1-1.7,0.1-5,0.1-8.5l-0.2-21L323.4,228z M271.8,275.2c-4.9,4.8-6,3.8-8.1,3.1c-1.9-0.6-2.5-3.5-2.5-4.1
		l2.1-5.7c0,0,2.3-1.1,3.9-3.5c1.6-2.4,1.1-0.6,1.6-1.3c0.5-0.7,1.2,0.7,0.2,3.5c-1.1,2.8,0.2,1.5,0.7,1.1c0.5-0.4,0.7-0.2,1.8-1.3
		c1.1-1.1,0.5-1.3,0.9-2.4s0.7-1.7,0.7-1.7s0.5-0.7,1.6-1.1c1.1-0.4,0.5-1.5,0.9-3.5c0.4-2,0.2-1.1,1.1-4.3c0.2-0.8,0.9-0.2,1.6-0.9
		c0.7-0.7,0.7,0.6,1.1-0.2c0.4-0.7,0.7-0.6,0.9-2c0.2-1.5,0,2-1.2,8.3C277.6,265.5,276.8,270.3,271.8,275.2z M261.9,234.4
		c0.8-4.1,0.8-6.7,1.1-8.4c0.1-0.9-0.3-2.1-0.8-3.2c0.2-1.7,0.4-3.2,0.6-4.7c-0.2-0.5-0.3-1.3,0-2.3c0.6-2.8,4-11.5,7-14
		c3-2.6,8.4-4.5,11.8-3.2c3.4,1.3,9,4.5,10.8,10.2c1.3,4.1,2.1,9.2,1.8,11.9c-0.1,4.5-0.2,16-0.2,24.5l-3.5-5.3
		c-0.1-1-0.2-3.3-0.3-5.6c-0.4,0.4-0.9,0.6-1.4,0.7c-1-0.6-2.3-2-2.9-5.1c-0.2-1.2-0.4-2.3-0.6-3.3c0-1.3,0.1-2.4,0.1-2.8
		c0-0.9,1.4-0.4,1.4-0.4l1-0.7c0,0,1.5-0.2,2.2-0.5c0.5-0.3-0.9-0.8-1.5-1c-0.2-0.1-0.4-0.2-0.6-0.3c-1.5-0.7-3.9-2.9-3.9-2.9l0,0.3
		c-0.1,0.1-0.1,0.2-0.1,0.4c0-0.1,0.1-0.1,0.1-0.1l0,0.5c-0.1-0.1-0.1-0.2-0.1-0.3c-0.2,0.3-0.6,0.6-1.3,1.2c-2.9,2.3-2.7,2.7-3.4,3
		l1.5,0.2l-0.2,1.1c0.1,0.2,0.1,0.3,0.1,0.4c-0.5,0.9-1.9,3.3-2.7,3.8c-0.4,0.3-0.1,0.3,0.4,0.2c0,0.3,0.4,0.2,1-0.2
		c0.3-0.2,0.7-0.6,1.2-0.9c0,0.1,0,0.2,0,0.3c0.2,0.7,0.5,0.4,0,1.6c-0.5,1.2,0,0.4-1,2.8c-1.1,1.7-4.2,4-6.3,5.3c0-0.1,0-0.2,0-0.3
		c0.3-3.8-0.3-9-0.3-9s0,0.1-0.1,0.3c0-1.5-0.1-2.6-0.1-2.6s-1.1-0.6-1.9,3.8c-0.8,4.4-2.2,7-3.3,9.3c-1.1,2.3-3.3,5.2-5.8,5.8
		c-0.9,0.2-1.5-0.1-1.8-0.6c0.1-0.4,0.1-0.8,0.2-1.3c0-0.5,0-1.1,0-1.8c0.1-0.7,0.2-1.4,0.4-2C261,237.7,261.5,236.1,261.9,234.4z
		 M256.1,203.5l-1.2-5.9c0,0-0.6-3.4-0.3-3.8c0.1-0.1,0.1-1.5,0.2-3.4c0,0,0,0,0,0.1c-0.1-0.2-0.4-0.5-0.8-0.9
		c0.7,0.1,0.3-0.1-0.4-0.8c-0.5-2.9-1-6.5-1-9.8c0-2.9,0.2-6.2,0.4-9c0.3-0.6,0.6-1.4,1.1-2.4c0.1-0.2,0.2-0.3,0.2-0.5
		c-0.1,0.1-0.1,0.2-0.2,0.3c0.7-1.5-0.1,0.1,0.2-1c0.3-1.1,0.8-1.5,1.1-2.3c0.9,11.9,3.3,24.9,6.1,36.9l-0.3,1.3l0.3,2.5
		c0,0-3.3,7.2-4,10.9c-0.7,3.7-0.7,0.9-0.9-0.7c-0.2-1.6-1.8-8.1-1.8-8.1L256.1,203.5z M239,187.6c-0.4-0.4-0.9-0.8-1.3-1.1
		c-0.2-0.2-0.3-0.4-0.3-0.4l-2-4.2l-0.4-5.9l2.4,2.1l1.6-3.3l-0.8-5l0.8-5.9c0,0,1-1.3,2.2-1.6c0.9,1.1,0,0,0.7-0.1
		c0.1,0,0.2,0,0.3,0c0.2,0,0.4,0.2,0.5,0.4c-0.1,0.1-0.4,0.2,0.1,0.2c0.3,0.9-0.1,2.4-0.1,2.4s0.3,2.1,2.8,3.8c0,0,0,1.1,0,1.8
		c0-1.8,0,3.2-0.8,1.2c-0.8-2.1,0,1.5,0.8,3c0.8,1.5-1.4,0.3-1.4,0.3s0.8,3.2,2.3,5.3c1.4,2,0,0,0.8,1.4c-0.2,1.3-0.5,2.6-1,3.6
		c-0.7,1.5-4.4,3.8-5.6,3.3C240,188.6,239.5,188,239,187.6z M318.3,175.4c0,0,2.8-1.7,4.3-2.9c1.6-1.2,2-2.5,2-2.5s3.6,1.2,7.1,0.8
		c0.5-0.1,1.1-0.2,1.6-0.4c0,0.7,0,1.9-0.1,3.3c-0.3,2.3-1.3,3.5-2.3,4.3c-0.5,0.3-1.2,0.7-2,0.9c-1.5,0.2-3,0.1-4.2-0.2
		C321,177.8,318.3,175.4,318.3,175.4z M362.2,188c0-0.2-0.1-0.3-0.1-0.4c0-0.1-0.1-0.1-0.1-0.1s0,0,0.1,0.1c0,0.1,0.1,0.1,0.1,0.2
		L362.2,188z M359.7,180c-0.4,1.7-1.1,4.5-2.2,4.5c-1.8,0-1.4-1.5-1.4-1.5l-2.5,1.8c0,0-3.2,1.1-3.9,0c0,0-1.9,1.8-1.1,2.6
		c0,0-1.5-1-2-0.6c-0.4,1.9-1.1,4.9-1.3,5.2c-0.1,0.3-0.9,2.1-1.5,3.5c1.6-6.3,2.8-12.2,3.7-18.4c1-1.2,2.1-2.5,3.1-3.7l0.1,0.7
		c0,0,0.8,0.2,1.2-0.5c-0.1,1-0.3,2-0.5,2.9c-1,5.3-1,6.5-1,6.5s0.8,0.6,2.4-1.9c1.6-2.5,1.8-2.5,2-3.4c0.2-0.9,0.7-2.4,0.2-1.8
		c-0.5,0.5-1.7,2.9-1.6,1.8c0.2-1.1,0.7-2.5,0.7-2.5l1.2-2.5c0.3-1.5,0.3-2.4,0.3-2.4l-0.5-1.1l-0.2-1.5c0.2-0.6,0.4-1,0.6-1.4
		c0,0,0,0,0,0c0.1,0.6,0.2,0.2,0.2-0.4c0.4-0.6,0.6-1.1,0.3-1.9c0.3,0.9,0.8,1.2,1.1,2.4c0.3,1.1-0.5-0.5,0.2,1
		c0-0.1-0.1-0.2-0.2-0.3c0.1,0.1,0.1,0.3,0.2,0.5c0.6,1.3,1,2.2,1.3,2.9C359.2,173.7,359.5,177.1,359.7,180z M294,252.3l-3.5-7.3
		c0-0.7,0-1.4,0-2.2l3.4,5.2C294,249.7,294,251.1,294,252.3z M275.9,179.2c3.5,0,7-1.3,5.1,1c-1.1,1.4-3.4,2.8-5.7,3.8
		c-0.1,0-0.2,0-0.3,0.1c-1,0.2-1.8,0.3-2.6,0.2c-0.4-0.3-0.9-0.6-1.1-0.9c-0.7-0.7,0.2-0.9,0.2-0.9s-1.3-0.7-2.5-2.7
		c-0.8-1.3-0.7-3-0.6-4.1C270.5,177.4,273.7,179.2,275.9,179.2z M314.2,191.8c-1.1-0.6-3.2-4.1-3.2-4.1s2,0.4,3.6-0.2
		c1.6-0.6,1.2-1.5,2-2.9c1.1-1.9,2.3-2.7,2.7-3.5c0.5-0.8,0.7-1.7,0.7-1.7s3,1.2,3.9,1c0.6-0.1,0.8,1.3,0.9,2.1l0,0l0,0
		c0,0.3,0,0.6,0,0.6s-0.7,4-3.6,7.2C319.2,192.6,315.3,192.4,314.2,191.8z M254,167.8C253.9,167.9,253.9,168,254,167.8L254,167.8z
		 M351.1,201.6c-0.4-0.4-0.8-0.8-1.2-1.3c0,0,0,0,0,0l0-0.1c-0.8-1.1-1.3-2.2-1.3-2.2l-0.5-2l1.5,0.5c0,0,0.8-0.8,1.3-0.6
		c0.5,0.2,1.4,1,1.4,1s0.9,0.3,1.6,0.2l0.5-1.5c0,0,0.3,0.1,1.8-1c-0.5-0.8-0.8-0.8-1.3-2.2c-0.3-0.7-0.5-1.1-0.7-1.5
		c1.3,0.6,2.9,1.9,5.1-0.6c2.1-0.4,2.8-1.3,2.9-1.9l-0.1,1.6c0,0,0.4,6.3-2.8,9.6c-2.5,2.6-3.2,3.8-4.8,3.2
		C353.6,202.7,352,202.4,351.1,201.6z M302.4,190.4c0.8,1.6,0,0,2,2.1c2,2.1,0,0,2,0c2,0,3,0,3,0s-0.5,3.2-3.8,5.8
		c-3.3,2.6-5-0.3-7.5-3.7c-1-1.3-1.6-2.8-2-4c-0.6,0.4-2.5,1.3-5.5-0.2c-3.8-1.8-5.3-8.9-5.8-12.1s0.5,0.5,2.5,2.4
		c2,1.8,3.5,3.2,3.5,3.2l4.2,1.5l-0.4-1.8c0,0,4,3.9,5.5,4.2C301.7,188,301.2,187.5,302.4,190.4z M367.4,229.7c0,0-1.8,2.9-4.7,2.4
		c-2.1-1.2-3.8-3.9-4.9-6.3c-1.6-3.3-3.7-15.3-4.3-19c0.2,0.1,0.3,0.1,0.5,0.2c0.8,0.2,1.1,0.1,1.5,0c0.7,2.2,4.9,15.3,5.8,16
		c1,0.7,1.7,1.7,3,2.8c1.3,1,0.7,1-0.3-2.4c-1-3.5-4.3-10.7-1.7-6.2c2.6,4.5,2.6,3.5,3.6,5.9c1,2.4-0.7,1.4,1,2.4
		c0.5,0.3,0.9,0.4,1.2,0.5C368.1,227.2,367.8,228.5,367.4,229.7L367.4,229.7z M365.6,185.7c-0.5-1-0.8-2.3-1-3.6
		c0.8-1.4-0.6,0.6,0.8-1.4c1.4-2.1,2.3-5.3,2.3-5.3s-2.3,1.2-1.4-0.3c0.8-1.5,1.7-5,0.8-3c-0.8,2.1-0.8-3-0.8-1.2c0-0.7,0-1.8,0-1.8
		c2.5-1.8,2.8-3.8,2.8-3.8s-0.4-1.6-0.1-2.4c0-0.1,0-0.1,0.1-0.2c0.1-0.2,0.3-0.4,0.5-0.4c0.1,0,0.2,0,0.3,0c0.7,0-0.2,1.2,0.7,0.1
		c1.2,0.3,2.2,1.6,2.2,1.6l0.8,5.9l-0.8,5l1.6,3.3l2.4-2.1l-0.4,5.9l-2,4.2c0,0-2,2.5-3.2,2.9C370,189.4,366.3,187.2,365.6,185.7z
		 M302.3,83.5c7.9-5.5,23.3-4.8,25.4-4.2c2.2,0.6,3.6,4.5,3.6,4.5s13-0.7,14.9-0.7s3.2,2.9,3.2,2.9s-2-1.8-5.1-0.5
		c-3.3,1.4-6.9,2.8-10.1,3.9l-0.6,0.4c0,0-1.4,1.7-2.7,3.1c-0.9,0.8-2.1,1.7-3.2,2.5c-0.6,0.4-1.3,0.7-2,1.1c-0.8,0.2-4.2,1.2-5.5,2
		c-1.5,0.9-2.7,1.6-4.3,5c-0.3,0.7-0.6,1.5-0.8,2.3c-1.1,3-1.3,5.9-1.1,8.5c0.4,3.5,0.5,3,3.7,6.5c3.2,3.5,9.9,6.3,12.6,8.8
		c0.3,0.2,0.5,0.5,0.7,0.7c0.5,0.6,1,1.3,1.5,2c0.7,1.3,0.7,2.1,0.7,2.1s0,0,0,0c0,0,0,0,0,0c-0.5,1.2-2.6,1.5-3.2,1.5
		c-0.6,0-0.6,0.1-1.6-0.1c-1-0.2-3-0.9-3-0.9s1.3,0.9,1.7,1.2c0.4,0.3,0.8,0.7,1.4,0.9c0.6,0.2,1.5,0.7,2.5,0.9
		c1,0.2,2.3,0.5,2.9,0.2c0.4-0.1,1.2-0.4,1.9-0.8c0.3,0.8,0.6,1.9,0.3,3.2c-0.6,2.5-1.8,3.9-1.8,3.9l2-1.2c-0.9,1.7-0.4,1-0.2,1.5
		c0.2,0.6,0.4,0,0.2,1.7c0,0.4-0.1,0.8-0.2,1.1c-0.3,0-0.8,0.1-1.4,0.2c0,0,0,0-1.7-0.3c-1.7-0.3-1.1,0-3.7-1.5
		c-2.6-1.5-2.9-1.5-4.9-3.6c-2-2.1,1.1,2.1,4.9,5.7c3.7,3.6,3.7,3.6,6,4.5c0.9,0.4,2.5,0.2,4.1-0.1c0.1,0.3,0.3,0.7,0.5,1.3
		c0.6,2,1.1,5.5-1.2,9.3c-0.2,0.2-0.3,0.4-0.6,0.6c-3.6,3.4-8.1,4.4-11.9,3.8c-2.3-0.3-2.9-0.6-3.1-0.8c-0.1,0.7-0.7,3.4-5.4,4.6
		c-5.4,1.3-9.9,0.2-12.3-1.7s-2.5-0.6-2.5-0.6l1.1,2.1c-0.3,0.4-0.6,0.8-0.9,1.1c0.1,0.2,0.2,0.4,0.4,0.6c1.2,1.8,2.4,3.4,3.1,4.4
		c0.4-0.2,0.8-0.6,1.6-0.6c1.6,0,0.8,2.1,3.9,0.4l0.4,0.4c-0.8,0.7-2.2,1.9-4.3,3.3c-3.9,2.6-6.7,2.3-10.5,1.5
		c-0.9-0.2-1.8-0.6-2.6-1.2c-0.8-0.7-1.9-1.6-2.9-2.7c0.8,0.3,2.5,0.7,4.3,0.7c2.6,0,6.5-2.3,4.9-1.5c-1.6,0.9-5.5-0.4-8.3-1.9
		c-2.1-1.1-3.5-4.2-4.2-5.8c0.4-0.6,0.8-1.3,1.1-1.9c0.3-0.5,0.4-1.1,0.3-1.8c0.6-2.3-0.3-3.9-0.3-3.9s-1,1.3-3,4.5
		c-2,3.2-7.5,5-11.8,4.5c-1.9-0.2-4.2-1.9-5.6-2.9c1-1.4,1.5-3.1,1.5-3.1s-2.2,1.2-5.5,1.2c-1.4,0-2.6-0.8-3.5-1.8
		c0-0.1,0.1-0.1,0.1-0.2c0.3-1.1,0,0-0.7-1.6c-0.7-1.6,0.5,0.7-0.2-1.3s1.7,2.4,1.6,1.1c-0.1-0.4,0-0.5,0-0.4c0-0.1-0.1-0.3-0.2-0.5
		c-0.7-1.8-0.3-1.1,0.7-0.5c1,0.5,0.2-0.2-0.5-1.5c-0.5-1-0.9-2.7-1.1-3.7c0.8,0.8,2,1.3,4,0.7c4.5-1.4,11.9-8.9,11.9-8.9
		s-10.6,6.7-13,3.1c-0.4-0.6-0.8-1.4-1.1-2.2c0-0.1,0-0.1-0.1-0.2c0-0.1,0-0.2-0.1-0.3c0.5,0.5,1.4,1.4,2.2,1.8
		c1.2,0.5,2.2,0.2,3.4-1.1c0.6-0.6,0.9-1.1,1-1.4c0,0,0,0,0,0c-0.1,0-0.2,0-0.3-0.1c-0.3,0.2-0.7,0.4-1.3,0.6
		c-0.7,0.2-0.3-0.5,0.1-1.1c-0.6-0.3-1.3-0.8-2-1.6c-1.5-1.7-1.3-1.5-1.8-3.5c-0.4-1.7,0.3-3.7,0.5-4.4c1.2-2.3,3.2-3.7,4.3-4.3
		c0.1,0.1,0.2,0.2,0.3,0.3c1.4,1.5,6,0.3,8.9-2.2c4.3-3.8-2.7,1.3-6,1.2c-0.2-0.1-0.4-0.2-0.6-0.3c-0.9-0.6-1-1.1-1-3.7
		c0-1.6,0.7-3.5,1.3-4.9c0.3-0.4,0.5-0.7,0.7-1c0.4-0.2,0.8-0.5,1.1-0.9c1.2-1.8,1-2.1,1.2-3.4c0.2-1.3,3-5.7,3.2-3.6
		c0.2,2.1,1.2,0.1,1.5-1.2c0.3-1.4,2.2-5.3,3-6.8c2.2-2.8,4.3-5.5,6.2-8.2c0.4-0.6,0.8-1.1,1.2-1.7
		C291.9,95.1,295.5,88.2,302.3,83.5z M335,148.1c-0.1,0-0.2,0.1-0.3,0.1C334.8,148.2,334.9,148.1,335,148.1z M333.7,148.4
		c-0.1,0-0.1,0-0.1,0C333.6,148.4,333.7,148.4,333.7,148.4z M126.5,102.4c1.5-1.2,48.9-3.9,56.3-2.7s11.6,2,15.7,6.3
		c4.1,4.3,22.4,22.7,35.4,29.4c7.4,3.8,18.1,4.8,26,4.9c-0.3,0.9-0.7,1.9-1,2.8c-0.9,0.5-2.2,1.1-3.9,1.8c-3.1,1.2-3.5,0.4-5.4,0
		c-1.9-0.4-1.5-1.2-3.5-1.2c-0.9,0-2.3-0.1-3.5-0.2c-0.7,0.3-1.1,1-2.3,1.4c-1.2,0.5-2.1,0.2-2.1,0.2s-1.6-0.2-2.3,0
		c-0.7,0.2-0.9,0.2-1.2,1.4c-0.3,1.2-1.4,1.2-1.7,0.3c-0.2-0.7,0.2-3.4,0.4-4.9l-3.7,1.4l-0.5,1l-0.5,1c0,0-0.9,0.7-2.6,0.5
		c-1.6-0.2-0.7,0.5-0.7,0.5s0,0-3,2.4c1.2-0.2-3,2.4,0,0c-1.2,0.2,0,0-0.5-1.5c-0.3-1-0.9,1.2-1.9,2c-0.9,0.7,0.2-2,0.7-3.9
		c0.4-1.8,2.7-6.4,3-7c-3.7-2.3-1.1,0.8-3.7-2.3c-1.8-2.1-3.9-3.5-5.1-4.3c0,1.1,0,2.3,0.1,3c0.3,1.2,0,1.2,1.4,2.4
		c1.4,1.2,2,0.9,2,0.9s-1.1,0.6-2.9,1.2c-1.7,0.6,0,0-3.1,1.8c-0.8,0.5-1.4-1.5-1.4-1.5s-1.1,0.9-2.9,3.6c-1.7,2.7,0,0,0.6-2.1
		c0.6-2.1,0.6-1.5,1.1-4.2c0.2-1.1,0.6-3,0.6-3c0.6-0.9-0.9-2.1-0.9-2.1l0.3-3.5c-1.7-1.4-3.3-3-3.3-3.9c0-2,0-1.6-1.2-4
		c-1.2-2.4-1.5-4.4-3.8-5.6c-2.3-1.2-5-0.8-10.7-0.8c-3.5,0-7.4,0.3-10.2,0.4c-1.7-0.5-3.6-1.3-5.4-2.4c-2.3-1.6-6.2-3.3-8.6-4.3
		c-10.5-0.4-35.3-1.2-38-2.5C125.4,103.6,125,103.6,126.5,102.4z M123.5,122.4c-1.3-0.4-6.9-5.1-3.9-4.1s14.5-1,16-0.6
		c1.5,0.3,13-1.6,13-1.6s6-0.3,7.2-0.3c1.2,0,3.6-0.3,3.6-0.3s2.1-0.3,2.7-1.6c0.6-1.3,1.5,0,6.3,1.3c4.8,1.3,5.4,2.2,5.4,2.2
		l-14.2,1.9c0,0-9.7,1.9-17.2,2.5C135,122.4,128.1,123.9,123.5,122.4z M111.2,103.2c7.1-0.4,10.8,0.8,11.9,2
		c1.1,1.2,12.3,5.5,12.3,5.5s-33.5,1.6-58.9,2.2c-3-0.3-5.9-0.5-8.4-0.5c-6.3,0-4.5-0.9-6.6-0.6c-2.1,0.3-4.8-0.3-8.7-0.9
		c-3.6-0.6-6.4-1.9-6.8-2.2c0-0.7,0.3-1.1,0.3-1.1S104.1,103.6,111.2,103.2z M40.9,115.7l2.4-0.3c0,0,8.2,3.5,12.5,5
		s21.6,3.5,21.6,3.5s-11,2.3-22.3,0.5C43.8,122.7,40.9,115.7,40.9,115.7z M67.3,134.3c-3.4-1.5-9.6-6-9.6-6s24.2,0.2,30.9-1.6
		c6.7-1.8,9.6,2.6,15.2,3.6c2.6,0.5,5.2,0.8,7.4,1c-2,0.9-4.5,2.2-5.4,2.4c-1.2,0.3-2,0.3-3.5,0c-1.5-0.3-2,0-3.5,0.6
		c-0.5,0.2-1.8,0.9-3.4,1.9l-0.4-0.3c0,0-7.4,1.3-12.7,1.8C78.2,137.9,70.7,135.8,67.3,134.3z M102.6,150.6
		c-6.6,1.1-22.1-4.8-23.8-6.3c1.1-0.2,2.2-0.5,3.3-0.7c-0.4,0.6,0.3,1,0.3,1l2.6-0.3l2-0.3h2c0,0,1.5-0.3,2.9-1.5c1.5-1.2,0,0,2-1.2
		c2-1.2,3.5-1.8,2.9-0.9c-0.6,0.9-5.3,4.9-5.3,4.9s5.5-1.5,7-1.8c1.5-0.3,1.5-0.9,3.8-1.5c2.3-0.6-2.3,2.5-2.3,2.5s2.3-0.9,4.1-1.8
		c1.8-0.9,2.6-1.2,3.5-1.8c0.9-0.6,5.3-4,5.3-4l2.6-0.9c0,0-1.5,2.1-2,3.1c-0.6,0.9,6.4-3.4,6.4-3.4s2.2-1,4.1-1.8
		c3,1.6,9.7,4.7,11.1,4.2C136.7,137.3,124.4,146.8,102.6,150.6z M150.4,169.4c-4.7,0.9-14-0.4-18.2-0.9c-4.2-0.4-3-6.7-3-6.7
		l0.8-3.6c0,0-6.3,0-7.6,0.4c-1.3,0.4-6.8-0.4-10.6-0.9c-3.8-0.4,1.3-3.1,3.8-4.9c2.5-1.8,14-5.3,16.5-6.2c2.5-0.9,4.7-1.3,6.8-3.1
		c2.1-1.8,3.8,1.8,3.8,1.8s1.1,0.5,2.2,1.1c0.7-0.5,2.6-1.7,6.7-2.9c5.5-1.6,11.1-4.8,11.1-4.8l5,1.6c0,0,4,1.6,2,1.6
		c-2,0,2-1.6-2,0c-4,1.6-6.6,2.1-6.6,2.1s5,2.6,2,3.2c-3,0.5-1-0.5-3,0.5c-2,1.1-4,2.1-4,2.1c-3,1.6-5.5,2.6-5.5,2.6l-4.9,1.5
		l-1.7,1.9c0,0,3.4,0,6.3,0.9c3,0.9,0,0,2.5,0.4c2.5,0.4,7.6,0.4,9.7,0c2.1-0.4,8.5,0,8.5,0c-1.7,0.4-4.7,3.1-6.8,5.3
		c-2.1,2.2-2.1,1.3-4.2,1.8C158,165,155.1,168.5,150.4,169.4z M173.7,188.1c-2.5,1.3-2.5,2.2-5.1,2.7c-2.5,0.4-3,0.9-5.5,1.8
		c-2.5,0.9-4.7,0.9-4.2-2.2c0.4-3.1,1.3-0.4,0.4-3.1c2.5,0.4,2.1-1.5,3.6-2.7c1.5-1.2,3.1-3,3.9-3.5c0.9-0.5,0.7-1.6,1.8-2.1
		c1.1-0.5,0.9-0.2,1.5-1.4c0.7-1.2,0.7-1.4,0.9-2.8c0-0.1,0-0.1,0-0.1c-0.5,0.4-1,0.8-1.4,1.1c-1.3,0.9-5.3,5.3-8.1,6.9
		c-1.2,0.7-2.6,1.1-3.9,1.4c-1.5-1-2-1.3-3.5-1.3c-1.7,0-2.5-3.1-2.5-3.1s-0.4-0.9,1.3-2.7c1.7-1.8,2.1-4,2.1-4
		c3.4-3.6,1.7-2.2,5.1-4.9c3.4-2.7,5.5-4.4,7.6-6.7c2.1-2.2,8-3.1,8-3.1s-0.8,2.2,2.1,3.1c3,0.9,5.5,1.3,8.5,0.9c3-0.4,3.4-4,3-0.4
		c-0.4,3.6-0.8,3.1-1.3,5.3c-0.4,2.2-0.4,3.1-0.4,4.4c0,1.3-0.4,3.6-0.4,3.6l-3,5.8C184.3,181,176.2,186.7,173.7,188.1z
		 M192.4,198.7c-2.7,2.8-11.2,2.8-11.2,2.8s-3.7-4.5-3.2-7.3c0.5-2.8,1.6-2.8,4.3-5c2.7-2.2,5.3-4.5,8-7.8c2.7-3.4,3.7-3.9,5.3-6.7
		c1.6-2.8,4.3-3.9,6.4-3.9c2.1,0,6.9,0.6,6.9,0.6S195,195.9,192.4,198.7z M210.7,175.1l-1.9,7l-6.5,8.9l-1.9,2.9
		c0.8-1.7,1.8-3.6,3-5.7C206.2,183.3,208.5,177.5,210.7,175.1z M207.1,209.9c-6,5.4-9.6,4.2-11.2,0.8c-1.3-2.8,0.9-8.7,1.7-10.7
		c1.4-0.7,3.5-2.2,6.7-5l1-3.7l2.5-3.1c0,0,4.5-2.6,5.5-4.7c0.7-1.6,3.4-8.9,4.7-12.5c2.1-1.4,4.2-1.4,4.2-1.4s-6.8,16.7-9.2,24.7
		C210.6,202.4,208.8,208.4,207.1,209.9z M224.4,222c-0.9,1.2-3.6,3.2-6.4,4.7c-2.2,1.4-4.8,2.2-6.5,2c-2-0.2-1.2-3.8,0.6-10.8
		c1.9-7,9.7-36.7,9.7-36.7l3.3-2.7l1.5-3.1c0,0,0.2,0.7,0.5,1.6c-0.6,1.6-1.5,3.3-2.1,4.2c-1.2,1.7-2.4,0.8-2.4,2.9
		c0,2.1,0,3.7,0,5.4c0,1.7,0,1.7,0.4,3.7c0.4,2.1,2.4-0.4,2.4-0.4s0,3.3,0,9.2c0,5.8,1.2,3.3,2.4-2.5c0.5-2.3,1.1-5.6,1.7-8.7
		c-0.1,1.5-0.2,3-0.1,4.5c0,0.3,0,0.5,0,0.8c0.3-0.8,1.3-0.7,1.9-2c0.8-1.6,1.5-2.6,1.8-1.8c0.3,0.8-1.8,8.5-1.8,8.5
		S225.9,219.9,224.4,222z M233.4,234.6c-6.4-0.8-6.7-9.9-6.3-13.2c0.3-2.2,4.3-16.4,7.1-25.7c-0.1,1.2,0,2.6,0.6,5.8
		c1,5.2,1,1.5,0.5,5.7l-1.5,4.1c0,0,0.5,3.6,3,8.3c2.5,4.6,3.4,4.1,3.4,4.1s2-16.7,2.7-26.8c0.1,0.1,0.2,0.3,0.3,0.4
		c1.5,2.1,1,3.1,0.5,12.9c-0.3,7-1.7,10.6-1.6,14.1C240.2,228.9,237.1,235.1,233.4,234.6z M250.1,234.2c-1.9-0.5-3.2-1.5-4.2-2.8
		c0-0.2,0-0.4,0.1-0.6c-0.1-0.2-0.2-0.4-0.2-0.7c-0.2-2.1,1-11.6,1.3-12.1s1-3.6,1-3.6l1.5-0.3l-1.8-2.6l0.5-4.5l0.5-3.4
		c-0.2,1,2.1,4.8,2.1,4.8s0.2,2.4-0.2,6.2c-0.2,2.4-0.2,4.2-0.2,5.8c0-0.1,0-0.1,0-0.2l1.2-0.4l-0.2,9.7l2.1,3
		C252.5,233.8,251.4,234.6,250.1,234.2z M266.3,284.4c-1.3,1-1.5,1.5-3,1.8c-1.5,0.3-5.5,0.9-7.9,2.1c-2.4,1.2-6.3,1.7-6.8,1.7
		c-0.5,0-0.5-0.5-0.6-1.2s-0.6-0.5-0.8-0.6c-0.3-0.1,0.3-0.6,1.6-1.9c1.3-1.2,6.6-2.4,9.9-3.3c0.5-0.1,1-0.2,1.6-0.3
		c0.6,0.6,1.4,1,2.5,1.2c2.9,0.4,5.5-0.5,7.4-1.4c-0.1,0.1-0.2,0.3-0.3,0.5C269.6,283.8,268,283.1,266.3,284.4z M272.9,291.8
		c-0.3,2.1-2.4,6-2.8,4.9c-0.6-1.9-2.2-0.7-2.4-1.4s-0.1-3.2,0.4-5.6c0.5-2.5,1.3-6.3,2.7-6.7c1.8-0.5,2,1.8,2.3,2.8
		S273.2,289.6,272.9,291.8z M294.6,291.6c-0.1,0.4,0.5,1.5,0.5,1.5s-0.6-0.2-0.7-0.2c-0.3,0-1.2,0-1.1-0.4c0.2-0.5,0.1-1.3-0.5-0.8
		c-0.6,0.5-1.6,0-2.3-0.3c-0.8-0.5-3.3-1.9-4.4-2.5c-1-0.6-2.9-1.7-3.5-2.8c-0.6-1.1-1.1-0.5,0.8-1.8c2.7-1.9,8.8,2.7,9.9,4.1
		C294.6,289.8,294.8,290.6,294.6,291.6z M333.4,284.9c-0.7,1.1-2.8,2.4-4,3c-1.2,0.6-4.1,2.2-5,2.7c-0.7,0.4-1.9,0.9-2.6,0.4
		c-0.7-0.5-0.8,0.3-0.6,0.9c0.1,0.4-0.9,0.3-1.2,0.4c-0.2,0-0.9,0.2-0.9,0.2s0.7-1.2,0.6-1.6c-0.1-1.1,0.1-1.9,1.4-3.5
		s8.3-6.5,11.3-4.5C334.6,284.3,334,283.7,333.4,284.9z M346.3,290.8c0.5,2.2,0.6,4.5,0.3,5.1c-0.2,0.6-1.6-0.5-2.2,1.3
		c-0.3,0.9-2.3-2.6-2.6-4.5c-0.2-1.9-0.3-4.5-0.1-5.4c0.2-1,0.5-3,2.1-2.6C345.1,285.1,345.9,288.5,346.3,290.8z M364.6,286.6
		c1.1,1.3,1.6,1.9,1.3,1.9c-0.3,0-0.7-0.2-0.8,0.5c-0.2,0.7-0.2,1.2-0.6,1.1c-0.4,0-4.1-0.9-6.2-2.3c-2.1-1.3-5.9-2.3-7.2-2.7
		c-1.4-0.4-1.5-0.9-2.6-2c-1.5-1.5-3-0.9-3.3-1.7c-0.3-0.9-0.8-0.9-0.2-0.9c0.5,0,0.8,0.4,0.8,0.4s0.1,0,0.3,0
		c1.6,1.4,3.6,2.8,5.4,2.5c1-0.2,1.7-0.7,2.4-1.4c0.7,0.2,1.4,0.3,1.9,0.5C358.6,283.6,363.5,285.2,364.6,286.6z M380.8,234.9
		c-1-0.3-2.4-0.8-3-2.1c-0.9-1.9-1.9-4.2-0.6-3.9c0,0,1.2-0.3,1.2-1.3c0,0,0.6-1,0.3-1.9c-0.3-1,0,0-2.5-3.9
		c-1.1-1.7-2.3-3.6-3.3-5.1c-0.1-0.2-0.1-0.4-0.1-0.7c0-1,0.3-1.7-0.3-3.5c-0.7-1.7-1-3.5-1-3.5c-2-2.8-1.3-2.8-2-5.2
		c-0.3-1.2-0.9-3.3-1.4-5c0.2-0.4,0.3-0.7,0.3-1.1c0-1.1,1-1.9,1-3c0-1.1,0-1.1,0-1.1s-0.2-0.2-0.5-0.6c3.1-0.3,6.2-4.4,6.2-4.4
		s9.1,30.6,9.5,33.9C385,225.4,384.8,232.3,380.8,234.9z M400.3,228c0,0-8.6-1.6-10.4-5.5c-1.9-3.9-11.9-35.9-11.9-35.9
		s1.1-2.7,2.6-4.7c1.5-2,2.6-2,3.3-3.5s1.1-3.1,1.1-3.1l1.5,3.1l3.3,2.7c0,0,7.8,29.7,9.7,36.7C401.4,224.9,402.1,227.3,400.3,228z
		 M415.8,210.7c-1.6,3.3-5.2,4.6-11.2-0.8c-1.7-1.5-3.6-7.5-6-15.5c-2.4-7.9-9.2-24.7-9.2-24.7s2.8,0,5.2,2.1
		c0.4,0.4,0.7,0.6,1.1,0.9c1.8,4.1,5.7,13,7.5,17c2.4,5.3,2.7,4.6,4.8,6.4c1.3,1.2,4.2,2.9,6.1,4C415,202.2,417.1,208,415.8,210.7z
		 M430.5,201.5c0,0-8.5,0-11.2-2.8c-2.7-2.8-16.5-27.4-16.5-27.4s0.8-0.1,1.9-0.2c2,2.3,5.6,6.6,7.4,8.7c2.5,3.1,2.9,4.2,4.4,4.2
		c1.5,0,6.2,1.5,6.2,1.5s-2.2-1.5-4.7-5c-2.5-3.4-5.1-5.3-4-5.3c0.7,0,2.1,0.7,3.3,1.1c1.1,1.5,2.2,2.4,4.2,5c2.7,3.4,5.3,5.6,8,7.8
		c2.7,2.2,3.7,2.2,4.3,5S430.5,201.5,430.5,201.5z M460,179.6c0,0-0.8,3.1-2.5,3.1c-1.5,0-2,0.3-3.5,1.3c-1.2-0.3-2.6-0.7-3.9-1.4
		c-2.8-1.6-6.8-6-8.1-6.9c-0.3-0.2-0.8-0.6-1.4-1.1c0,0,0,0.1,0,0.1c0.2,1.4,0.2,1.6,0.9,2.8c0.7,1.2,0.4,0.9,1.5,1.4
		c1.1,0.5,0.9,1.6,1.8,2.1c0.9,0.5,2.4,2.3,3.9,3.5c1.5,1.2,1.1,3.1,3.6,2.7c-0.8,2.7,0,0,0.4,3.1c0.4,3.1-1.7,3.1-4.2,2.2
		c-2.5-0.9-3-1.3-5.5-1.8c-2.5-0.4-2.5-1.3-5.1-2.7c-2.5-1.3-10.6-7.1-10.6-7.1l-3-5.8c0,0-0.4-2.2-0.4-3.6c0-1.3,0-2.2-0.4-4.4
		c-0.4-2.2-0.8-1.8-1.3-5.3c-0.4-3.6,0,0,3,0.4c3,0.4,5.5,0,8.5-0.9c3-0.9,2.1-3.1,2.1-3.1s5.9,0.9,8,3.1s4.2,4,7.6,6.7
		c3.4,2.7,1.7,1.3,5.1,4.9c0,0,0.4,2.2,2.1,4C460.4,178.8,460,179.6,460,179.6z M499.8,157.9c-3.8,0.4-9.3,1.3-10.6,0.9
		c-1.3-0.4-7.6-0.4-7.6-0.4l0.8,3.6c0,0,1.3,6.2-3,6.7c-4.2,0.4-13.5,1.8-18.2,0.9c-4.7-0.9-7.6-4.4-9.7-4.9
		c-2.1-0.4-2.1,0.4-4.2-1.8c-2.1-2.2-5.1-4.9-6.8-5.3c0,0,6.3-0.4,8.5,0c2.1,0.4,7.2,0.4,9.7,0c2.5-0.4-0.4,0.4,2.5-0.4
		c3-0.9,6.3-0.9,6.3-0.9l-6.3-7.1c0,0,2.1-0.4,3.4-1.3c1.3-0.9,4.2-2.2,4.2-2.2s1.7-3.6,3.8-1.8c2.1,1.8,4.2,2.2,6.8,3.1
		c2.5,0.9,14,4.4,16.5,6.2C498.5,154.8,503.6,157.4,499.8,157.9z M509.1,150.6c-21.8-3.8-34.1-13.4-32.6-12.8
		c1.4,0.5,8.1-2.6,11.1-4.2c1.9,0.8,4.1,1.8,4.1,1.8s7,4.3,6.4,3.4c-0.6-0.9-2-3.1-2-3.1l2.6,0.9c0,0,4.4,3.4,5.3,4
		c0.9,0.6,1.8,0.9,3.5,1.8c1.8,0.9,4.1,1.8,4.1,1.8s-4.7-3.1-2.3-2.5c2.3,0.6,2.3,1.2,3.8,1.5c1.5,0.3,7,1.8,7,1.8s-4.7-4-5.3-4.9
		c-0.6-0.9,0.9-0.3,2.9,0.9c2,1.2,0.6,0,2,1.2c1.5,1.2,2.9,1.5,2.9,1.5h2l2,0.3l2.6,0.3c0,0,0.7-0.4,0.3-1c1.1,0.2,2.1,0.5,3.3,0.7
		C531.2,145.8,515.7,151.8,509.1,150.6z M544.4,134.3c-3.4,1.5-10.8,3.7-14.9,3.3c-5.3-0.5-12.7-1.8-12.7-1.8l-0.4,0.3
		c-1.6-0.9-3-1.7-3.4-1.9c-1.5-0.6-2-0.9-3.5-0.6c-1.5,0.3-2.3,0.3-3.5,0c-0.9-0.2-3.5-1.5-5.4-2.4c2.2-0.2,4.9-0.5,7.4-1
		c5.5-1,8.4-5.3,15.2-3.6c6.7,1.8,30.9,1.6,30.9,1.6S547.7,132.7,544.4,134.3z M556.6,124.4c-11.3,1.8-22.3-0.5-22.3-0.5
		s17.3-2,21.6-3.5c4.3-1.5,12.5-5,12.5-5l2.4,0.3C570.8,115.7,567.9,122.7,556.6,124.4z"/>
	<path class="st0" d="M347.5,145.7c1.4,0.6,1.7,0.9,2.5,2.1c0.8,1.2,5.3-0.3,5.3-0.3s1.4,0,2.3,0.3c0.8,0.3,2.8,3.2,2.8,3.2
		s1.1,1.5,2,1.5s1.4-1.2,2.3-1.5c0.8-0.3,2.8-0.6,5.8-1.3c3-0.7,2.4-1.4,2.4-1.4s0.8-0.6,1.4-2.7l2.8,0.9c0,0,0,0,1.7,0.3
		c1.7,0.3,0,0,2,0c2,0,1.4-0.3,2.5-0.9c1.1-0.6,0.8,0,2.5-0.3c1.7-0.3,2.8-0.3,2.8-0.3s2.5-1.2,4.5-2.2c0.1-0.2,0.2-0.4,0.2-0.6
		c0.7-3.4,10.1-8,10.4-7.2c1.8,4.6,1.4,8.2,2.2,5.5c0.7-2.7-0.4-6.5-1.1-8c-0.7-1.5,4,4.6,5.1,2.7c0.7-1.3,2.2-4.7,3.1-8
		c1.8,1.6,3.5,3,4.8,3.4c3.4,1,7.8,2.3,10,2c2.2-0.3,5-1.3,4.7-2.6c-0.2-0.9-0.7-2.7-1-3.9c0.2,0.1,0.3,0.2,0.5,0.3
		c1,0.5,1.9,1.6,6.6,0.3s8.1-0.7,8.8-3.9c0.6-3.3,0-3.3-1.6-4.9c-1.6-1.6-5.7-4.4-6.1-4c-0.5,0.4,3.3,2.7,2.7,4.3
		c-0.6,1.6-0.3,2.3-2.2,2.6c-1.9,0.3-2.5,0-4.7,0.7c-2.2,0.7-1.9,1.6-4.1,1c-2.2-0.7-5.3-1.6-4.1-0.3c1.1,1.1,1.7,2.3,3.5,3.5
		c-0.8,2-0.3,3.5-3.4,2c-3.4-1.6-5.6-3.3-6.9-5.6c-0.8-1.5-1.4-3-2.3-4.3c1.6-1.3,3.1-2.2,3.7-2.2c1,0,4.3-0.3,5.2-0.7
		c1-0.3,5.6-1,9.2-3.4c2.3-1.6,6.2-3.3,8.6-4.3c10.5-0.4,35.3-1.2,38-2.5c1.8-0.7,3.6-0.3,5.6,0c-1.1,1.2-12.3,5.5-12.3,5.5
		s33.5,1.6,58.9,2.2c3-0.3,5.9-0.5,8.4-0.5c6.3,0,4.5-0.9,6.6-0.6c2.1,0.3,4.8-0.3,8.7-0.9c3.6-0.6,6.4-1.9,6.8-2.2
		c0-0.7-0.3-1.1-0.3-1.1s-57.8-3.9-64.9-4.3c-3.1-0.2-5.6,0-7.5,0.3c-2.5-0.3-5.6-0.7-7.7-0.9c0,0-0.1-0.1-0.1-0.1
		c-1.5-1.2-48.9-3.9-56.3-2.7c-7.5,1.2-11.6,2-15.7,6.3c-4.1,4.3-22.4,22.7-35.4,29.4c-10.9,5.6-29,5.1-34.5,4.8
		c1.1,1.5,2.2,3.2,3.1,5C346.7,145.3,347.1,145.6,347.5,145.7z"/>
	<path class="st0" d="M555.9,120.4c-4.3,1.5-21.6,3.5-21.6,3.5s11,2.3,22.3,0.5c11.3-1.8,14.2-8.7,14.2-8.7l-2.4-0.3
		C568.4,115.4,560.2,118.9,555.9,120.4z"/>
	<path class="st0" d="M529.3,144.6l-2.6-0.3l-2-0.3h-2c0,0-1.5-0.3-2.9-1.5c-1.5-1.2,0,0-2-1.2c-2-1.2-3.5-1.8-2.9-0.9
		c0.6,0.9,5.3,4.9,5.3,4.9s-5.5-1.5-7-1.8c-1.5-0.3-1.5-0.9-3.8-1.5c-2.3-0.6,2.3,2.5,2.3,2.5s-2.3-0.9-4.1-1.8
		c-1.8-0.9-2.6-1.2-3.5-1.8c-0.9-0.6-5.3-4-5.3-4l-2.6-0.9c0,0,1.5,2.1,2,3.1c0.6,0.9-6.4-3.4-6.4-3.4s-2.2-1-4.1-1.8
		c-3,1.6-9.7,4.7-11.1,4.2c-1.4-0.5,10.8,9.1,32.6,12.8c6.6,1.1,22.1-4.8,23.8-6.3c-1.1-0.2-2.2-0.5-3.3-0.7
		C530,144.2,529.3,144.6,529.3,144.6z"/>
	<path class="st0" d="M523.1,126.7c-6.7-1.8-9.6,2.6-15.2,3.6c-2.6,0.5-5.2,0.8-7.4,1c2,0.9,4.5,2.2,5.4,2.4c1.2,0.3,2,0.3,3.5,0
		c1.5-0.3,2,0,3.5,0.6c0.5,0.2,1.8,0.9,3.4,1.9l0.4-0.3c0,0,7.4,1.3,12.7,1.8c4.1,0.4,11.5-1.8,14.9-3.3c3.4-1.5,9.6-6,9.6-6
		S529.8,128.4,523.1,126.7z"/>
	<path class="st0" d="M359.3,199.6c3.2-3.3,2.8-9.6,2.8-9.6l0.1-1.6c-0.1,0.7-0.8,1.5-2.9,1.9c-2.2,2.6-3.8,1.2-5.1,0.6
		c0.2,0.4,0.4,0.8,0.7,1.5c0.5,1.4,0.8,1.4,1.3,2.2c-1.5,1-1.8,1-1.8,1l-0.5,1.5c-0.6,0.2-1.6-0.2-1.6-0.2s-0.9-0.8-1.4-1
		c-0.5-0.2-1.3,0.6-1.3,0.6l-1.5-0.5l0.5,2c0,0,0.5,1.1,1.3,2.2l0,0.1c0,0,0,0,0,0c0.4,0.5,0.8,1,1.2,1.3c0.9,0.8,2.5,1.1,3.4,1.2
		C356.1,203.4,356.8,202.2,359.3,199.6z"/>
	<path class="st0" d="M357.4,167.1c-0.1-0.3-0.2-0.5-0.3-0.6c0-0.1-0.1-0.1-0.1-0.2c-0.2-0.5-0.4-0.7,0,0c0,0.1,0.1,0.1,0.1,0.2
		C357.2,166.7,357.3,166.9,357.4,167.1c0.1,0.1,0.1,0.2,0.2,0.3c-0.7-1.5,0.1,0.1-0.2-1c-0.3-1.2-0.8-1.5-1.1-2.4
		c0.3,0.9,0,1.4-0.3,1.9c-0.1,0.6-0.1,1-0.2,0.4c0,0,0,0,0,0c-0.2,0.4-0.5,0.8-0.6,1.4l0.2,1.5l0.5,1.1c0,0,0,0.9-0.3,2.4l-1.2,2.5
		c0,0-0.5,1.5-0.7,2.5c-0.2,1.1,1-1.3,1.6-1.8c0.5-0.5,0,0.9-0.2,1.8c-0.2,0.9-0.3,0.9-2,3.4c-1.6,2.5-2.4,1.9-2.4,1.9s0-1.3,1-6.5
		c0.2-0.9,0.3-1.9,0.5-2.9c-0.4,0.6-1.2,0.5-1.2,0.5l-0.1-0.7c-1,1.2-2.1,2.6-3.1,3.7c-0.9,6.2-2.1,12.1-3.7,18.4
		c0.6-1.4,1.4-3.2,1.5-3.5c0.2-0.3,0.9-3.3,1.3-5.2c0.5-0.4,2,0.6,2,0.6c-0.8-0.8,1.1-2.6,1.1-2.6c0.7,1.1,3.9,0,3.9,0l2.5-1.8
		c0,0-0.4,1.5,1.4,1.5c1.1,0,1.8-2.8,2.2-4.5c-0.2-2.9-0.5-6.2-0.8-9.5c-0.3-0.7-0.7-1.6-1.3-2.9
		C357.5,167.4,357.5,167.3,357.4,167.1z"/>
	<path d="M362.1,187.5c0,0.1,0.1,0.2,0.1,0.4l0-0.2C362.2,187.7,362.1,187.6,362.1,187.5z"/>
	<path class="st0" d="M367,225.4c-1.7-1,0,0-1-2.4c-1-2.4-1-1.4-3.6-5.9c-2.6-4.5,0.7,2.8,1.7,6.2c1,3.5,1.7,3.5,0.3,2.4
		c-1.3-1-2-2.1-3-2.8c-0.9-0.6-5.1-13.7-5.8-16c-0.4,0.1-0.7,0.2-1.5,0c-0.2-0.1-0.4-0.1-0.5-0.2c0.6,3.7,2.7,15.7,4.3,19
		c1.1,2.4,2.8,5.1,4.9,6.3c2.9,0.5,4.7-2.4,4.7-2.4l0,0c0.4-1.2,0.7-2.6,0.8-3.8C367.8,225.8,367.4,225.7,367,225.4z"/>
	<path class="st0" d="M375.2,188.7c0,0-3.1,4.1-6.2,4.4c0.3,0.4,0.5,0.6,0.5,0.6s0,0,0,1.1c0,1.1-1,1.9-1,3c0,0.4-0.1,0.7-0.3,1.1
		c0.5,1.7,1.1,3.8,1.4,5c0.7,2.4,0,2.4,2,5.2c0,0,0.3,1.7,1,3.5c0.7,1.7,0.3,2.4,0.3,3.5c0,0.3,0,0.5,0.1,0.7c1,1.6,2.3,3.5,3.3,5.1
		c2.5,3.9,2.2,2.9,2.5,3.9c0.3,1-0.3,1.9-0.3,1.9c0,1-1.2,1.3-1.2,1.3c-1.2-0.3-0.3,1.9,0.6,3.9c0.6,1.2,2,1.8,3,2.1
		c3.9-2.6,4.1-9.5,3.8-12.3C384.2,219.2,375.2,188.7,375.2,188.7z"/>
	<path d="M362.1,187.5c0-0.1-0.1-0.1-0.1-0.1S362.1,187.5,362.1,187.5z"/>
	<path class="st0" d="M389.8,181.2l-3.3-2.7l-1.5-3.1c0,0-0.4,1.6-1.1,3.1s-1.9,1.6-3.3,3.5c-1.5,2-2.6,4.7-2.6,4.7s10,32,11.9,35.9
		c1.9,3.9,10.4,5.5,10.4,5.5c1.9-0.8,1.1-3.1-0.7-10.2C397.7,210.9,389.8,181.2,389.8,181.2z"/>
	<path class="st0" d="M429.5,189.2c-2.7-2.2-5.3-4.5-8-7.8c-2-2.5-3.1-3.5-4.2-5c-1.2-0.5-2.6-1.1-3.3-1.1c-1.1,0,1.5,1.9,4,5.3
		c2.5,3.4,4.7,5,4.7,5s-4.7-1.5-6.2-1.5c-1.5,0-1.8-1.1-4.4-4.2c-1.8-2.2-5.4-6.4-7.4-8.7c-1.1,0.1-1.9,0.2-1.9,0.2
		s13.8,24.6,16.5,27.4c2.7,2.8,11.2,2.8,11.2,2.8s3.7-4.5,3.2-7.3S432.1,191.5,429.5,189.2z"/>
	<path class="st0" d="M408,196.2c-2-1.8-2.4-1.1-4.8-6.4c-1.8-4-5.7-12.9-7.5-17c-0.3-0.2-0.7-0.5-1.1-0.9c-2.4-2.1-5.2-2.1-5.2-2.1
		s6.8,16.7,9.2,24.7c2.4,7.9,4.3,13.9,6,15.5c6,5.4,9.6,4.2,11.2,0.8c1.3-2.7-0.9-8.5-1.7-10.6C412.3,199.1,409.4,197.3,408,196.2z"
		/>
	<path class="st0" d="M371.2,189c1.2-0.4,3.2-2.9,3.2-2.9l2-4.2l0.4-5.9l-2.4,2.1l-1.6-3.3l0.8-5l-0.8-5.9c0,0-1-1.3-2.2-1.6
		c-0.9,1.1,0,0-0.7-0.1c-0.1,0-0.2,0-0.3,0c-0.2,0-0.4,0.2-0.5,0.4c-0.1,0.1-0.1,0.1-0.1,0.2c-0.3,0.9,0.1,2.4,0.1,2.4
		s-0.3,2.1-2.8,3.8c0,0,0,1.1,0,1.8c0-1.8,0,3.2,0.8,1.2c0.8-2.1,0,1.5-0.8,3c-0.8,1.5,1.4,0.3,1.4,0.3s-0.8,3.2-2.3,5.3
		c-1.4,2,0,0-0.8,1.4c0.2,1.3,0.5,2.6,1,3.6C366.3,187.2,370,189.4,371.2,189z"/>
	<path class="st0" d="M496,153c-2.5-1.8-14-5.3-16.5-6.2c-2.5-0.9-4.7-1.3-6.8-3.1c-2.1-1.8-3.8,1.8-3.8,1.8s-3,1.3-4.2,2.2
		c-1.3,0.9-3.4,1.3-3.4,1.3l6.3,7.1c0,0-3.4,0-6.3,0.9c-3,0.9,0,0-2.5,0.4c-2.5,0.4-7.6,0.4-9.7,0c-2.1-0.4-8.5,0-8.5,0
		c1.7,0.4,4.7,3.1,6.8,5.3c2.1,2.2,2.1,1.3,4.2,1.8c2.1,0.4,5.1,4,9.7,4.9c4.7,0.9,14-0.4,18.2-0.9c4.2-0.4,3-6.7,3-6.7l-0.8-3.6
		c0,0,6.3,0,7.6,0.4c1.3,0.4,6.8-0.4,10.6-0.9C503.6,157.4,498.5,154.8,496,153z"/>
	<path class="st0" d="M456.6,173c-3.4-3.6-1.7-2.2-5.1-4.9c-3.4-2.7-5.5-4.4-7.6-6.7s-8-3.1-8-3.1s0.8,2.2-2.1,3.1
		c-3,0.9-5.5,1.3-8.5,0.9c-3-0.4-3.4-4-3-0.4c0.4,3.6,0.8,3.1,1.3,5.3c0.4,2.2,0.4,3.1,0.4,4.4c0,1.3,0.4,3.6,0.4,3.6l3,5.8
		c0,0,8,5.8,10.6,7.1c2.5,1.3,2.5,2.2,5.1,2.7c2.5,0.4,3,0.9,5.5,1.8c2.5,0.9,4.7,0.9,4.2-2.2c-0.4-3.1-1.3-0.4-0.4-3.1
		c-2.5,0.4-2.1-1.5-3.6-2.7c-1.5-1.2-3.1-3-3.9-3.5c-0.9-0.5-0.7-1.6-1.8-2.1c-1.1-0.5-0.9-0.2-1.5-1.4c-0.7-1.2-0.7-1.4-0.9-2.8
		c0-0.1,0-0.1,0-0.1c-0.8-0.6-1.7-1.4-2.4-2c-0.4-0.2-0.7-0.5-1.1-0.9c-0.2-0.2,0.3,0.2,1.1,0.9c1.1,0.7,2.1,1.1,2.4,2
		c0.5,0.4,1,0.8,1.4,1.1c1.3,0.9,5.3,5.3,8.1,6.9c1.2,0.7,2.6,1.1,3.9,1.4c1.5-1,2-1.3,3.5-1.3c1.7,0,2.5-3.1,2.5-3.1
		s0.4-0.9-1.3-2.7C457.1,175.2,456.6,173,456.6,173z"/>
	<path d="M438.2,172.7c0.7,0.6,1.6,1.3,2.4,2C440.4,173.8,439.3,173.4,438.2,172.7z"/>
	<path d="M437.2,171.9c0.3,0.3,0.7,0.6,1.1,0.9C437.5,172.1,436.9,171.6,437.2,171.9z"/>
	<path class="st1" d="M357.1,166.5c0-0.1-0.1-0.1-0.1-0.2"/>
	<path d="M357.4,167.1c-0.1-0.2-0.2-0.4-0.3-0.6C357.2,166.7,357.3,166.9,357.4,167.1z"/>
	<path d="M357,166.3C356.6,165.6,356.8,165.8,357,166.3L357,166.3z"/>
	<path class="st0" d="M380.9,173.2c2.6-1.4,4.3-3.1,5.6-6.5c1.3-3.4,1.3-0.7,2.6-1.7c1.3-1,0.7-0.7,2-2.8c1.3-2.1,1.6-3.1,2-5.9
		c0.3-2.8,0.3-6.5,0.3-6.5l-2.3,2.1c-2,2.1,0,1.4-2,2.1c-2,0.7,0.3,2-3.6,0.1c-3.9-1.9-5.9-1.9-5.9-1.9c-3.9,3.8-3.9,3.8-3.9,3.8
		l1.3,5.2c0,0,0.7,1,1,3.8c0.3,2.8,0.3,3.4,1.6,5.9C380.9,173.2,378.2,174.5,380.9,173.2z"/>
	<path class="st0" d="M468.3,126.7c0,0-2.1,0-3.5,0c-1.4,0-3.1-1.8-3.1-1.8s-3.4-0.6-5.2-0.6c-1.7,0-2.8-1.7-7.3-1
		c-1.9,0.3,2.8,4.9,14.3,9.2c11.4,4.4,9.3,2.9,11.3,2.9c2.1,0,6.6-4,6.6-4l3.8-1.5c0,0-12.5-2.9-13.5-2.9S468.3,126.7,468.3,126.7z"
		/>
	<path class="st0" d="M502.9,127.4l11.4-3.6c0,0-9.4-0.4-10.7-0.4s-5.9-0.7-8-0.7c-2.1,0-3.1,0.4-3.5-0.7c-0.3-1.1-5.2,0.7-9,1.1
		c-3.8,0.4-4.2-0.4-7.6-1.1c-3.5-0.7-3.1,1.1,1,2.5c4.2,1.5,16.6,2.9,19.4,3.6C498.8,128.9,501.9,127,502.9,127.4z"/>
	<path class="st0" d="M128.7,105.2c2.8,1.3,27.6,2,38,2.5c2.4,1,6.3,2.7,8.6,4.3c1.7,1.2,3.7,1.9,5.4,2.4c2.8-0.1,6.6-0.4,10.2-0.4
		c5.8,0,8.4-0.4,10.7,0.8c2.3,1.2,2.7,3.2,3.8,5.6c1.2,2.4,1.2,2,1.2,4c0,0.9,1.6,2.5,3.3,3.9l-0.3,3.5c0,0,1.4,1.2,0.9,2.1
		c0,0-0.3,1.9-0.6,3c-0.6,2.7-0.6,2.1-1.1,4.2c-0.6,2.1-2.3,4.8-0.6,2.1c1.7-2.7,2.9-3.6,2.9-3.6s0.6,2,1.4,1.5
		c3.1-1.8,1.4-1.2,3.1-1.8c1.7-0.6,2.9-1.2,2.9-1.2s-0.6,0.3-2-0.9c-1.4-1.2-1.1-1.2-1.4-2.4c-0.1-0.6-0.1-1.9-0.1-3
		c1.2,0.7,3.3,2.1,5.1,4.3c2.7,3.2,0.1,0.1,3.7,2.3c-0.3,0.6-2.6,5.2-3,7c-0.5,2-1.6,4.7-0.7,3.9c0.9-0.7,1.5-3,1.9-2
		c0.5,1.5-0.7,1.7,0.5,1.5c3-2.4,3-2.4,3-2.4s-0.9-0.7,0.7-0.5c1.6,0.2,2.6-0.5,2.6-0.5l0.5-1l0.5-1l3.7-1.4
		c-0.2,1.5-0.6,4.2-0.4,4.9c0.3,1,1.4,0.9,1.7-0.3c0.3-1.2,0.5-1.2,1.2-1.4c0.7-0.2,2.3,0,2.3,0s0.9,0.2,2.1-0.2
		c1.1-0.5,1.6-1.2,2.3-1.4c1.3,0.1,2.6,0.2,3.5,0.2c1.9,0,1.5,0.8,3.5,1.2c1.9,0.4,2.3,1.2,5.4,0c1.7-0.7,3.1-1.3,3.9-1.8
		c0.3-1,0.6-1.9,1-2.8c-7.8-0.2-18.5-1.2-26-4.9c-13.1-6.7-31.3-25.1-35.4-29.4c-4.1-4.3-8.2-5.1-15.7-6.3s-54.8,1.6-56.3,2.7
		C125,103.6,125.4,103.6,128.7,105.2z"/>
	<path class="st0" d="M52.9,110.8c3.9,0.6,6.6,1.3,8.7,0.9c2.1-0.3,0.3,0.6,6.6,0.6c2.5,0,5.4,0.2,8.4,0.5
		c25.4-0.6,58.9-2.2,58.9-2.2s-11.2-4.3-12.3-5.5c-1.1-1.2-4.8-2.3-11.9-2c-7.1,0.4-64.9,4.3-64.9,4.3s-0.2,0.5-0.3,1.1
		C46.5,108.8,49.3,110.2,52.9,110.8z"/>
	<path class="st0" d="M77.4,123.9c0,0-17.3-2-21.6-3.5s-12.5-5-12.5-5l-2.4,0.3c0,0,2.9,7,14.2,8.7
		C66.4,126.2,77.4,123.9,77.4,123.9z"/>
	<path class="st0" d="M135.2,137.8c-1.4,0.5-8.1-2.6-11.1-4.2c-1.9,0.8-4.1,1.8-4.1,1.8s-7,4.3-6.4,3.4c0.6-0.9,2-3.1,2-3.1
		l-2.6,0.9c0,0-4.4,3.4-5.3,4c-0.9,0.6-1.8,0.9-3.5,1.8c-1.8,0.9-4.1,1.8-4.1,1.8s4.7-3.1,2.3-2.5c-2.3,0.6-2.3,1.2-3.8,1.5
		c-1.5,0.3-7,1.8-7,1.8s4.7-4,5.3-4.9c0.6-0.9-0.9-0.3-2.9,0.9c-2,1.2-0.6,0-2,1.2c-1.5,1.2-2.9,1.5-2.9,1.5h-2l-2,0.3l-2.6,0.3
		c0,0-0.7-0.4-0.3-1c-1.1,0.2-2.1,0.5-3.3,0.7c1.7,1.5,17.1,7.4,23.8,6.3C124.4,146.8,136.7,137.3,135.2,137.8z"/>
	<path class="st0" d="M82.2,137.5c5.3-0.5,12.7-1.8,12.7-1.8l0.4,0.3c1.6-0.9,3-1.7,3.4-1.9c1.5-0.6,2-0.9,3.5-0.6
		c1.5,0.3,2.3,0.3,3.5,0c0.9-0.2,3.5-1.5,5.4-2.4c-2.2-0.2-4.9-0.5-7.4-1c-5.5-1-8.4-5.3-15.2-3.6c-6.7,1.8-30.9,1.6-30.9,1.6
		s6.2,4.5,9.6,6C70.7,135.8,78.2,137.9,82.2,137.5z"/>
	<path class="st0" d="M251.5,229.4l0.2-9.7l-1.2,0.4c0,0.1,0,0.2,0,0.2c0.1-1.6,0-3.4,0.2-5.8c0.3-3.8,0.2-6.2,0.2-6.2
		s-2.3-3.8-2.1-4.8l-0.5,3.4l-0.5,4.5l1.8,2.6l-1.5,0.3c0,0-0.7,3.2-1,3.6s-1.5,10-1.3,12.1c0,0.3,0.1,0.5,0.2,0.7
		c0,0.2,0,0.4-0.1,0.6c1,1.3,2.4,2.3,4.2,2.8c1.3,0.3,2.5-0.4,3.5-1.8L251.5,229.4z"/>
	<path class="st0" d="M243.6,210.3c0.5-9.8,1-10.8-0.5-12.9c-0.1-0.1-0.2-0.3-0.3-0.4c-0.7,10.1-2.7,26.8-2.7,26.8s-1,0.5-3.4-4.1
		c-2.5-4.6-3-8.3-3-8.3l1.5-4.1c0.5-4.1,0.5-0.5-0.5-5.7c-0.6-3.2-0.7-4.6-0.6-5.8c-2.7,9.3-6.8,23.5-7.1,25.7
		c-0.4,3.3-0.1,12.4,6.3,13.2c3.7,0.5,6.8-5.8,8.7-10.3C241.9,220.8,243.2,217.2,243.6,210.3z"/>
	<path class="st2" d="M254,167.8C253.9,168,253.9,167.9,254,167.8L254,167.8z"/>
	<path class="st0" d="M201.9,170.8c-2.1,0-4.8,1.1-6.4,3.9c-1.6,2.8-2.7,3.4-5.3,6.7c-2.7,3.4-5.3,5.6-8,7.8c-2.7,2.2-3.7,2.2-4.3,5
		c-0.5,2.8,3.2,7.3,3.2,7.3s8.5,0,11.2-2.8c2.7-2.8,16.5-27.4,16.5-27.4S204.1,170.8,201.9,170.8z"/>
	<path class="st0" d="M200.5,193.8l1.9-2.9l6.5-8.9l1.9-7c-2.2,2.4-4.5,8.2-7.2,13C202.3,190.2,201.3,192.2,200.5,193.8z"/>
	<path class="st0" d="M222.2,169.8c0,0-2.1,0-4.2,1.4c-1.3,3.7-4,11-4.7,12.5c-1,2.1-5.5,4.7-5.5,4.7l-2.5,3.1l-1,3.7
		c-3.2,2.8-5.3,4.2-6.7,5c-0.8,1.9-3.1,7.9-1.7,10.7c1.6,3.3,5.2,4.6,11.2-0.8c1.7-1.5,3.6-7.5,6-15.5
		C215.4,186.5,222.2,169.8,222.2,169.8z"/>
	<path class="st0" d="M246.1,185.7c0.5-1,0.8-2.3,1-3.6c-0.8-1.4,0.6,0.6-0.8-1.4c-1.4-2.1-2.3-5.3-2.3-5.3s2.3,1.2,1.4-0.3
		c-0.8-1.5-1.7-5-0.8-3c0.8,2.1,0.8-3,0.8-1.2c0-0.7,0-1.8,0-1.8c-2.5-1.8-2.8-3.8-2.8-3.8s0.4-1.6,0.1-2.4c-0.5,0.1-0.2,0-0.1-0.2
		c-0.1-0.2-0.3-0.4-0.5-0.4c-0.1,0-0.2,0-0.3,0c-0.7,0,0.2,1.2-0.7,0.1c-1.2,0.3-2.2,1.6-2.2,1.6l-0.8,5.9l0.8,5l-1.6,3.3l-2.4-2.1
		l0.4,5.9l2,4.2c0,0,0.1,0.2,0.3,0.4c0.4,0.4,0.9,0.7,1.3,1.1c0.5,0.5,1.1,1,1.6,1.4C241.7,189.4,245.4,187.2,246.1,185.7z"/>
	<path class="st0" d="M164.4,162.8c2.1-2.2,5.1-4.9,6.8-5.3c0,0-6.3-0.4-8.5,0c-2.1,0.4-7.2,0.4-9.7,0c-2.5-0.4,0.4,0.4-2.5-0.4
		c-3-0.9-6.3-0.9-6.3-0.9l1.7-1.9l4.9-1.5c0,0,2.5-1.1,5.5-2.6c0,0,2-1.1,4-2.1c2-1.1,0,0,3-0.5c3-0.5-2-3.2-2-3.2s2.5-0.5,6.6-2.1
		c4-1.6,0,0,2,0c2,0-2-1.6-2-1.6l-5-1.6c0,0-5.5,3.2-11.1,4.8c-4.1,1.2-6,2.4-6.7,2.9c-1.1-0.6-2.2-1.1-2.2-1.1s-1.7-3.6-3.8-1.8
		c-2.1,1.8-4.2,2.2-6.8,3.1c-2.5,0.9-14,4.4-16.5,6.2c-2.5,1.8-7.6,4.4-3.8,4.9c3.8,0.4,9.3,1.3,10.6,0.9c1.3-0.4,7.6-0.4,7.6-0.4
		l-0.8,3.6c0,0-1.3,6.2,3,6.7c4.2,0.4,13.5,1.8,18.2,0.9c4.7-0.9,7.6-4.4,9.7-4.9C162.3,164.1,162.3,165,164.4,162.8z"/>
	<path class="st0" d="M187.2,175.2c0,0,0.4-2.2,0.4-3.6c0-1.3,0-2.2,0.4-4.4c0.4-2.2,0.8-1.8,1.3-5.3c0.4-3.6,0,0-3,0.4
		c-3,0.4-5.5,0-8.5-0.9c-3-0.9-2.1-3.1-2.1-3.1s-5.9,0.9-8,3.1c-2.1,2.2-4.2,4-7.6,6.7c-3.4,2.7-1.7,1.3-5.1,4.9c0,0-0.4,2.2-2.1,4
		c-1.7,1.8-1.3,2.7-1.3,2.7s0.8,3.1,2.5,3.1c1.5,0,2,0.3,3.5,1.3c1.2-0.3,2.6-0.7,3.9-1.4c2.8-1.6,6.8-6,8.1-6.9
		c0.3-0.2,0.8-0.6,1.4-1.1c0.2-0.9,1.3-1.3,2.4-2c0.8-0.7,1.3-1.1,1.1-0.9c-0.3,0.3-0.7,0.6-1.1,0.9c-0.7,0.6-1.6,1.3-2.4,2
		c0,0,0,0.1,0,0.1c-0.2,1.4-0.2,1.6-0.9,2.8c-0.7,1.2-0.4,0.9-1.5,1.4c-1.1,0.5-0.9,1.6-1.8,2.1c-0.9,0.5-2.4,2.3-3.9,3.5
		c-1.5,1.2-1.1,3.1-3.6,2.7c0.8,2.7,0,0-0.4,3.1c-0.4,3.1,1.7,3.1,4.2,2.2c2.5-0.9,3-1.3,5.5-1.8c2.5-0.4,2.5-1.3,5.1-2.7
		c2.5-1.3,10.6-7.1,10.6-7.1L187.2,175.2z"/>
	<path d="M171.1,174.7c0.8-0.6,1.7-1.4,2.4-2C172.4,173.4,171.3,173.8,171.1,174.7z"/>
	<path d="M173.5,172.7c0.4-0.2,0.7-0.5,1.1-0.9C174.8,171.6,174.3,172.1,173.5,172.7z"/>
	<path class="st1" d="M254.3,167.1c0.1-0.3,0.3-0.6,0.4-0.8"/>
	<path d="M254.7,166.3C255.1,165.6,255,165.8,254.7,166.3L254.7,166.3z"/>
	<path d="M222.4,148.9C219.4,151.3,223.6,148.6,222.4,148.9L222.4,148.9z"/>
	<path class="st0" d="M195.6,164.3c0.5,2.6,0.5,3.7,2.5,4.2c2,0.5,8.7-0.5,10.6-2.6c1.3-1.5,2-7.9,2-7.9l-4,3.7l-3,0.5l-4-2.1
		c-0.5-1.6-2-4.2-2-4.2s-1.5,3.2-2.5,5.8C194.1,164.3,195.1,161.6,195.6,164.3z"/>
	<path class="st0" d="M231.4,200.6c0,0,2-7.7,1.8-8.5c-0.3-0.8-1,0.3-1.8,1.8c-0.6,1.3-1.6,1.2-1.9,2c0-0.3,0-0.5,0-0.8
		c-0.1-1.5,0-3,0.1-4.5c-0.6,3.1-1.2,6.3-1.7,8.7c-1.2,5.8-2.4,8.3-2.4,2.5c0-5.8,0-9.2,0-9.2s-2,2.5-2.4,0.4
		c-0.4-2.1-0.4-2.1-0.4-3.7c0-1.7,0-3.3,0-5.4c0-2.1,1.2-1.2,2.4-2.9c0.6-0.8,1.4-2.5,2.1-4.2c-0.3-0.9-0.5-1.6-0.5-1.6l-1.5,3.1
		l-3.3,2.7c0,0-7.8,29.7-9.7,36.7c-1.9,7-2.6,10.6-0.6,10.8c1.7,0.2,4.2-0.6,6.5-2c2.8-1.5,5.5-3.5,6.4-4.7
		C225.9,219.9,231.4,200.6,231.4,200.6z"/>
	<path class="st0" d="M142.6,121.7c7.5-0.6,17.2-2.5,17.2-2.5l14.2-1.9c0,0-0.6-1-5.4-2.2c-4.8-1.3-5.7-2.5-6.3-1.3
		c-0.6,1.3-2.7,1.6-2.7,1.6s-2.4,0.3-3.6,0.3c-1.2,0-7.2,0.3-7.2,0.3s-11.5,1.9-13,1.6c-1.5-0.3-13,1.6-16,0.6s2.6,3.7,3.9,4.1
		C128.1,123.9,135,122.4,142.6,121.7z"/>
	<path class="st0" d="M257.7,215.8c0.7-3.7,4-10.9,4-10.9l-0.3-2.5l0.3-1.3c-2.8-12-5.2-25-6.1-36.9c-0.3,0.8-0.8,1.1-1.1,2.3
		c-0.3,1.1,0.5-0.5-0.2,1c0-0.1,0.1-0.2,0.2-0.3c0.1-0.3,0.3-0.6,0.4-0.8c0.2-0.5,0.4-0.7,0,0c-0.1,0.2-0.3,0.5-0.4,0.8
		c-0.1,0.1-0.1,0.3-0.2,0.5c-0.5,1-0.8,1.8-1.1,2.4c-0.2,2.8-0.4,6-0.4,9c0,3.2,0.5,6.9,1,9.8c0.7,0.7,1.1,0.9,0.4,0.8
		c0.4,0.4,0.6,0.8,0.8,0.9c0,0,0,0,0-0.1c0,1.9-0.1,3.3-0.2,3.4c-0.3,0.4,0.3,3.8,0.3,3.8l1.2,5.9L255,207c0,0,1.5,6.5,1.8,8.1
		C257,216.7,257,219.5,257.7,215.8z"/>
	<path d="M319.1,86.1c1.9,0.3,2.7,1,3.7,1.2c1,0.2,2.4-0.2,3-1.9c-0.1-0.5,0-0.8-0.1-1.2c-0.3-0.5-1-1-2.6-0.9
		c-1.7,0.1-6.4,0.9-10.7,2c-0.8,0.4-1.7,0.8-2.5,1.3c0.4,0,0.8,0,1.2-0.1C314.2,86.2,317.1,85.7,319.1,86.1z"/>
	<path class="st0" d="M283.7,106.7c-0.8,1.5-2.7,5.4-3,6.8c-0.3,1.2-1.2,3.2-1.5,1.2c-0.2-2.1-3,2.3-3.2,3.6c-0.2,1.3,0,1.6-1.2,3.4
		c-0.3,0.5-0.7,0.7-1.1,0.9c-0.2,0.3-0.4,0.6-0.7,1c-0.6,1.4-1.3,3.4-1.3,4.9c0,2.6,0.1,3.1,1,3.7c0.2,0.1,0.4,0.2,0.6,0.3
		c3.4,0.1,10.3-4.9,6-1.2c-2.9,2.5-7.5,3.7-8.9,2.2c-0.1-0.1-0.2-0.2-0.3-0.3c-1.1,0.6-3,2-4.3,4.3c-0.3,0.7-1,2.7-0.5,4.4
		c0.5,2,0.3,1.8,1.8,3.5c0.7,0.8,1.4,1.3,2,1.6c-0.4,0.6-0.8,1.2-0.1,1.1c0.6-0.1,1-0.4,1.3-0.6c0.1,0,0.2,0.1,0.3,0.1c0,0,0,0,0,0
		c-0.1,0.3-0.4,0.8-1,1.4c-1.2,1.2-2.2,1.5-3.4,1.1c-0.8-0.3-1.7-1.2-2.2-1.8c0,0.1,0,0.2,0.1,0.3c0,0.1,0,0.1,0.1,0.2
		c0.3,0.8,0.7,1.6,1.1,2.2c2.4,3.6,13-3.1,13-3.1s-7.4,7.5-11.9,8.9c-1.9,0.6-3.1,0.1-4-0.7c0.2,1,0.5,2.7,1.1,3.7
		c0.7,1.3,1.6,2,0.5,1.5c-1-0.5-1.4-1.3-0.7,0.5c0.1,0.2,0.1,0.4,0.2,0.5c0.1,0.1,0.2,0.5,0,0c0,0-0.1,0,0,0.4
		c0.2,1.3-2.2-3.1-1.6-1.1s-0.5-0.4,0.2,1.3c0.7,1.6,1,0.5,0.7,1.6c0,0.1,0,0.1-0.1,0.2c1,1,2.2,1.8,3.5,1.8c3.3,0,5.5-1.2,5.5-1.2
		s-0.6,1.6-1.5,3.1c1.4,1.1,3.7,2.7,5.6,2.9c4.3,0.6,9.7-1.3,11.8-4.5c2-3.2,3-4.5,3-4.5s0.9,1.6,0.3,3.9c0,0.7-0.1,1.4-0.3,1.8
		c-0.3,0.5-0.8,1.2-1.1,1.9c0.7,1.6,2.1,4.7,4.2,5.8c2.8,1.5,6.7,2.8,8.3,1.9c1.6-0.9-2.2,1.5-4.9,1.5c-1.8,0-3.5-0.4-4.3-0.7
		c1,1.1,2.1,2,2.9,2.7c0.8,0.5,1.7,1,2.6,1.2c3.9,0.9,6.7,1.1,10.5-1.5c2.1-1.4,3.4-2.5,4.3-3.3l-0.4-0.4c-3.2,1.7-2.4-0.4-3.9-0.4
		c-0.8,0-1.2,0.4-1.6,0.6c-0.8-1-1.9-2.6-3.1-4.4c-0.1-0.2-0.3-0.4-0.4-0.6c0.3-0.4,0.6-0.8,0.9-1.1l-1.1-2.1c0,0,0.2-1.3,2.5,0.6
		s6.9,3,12.3,1.7c4.7-1.2,5.3-3.9,5.4-4.6c-0.1-0.1,0-0.2,0-0.2s0,0.1,0,0.2c0.1,0.2,0.8,0.4,3.1,0.8c3.8,0.6,8.3-0.4,11.9-3.8
		c0.2-0.2,0.4-0.4,0.6-0.6c2.3-3.9,1.8-7.3,1.2-9.3c-0.2-0.6-0.4-1-0.5-1.3c-1.6,0.3-3.2,0.5-4.1,0.1c-2.3-0.9-2.3-0.9-6-4.5
		c-3.7-3.6-6.9-7.8-4.9-5.7c2,2.1,2.3,2.1,4.9,3.6c2.6,1.5,2,1.2,3.7,1.5c1.7,0.3,1.7,0.3,1.7,0.3c0.6-0.1,1-0.2,1.4-0.2
		c0.1-0.3,0.1-0.7,0.2-1.1c0.2-1.7,0-1.2-0.2-1.7c-0.2-0.6-0.7,0.2,0.2-1.5l-2,1.2c0,0,1.3-1.4,1.8-3.9c0.3-1.3,0-2.4-0.3-3.2
		c-0.7,0.4-1.6,0.6-1.9,0.8c-0.6,0.2-1.9,0-2.9-0.2c-1-0.2-1.8-0.7-2.5-0.9c-0.6-0.2-1-0.6-1.4-0.9c-0.4-0.3-1.7-1.2-1.7-1.2
		s2.1,0.7,3,0.9c1,0.2,1,0.1,1.6,0.1c0.6,0,2.7-0.2,3.2-1.5c0,0,0,0,0,0c0,0,0,0,0,0s-0.1-0.9-0.7-2.1c-0.5-0.7-1-1.3-1.5-2
		c-0.2-0.2-0.4-0.4-0.7-0.7c-2.7-2.5-9.5-5.3-12.6-8.8c-3.2-3.5-3.3-3-3.7-6.5c-0.3-2.5-0.1-5.5,1.1-8.5c0.2-0.8,0.4-1.6,0.8-2.3
		c1.7-3.5,2.8-4.2,4.3-5c1.3-0.8,4.7-1.8,5.5-2c0.7-0.4,1.4-0.7,2-1.1c1.2-0.8,2.3-1.7,3.2-2.5c1.2-1.4,2.7-3.1,2.7-3.1l0.6-0.4
		c3.2-1.1,6.8-2.4,10.1-3.9c3.1-1.3,5.1,0.5,5.1,0.5s-1.3-2.9-3.2-2.9s-14.9,0.7-14.9,0.7s-1.4-4-3.6-4.5
		c-2.2-0.6-17.5-1.2-25.4,4.2c-6.9,4.7-10.5,11.6-11.3,13.3c-0.4,0.5-0.8,1.1-1.2,1.7C288,101.2,285.9,103.9,283.7,106.7z
		 M312.4,85.2c4.3-1,9.1-1.9,10.7-2c1.6-0.1,2.3,0.4,2.6,0.9c0.1,0.4,0,0.8,0.1,1.2c-0.6,1.8-2,2.1-3,1.9c-1-0.2-1.8-0.8-3.7-1.2
		c-1.9-0.3-4.8,0.2-8.1,0.3c-0.4,0-0.8,0-1.2,0.1C310.7,86,311.5,85.6,312.4,85.2z M311.5,165.8c-1.2,1.5-4.8,1.5-5.8,1.3
		c-1-0.3-2.2-0.8-3.1-1.8c-1-1-1.7-1.5-2.2-2.8c-0.5-1.3,1.2,0.5,1.2,0.5s-1-1.5-2.2-4.6c-1.2-3-0.7-6.8-0.7-6.8s0.2,2.5,3.4,7.6
		s8.2,5.3,8.2,5.3c1.9,0,3.4-4.3,3.4-4.3S312.7,164.3,311.5,165.8z"/>
	<path d="M334.7,148.2c0.1,0,0.2,0,0.3-0.1C334.9,148.1,334.8,148.2,334.7,148.2z"/>
	<path d="M333.6,148.4c0,0,0.1,0,0.1,0C333.7,148.4,333.6,148.4,333.6,148.4z"/>
	<path class="st0" d="M269,179.9c1.2,2,2.5,2.7,2.5,2.7s-0.8,0.2-0.2,0.9c0.2,0.2,0.6,0.5,1.1,0.9c0.7,0,1.5,0,2.6-0.2
		c0.1,0,0.2,0,0.3-0.1c2.3-1,4.6-2.5,5.7-3.8c1.9-2.3-1.6-1-5.1-1c-2.2,0-5.4-1.8-7.6-3.4C268.3,176.9,268.2,178.6,269,179.9z"/>
	<path class="st0" d="M324.8,183.1c0,0,0-0.2,0-0.6l0,0l0,0c-0.1-0.8-0.2-2.3-0.9-2.1c-0.9,0.2-3.9-1-3.9-1s-0.2,0.8-0.7,1.7
		c-0.5,0.8-1.6,1.7-2.7,3.5c-0.9,1.4-0.5,2.3-2,2.9c-1.6,0.6-3.6,0.2-3.6,0.2s2,3.5,3.2,4.1c1.1,0.6,5,0.8,7-1.4
		C324.1,187.2,324.8,183.1,324.8,183.1z"/>
	<path d="M263.5,162.3C263.7,162.9,263.6,162.4,263.5,162.3L263.5,162.3z"/>
	<path d="M310.3,164.5c0,0-5.1-0.3-8.2-5.3s-3.4-7.6-3.4-7.6s-0.5,3.8,0.7,6.8c1.2,3,2.2,4.6,2.2,4.6s-1.7-1.8-1.2-0.5
		c0.5,1.3,1.2,1.8,2.2,2.8c1,1,2.2,1.5,3.1,1.8c1,0.3,4.6,0.3,5.8-1.3c1.2-1.5,2.2-5.6,2.2-5.6S312.2,164.5,310.3,164.5z"/>
	<path class="st0" d="M300.2,187.7c-1.5-0.3-5.5-4.2-5.5-4.2l0.4,1.8l-4.2-1.5c0,0-1.5-1.3-3.5-3.2c-2-1.8-3-5.5-2.5-2.4
		s2,10.2,5.8,12.1c3,1.5,4.9,0.6,5.5,0.2c0.4,1.3,1,2.7,2,4c2.5,3.4,4.3,6.3,7.5,3.7c3.3-2.6,3.8-5.8,3.8-5.8s-1,0-3,0
		c-2,0,0,2.1-2,0c-2-2.1-1.3-0.5-2-2.1C301.2,187.5,301.7,188,300.2,187.7z"/>
	<path d="M323.5,167c0-0.1,0-0.2,0-0.2S323.4,166.9,323.5,167z"/>
	<path class="st0" d="M324.6,178.7c1.3,0.3,2.7,0.4,4.2,0.2c0.8-0.2,1.5-0.6,2-0.9c1.1-0.8,2.1-2.1,2.3-4.3c0.2-1.4,0.2-2.5,0.1-3.3
		c-0.5,0.2-1.1,0.3-1.6,0.4c-3.6,0.4-7.1-0.8-7.1-0.8s-0.4,1.2-2,2.5c-1.6,1.2-4.3,2.9-4.3,2.9S321,177.8,324.6,178.7z"/>
	<path class="st0" d="M270.8,282.9c-1.3,0.4-2.2,4.2-2.7,6.7c-0.5,2.5-0.6,4.9-0.4,5.6s1.8-0.5,2.4,1.4c0.3,1,2.5-2.8,2.8-4.9
		c0.3-2.1,0.4-4.9,0.1-6S272.5,282.4,270.8,282.9z"/>
	<path class="st0" d="M283.5,284.2c-1.9,1.3-1.4,0.8-0.8,1.8c0.6,1.1,2.4,2.2,3.5,2.8c1,0.6,3.6,2,4.4,2.5c0.6,0.4,1.7,0.8,2.3,0.3
		c0.6-0.5,0.7,0.3,0.5,0.8c-0.1,0.4,0.8,0.3,1.1,0.4c0.2,0,0.7,0.2,0.7,0.2s-0.6-1.1-0.5-1.5c0.1-1-0.1-1.8-1.2-3.2
		C292.3,286.9,286.2,282.4,283.5,284.2z"/>
	<path class="st0" d="M270,283c0.1-0.2,0.2-0.3,0.3-0.5c-2,1-4.5,1.8-7.4,1.4c-1.1-0.1-1.9-0.6-2.5-1.2c-0.6,0.1-1.1,0.2-1.6,0.3
		c-3.3,0.9-8.6,2-9.9,3.3c-1.3,1.2-1.8,1.8-1.6,1.9c0.3,0.1,0.7-0.2,0.8,0.6s0.1,1.2,0.6,1.2c0.5,0,4.4-0.5,6.8-1.7
		c2.4-1.2,6.4-1.8,7.9-2.1c1.5-0.3,1.7-0.8,3-1.8C268,283.1,269.6,283.8,270,283z"/>
	<path class="st0" d="M343.9,284.7c-1.6-0.5-1.9,1.6-2.1,2.6c-0.2,1-0.1,3.5,0.1,5.4c0.2,1.9,2.3,5.4,2.6,4.5c0.6-1.8,2-0.6,2.2-1.3
		c0.2-0.6,0.1-2.9-0.3-5.1C345.9,288.5,345.1,285.1,343.9,284.7z"/>
	<path class="st0" d="M332.5,282.9c-3.1-2-10.1,2.9-11.3,4.5s-1.5,2.4-1.4,3.5c0.1,0.5-0.6,1.6-0.6,1.6s0.6-0.2,0.9-0.2
		c0.3,0,1.4,0,1.2-0.4c-0.2-0.6-0.1-1.4,0.6-0.9c0.7,0.5,1.9,0,2.6-0.4c0.9-0.5,3.8-2.1,5-2.7c1.2-0.6,3.3-1.9,4-3
		C334,283.7,334.6,284.3,332.5,282.9z"/>
	<path class="st0" d="M353.7,282c-0.6,0.7-1.4,1.3-2.4,1.4c-1.7,0.3-3.8-1.1-5.4-2.5c-0.2,0-0.3,0-0.3,0s-0.3-0.4-0.8-0.4
		c-0.5,0,0,0,0.2,0.9c0.3,0.9,1.8,0.3,3.3,1.7c1.1,1.1,1.3,1.6,2.6,2c1.4,0.4,5.1,1.4,7.2,2.7c2.1,1.3,5.8,2.2,6.2,2.3
		c0.4,0,0.5-0.4,0.6-1.1c0.2-0.7,0.6-0.5,0.8-0.5c0.3,0-0.2-0.6-1.3-1.9c-1.1-1.3-6-2.9-9-4C355,282.3,354.4,282.1,353.7,282z"/>
	<path class="st0" d="M343.3,200c-4.1-2.1-6.7-2.8-10.3-2.1c-1.7,0.2-3.3,0.7-5.1,1.5c-5.2,2.3-8.1,7.4-8.9,10.5
		c-0.2,1-0.4,4.1-0.6,8.1c0.4,0.3,0.9,0.5,1.7,0.2c2.2-0.7,3.1-3.4,3.1-3.4s0,3-0.3,5.5c0.3,0.1-0.3,2.4,1.4,4.3
		c2,2.4,4.1,1.1,5.4-0.1c-0.1-1.3-0.1-2-0.1-2l0.7,1.4c0,0,0,0,0,0c-0.2-0.6-0.3-0.9-0.3-0.9l-0.2-2.8l0.1-2.3c0,0,0.4,1.4,0.9,2.8
		s0.6,0.6,0.6,0.6s0.2-1.2,0.8,0.4s1.7,2.6,2.3,3.7c0.6,1.1,1.7,1.9,3.1,3.1h-1c0,0-0.9-0.2-1.1-0.5c-0.2-0.3-0.3,0.7-0.3,0.7
		l0.6,0.6l0.1,0.8c0,0-2.7-0.9-3.8-2c-0.1-0.1-0.2-0.2-0.3-0.4c0.1,1.7,0.2,3.7,0.4,4.4c0.2,1.2,2,2.6,2,2.6v1c0,0,0,0.6,0.6,1
		c0.6,0.4,0.4,2.1,0.4,2.1s-1.4-0.9-1.8-1.5s-0.4,0.6,0.1,2c0.2,0.5,0.4,1.1,0.6,1.7c0.2,0.3,0.5,0.6,0.7,0.9c1.7,2,3.1,2.8,4.2,3.2
		c0.4,0,0.7-0.1,0.9-0.1c0.4-0.2,0.7-0.4,1.1-0.6c0.5-0.3,0.9-0.7,1.3-1c0.2,0.7,0.4,1.4,0.7,2.3c0.4,0.4,0.8,0.9,1.4,1.1
		c1.5,0.7,3.1,0.3,3.1,0.3s0,0.3,0,0.8h0.4c0.2,1.4,0.5,2.9,0.7,4.2c0.6,0.7,1.1,1.4,1.3,2c0.4,1.6,0.2,0.8,0.6,2.4
		c0.4,1.6,0,0,0.2,0.6c0.2,0.6,0,1,1.5,3.2c0,0-1.5-0.4-0.6,1c1,1.4,1.9,1.8,0.8,1.4c-0.5-0.2-1.3-1-2.1-1.8c0.8,2.9,2.4,4.9,3.3,6
		c1.1,0.2,2,0.1,2.4,0c-0.4-1.8-2.6-13.3-3.3-18.5c-0.6-4.7-1.8-11.8-2.2-14.3c-1.1-1.1-2.4-2.4-3.2-3.4c-1.7-2-1.3-3.6-1.7-4.6
		c-0.4-1,0.4-1.6-0.8-3c-1.1-1.4-1.9-4-1.9-4l1.7,1.8c1.3,1.1,1.4,0.5,1.4,0.1c0,0,0-0.1,0-0.1c-0.1-0.3,0-0.1,0,0.1
		c0.3,0.9,2.1,3.7,3.6,5.5c1.5,1.8,3.6,1,3.6,1l0.1,0.1c-0.4-3.4-1.3-8.9-1.8-11.7C350.9,212.2,348.1,202.5,343.3,200z"/>
	<path class="st0" d="M260.2,242.7c-0.1,0.4-0.1,0.8-0.2,1.3c0.4,0.5,0.9,0.8,1.8,0.6c2.5-0.6,4.7-3.5,5.8-5.8
		c1.1-2.3,2.5-4.9,3.3-9.3c0.8-4.4,1.9-3.8,1.9-3.8s0.1,1.1,0.1,2.6c0-0.2,0.1-0.3,0.1-0.3s0.6,5.2,0.3,9c0,0.1,0,0.2,0,0.3
		c2.1-1.4,5.2-3.6,6.3-5.3c1-2.5,0.5-1.6,1-2.8c0.5-1.2,0.2-0.9,0-1.6c0-0.1,0-0.2,0-0.3c-0.5,0.4-0.9,0.7-1.2,0.9
		c-0.6,0.4-1.1,0.5-1,0.2c-0.5,0.2-0.8,0.2-0.4-0.2c0.7-0.6,2.1-2.9,2.7-3.8c0-0.1-0.1-0.3-0.1-0.4l0.2-1.1l-1.5-0.2
		c0.7-0.4,0.5-0.7,3.4-3c0.7-0.5,1-0.9,1.3-1.2c0-0.2,0.1-0.3,0.1-0.4l0-0.3c0,0,2.3,2.1,3.9,2.9c0.3,0.1,0.5,0.2,0.6,0.3
		c0.7,0.2,2.1,0.7,1.5,1c-0.7,0.4-2.2,0.5-2.2,0.5l-1,0.7c0,0-1.4-0.5-1.4,0.4c0,0.4,0,1.5-0.1,2.8c0.2,0.9,0.4,2,0.6,3.3
		c0.5,3.1,1.9,4.5,2.9,5.1c0.5-0.1,0.9-0.3,1.4-0.7c0.1,2.3,0.2,4.6,0.3,5.6l3.5,5.3c-0.1-8.5,0.1-20,0.2-24.5
		c0.3-2.7-0.5-7.8-1.8-11.9c-1.8-5.6-7.4-8.9-10.8-10.2c-3.4-1.3-8.8,0.6-11.8,3.2c-3,2.6-6.4,11.2-7,14c-0.2,1-0.1,1.8,0,2.3
		c-0.2,1.4-0.4,3-0.6,4.7c0.5,1.1,1,2.4,0.8,3.2c-0.3,1.7-0.3,4.4-1.1,8.4c-0.4,1.7-0.9,3.3-1.3,4.5c-0.1,0.5-0.2,1.2-0.4,2
		C260.2,241.6,260.2,242.2,260.2,242.7z"/>
	<path d="M283.8,219l0-0.5c0,0-0.1,0.1-0.1,0.1C283.8,218.7,283.8,218.9,283.8,219z"/>
	<path class="st0" d="M280.1,250.9c-0.2,1.5-0.5,1.3-0.9,2c-0.4,0.7-0.4-0.6-1.1,0.2c-0.7,0.7-1.4,0.1-1.6,0.9
		c-0.9,3.1-0.7,2.2-1.1,4.3c-0.4,2,0.2,3.1-0.9,3.5c-1.1,0.4-1.6,1.1-1.6,1.1s-0.4,0.6-0.7,1.7s0.2,1.3-0.9,2.4
		c-1.1,1.1-1.2,0.9-1.8,1.3c-0.5,0.4-1.8,1.7-0.7-1.1c1.1-2.8,0.4-4.3-0.2-3.5c-0.5,0.7,0-1.1-1.6,1.3c-1.6,2.4-3.9,3.5-3.9,3.5
		l-2.1,5.7c0,0.6,0.6,3.5,2.5,4.1c2.1,0.7,3.2,1.7,8.1-3.1c4.9-4.8,5.8-9.6,7.1-15.9C280.1,252.9,280.3,249.4,280.1,250.9z"/>
	<path class="st0" d="M258,274.1c2.7-3,5.6-8.9,7.7-13.8c-1.7,2-3.8,4.5-5,5.4c-0.3,0.2-0.4,0.4-0.6,0.5c-0.3,0.5-0.5,0.4,0,0
		c0.3-0.5,0.9-1.4,1.4-3.1c1.1-3.8,1.7-6.4,1.7-6.4s1.2,0.2,2.6-1.7c0.1-0.7,0.3-1.4,0.5-2.4c0.1-0.3,0.1-0.6,0.2-0.9
		c-0.8,1-1.7,2-2.4,2.7c-2,2.1-4.1,1.1-4.1,1.1s-1.4,4.6-2,5.8c-0.6,1.2-0.2,2.3-0.7,3.7c-0.6,1.3,0.4,1.7,0.4,1.7s-0.4,0.8-1.5,2.7
		c-0.3,0.5-1.1,0.6-1.7,2.5c-0.6,1.9-0.6,3.9-0.7,5.2C253.6,278.5,254.2,278.3,258,274.1z"/>
	<path class="st0" d="M290.6,242.8c0,0.7,0,1.5,0,2.2l3.5,7.3c0-1.1-0.1-2.6-0.1-4.2L290.6,242.8z"/>
	<path class="st0" d="M354,275.4c0,0-0.6-0.6-1.5-0.9c-1.7-0.5-2.4-0.4-1.9-1.2c0.5-0.9,0.8,0,0.5-0.9c-0.3-0.9-1-1.1-1-1.1
		c-1.4-1.4-0.2-0.7-1.4-1.4c-1.2-0.7-1.4,0-1.9-1.4c-0.5-1.4-0.5-1.1-1.2-3.4c-0.7-2.3-1.9-1.6-2.9-2.5c-1-0.9-2.9-7.1-2.9-7.1
		l1.2,9.2c0,0,1.2,7.6,4.6,11c3.4,3.4,5.2,4.4,6.6,3.4C353.7,278,354,275.4,354,275.4z"/>
	<path d="M346.1,221.1c0,0,0,0.1,0,0.1C346.1,221,346,220.8,346.1,221.1z"/>
	<path d="M324.2,244.2c0,0,0,0.2,0,0.4C324.3,244.3,324.2,244.2,324.2,244.2z"/>
	<path class="st0" d="M319.5,222.3l0.2,21c0,3.6-0.1,6.8-0.1,8.5c-0.2,4.7-1,6.3-0.2,5.9c0.7-0.4,2.3-1.4,2.8-2.6
		c0.5-1.2-0.1-0.6-0.1-1.4c0-0.7,0.4-2.6,0-2.8c0.6-0.7,1.2-1.6,1.5-2.3c0.6-1.5,0.7-3.3,0.7-4.1c-0.1,0.2-0.2,0.5-0.6,0.9
		c-0.9,0.8-0.6-0.6-0.6-0.6s-0.3-0.9,0.1-1.2c0.4-0.3,0.4-0.1,0.7-1.5c0.3-1.3,0.4-1.6,0.4-2.5l-0.3-2.9c0,0-0.8-1.2-0.7-1.6
		c0.1-0.4,0.3-2.5,0.3-2.5s0.3-0.7,0.4-1.2c0.1-0.4-0.6-3.6-0.6-3.6L319.5,222.3z"/>
	<path d="M260.2,266.2C259.7,266.6,259.9,266.7,260.2,266.2L260.2,266.2z"/>
</g>
<polygon points="361.6,186.4 362.9,187.6 362.5,188 361.9,188.1 "/>
<path d="M170.2,141c0,0-1,0.9-1.8,1.3c-0.7,0.5,0.7,1.1,0.7,1.1l3.3-1.1L170.2,141z"/>
</svg>
